<svg width="232" height="123" viewBox="0 0 232 123" fill="none" xmlns="http://www.w3.org/2000/svg">
<path fill-rule="evenodd" clip-rule="evenodd" d="M0.99992 1.99998H231V121.506H0.99992V1.99998Z" fill="white"/>
<path d="M15.935 35.155C16.0317 35.155 16.1083 35.1833 16.165 35.24C16.2217 35.2967 16.25 35.37 16.25 35.46V36H11.47V35.695C11.47 35.6317 11.4833 35.5667 11.51 35.5C11.5367 35.4333 11.5783 35.3717 11.635 35.315L13.93 33.01C14.12 32.8167 14.2933 32.6317 14.45 32.455C14.6067 32.275 14.74 32.095 14.85 31.915C14.96 31.735 15.045 31.5533 15.105 31.37C15.165 31.1833 15.195 30.985 15.195 30.775C15.195 30.565 15.1617 30.3817 15.095 30.225C15.0283 30.065 14.9367 29.9333 14.82 29.83C14.7067 29.7267 14.5717 29.65 14.415 29.6C14.2583 29.5467 14.09 29.52 13.91 29.52C13.7267 29.52 13.5583 29.5467 13.405 29.6C13.2517 29.6533 13.115 29.7283 12.995 29.825C12.8783 29.9183 12.78 30.03 12.7 30.16C12.62 30.29 12.5633 30.4333 12.53 30.59C12.49 30.7067 12.435 30.785 12.365 30.825C12.2983 30.8617 12.2033 30.8717 12.08 30.855L11.615 30.775C11.6617 30.4483 11.7517 30.16 11.885 29.91C12.0217 29.6567 12.1917 29.445 12.395 29.275C12.6017 29.105 12.8367 28.9767 13.1 28.89C13.3633 28.8 13.6483 28.755 13.955 28.755C14.2583 28.755 14.5417 28.8 14.805 28.89C15.0683 28.98 15.2967 29.1117 15.49 29.285C15.6833 29.455 15.835 29.6633 15.945 29.91C16.055 30.1567 16.11 30.4367 16.11 30.75C16.11 31.0167 16.07 31.265 15.99 31.495C15.91 31.7217 15.8017 31.9383 15.665 32.145C15.5283 32.3517 15.37 32.5533 15.19 32.75C15.0133 32.9467 14.825 33.145 14.625 33.345L12.735 35.275C12.8683 35.2383 13.0033 35.21 13.14 35.19C13.2767 35.1667 13.4083 35.155 13.535 35.155H15.935ZM20.4508 33.415V30.46C20.4508 30.3733 20.4541 30.2783 20.4608 30.175C20.4674 30.0717 20.4774 29.9667 20.4908 29.86L17.8808 33.415H20.4508ZM22.3158 33.415V33.925C22.3158 33.9783 22.2991 34.0233 22.2658 34.06C22.2358 34.0967 22.1874 34.115 22.1208 34.115H21.2308V36H20.4508V34.115H17.2708C17.2041 34.115 17.1458 34.0967 17.0958 34.06C17.0491 34.02 17.0191 33.9717 17.0058 33.915L16.9158 33.46L20.4008 28.835H21.2308V33.415H22.3158ZM27.5366 35.155C27.6332 35.155 27.7099 35.1833 27.7666 35.24C27.8232 35.2967 27.8516 35.37 27.8516 35.46V36H23.0716V35.695C23.0716 35.6317 23.0849 35.5667 23.1116 35.5C23.1382 35.4333 23.1799 35.3717 23.2366 35.315L25.5316 33.01C25.7216 32.8167 25.8949 32.6317 26.0516 32.455C26.2082 32.275 26.3416 32.095 26.4516 31.915C26.5616 31.735 26.6466 31.5533 26.7066 31.37C26.7666 31.1833 26.7966 30.985 26.7966 30.775C26.7966 30.565 26.7632 30.3817 26.6966 30.225C26.6299 30.065 26.5382 29.9333 26.4216 29.83C26.3082 29.7267 26.1732 29.65 26.0166 29.6C25.8599 29.5467 25.6916 29.52 25.5116 29.52C25.3282 29.52 25.1599 29.5467 25.0066 29.6C24.8532 29.6533 24.7166 29.7283 24.5966 29.825C24.4799 29.9183 24.3816 30.03 24.3016 30.16C24.2216 30.29 24.1649 30.4333 24.1316 30.59C24.0916 30.7067 24.0366 30.785 23.9666 30.825C23.8999 30.8617 23.8049 30.8717 23.6816 30.855L23.2166 30.775C23.2632 30.4483 23.3532 30.16 23.4866 29.91C23.6232 29.6567 23.7932 29.445 23.9966 29.275C24.2032 29.105 24.4382 28.9767 24.7016 28.89C24.9649 28.8 25.2499 28.755 25.5566 28.755C25.8599 28.755 26.1432 28.8 26.4066 28.89C26.6699 28.98 26.8982 29.1117 27.0916 29.285C27.2849 29.455 27.4366 29.6633 27.5466 29.91C27.6566 30.1567 27.7116 30.4367 27.7116 30.75C27.7116 31.0167 27.6716 31.265 27.5916 31.495C27.5116 31.7217 27.4032 31.9383 27.2666 32.145C27.1299 32.3517 26.9716 32.5533 26.7916 32.75C26.6149 32.9467 26.4266 33.145 26.2266 33.345L24.3366 35.275C24.4699 35.2383 24.6049 35.21 24.7416 35.19C24.8782 35.1667 25.0099 35.155 25.1366 35.155H27.5366ZM31.2923 35.34C31.5323 35.34 31.749 35.3017 31.9423 35.225C32.139 35.1483 32.3057 35.0417 32.4423 34.905C32.5823 34.7683 32.689 34.6067 32.7623 34.42C32.839 34.2333 32.8773 34.03 32.8773 33.81C32.8773 33.5767 32.8407 33.3667 32.7673 33.18C32.694 32.99 32.589 32.83 32.4523 32.7C32.319 32.5667 32.159 32.465 31.9723 32.395C31.7857 32.325 31.5807 32.29 31.3573 32.29C31.1173 32.29 30.9007 32.3317 30.7073 32.415C30.514 32.495 30.349 32.605 30.2123 32.745C30.079 32.8817 29.9757 33.0417 29.9023 33.225C29.8323 33.405 29.7973 33.5933 29.7973 33.79C29.7973 34.02 29.8307 34.23 29.8973 34.42C29.964 34.61 30.0607 34.7733 30.1873 34.91C30.3173 35.0467 30.474 35.1533 30.6573 35.23C30.844 35.3033 31.0557 35.34 31.2923 35.34ZM30.7723 31.52C30.709 31.6 30.6473 31.6783 30.5873 31.755C30.5307 31.8283 30.4757 31.9017 30.4223 31.975C30.5923 31.8583 30.779 31.7683 30.9823 31.705C31.1857 31.6417 31.4073 31.61 31.6473 31.61C31.9373 31.61 32.2107 31.6583 32.4673 31.755C32.724 31.8483 32.9473 31.9867 33.1373 32.17C33.3307 32.35 33.484 32.5733 33.5973 32.84C33.7107 33.1033 33.7673 33.405 33.7673 33.745C33.7673 34.075 33.7073 34.3817 33.5873 34.665C33.4673 34.9483 33.299 35.195 33.0823 35.405C32.869 35.615 32.6107 35.78 32.3073 35.9C32.0073 36.02 31.6757 36.08 31.3123 36.08C30.9523 36.08 30.6257 36.0233 30.3323 35.91C30.039 35.7933 29.789 35.63 29.5823 35.42C29.379 35.2067 29.2207 34.95 29.1073 34.65C28.9973 34.3467 28.9423 34.0083 28.9423 33.635C28.9423 33.3217 29.0107 32.9883 29.1473 32.635C29.2873 32.2783 29.509 31.8983 29.8123 31.495L31.6323 29.05C31.679 28.99 31.7423 28.94 31.8223 28.9C31.9057 28.8567 32.0007 28.835 32.1073 28.835H32.8973L30.7723 31.52ZM39.1381 35.155C39.2348 35.155 39.3115 35.1833 39.3681 35.24C39.4248 35.2967 39.4531 35.37 39.4531 35.46V36H34.6731V35.695C34.6731 35.6317 34.6865 35.5667 34.7131 35.5C34.7398 35.4333 34.7815 35.3717 34.8381 35.315L37.1331 33.01C37.3231 32.8167 37.4965 32.6317 37.6531 32.455C37.8098 32.275 37.9431 32.095 38.0531 31.915C38.1631 31.735 38.2481 31.5533 38.3081 31.37C38.3681 31.1833 38.3981 30.985 38.3981 30.775C38.3981 30.565 38.3648 30.3817 38.2981 30.225C38.2315 30.065 38.1398 29.9333 38.0231 29.83C37.9098 29.7267 37.7748 29.65 37.6181 29.6C37.4615 29.5467 37.2931 29.52 37.1131 29.52C36.9298 29.52 36.7615 29.5467 36.6081 29.6C36.4548 29.6533 36.3181 29.7283 36.1981 29.825C36.0815 29.9183 35.9831 30.03 35.9031 30.16C35.8231 30.29 35.7665 30.4333 35.7331 30.59C35.6931 30.7067 35.6381 30.785 35.5681 30.825C35.5015 30.8617 35.4065 30.8717 35.2831 30.855L34.8181 30.775C34.8648 30.4483 34.9548 30.16 35.0881 29.91C35.2248 29.6567 35.3948 29.445 35.5981 29.275C35.8048 29.105 36.0398 28.9767 36.3031 28.89C36.5665 28.8 36.8515 28.755 37.1581 28.755C37.4615 28.755 37.7448 28.8 38.0081 28.89C38.2715 28.98 38.4998 29.1117 38.6931 29.285C38.8865 29.455 39.0381 29.6633 39.1481 29.91C39.2581 30.1567 39.3131 30.4367 39.3131 30.75C39.3131 31.0167 39.2731 31.265 39.1931 31.495C39.1131 31.7217 39.0048 31.9383 38.8681 32.145C38.7315 32.3517 38.5731 32.5533 38.3931 32.75C38.2165 32.9467 38.0281 33.145 37.8281 33.345L35.9381 35.275C36.0715 35.2383 36.2065 35.21 36.3431 35.19C36.4798 35.1667 36.6115 35.155 36.7381 35.155H39.1381ZM42.8939 35.34C43.1339 35.34 43.3506 35.3017 43.5439 35.225C43.7406 35.1483 43.9072 35.0417 44.0439 34.905C44.1839 34.7683 44.2906 34.6067 44.3639 34.42C44.4406 34.2333 44.4789 34.03 44.4789 33.81C44.4789 33.5767 44.4422 33.3667 44.3689 33.18C44.2956 32.99 44.1906 32.83 44.0539 32.7C43.9206 32.5667 43.7606 32.465 43.5739 32.395C43.3872 32.325 43.1822 32.29 42.9589 32.29C42.7189 32.29 42.5022 32.3317 42.3089 32.415C42.1156 32.495 41.9506 32.605 41.8139 32.745C41.6806 32.8817 41.5772 33.0417 41.5039 33.225C41.4339 33.405 41.3989 33.5933 41.3989 33.79C41.3989 34.02 41.4322 34.23 41.4989 34.42C41.5656 34.61 41.6622 34.7733 41.7889 34.91C41.9189 35.0467 42.0756 35.1533 42.2589 35.23C42.4456 35.3033 42.6572 35.34 42.8939 35.34ZM42.3739 31.52C42.3106 31.6 42.2489 31.6783 42.1889 31.755C42.1322 31.8283 42.0772 31.9017 42.0239 31.975C42.1939 31.8583 42.3806 31.7683 42.5839 31.705C42.7872 31.6417 43.0089 31.61 43.2489 31.61C43.5389 31.61 43.8122 31.6583 44.0689 31.755C44.3256 31.8483 44.5489 31.9867 44.7389 32.17C44.9322 32.35 45.0856 32.5733 45.1989 32.84C45.3122 33.1033 45.3689 33.405 45.3689 33.745C45.3689 34.075 45.3089 34.3817 45.1889 34.665C45.0689 34.9483 44.9006 35.195 44.6839 35.405C44.4706 35.615 44.2122 35.78 43.9089 35.9C43.6089 36.02 43.2772 36.08 42.9139 36.08C42.5539 36.08 42.2272 36.0233 41.9339 35.91C41.6406 35.7933 41.3906 35.63 41.1839 35.42C40.9806 35.2067 40.8222 34.95 40.7089 34.65C40.5989 34.3467 40.5439 34.0083 40.5439 33.635C40.5439 33.3217 40.6122 32.9883 40.7489 32.635C40.8889 32.2783 41.1106 31.8983 41.4139 31.495L43.2339 29.05C43.2806 28.99 43.3439 28.94 43.4239 28.9C43.5072 28.8567 43.6022 28.835 43.7089 28.835H44.4989L42.3739 31.52Z" fill="#808080"/>
<path d="M12.462 17.084C12.462 19.537 14.233 21.132 16.29 21.132C17.742 21.132 18.556 20.296 18.556 20.296H18.578C18.578 20.296 18.567 20.461 18.567 20.626V21H19.777V16.886H17.302V18.107H18.501V19.02C18.501 19.02 17.72 19.834 16.543 19.834C15.08 19.834 13.925 18.734 13.925 17.04C13.925 15.566 14.86 14.356 16.609 14.356C17.852 14.356 18.688 15.104 18.688 15.104L19.392 14.048C19.392 14.048 18.402 13.058 16.488 13.058C14.167 13.058 12.462 14.818 12.462 17.084ZM21.3474 21H22.7664V18.085H24.1304L25.6814 21H27.2654L25.6594 18.085C25.5054 17.81 25.3954 17.7 25.3954 17.7V17.678C26.2204 17.348 26.7154 16.479 26.7154 15.544C26.7154 14.51 26.2204 13.762 25.4394 13.41C25.0984 13.256 24.7134 13.19 23.8664 13.19H21.3474V21ZM22.7664 16.853V14.411H23.8444C24.9554 14.411 25.2744 14.873 25.2744 15.621C25.2744 16.402 24.8014 16.853 24.0424 16.853H22.7664ZM33.1307 21H34.5937L31.8437 13.19H30.3587L27.6087 21H29.0717L29.7317 18.998H32.4707L33.1307 21ZM31.1177 14.543C31.1177 14.543 31.2827 15.313 31.4257 15.753L32.1187 17.843H30.0727L30.7657 15.753C30.9197 15.313 31.0957 14.543 31.0957 14.543H31.1177ZM35.5916 21H37.0106V18.305H38.6056C40.0686 18.305 41.0916 17.249 41.0916 15.731C41.0916 14.213 40.0686 13.19 38.6056 13.19H35.5916V21ZM37.0106 17.073V14.411H38.3636C39.1666 14.411 39.6506 14.928 39.6506 15.731C39.6506 16.545 39.1666 17.073 38.3416 17.073H37.0106ZM42.3484 21H43.7674V17.722H47.3424V21H48.7614V13.19H47.3424V16.501H43.7674V13.19H42.3484V21ZM50.738 21H52.157V13.19H50.738V21ZM55.7496 21H57.1686V14.411H59.7316V13.19H53.1866V14.411H55.7496V21ZM60.7605 21H65.6115V19.779H62.1795V17.678H64.8085V16.457H62.1795V14.411H65.4355V13.19H60.7605V21Z" fill="#1A1A1A"/>
<path fill-rule="evenodd" clip-rule="evenodd" d="M91 1.99998H231V121.506H91V1.99998Z" fill="#242626"/>
</svg>
