<svg width="232" height="124" viewBox="0 0 232 124" fill="none" xmlns="http://www.w3.org/2000/svg">
<path fill-rule="evenodd" clip-rule="evenodd" d="M0.99992 1.00006H231V122.952H0.99992V1.00006Z" fill="white"/>
<path d="M12.81 30.54C13.1833 30.46 13.5267 30.42 13.84 30.42C14.2133 30.42 14.5433 30.475 14.83 30.585C15.1167 30.695 15.355 30.8467 15.545 31.04C15.7383 31.2333 15.8833 31.4617 15.98 31.725C16.08 31.9883 16.13 32.275 16.13 32.585C16.13 32.965 16.0633 33.3083 15.93 33.615C15.8 33.9217 15.6183 34.185 15.385 34.405C15.155 34.6217 14.8833 34.7883 14.57 34.905C14.2567 35.0217 13.9183 35.08 13.555 35.08C13.345 35.08 13.1433 35.0583 12.95 35.015C12.7567 34.975 12.575 34.92 12.405 34.85C12.2383 34.78 12.0833 34.7 11.94 34.61C11.7967 34.52 11.67 34.425 11.56 34.325L11.835 33.945C11.895 33.8583 11.9733 33.815 12.07 33.815C12.1367 33.815 12.2117 33.8417 12.295 33.895C12.3783 33.945 12.48 34.0017 12.6 34.065C12.72 34.1283 12.86 34.1867 13.02 34.24C13.1833 34.29 13.3767 34.315 13.6 34.315C13.85 34.315 14.075 34.275 14.275 34.195C14.475 34.115 14.6467 34.0017 14.79 33.855C14.9333 33.705 15.0433 33.5267 15.12 33.32C15.1967 33.1133 15.235 32.8817 15.235 32.625C15.235 32.4017 15.2017 32.2 15.135 32.02C15.0717 31.84 14.9733 31.6867 14.84 31.56C14.71 31.4333 14.5467 31.335 14.35 31.265C14.1533 31.195 13.9233 31.16 13.66 31.16C13.48 31.16 13.2917 31.175 13.095 31.205C12.9017 31.235 12.7033 31.2833 12.5 31.35L11.94 31.185L12.515 27.835H15.91V28.225C15.91 28.3517 15.87 28.4567 15.79 28.54C15.7133 28.62 15.58 28.66 15.39 28.66H13.14L12.81 30.54ZM20.4508 32.415V29.46C20.4508 29.3733 20.4541 29.2783 20.4608 29.175C20.4674 29.0717 20.4774 28.9667 20.4908 28.86L17.8808 32.415H20.4508ZM22.3158 32.415V32.925C22.3158 32.9783 22.2991 33.0233 22.2658 33.06C22.2358 33.0967 22.1874 33.115 22.1208 33.115H21.2308V35H20.4508V33.115H17.2708C17.2041 33.115 17.1458 33.0967 17.0958 33.06C17.0491 33.02 17.0191 32.9717 17.0058 32.915L16.9158 32.46L20.4008 27.835H21.2308V32.415H22.3158ZM24.4116 30.54C24.7849 30.46 25.1282 30.42 25.4416 30.42C25.8149 30.42 26.1449 30.475 26.4316 30.585C26.7182 30.695 26.9566 30.8467 27.1466 31.04C27.3399 31.2333 27.4849 31.4617 27.5816 31.725C27.6816 31.9883 27.7316 32.275 27.7316 32.585C27.7316 32.965 27.6649 33.3083 27.5316 33.615C27.4016 33.9217 27.2199 34.185 26.9866 34.405C26.7566 34.6217 26.4849 34.7883 26.1716 34.905C25.8582 35.0217 25.5199 35.08 25.1566 35.08C24.9466 35.08 24.7449 35.0583 24.5516 35.015C24.3582 34.975 24.1766 34.92 24.0066 34.85C23.8399 34.78 23.6849 34.7 23.5416 34.61C23.3982 34.52 23.2716 34.425 23.1616 34.325L23.4366 33.945C23.4966 33.8583 23.5749 33.815 23.6716 33.815C23.7382 33.815 23.8132 33.8417 23.8966 33.895C23.9799 33.945 24.0816 34.0017 24.2016 34.065C24.3216 34.1283 24.4616 34.1867 24.6216 34.24C24.7849 34.29 24.9782 34.315 25.2016 34.315C25.4516 34.315 25.6766 34.275 25.8766 34.195C26.0766 34.115 26.2482 34.0017 26.3916 33.855C26.5349 33.705 26.6449 33.5267 26.7216 33.32C26.7982 33.1133 26.8366 32.8817 26.8366 32.625C26.8366 32.4017 26.8032 32.2 26.7366 32.02C26.6732 31.84 26.5749 31.6867 26.4416 31.56C26.3116 31.4333 26.1482 31.335 25.9516 31.265C25.7549 31.195 25.5249 31.16 25.2616 31.16C25.0816 31.16 24.8932 31.175 24.6966 31.205C24.5032 31.235 24.3049 31.2833 24.1016 31.35L23.5416 31.185L24.1166 27.835H27.5116V28.225C27.5116 28.3517 27.4716 28.4567 27.3916 28.54C27.3149 28.62 27.1816 28.66 26.9916 28.66H24.7416L24.4116 30.54ZM31.3023 34.37C31.5357 34.37 31.744 34.3383 31.9273 34.275C32.114 34.2083 32.2707 34.1167 32.3973 34C32.5273 33.88 32.6257 33.7383 32.6923 33.575C32.7623 33.4083 32.7973 33.225 32.7973 33.025C32.7973 32.7783 32.7557 32.5683 32.6723 32.395C32.5923 32.2183 32.4823 32.075 32.3423 31.965C32.2057 31.855 32.0473 31.775 31.8673 31.725C31.6873 31.6717 31.499 31.645 31.3023 31.645C31.1057 31.645 30.9173 31.6717 30.7373 31.725C30.5573 31.775 30.3973 31.855 30.2573 31.965C30.1207 32.075 30.0107 32.2183 29.9273 32.395C29.8473 32.5683 29.8073 32.7783 29.8073 33.025C29.8073 33.225 29.8407 33.4083 29.9073 33.575C29.9773 33.7383 30.0757 33.88 30.2023 34C30.3323 34.1167 30.489 34.2083 30.6723 34.275C30.859 34.3383 31.069 34.37 31.3023 34.37ZM31.3023 28.445C31.089 28.445 30.9007 28.4767 30.7373 28.54C30.5773 28.6033 30.4423 28.69 30.3323 28.8C30.2257 28.91 30.144 29.0383 30.0873 29.185C30.034 29.3317 30.0073 29.4883 30.0073 29.655C30.0073 29.8183 30.0307 29.9767 30.0773 30.13C30.124 30.2833 30.199 30.42 30.3023 30.54C30.4057 30.6567 30.539 30.7517 30.7023 30.825C30.869 30.895 31.069 30.93 31.3023 30.93C31.5357 30.93 31.734 30.895 31.8973 30.825C32.064 30.7517 32.199 30.6567 32.3023 30.54C32.4057 30.42 32.4807 30.2833 32.5273 30.13C32.574 29.9767 32.5973 29.8183 32.5973 29.655C32.5973 29.4883 32.569 29.3317 32.5123 29.185C32.459 29.0383 32.3773 28.91 32.2673 28.8C32.1607 28.69 32.0257 28.6033 31.8623 28.54C31.7023 28.4767 31.5157 28.445 31.3023 28.445ZM32.3273 31.265C32.774 31.3917 33.1173 31.6033 33.3573 31.9C33.5973 32.1967 33.7173 32.5767 33.7173 33.04C33.7173 33.3533 33.6573 33.6367 33.5373 33.89C33.4207 34.14 33.2557 34.3533 33.0423 34.53C32.8323 34.7067 32.579 34.8433 32.2823 34.94C31.9857 35.0333 31.659 35.08 31.3023 35.08C30.9457 35.08 30.619 35.0333 30.3223 34.94C30.0257 34.8433 29.7707 34.7067 29.5573 34.53C29.344 34.3533 29.179 34.14 29.0623 33.89C28.9457 33.6367 28.8873 33.3533 28.8873 33.04C28.8873 32.5767 29.0073 32.1967 29.2473 31.9C29.4873 31.6033 29.8307 31.3917 30.2773 31.265C29.9007 31.125 29.6157 30.9167 29.4223 30.64C29.2323 30.36 29.1373 30.0267 29.1373 29.64C29.1373 29.3767 29.189 29.13 29.2923 28.9C29.3957 28.67 29.5423 28.47 29.7323 28.3C29.9223 28.13 30.149 27.9967 30.4123 27.9C30.679 27.8033 30.9757 27.755 31.3023 27.755C31.6257 27.755 31.9207 27.8033 32.1873 27.9C32.454 27.9967 32.6823 28.13 32.8723 28.3C33.0623 28.47 33.209 28.67 33.3123 28.9C33.4157 29.13 33.4673 29.3767 33.4673 29.64C33.4673 30.0267 33.3707 30.36 33.1773 30.64C32.9873 30.9167 32.704 31.125 32.3273 31.265ZM36.0131 30.54C36.3865 30.46 36.7298 30.42 37.0431 30.42C37.4165 30.42 37.7465 30.475 38.0331 30.585C38.3198 30.695 38.5581 30.8467 38.7481 31.04C38.9415 31.2333 39.0865 31.4617 39.1831 31.725C39.2831 31.9883 39.3331 32.275 39.3331 32.585C39.3331 32.965 39.2665 33.3083 39.1331 33.615C39.0031 33.9217 38.8215 34.185 38.5881 34.405C38.3581 34.6217 38.0865 34.7883 37.7731 34.905C37.4598 35.0217 37.1215 35.08 36.7581 35.08C36.5481 35.08 36.3465 35.0583 36.1531 35.015C35.9598 34.975 35.7781 34.92 35.6081 34.85C35.4415 34.78 35.2865 34.7 35.1431 34.61C34.9998 34.52 34.8731 34.425 34.7631 34.325L35.0381 33.945C35.0981 33.8583 35.1765 33.815 35.2731 33.815C35.3398 33.815 35.4148 33.8417 35.4981 33.895C35.5815 33.945 35.6831 34.0017 35.8031 34.065C35.9231 34.1283 36.0631 34.1867 36.2231 34.24C36.3865 34.29 36.5798 34.315 36.8031 34.315C37.0531 34.315 37.2781 34.275 37.4781 34.195C37.6781 34.115 37.8498 34.0017 37.9931 33.855C38.1365 33.705 38.2465 33.5267 38.3231 33.32C38.3998 33.1133 38.4381 32.8817 38.4381 32.625C38.4381 32.4017 38.4048 32.2 38.3381 32.02C38.2748 31.84 38.1765 31.6867 38.0431 31.56C37.9131 31.4333 37.7498 31.335 37.5531 31.265C37.3565 31.195 37.1265 31.16 36.8631 31.16C36.6831 31.16 36.4948 31.175 36.2981 31.205C36.1048 31.235 35.9065 31.2833 35.7031 31.35L35.1431 31.185L35.7181 27.835H39.1131V28.225C39.1131 28.3517 39.0731 28.4567 38.9931 28.54C38.9165 28.62 38.7831 28.66 38.5931 28.66H36.3431L36.0131 30.54ZM44.7239 32.34L43.5989 29.425C43.5656 29.3383 43.5306 29.2383 43.4939 29.125C43.4572 29.0083 43.4222 28.885 43.3889 28.755C43.3189 29.025 43.2472 29.25 43.1739 29.43L42.0489 32.34H44.7239ZM46.7439 35H45.9939C45.9072 35 45.8372 34.9783 45.7839 34.935C45.7306 34.8917 45.6906 34.8367 45.6639 34.77L44.9939 33.04H41.7789L41.1089 34.77C41.0889 34.83 41.0506 34.8833 40.9939 34.93C40.9372 34.9767 40.8672 35 40.7839 35H40.0339L42.8989 27.835H43.8789L46.7439 35Z" fill="#808080"/>
<path d="M11.451 16.062C11.451 18.361 13.101 20.132 15.488 20.132C17.479 20.132 18.557 18.867 18.557 18.867L17.809 17.844C17.809 17.844 16.896 18.834 15.543 18.834C13.915 18.834 12.914 17.525 12.914 16.04C12.914 14.588 13.882 13.356 15.532 13.356C16.775 13.356 17.666 14.181 17.666 14.181L18.348 13.125C18.348 13.125 17.369 12.058 15.466 12.058C13.167 12.058 11.451 13.796 11.451 16.062ZM19.864 20H21.283V16.722H24.858V20H26.277V12.19H24.858V15.501H21.283V12.19H19.864V20ZM32.7967 20H34.2597L31.5097 12.19H30.0247L27.2747 20H28.7377L29.3977 17.998H32.1367L32.7967 20ZM30.7837 13.543C30.7837 13.543 30.9487 14.313 31.0917 14.753L31.7847 16.843H29.7387L30.4317 14.753C30.5857 14.313 30.7617 13.543 30.7617 13.543H30.7837ZM35.2576 20H36.6766V17.085H38.0406L39.5916 20H41.1756L39.5696 17.085C39.4156 16.81 39.3056 16.7 39.3056 16.7V16.678C40.1306 16.348 40.6256 15.479 40.6256 14.544C40.6256 13.51 40.1306 12.762 39.3496 12.41C39.0086 12.256 38.6236 12.19 37.7766 12.19H35.2576V20ZM36.6766 15.853V13.411H37.7546C38.8656 13.411 39.1846 13.873 39.1846 14.621C39.1846 15.402 38.7116 15.853 37.9526 15.853H36.6766ZM41.9158 16.062C41.9158 18.361 43.5658 20.132 45.9528 20.132C47.9438 20.132 49.0218 18.867 49.0218 18.867L48.2738 17.844C48.2738 17.844 47.3608 18.834 46.0078 18.834C44.3798 18.834 43.3788 17.525 43.3788 16.04C43.3788 14.588 44.3468 13.356 45.9968 13.356C47.2398 13.356 48.1308 14.181 48.1308 14.181L48.8128 13.125C48.8128 13.125 47.8338 12.058 45.9308 12.058C43.6318 12.058 41.9158 13.796 41.9158 16.062ZM49.7469 16.04C49.7469 18.339 51.4849 20.132 53.7839 20.132C56.0829 20.132 57.8209 18.339 57.8209 16.04C57.8209 13.807 56.0829 12.058 53.7839 12.058C51.4849 12.058 49.7469 13.807 49.7469 16.04ZM51.2099 16.04C51.2099 14.5 52.3539 13.356 53.7839 13.356C55.2139 13.356 56.3579 14.5 56.3579 16.04C56.3579 17.646 55.2139 18.834 53.7839 18.834C52.3539 18.834 51.2099 17.646 51.2099 16.04ZM63.7664 20H65.2294L62.4794 12.19H60.9944L58.2444 20H59.7074L60.3674 17.998H63.1064L63.7664 20ZM61.7534 13.543C61.7534 13.543 61.9184 14.313 62.0614 14.753L62.7544 16.843H60.7084L61.4014 14.753C61.5554 14.313 61.7314 13.543 61.7314 13.543H61.7534ZM66.2273 20H71.0233V18.779H67.6463V12.19H66.2273V20Z" fill="#1A1A1A"/>
<path fill-rule="evenodd" clip-rule="evenodd" d="M91 1.00006H231V122.952H91V1.00006Z" fill="#54585A"/>
</svg>
