<svg width="232" height="125" viewBox="0 0 232 125" fill="none" xmlns="http://www.w3.org/2000/svg">
<path fill-rule="evenodd" clip-rule="evenodd" d="M1.00015 1.99975H231V123.951H1.00015V1.99975Z" fill="white"/>
<path d="M16.945 34.52C16.9983 34.52 17.045 34.5417 17.085 34.585L17.47 35C17.1767 35.34 16.82 35.605 16.4 35.795C15.9833 35.985 15.4783 36.08 14.885 36.08C14.3717 36.08 13.905 35.9917 13.485 35.815C13.065 35.635 12.7067 35.385 12.41 35.065C12.1133 34.7417 11.8833 34.355 11.72 33.905C11.5567 33.455 11.475 32.96 11.475 32.42C11.475 31.88 11.56 31.385 11.73 30.935C11.9 30.485 12.1383 30.0983 12.445 29.775C12.755 29.4517 13.125 29.2017 13.555 29.025C13.985 28.845 14.46 28.755 14.98 28.755C15.49 28.755 15.94 28.8367 16.33 29C16.72 29.1633 17.0633 29.385 17.36 29.665L17.04 30.11C17.02 30.1433 16.9933 30.1717 16.96 30.195C16.93 30.215 16.8883 30.225 16.835 30.225C16.775 30.225 16.7017 30.1933 16.615 30.13C16.5283 30.0633 16.415 29.99 16.275 29.91C16.135 29.83 15.96 29.7583 15.75 29.695C15.54 29.6283 15.2817 29.595 14.975 29.595C14.605 29.595 14.2667 29.66 13.96 29.79C13.6533 29.9167 13.3883 30.1017 13.165 30.345C12.945 30.5883 12.7733 30.885 12.65 31.235C12.5267 31.585 12.465 31.98 12.465 32.42C12.465 32.8667 12.5283 33.265 12.655 33.615C12.785 33.965 12.96 34.2617 13.18 34.505C13.4033 34.745 13.665 34.9283 13.965 35.055C14.2683 35.1817 14.595 35.245 14.945 35.245C15.1583 35.245 15.35 35.2333 15.52 35.21C15.6933 35.1833 15.8517 35.1433 15.995 35.09C16.1417 35.0367 16.2767 34.97 16.4 34.89C16.5267 34.8067 16.6517 34.7083 16.775 34.595C16.8317 34.545 16.8883 34.52 16.945 34.52ZM23.0147 35.21L23.0097 36H18.5947V28.835H23.0097V29.625H19.5647V32.005H22.3547V32.765H19.5647V35.21H23.0147ZM28.9512 32.42C28.9512 33.0467 28.8828 33.59 28.7462 34.05C28.6128 34.5067 28.4295 34.885 28.1962 35.185C27.9628 35.485 27.6862 35.7083 27.3662 35.855C27.0495 36.0017 26.7095 36.075 26.3462 36.075C25.9795 36.075 25.6378 36.0017 25.3212 35.855C25.0078 35.7083 24.7345 35.485 24.5012 35.185C24.2678 34.885 24.0845 34.5067 23.9512 34.05C23.8178 33.59 23.7512 33.0467 23.7512 32.42C23.7512 31.7933 23.8178 31.25 23.9512 30.79C24.0845 30.33 24.2678 29.95 24.5012 29.65C24.7345 29.3467 25.0078 29.1217 25.3212 28.975C25.6378 28.8283 25.9795 28.755 26.3462 28.755C26.7095 28.755 27.0495 28.8283 27.3662 28.975C27.6862 29.1217 27.9628 29.3467 28.1962 29.65C28.4295 29.95 28.6128 30.33 28.7462 30.79C28.8828 31.25 28.9512 31.7933 28.9512 32.42ZM28.0262 32.42C28.0262 31.8733 27.9795 31.415 27.8862 31.045C27.7962 30.6717 27.6728 30.3717 27.5162 30.145C27.3628 29.9183 27.1845 29.7567 26.9812 29.66C26.7778 29.56 26.5662 29.51 26.3462 29.51C26.1262 29.51 25.9145 29.56 25.7112 29.66C25.5078 29.7567 25.3295 29.9183 25.1762 30.145C25.0228 30.3717 24.8995 30.6717 24.8062 31.045C24.7162 31.415 24.6712 31.8733 24.6712 32.42C24.6712 32.9667 24.7162 33.425 24.8062 33.795C24.8995 34.165 25.0228 34.4633 25.1762 34.69C25.3295 34.9167 25.5078 35.08 25.7112 35.18C25.9145 35.2767 26.1262 35.325 26.3462 35.325C26.5662 35.325 26.7778 35.2767 26.9812 35.18C27.1845 35.08 27.3628 34.9167 27.5162 34.69C27.6728 34.4633 27.7962 34.165 27.8862 33.795C27.9795 33.425 28.0262 32.9667 28.0262 32.42ZM34.752 32.42C34.752 33.0467 34.6836 33.59 34.547 34.05C34.4136 34.5067 34.2303 34.885 33.997 35.185C33.7636 35.485 33.487 35.7083 33.167 35.855C32.8503 36.0017 32.5103 36.075 32.147 36.075C31.7803 36.075 31.4386 36.0017 31.122 35.855C30.8086 35.7083 30.5353 35.485 30.302 35.185C30.0686 34.885 29.8853 34.5067 29.752 34.05C29.6186 33.59 29.552 33.0467 29.552 32.42C29.552 31.7933 29.6186 31.25 29.752 30.79C29.8853 30.33 30.0686 29.95 30.302 29.65C30.5353 29.3467 30.8086 29.1217 31.122 28.975C31.4386 28.8283 31.7803 28.755 32.147 28.755C32.5103 28.755 32.8503 28.8283 33.167 28.975C33.487 29.1217 33.7636 29.3467 33.997 29.65C34.2303 29.95 34.4136 30.33 34.547 30.79C34.6836 31.25 34.752 31.7933 34.752 32.42ZM33.827 32.42C33.827 31.8733 33.7803 31.415 33.687 31.045C33.597 30.6717 33.4736 30.3717 33.317 30.145C33.1636 29.9183 32.9853 29.7567 32.782 29.66C32.5786 29.56 32.367 29.51 32.147 29.51C31.927 29.51 31.7153 29.56 31.512 29.66C31.3086 29.7567 31.1303 29.9183 30.977 30.145C30.8236 30.3717 30.7003 30.6717 30.607 31.045C30.517 31.415 30.472 31.8733 30.472 32.42C30.472 32.9667 30.517 33.425 30.607 33.795C30.7003 34.165 30.8236 34.4633 30.977 34.69C31.1303 34.9167 31.3086 35.08 31.512 35.18C31.7153 35.2767 31.927 35.325 32.147 35.325C32.367 35.325 32.5786 35.2767 32.782 35.18C32.9853 35.08 33.1636 34.9167 33.317 34.69C33.4736 34.4633 33.597 34.165 33.687 33.795C33.7803 33.425 33.827 32.9667 33.827 32.42ZM35.7027 30.775C35.7494 30.4483 35.8394 30.16 35.9727 29.91C36.1061 29.6567 36.2744 29.445 36.4777 29.275C36.6844 29.105 36.9194 28.9767 37.1827 28.89C37.4494 28.8 37.7361 28.755 38.0427 28.755C38.3461 28.755 38.6261 28.7983 38.8827 28.885C39.1394 28.9717 39.3594 29.095 39.5427 29.255C39.7294 29.415 39.8744 29.6083 39.9777 29.835C40.0811 30.0617 40.1327 30.3133 40.1327 30.59C40.1327 30.8167 40.1027 31.02 40.0427 31.2C39.9861 31.3767 39.9027 31.5317 39.7927 31.665C39.6861 31.7983 39.5561 31.9117 39.4027 32.005C39.2494 32.0983 39.0777 32.175 38.8877 32.235C39.3544 32.355 39.7044 32.5617 39.9377 32.855C40.1744 33.145 40.2927 33.5083 40.2927 33.945C40.2927 34.275 40.2294 34.5717 40.1027 34.835C39.9794 35.0983 39.8094 35.3233 39.5927 35.51C39.3761 35.6933 39.1227 35.835 38.8327 35.935C38.5461 36.0317 38.2377 36.08 37.9077 36.08C37.5277 36.08 37.2027 36.0333 36.9327 35.94C36.6627 35.8433 36.4344 35.7117 36.2477 35.545C36.0611 35.3783 35.9077 35.1817 35.7877 34.955C35.6677 34.725 35.5661 34.4767 35.4827 34.21L35.8677 34.05C35.9677 34.0067 36.0644 33.995 36.1577 34.015C36.2544 34.035 36.3244 34.09 36.3677 34.18C36.4111 34.2733 36.4644 34.385 36.5277 34.515C36.5944 34.645 36.6844 34.77 36.7977 34.89C36.9111 35.01 37.0544 35.1117 37.2277 35.195C37.4044 35.2783 37.6277 35.32 37.8977 35.32C38.1477 35.32 38.3661 35.28 38.5527 35.2C38.7427 35.1167 38.8994 35.01 39.0227 34.88C39.1494 34.75 39.2444 34.605 39.3077 34.445C39.3711 34.285 39.4027 34.1267 39.4027 33.97C39.4027 33.7767 39.3777 33.6 39.3277 33.44C39.2777 33.28 39.1844 33.1417 39.0477 33.025C38.9111 32.9083 38.7227 32.8167 38.4827 32.75C38.2461 32.6833 37.9411 32.65 37.5677 32.65V32.005C37.8744 32.0017 38.1344 31.9683 38.3477 31.905C38.5644 31.8417 38.7394 31.755 38.8727 31.645C39.0094 31.535 39.1077 31.4033 39.1677 31.25C39.2311 31.0967 39.2627 30.9267 39.2627 30.74C39.2627 30.5333 39.2294 30.3533 39.1627 30.2C39.0994 30.0467 39.0111 29.92 38.8977 29.82C38.7844 29.72 38.6494 29.645 38.4927 29.595C38.3394 29.545 38.1727 29.52 37.9927 29.52C37.8127 29.52 37.6444 29.5467 37.4877 29.6C37.3344 29.6533 37.1977 29.7283 37.0777 29.825C36.9611 29.9183 36.8627 30.03 36.7827 30.16C36.7027 30.29 36.6461 30.4333 36.6127 30.59C36.5694 30.7067 36.5144 30.785 36.4477 30.825C36.3844 30.8617 36.2911 30.8717 36.1677 30.855L35.7027 30.775ZM46.2585 28.835V29.235C46.2585 29.3483 46.2452 29.4417 46.2185 29.515C46.1952 29.5883 46.1718 29.65 46.1485 29.7L43.1785 35.685C43.1352 35.7717 43.0752 35.8467 42.9985 35.91C42.9218 35.97 42.8202 36 42.6935 36H42.0535L45.0635 30.09C45.1068 30.0067 45.1518 29.93 45.1985 29.86C45.2452 29.79 45.2952 29.7233 45.3485 29.66H41.6085C41.5518 29.66 41.5018 29.6383 41.4585 29.595C41.4152 29.5483 41.3935 29.4967 41.3935 29.44V28.835H46.2585Z" fill="#808080"/>
<path d="M11.99 21H13.409V18.085H14.773L16.324 21H17.908L16.302 18.085C16.148 17.81 16.038 17.7 16.038 17.7V17.678C16.863 17.348 17.358 16.479 17.358 15.544C17.358 14.51 16.863 13.762 16.082 13.41C15.741 13.256 15.356 13.19 14.509 13.19H11.99V21ZM13.409 16.853V14.411H14.487C15.598 14.411 15.917 14.873 15.917 15.621C15.917 16.402 15.444 16.853 14.685 16.853H13.409ZM19.2302 21H24.0812V19.779H20.6492V17.678H23.2782V16.457H20.6492V14.411H23.9052V13.19H19.2302V21ZM25.5574 21H28.2194C30.6284 21 32.2014 19.548 32.2014 17.084C32.2014 14.62 30.6284 13.19 28.2194 13.19H25.5574V21ZM26.9764 19.779V14.411H28.1424C29.7044 14.411 30.7384 15.346 30.7384 17.084C30.7384 18.844 29.7264 19.779 28.1424 19.779H26.9764Z" fill="#1A1A1A"/>
<path fill-rule="evenodd" clip-rule="evenodd" d="M91 1.99975H231V123.951H91V1.99975Z" fill="#CE0037"/>
</svg>
