<svg width="232" height="123" viewBox="0 0 232 123" fill="none" xmlns="http://www.w3.org/2000/svg">
<path fill-rule="evenodd" clip-rule="evenodd" d="M0.99992 1.99998H231V121.506H0.99992V1.99998Z" fill="white"/>
<path d="M16.405 28.835V29.235C16.405 29.3483 16.3917 29.4417 16.365 29.515C16.3417 29.5883 16.3183 29.65 16.295 29.7L13.325 35.685C13.2817 35.7717 13.2217 35.8467 13.145 35.91C13.0683 35.97 12.9667 36 12.84 36H12.2L15.21 30.09C15.2533 30.0067 15.2983 29.93 15.345 29.86C15.3917 29.79 15.4417 29.7233 15.495 29.66H11.755C11.6983 29.66 11.6483 29.6383 11.605 29.595C11.5617 29.5483 11.54 29.4967 11.54 29.44V28.835H16.405ZM19.7008 35.37C19.9341 35.37 20.1424 35.3383 20.3258 35.275C20.5124 35.2083 20.6691 35.1167 20.7958 35C20.9258 34.88 21.0241 34.7383 21.0908 34.575C21.1608 34.4083 21.1958 34.225 21.1958 34.025C21.1958 33.7783 21.1541 33.5683 21.0708 33.395C20.9908 33.2183 20.8808 33.075 20.7408 32.965C20.6041 32.855 20.4458 32.775 20.2658 32.725C20.0858 32.6717 19.8974 32.645 19.7008 32.645C19.5041 32.645 19.3158 32.6717 19.1358 32.725C18.9558 32.775 18.7958 32.855 18.6558 32.965C18.5191 33.075 18.4091 33.2183 18.3258 33.395C18.2458 33.5683 18.2058 33.7783 18.2058 34.025C18.2058 34.225 18.2391 34.4083 18.3058 34.575C18.3758 34.7383 18.4741 34.88 18.6008 35C18.7308 35.1167 18.8874 35.2083 19.0708 35.275C19.2574 35.3383 19.4674 35.37 19.7008 35.37ZM19.7008 29.445C19.4874 29.445 19.2991 29.4767 19.1358 29.54C18.9758 29.6033 18.8408 29.69 18.7308 29.8C18.6241 29.91 18.5424 30.0383 18.4858 30.185C18.4324 30.3317 18.4058 30.4883 18.4058 30.655C18.4058 30.8183 18.4291 30.9767 18.4758 31.13C18.5224 31.2833 18.5974 31.42 18.7008 31.54C18.8041 31.6567 18.9374 31.7517 19.1008 31.825C19.2674 31.895 19.4674 31.93 19.7008 31.93C19.9341 31.93 20.1324 31.895 20.2958 31.825C20.4624 31.7517 20.5974 31.6567 20.7008 31.54C20.8041 31.42 20.8791 31.2833 20.9258 31.13C20.9724 30.9767 20.9958 30.8183 20.9958 30.655C20.9958 30.4883 20.9674 30.3317 20.9108 30.185C20.8574 30.0383 20.7758 29.91 20.6658 29.8C20.5591 29.69 20.4241 29.6033 20.2608 29.54C20.1008 29.4767 19.9141 29.445 19.7008 29.445ZM20.7258 32.265C21.1724 32.3917 21.5158 32.6033 21.7558 32.9C21.9958 33.1967 22.1158 33.5767 22.1158 34.04C22.1158 34.3533 22.0558 34.6367 21.9358 34.89C21.8191 35.14 21.6541 35.3533 21.4408 35.53C21.2308 35.7067 20.9774 35.8433 20.6808 35.94C20.3841 36.0333 20.0574 36.08 19.7008 36.08C19.3441 36.08 19.0174 36.0333 18.7208 35.94C18.4241 35.8433 18.1691 35.7067 17.9558 35.53C17.7424 35.3533 17.5774 35.14 17.4608 34.89C17.3441 34.6367 17.2858 34.3533 17.2858 34.04C17.2858 33.5767 17.4058 33.1967 17.6458 32.9C17.8858 32.6033 18.2291 32.3917 18.6758 32.265C18.2991 32.125 18.0141 31.9167 17.8208 31.64C17.6308 31.36 17.5358 31.0267 17.5358 30.64C17.5358 30.3767 17.5874 30.13 17.6908 29.9C17.7941 29.67 17.9408 29.47 18.1308 29.3C18.3208 29.13 18.5474 28.9967 18.8108 28.9C19.0774 28.8033 19.3741 28.755 19.7008 28.755C20.0241 28.755 20.3191 28.8033 20.5858 28.9C20.8524 28.9967 21.0808 29.13 21.2708 29.3C21.4608 29.47 21.6074 29.67 21.7108 29.9C21.8141 30.13 21.8658 30.3767 21.8658 30.64C21.8658 31.0267 21.7691 31.36 21.5758 31.64C21.3858 31.9167 21.1024 32.125 20.7258 32.265ZM27.6916 35.32V36H23.8516V35.32H25.3866V30.435C25.3866 30.2883 25.3916 30.14 25.4016 29.99L24.1266 31.085C24.0832 31.1217 24.0399 31.145 23.9966 31.155C23.9532 31.1617 23.9132 31.1617 23.8766 31.155C23.8399 31.1483 23.8049 31.135 23.7716 31.115C23.7416 31.095 23.7182 31.0733 23.7016 31.05L23.4216 30.665L25.5566 28.82H26.2816V35.32H27.6916ZM33.8073 28.835V29.235C33.8073 29.3483 33.794 29.4417 33.7673 29.515C33.744 29.5883 33.7207 29.65 33.6973 29.7L30.7273 35.685C30.684 35.7717 30.624 35.8467 30.5473 35.91C30.4707 35.97 30.369 36 30.2423 36H29.6023L32.6123 30.09C32.6557 30.0067 32.7007 29.93 32.7473 29.86C32.794 29.79 32.844 29.7233 32.8973 29.66H29.1573C29.1007 29.66 29.0507 29.6383 29.0073 29.595C28.964 29.5483 28.9423 29.4967 28.9423 29.44V28.835H33.8073ZM39.1381 35.155C39.2348 35.155 39.3115 35.1833 39.3681 35.24C39.4248 35.2967 39.4531 35.37 39.4531 35.46V36H34.6731V35.695C34.6731 35.6317 34.6865 35.5667 34.7131 35.5C34.7398 35.4333 34.7815 35.3717 34.8381 35.315L37.1331 33.01C37.3231 32.8167 37.4965 32.6317 37.6531 32.455C37.8098 32.275 37.9431 32.095 38.0531 31.915C38.1631 31.735 38.2481 31.5533 38.3081 31.37C38.3681 31.1833 38.3981 30.985 38.3981 30.775C38.3981 30.565 38.3648 30.3817 38.2981 30.225C38.2315 30.065 38.1398 29.9333 38.0231 29.83C37.9098 29.7267 37.7748 29.65 37.6181 29.6C37.4615 29.5467 37.2931 29.52 37.1131 29.52C36.9298 29.52 36.7615 29.5467 36.6081 29.6C36.4548 29.6533 36.3181 29.7283 36.1981 29.825C36.0815 29.9183 35.9831 30.03 35.9031 30.16C35.8231 30.29 35.7665 30.4333 35.7331 30.59C35.6931 30.7067 35.6381 30.785 35.5681 30.825C35.5015 30.8617 35.4065 30.8717 35.2831 30.855L34.8181 30.775C34.8648 30.4483 34.9548 30.16 35.0881 29.91C35.2248 29.6567 35.3948 29.445 35.5981 29.275C35.8048 29.105 36.0398 28.9767 36.3031 28.89C36.5665 28.8 36.8515 28.755 37.1581 28.755C37.4615 28.755 37.7448 28.8 38.0081 28.89C38.2715 28.98 38.4998 29.1117 38.6931 29.285C38.8865 29.455 39.0381 29.6633 39.1481 29.91C39.2581 30.1567 39.3131 30.4367 39.3131 30.75C39.3131 31.0167 39.2731 31.265 39.1931 31.495C39.1131 31.7217 39.0048 31.9383 38.8681 32.145C38.7315 32.3517 38.5731 32.5533 38.3931 32.75C38.2165 32.9467 38.0281 33.145 37.8281 33.345L35.9381 35.275C36.0715 35.2383 36.2065 35.21 36.3431 35.19C36.4798 35.1667 36.6115 35.155 36.7381 35.155H39.1381ZM40.6539 30.775C40.7006 30.4483 40.7906 30.16 40.9239 29.91C41.0572 29.6567 41.2256 29.445 41.4289 29.275C41.6356 29.105 41.8706 28.9767 42.1339 28.89C42.4006 28.8 42.6872 28.755 42.9939 28.755C43.2972 28.755 43.5772 28.7983 43.8339 28.885C44.0906 28.9717 44.3106 29.095 44.4939 29.255C44.6806 29.415 44.8256 29.6083 44.9289 29.835C45.0322 30.0617 45.0839 30.3133 45.0839 30.59C45.0839 30.8167 45.0539 31.02 44.9939 31.2C44.9372 31.3767 44.8539 31.5317 44.7439 31.665C44.6372 31.7983 44.5072 31.9117 44.3539 32.005C44.2006 32.0983 44.0289 32.175 43.8389 32.235C44.3056 32.355 44.6556 32.5617 44.8889 32.855C45.1256 33.145 45.2439 33.5083 45.2439 33.945C45.2439 34.275 45.1806 34.5717 45.0539 34.835C44.9306 35.0983 44.7606 35.3233 44.5439 35.51C44.3272 35.6933 44.0739 35.835 43.7839 35.935C43.4972 36.0317 43.1889 36.08 42.8589 36.08C42.4789 36.08 42.1539 36.0333 41.8839 35.94C41.6139 35.8433 41.3856 35.7117 41.1989 35.545C41.0122 35.3783 40.8589 35.1817 40.7389 34.955C40.6189 34.725 40.5172 34.4767 40.4339 34.21L40.8189 34.05C40.9189 34.0067 41.0156 33.995 41.1089 34.015C41.2056 34.035 41.2756 34.09 41.3189 34.18C41.3622 34.2733 41.4156 34.385 41.4789 34.515C41.5456 34.645 41.6356 34.77 41.7489 34.89C41.8622 35.01 42.0056 35.1117 42.1789 35.195C42.3556 35.2783 42.5789 35.32 42.8489 35.32C43.0989 35.32 43.3172 35.28 43.5039 35.2C43.6939 35.1167 43.8506 35.01 43.9739 34.88C44.1006 34.75 44.1956 34.605 44.2589 34.445C44.3222 34.285 44.3539 34.1267 44.3539 33.97C44.3539 33.7767 44.3289 33.6 44.2789 33.44C44.2289 33.28 44.1356 33.1417 43.9989 33.025C43.8622 32.9083 43.6739 32.8167 43.4339 32.75C43.1972 32.6833 42.8922 32.65 42.5189 32.65V32.005C42.8256 32.0017 43.0856 31.9683 43.2989 31.905C43.5156 31.8417 43.6906 31.755 43.8239 31.645C43.9606 31.535 44.0589 31.4033 44.1189 31.25C44.1822 31.0967 44.2139 30.9267 44.2139 30.74C44.2139 30.5333 44.1806 30.3533 44.1139 30.2C44.0506 30.0467 43.9622 29.92 43.8489 29.82C43.7356 29.72 43.6006 29.645 43.4439 29.595C43.2906 29.545 43.1239 29.52 42.9439 29.52C42.7639 29.52 42.5956 29.5467 42.4389 29.6C42.2856 29.6533 42.1489 29.7283 42.0289 29.825C41.9122 29.9183 41.8139 30.03 41.7339 30.16C41.6539 30.29 41.5972 30.4333 41.5639 30.59C41.5206 30.7067 41.4656 30.785 41.3989 30.825C41.3356 30.8617 41.2422 30.8717 41.1189 30.855L40.6539 30.775Z" fill="#808080"/>
<path d="M12.99 21H14.409V18.085H15.773L17.324 21H18.908L17.302 18.085C17.148 17.81 17.038 17.7 17.038 17.7V17.678C17.863 17.348 18.358 16.479 18.358 15.544C18.358 14.51 17.863 13.762 17.082 13.41C16.741 13.256 16.356 13.19 15.509 13.19H12.99V21ZM14.409 16.853V14.411H15.487C16.598 14.411 16.917 14.873 16.917 15.621C16.917 16.402 16.444 16.853 15.685 16.853H14.409ZM20.2302 21H25.0812V19.779H21.6492V17.678H24.2782V16.457H21.6492V14.411H24.9052V13.19H20.2302V21ZM26.5574 21H29.2194C31.6284 21 33.2014 19.548 33.2014 17.084C33.2014 14.62 31.6284 13.19 29.2194 13.19H26.5574V21ZM27.9764 19.779V14.411H29.1424C30.7044 14.411 31.7384 15.346 31.7384 17.084C31.7384 18.844 30.7264 19.779 29.1424 19.779H27.9764ZM38.398 22.045H39.575C38.75 20.527 38.332 18.877 38.332 17.238C38.332 15.687 38.772 14.202 39.575 12.849H38.398C37.562 14.169 37.089 15.643 37.089 17.227C37.089 19.031 37.584 20.714 38.398 22.045ZM40.1753 20.065C40.1753 20.065 41.1323 21.132 42.8703 21.132C44.4983 21.132 45.4443 20.087 45.4443 18.844C45.4443 16.347 41.7703 16.688 41.7703 15.302C41.7703 14.752 42.2873 14.367 42.9473 14.367C43.9263 14.367 44.6743 15.049 44.6743 15.049L45.2903 13.894C45.2903 13.894 44.4983 13.058 42.9583 13.058C41.4623 13.058 40.3403 14.026 40.3403 15.324C40.3403 17.722 44.0253 17.48 44.0253 18.877C44.0253 19.515 43.4863 19.823 42.8923 19.823C41.7923 19.823 40.9453 18.998 40.9453 18.998L40.1753 20.065ZM46.8601 21H48.2791V17.722H51.8541V21H53.2731V13.19H51.8541V16.501H48.2791V13.19H46.8601V21ZM59.7928 21H61.2558L58.5058 13.19H57.0208L54.2708 21H55.7338L56.3938 18.998H59.1328L59.7928 21ZM57.7798 14.543C57.7798 14.543 57.9448 15.313 58.0878 15.753L58.7808 17.843H56.7348L57.4278 15.753C57.5818 15.313 57.7578 14.543 57.7578 14.543H57.7798ZM62.2537 21H64.9157C67.3247 21 68.8977 19.548 68.8977 17.084C68.8977 14.62 67.3247 13.19 64.9157 13.19H62.2537V21ZM63.6727 19.779V14.411H64.8387C66.4007 14.411 67.4347 15.346 67.4347 17.084C67.4347 18.844 66.4227 19.779 64.8387 19.779H63.6727ZM70.3855 21H75.2365V19.779H71.8045V17.678H74.4335V16.457H71.8045V14.411H75.0605V13.19H70.3855V21ZM77.1087 22.045C77.9227 20.714 78.4177 19.031 78.4177 17.227C78.4177 15.643 77.9447 14.169 77.1087 12.849H75.9317C76.7347 14.202 77.1747 15.687 77.1747 17.238C77.1747 18.877 76.7457 20.527 75.9317 22.045H77.1087Z" fill="#1A1A1A"/>
<path fill-rule="evenodd" clip-rule="evenodd" d="M91 1.99998H231V121.506H91V1.99998Z" fill="#781723"/>
</svg>
