<svg width="233" height="123" viewBox="0 0 233 123" fill="none" xmlns="http://www.w3.org/2000/svg">
<path fill-rule="evenodd" clip-rule="evenodd" d="M1.00004 1.49347H231V121H1.00004V1.49347Z" fill="white"/>
<path d="M18.125 31.42C18.125 31.9567 18.04 32.445 17.87 32.885C17.7 33.325 17.46 33.7017 17.15 34.015C16.84 34.3283 16.4667 34.5717 16.03 34.745C15.5967 34.915 15.1167 35 14.59 35H11.915V27.835H14.59C15.1167 27.835 15.5967 27.9217 16.03 28.095C16.4667 28.265 16.84 28.5083 17.15 28.825C17.46 29.1383 17.7 29.515 17.87 29.955C18.04 30.395 18.125 30.8833 18.125 31.42ZM17.13 31.42C17.13 30.98 17.07 30.5867 16.95 30.24C16.83 29.8933 16.66 29.6 16.44 29.36C16.22 29.12 15.9533 28.9367 15.64 28.81C15.3267 28.6833 14.9767 28.62 14.59 28.62H12.885V34.215H14.59C14.9767 34.215 15.3267 34.1517 15.64 34.025C15.9533 33.8983 16.22 33.7167 16.44 33.48C16.66 33.24 16.83 32.9467 16.95 32.6C17.07 32.2533 17.13 31.86 17.13 31.42ZM23.6974 34.32V35H19.8574V34.32H21.3924V29.435C21.3924 29.2883 21.3974 29.14 21.4074 28.99L20.1324 30.085C20.0891 30.1217 20.0458 30.145 20.0024 30.155C19.9591 30.1617 19.9191 30.1617 19.8824 30.155C19.8458 30.1483 19.8108 30.135 19.7774 30.115C19.7474 30.095 19.7241 30.0733 19.7074 30.05L19.4274 29.665L21.5624 27.82H22.2874V34.32H23.6974ZM31.5332 31.42C31.5332 31.9567 31.4482 32.445 31.2782 32.885C31.1082 33.325 30.8682 33.7017 30.5582 34.015C30.2482 34.3283 29.8749 34.5717 29.4382 34.745C29.0049 34.915 28.5249 35 27.9982 35H25.3232V27.835H27.9982C28.5249 27.835 29.0049 27.9217 29.4382 28.095C29.8749 28.265 30.2482 28.5083 30.5582 28.825C30.8682 29.1383 31.1082 29.515 31.2782 29.955C31.4482 30.395 31.5332 30.8833 31.5332 31.42ZM30.5382 31.42C30.5382 30.98 30.4782 30.5867 30.3582 30.24C30.2382 29.8933 30.0682 29.6 29.8482 29.36C29.6282 29.12 29.3615 28.9367 29.0482 28.81C28.7349 28.6833 28.3849 28.62 27.9982 28.62H26.2932V34.215H27.9982C28.3849 34.215 28.7349 34.1517 29.0482 34.025C29.3615 33.8983 29.6282 33.7167 29.8482 33.48C30.0682 33.24 30.2382 32.9467 30.3582 32.6C30.4782 32.2533 30.5382 31.86 30.5382 31.42ZM33.4306 29.94C33.4306 30.1667 33.4623 30.37 33.5256 30.55C33.5923 30.7267 33.6856 30.8767 33.8056 31C33.929 31.1233 34.0773 31.2167 34.2506 31.28C34.4273 31.3433 34.624 31.375 34.8406 31.375C35.0806 31.375 35.2923 31.3367 35.4756 31.26C35.6623 31.18 35.819 31.075 35.9456 30.945C36.0723 30.815 36.169 30.665 36.2356 30.495C36.3023 30.325 36.3356 30.1483 36.3356 29.965C36.3356 29.7417 36.299 29.54 36.2256 29.36C36.1556 29.1767 36.0573 29.0217 35.9306 28.895C35.804 28.7683 35.6523 28.6717 35.4756 28.605C35.3023 28.535 35.1106 28.5 34.9006 28.5C34.6806 28.5 34.4806 28.5367 34.3006 28.61C34.1206 28.68 33.9656 28.7783 33.8356 28.905C33.7056 29.0317 33.6056 29.1833 33.5356 29.36C33.4656 29.5367 33.4306 29.73 33.4306 29.94ZM35.5106 32.145C35.584 32.0483 35.6523 31.9567 35.7156 31.87C35.779 31.7833 35.839 31.6967 35.8956 31.61C35.7123 31.7567 35.5056 31.8683 35.2756 31.945C35.0456 32.0217 34.8023 32.06 34.5456 32.06C34.2756 32.06 34.019 32.015 33.7756 31.925C33.5356 31.835 33.324 31.7033 33.1406 31.53C32.9573 31.3533 32.8106 31.1383 32.7006 30.885C32.594 30.6283 32.5406 30.335 32.5406 30.005C32.5406 29.6917 32.599 29.3983 32.7156 29.125C32.8323 28.8517 32.9956 28.6133 33.2056 28.41C33.4156 28.2067 33.6656 28.0467 33.9556 27.93C34.2456 27.8133 34.564 27.755 34.9106 27.755C35.254 27.755 35.5656 27.8117 35.8456 27.925C36.1256 28.0383 36.3656 28.1967 36.5656 28.4C36.7656 28.6033 36.919 28.8467 37.0256 29.13C37.1356 29.4133 37.1906 29.7267 37.1906 30.07C37.1906 30.2767 37.1706 30.4733 37.1306 30.66C37.094 30.8433 37.039 31.025 36.9656 31.205C36.8956 31.3817 36.809 31.5583 36.7056 31.735C36.6023 31.9083 36.4856 32.0867 36.3556 32.27L34.6106 34.79C34.5673 34.8533 34.5056 34.905 34.4256 34.945C34.3456 34.9817 34.254 35 34.1506 35H33.3306L35.5106 32.145ZM44.9414 31.42C44.9414 31.9567 44.8564 32.445 44.6864 32.885C44.5164 33.325 44.2764 33.7017 43.9664 34.015C43.6564 34.3283 43.2831 34.5717 42.8464 34.745C42.4131 34.915 41.9331 35 41.4064 35H38.7314V27.835H41.4064C41.9331 27.835 42.4131 27.9217 42.8464 28.095C43.2831 28.265 43.6564 28.5083 43.9664 28.825C44.2764 29.1383 44.5164 29.515 44.6864 29.955C44.8564 30.395 44.9414 30.8833 44.9414 31.42ZM43.9464 31.42C43.9464 30.98 43.8864 30.5867 43.7664 30.24C43.6464 29.8933 43.4764 29.6 43.2564 29.36C43.0364 29.12 42.7697 28.9367 42.4564 28.81C42.1431 28.6833 41.7931 28.62 41.4064 28.62H39.7014V34.215H41.4064C41.7931 34.215 42.1431 34.1517 42.4564 34.025C42.7697 33.8983 43.0364 33.7167 43.2564 33.48C43.4764 33.24 43.6464 32.9467 43.7664 32.6C43.8864 32.2533 43.9464 31.86 43.9464 31.42ZM52.5488 31.42C52.5488 31.9567 52.4638 32.445 52.2938 32.885C52.1238 33.325 51.8838 33.7017 51.5738 34.015C51.2638 34.3283 50.8905 34.5717 50.4538 34.745C50.0205 34.915 49.5405 35 49.0138 35H46.3388V27.835H49.0138C49.5405 27.835 50.0205 27.9217 50.4538 28.095C50.8905 28.265 51.2638 28.5083 51.5738 28.825C51.8838 29.1383 52.1238 29.515 52.2938 29.955C52.4638 30.395 52.5488 30.8833 52.5488 31.42ZM51.5538 31.42C51.5538 30.98 51.4938 30.5867 51.3738 30.24C51.2538 29.8933 51.0838 29.6 50.8638 29.36C50.6438 29.12 50.3772 28.9367 50.0638 28.81C49.7505 28.6833 49.4005 28.62 49.0138 28.62H47.3088V34.215H49.0138C49.4005 34.215 49.7505 34.1517 50.0638 34.025C50.3772 33.8983 50.6438 33.7167 50.8638 33.48C51.0838 33.24 51.2538 32.9467 51.3738 32.6C51.4938 32.2533 51.5538 31.86 51.5538 31.42Z" fill="#808080"/>
<path d="M11.99 20H14.652C17.061 20 18.634 18.548 18.634 16.084C18.634 13.62 17.061 12.19 14.652 12.19H11.99V20ZM13.409 18.779V13.411H14.575C16.137 13.411 17.171 14.346 17.171 16.084C17.171 17.844 16.159 18.779 14.575 18.779H13.409ZM19.5828 16.04C19.5828 18.339 21.3208 20.132 23.6198 20.132C25.9188 20.132 27.6568 18.339 27.6568 16.04C27.6568 13.807 25.9188 12.058 23.6198 12.058C21.3208 12.058 19.5828 13.807 19.5828 16.04ZM21.0458 16.04C21.0458 14.5 22.1898 13.356 23.6198 13.356C25.0498 13.356 26.1938 14.5 26.1938 16.04C26.1938 17.646 25.0498 18.834 23.6198 18.834C22.1898 18.834 21.0458 17.646 21.0458 16.04ZM29.1023 20H33.8983V18.779H30.5213V12.19H29.1023V20ZM35.032 20H36.451V17.305H38.046C39.509 17.305 40.532 16.249 40.532 14.731C40.532 13.213 39.509 12.19 38.046 12.19H35.032V20ZM36.451 16.073V13.411H37.804C38.607 13.411 39.091 13.928 39.091 14.731C39.091 15.545 38.607 16.073 37.782 16.073H36.451ZM41.7888 20H43.2078V16.722H46.7828V20H48.2018V12.19H46.7828V15.501H43.2078V12.19H41.7888V20ZM50.1785 20H51.5975V12.19H50.1785V20ZM53.573 20H54.992V15.501C54.992 15.039 54.915 14.291 54.915 14.291H54.937C54.937 14.291 55.289 15.05 55.586 15.501L58.545 20H59.953V12.19H58.545V16.7C58.545 17.162 58.622 17.91 58.622 17.91H58.6C58.6 17.91 58.248 17.151 57.951 16.7L54.992 12.19H53.573V20Z" fill="#1A1A1A"/>
<path fill-rule="evenodd" clip-rule="evenodd" d="M91 1.49347H231V121H91V1.49347Z" fill="#D1D9DD"/>
</svg>
