<svg width="233" height="123" viewBox="0 0 233 123" fill="none" xmlns="http://www.w3.org/2000/svg">
<path fill-rule="evenodd" clip-rule="evenodd" d="M1.00004 1.49347H231V121H1.00004V1.49347Z" fill="white"/>
<path d="M16.5 31.42C16.5 32.0467 16.4317 32.59 16.295 33.05C16.1617 33.5067 15.9783 33.885 15.745 34.185C15.5117 34.485 15.235 34.7083 14.915 34.855C14.5983 35.0017 14.2583 35.075 13.895 35.075C13.5283 35.075 13.1867 35.0017 12.87 34.855C12.5567 34.7083 12.2833 34.485 12.05 34.185C11.8167 33.885 11.6333 33.5067 11.5 33.05C11.3667 32.59 11.3 32.0467 11.3 31.42C11.3 30.7933 11.3667 30.25 11.5 29.79C11.6333 29.33 11.8167 28.95 12.05 28.65C12.2833 28.3467 12.5567 28.1217 12.87 27.975C13.1867 27.8283 13.5283 27.755 13.895 27.755C14.2583 27.755 14.5983 27.8283 14.915 27.975C15.235 28.1217 15.5117 28.3467 15.745 28.65C15.9783 28.95 16.1617 29.33 16.295 29.79C16.4317 30.25 16.5 30.7933 16.5 31.42ZM15.575 31.42C15.575 30.8733 15.5283 30.415 15.435 30.045C15.345 29.6717 15.2217 29.3717 15.065 29.145C14.9117 28.9183 14.7333 28.7567 14.53 28.66C14.3267 28.56 14.115 28.51 13.895 28.51C13.675 28.51 13.4633 28.56 13.26 28.66C13.0567 28.7567 12.8783 28.9183 12.725 29.145C12.5717 29.3717 12.4483 29.6717 12.355 30.045C12.265 30.415 12.22 30.8733 12.22 31.42C12.22 31.9667 12.265 32.425 12.355 32.795C12.4483 33.165 12.5717 33.4633 12.725 33.69C12.8783 33.9167 13.0567 34.08 13.26 34.18C13.4633 34.2767 13.675 34.325 13.895 34.325C14.115 34.325 14.3267 34.2767 14.53 34.18C14.7333 34.08 14.9117 33.9167 15.065 33.69C15.2217 33.4633 15.345 33.165 15.435 32.795C15.5283 32.425 15.575 31.9667 15.575 31.42ZM22.3008 31.42C22.3008 32.0467 22.2324 32.59 22.0958 33.05C21.9624 33.5067 21.7791 33.885 21.5458 34.185C21.3124 34.485 21.0358 34.7083 20.7158 34.855C20.3991 35.0017 20.0591 35.075 19.6958 35.075C19.3291 35.075 18.9874 35.0017 18.6708 34.855C18.3574 34.7083 18.0841 34.485 17.8508 34.185C17.6174 33.885 17.4341 33.5067 17.3008 33.05C17.1674 32.59 17.1008 32.0467 17.1008 31.42C17.1008 30.7933 17.1674 30.25 17.3008 29.79C17.4341 29.33 17.6174 28.95 17.8508 28.65C18.0841 28.3467 18.3574 28.1217 18.6708 27.975C18.9874 27.8283 19.3291 27.755 19.6958 27.755C20.0591 27.755 20.3991 27.8283 20.7158 27.975C21.0358 28.1217 21.3124 28.3467 21.5458 28.65C21.7791 28.95 21.9624 29.33 22.0958 29.79C22.2324 30.25 22.3008 30.7933 22.3008 31.42ZM21.3758 31.42C21.3758 30.8733 21.3291 30.415 21.2358 30.045C21.1458 29.6717 21.0224 29.3717 20.8658 29.145C20.7124 28.9183 20.5341 28.7567 20.3308 28.66C20.1274 28.56 19.9158 28.51 19.6958 28.51C19.4758 28.51 19.2641 28.56 19.0608 28.66C18.8574 28.7567 18.6791 28.9183 18.5258 29.145C18.3724 29.3717 18.2491 29.6717 18.1558 30.045C18.0658 30.415 18.0208 30.8733 18.0208 31.42C18.0208 31.9667 18.0658 32.425 18.1558 32.795C18.2491 33.165 18.3724 33.4633 18.5258 33.69C18.6791 33.9167 18.8574 34.08 19.0608 34.18C19.2641 34.2767 19.4758 34.325 19.6958 34.325C19.9158 34.325 20.1274 34.2767 20.3308 34.18C20.5341 34.08 20.7124 33.9167 20.8658 33.69C21.0224 33.4633 21.1458 33.165 21.2358 32.795C21.3291 32.425 21.3758 31.9667 21.3758 31.42ZM25.5016 34.37C25.7349 34.37 25.9432 34.3383 26.1266 34.275C26.3132 34.2083 26.4699 34.1167 26.5966 34C26.7266 33.88 26.8249 33.7383 26.8916 33.575C26.9616 33.4083 26.9966 33.225 26.9966 33.025C26.9966 32.7783 26.9549 32.5683 26.8716 32.395C26.7916 32.2183 26.6816 32.075 26.5416 31.965C26.4049 31.855 26.2466 31.775 26.0666 31.725C25.8866 31.6717 25.6982 31.645 25.5016 31.645C25.3049 31.645 25.1166 31.6717 24.9366 31.725C24.7566 31.775 24.5966 31.855 24.4566 31.965C24.3199 32.075 24.2099 32.2183 24.1266 32.395C24.0466 32.5683 24.0066 32.7783 24.0066 33.025C24.0066 33.225 24.0399 33.4083 24.1066 33.575C24.1766 33.7383 24.2749 33.88 24.4016 34C24.5316 34.1167 24.6882 34.2083 24.8716 34.275C25.0582 34.3383 25.2682 34.37 25.5016 34.37ZM25.5016 28.445C25.2882 28.445 25.0999 28.4767 24.9366 28.54C24.7766 28.6033 24.6416 28.69 24.5316 28.8C24.4249 28.91 24.3432 29.0383 24.2866 29.185C24.2332 29.3317 24.2066 29.4883 24.2066 29.655C24.2066 29.8183 24.2299 29.9767 24.2766 30.13C24.3232 30.2833 24.3982 30.42 24.5016 30.54C24.6049 30.6567 24.7382 30.7517 24.9016 30.825C25.0682 30.895 25.2682 30.93 25.5016 30.93C25.7349 30.93 25.9332 30.895 26.0966 30.825C26.2632 30.7517 26.3982 30.6567 26.5016 30.54C26.6049 30.42 26.6799 30.2833 26.7266 30.13C26.7732 29.9767 26.7966 29.8183 26.7966 29.655C26.7966 29.4883 26.7682 29.3317 26.7116 29.185C26.6582 29.0383 26.5766 28.91 26.4666 28.8C26.3599 28.69 26.2249 28.6033 26.0616 28.54C25.9016 28.4767 25.7149 28.445 25.5016 28.445ZM26.5266 31.265C26.9732 31.3917 27.3166 31.6033 27.5566 31.9C27.7966 32.1967 27.9166 32.5767 27.9166 33.04C27.9166 33.3533 27.8566 33.6367 27.7366 33.89C27.6199 34.14 27.4549 34.3533 27.2416 34.53C27.0316 34.7067 26.7782 34.8433 26.4816 34.94C26.1849 35.0333 25.8582 35.08 25.5016 35.08C25.1449 35.08 24.8182 35.0333 24.5216 34.94C24.2249 34.8433 23.9699 34.7067 23.7566 34.53C23.5432 34.3533 23.3782 34.14 23.2616 33.89C23.1449 33.6367 23.0866 33.3533 23.0866 33.04C23.0866 32.5767 23.2066 32.1967 23.4466 31.9C23.6866 31.6033 24.0299 31.3917 24.4766 31.265C24.0999 31.125 23.8149 30.9167 23.6216 30.64C23.4316 30.36 23.3366 30.0267 23.3366 29.64C23.3366 29.3767 23.3882 29.13 23.4916 28.9C23.5949 28.67 23.7416 28.47 23.9316 28.3C24.1216 28.13 24.3482 27.9967 24.6116 27.9C24.8782 27.8033 25.1749 27.755 25.5016 27.755C25.8249 27.755 26.1199 27.8033 26.3866 27.9C26.6532 27.9967 26.8816 28.13 27.0716 28.3C27.2616 28.47 27.4082 28.67 27.5116 28.9C27.6149 29.13 27.6666 29.3767 27.6666 29.64C27.6666 30.0267 27.5699 30.36 27.3766 30.64C27.1866 30.9167 26.9032 31.125 26.5266 31.265ZM31.3023 34.37C31.5357 34.37 31.744 34.3383 31.9273 34.275C32.114 34.2083 32.2707 34.1167 32.3973 34C32.5273 33.88 32.6257 33.7383 32.6923 33.575C32.7623 33.4083 32.7973 33.225 32.7973 33.025C32.7973 32.7783 32.7557 32.5683 32.6723 32.395C32.5923 32.2183 32.4823 32.075 32.3423 31.965C32.2057 31.855 32.0473 31.775 31.8673 31.725C31.6873 31.6717 31.499 31.645 31.3023 31.645C31.1057 31.645 30.9173 31.6717 30.7373 31.725C30.5573 31.775 30.3973 31.855 30.2573 31.965C30.1207 32.075 30.0107 32.2183 29.9273 32.395C29.8473 32.5683 29.8073 32.7783 29.8073 33.025C29.8073 33.225 29.8407 33.4083 29.9073 33.575C29.9773 33.7383 30.0757 33.88 30.2023 34C30.3323 34.1167 30.489 34.2083 30.6723 34.275C30.859 34.3383 31.069 34.37 31.3023 34.37ZM31.3023 28.445C31.089 28.445 30.9007 28.4767 30.7373 28.54C30.5773 28.6033 30.4423 28.69 30.3323 28.8C30.2257 28.91 30.144 29.0383 30.0873 29.185C30.034 29.3317 30.0073 29.4883 30.0073 29.655C30.0073 29.8183 30.0307 29.9767 30.0773 30.13C30.124 30.2833 30.199 30.42 30.3023 30.54C30.4057 30.6567 30.539 30.7517 30.7023 30.825C30.869 30.895 31.069 30.93 31.3023 30.93C31.5357 30.93 31.734 30.895 31.8973 30.825C32.064 30.7517 32.199 30.6567 32.3023 30.54C32.4057 30.42 32.4807 30.2833 32.5273 30.13C32.574 29.9767 32.5973 29.8183 32.5973 29.655C32.5973 29.4883 32.569 29.3317 32.5123 29.185C32.459 29.0383 32.3773 28.91 32.2673 28.8C32.1607 28.69 32.0257 28.6033 31.8623 28.54C31.7023 28.4767 31.5157 28.445 31.3023 28.445ZM32.3273 31.265C32.774 31.3917 33.1173 31.6033 33.3573 31.9C33.5973 32.1967 33.7173 32.5767 33.7173 33.04C33.7173 33.3533 33.6573 33.6367 33.5373 33.89C33.4207 34.14 33.2557 34.3533 33.0423 34.53C32.8323 34.7067 32.579 34.8433 32.2823 34.94C31.9857 35.0333 31.659 35.08 31.3023 35.08C30.9457 35.08 30.619 35.0333 30.3223 34.94C30.0257 34.8433 29.7707 34.7067 29.5573 34.53C29.344 34.3533 29.179 34.14 29.0623 33.89C28.9457 33.6367 28.8873 33.3533 28.8873 33.04C28.8873 32.5767 29.0073 32.1967 29.2473 31.9C29.4873 31.6033 29.8307 31.3917 30.2773 31.265C29.9007 31.125 29.6157 30.9167 29.4223 30.64C29.2323 30.36 29.1373 30.0267 29.1373 29.64C29.1373 29.3767 29.189 29.13 29.2923 28.9C29.3957 28.67 29.5423 28.47 29.7323 28.3C29.9223 28.13 30.149 27.9967 30.4123 27.9C30.679 27.8033 30.9757 27.755 31.3023 27.755C31.6257 27.755 31.9207 27.8033 32.1873 27.9C32.454 27.9967 32.6823 28.13 32.8723 28.3C33.0623 28.47 33.209 28.67 33.3123 28.9C33.4157 29.13 33.4673 29.3767 33.4673 29.64C33.4673 30.0267 33.3707 30.36 33.1773 30.64C32.9873 30.9167 32.704 31.125 32.3273 31.265ZM34.8531 29.775C34.8998 29.4483 34.9898 29.16 35.1231 28.91C35.2565 28.6567 35.4248 28.445 35.6281 28.275C35.8348 28.105 36.0698 27.9767 36.3331 27.89C36.5998 27.8 36.8865 27.755 37.1931 27.755C37.4965 27.755 37.7765 27.7983 38.0331 27.885C38.2898 27.9717 38.5098 28.095 38.6931 28.255C38.8798 28.415 39.0248 28.6083 39.1281 28.835C39.2315 29.0617 39.2831 29.3133 39.2831 29.59C39.2831 29.8167 39.2531 30.02 39.1931 30.2C39.1365 30.3767 39.0531 30.5317 38.9431 30.665C38.8365 30.7983 38.7065 30.9117 38.5531 31.005C38.3998 31.0983 38.2281 31.175 38.0381 31.235C38.5048 31.355 38.8548 31.5617 39.0881 31.855C39.3248 32.145 39.4431 32.5083 39.4431 32.945C39.4431 33.275 39.3798 33.5717 39.2531 33.835C39.1298 34.0983 38.9598 34.3233 38.7431 34.51C38.5265 34.6933 38.2731 34.835 37.9831 34.935C37.6965 35.0317 37.3881 35.08 37.0581 35.08C36.6781 35.08 36.3531 35.0333 36.0831 34.94C35.8131 34.8433 35.5848 34.7117 35.3981 34.545C35.2115 34.3783 35.0581 34.1817 34.9381 33.955C34.8181 33.725 34.7165 33.4767 34.6331 33.21L35.0181 33.05C35.1181 33.0067 35.2148 32.995 35.3081 33.015C35.4048 33.035 35.4748 33.09 35.5181 33.18C35.5615 33.2733 35.6148 33.385 35.6781 33.515C35.7448 33.645 35.8348 33.77 35.9481 33.89C36.0615 34.01 36.2048 34.1117 36.3781 34.195C36.5548 34.2783 36.7781 34.32 37.0481 34.32C37.2981 34.32 37.5165 34.28 37.7031 34.2C37.8931 34.1167 38.0498 34.01 38.1731 33.88C38.2998 33.75 38.3948 33.605 38.4581 33.445C38.5215 33.285 38.5531 33.1267 38.5531 32.97C38.5531 32.7767 38.5281 32.6 38.4781 32.44C38.4281 32.28 38.3348 32.1417 38.1981 32.025C38.0615 31.9083 37.8731 31.8167 37.6331 31.75C37.3965 31.6833 37.0915 31.65 36.7181 31.65V31.005C37.0248 31.0017 37.2848 30.9683 37.4981 30.905C37.7148 30.8417 37.8898 30.755 38.0231 30.645C38.1598 30.535 38.2581 30.4033 38.3181 30.25C38.3815 30.0967 38.4131 29.9267 38.4131 29.74C38.4131 29.5333 38.3798 29.3533 38.3131 29.2C38.2498 29.0467 38.1615 28.92 38.0481 28.82C37.9348 28.72 37.7998 28.645 37.6431 28.595C37.4898 28.545 37.3231 28.52 37.1431 28.52C36.9631 28.52 36.7948 28.5467 36.6381 28.6C36.4848 28.6533 36.3481 28.7283 36.2281 28.825C36.1115 28.9183 36.0131 29.03 35.9331 29.16C35.8531 29.29 35.7965 29.4333 35.7631 29.59C35.7198 29.7067 35.6648 29.785 35.5981 29.825C35.5348 29.8617 35.4415 29.8717 35.3181 29.855L34.8531 29.775ZM45.4089 27.835V28.235C45.4089 28.3483 45.3956 28.4417 45.3689 28.515C45.3456 28.5883 45.3222 28.65 45.2989 28.7L42.3289 34.685C42.2856 34.7717 42.2256 34.8467 42.1489 34.91C42.0722 34.97 41.9706 35 41.8439 35H41.2039L44.2139 29.09C44.2572 29.0067 44.3022 28.93 44.3489 28.86C44.3956 28.79 44.4456 28.7233 44.4989 28.66H40.7589C40.7022 28.66 40.6522 28.6383 40.6089 28.595C40.5656 28.5483 40.5439 28.4967 40.5439 28.44V27.835H45.4089Z" fill="#808080"/>
<path d="M11.99 20H13.409V16.843H15.994V15.622H13.409V13.411H16.478V12.19H11.99V20ZM17.2733 16.04C17.2733 18.339 19.0113 20.132 21.3103 20.132C23.6093 20.132 25.3473 18.339 25.3473 16.04C25.3473 13.807 23.6093 12.058 21.3103 12.058C19.0113 12.058 17.2733 13.807 17.2733 16.04ZM18.7363 16.04C18.7363 14.5 19.8803 13.356 21.3103 13.356C22.7403 13.356 23.8843 14.5 23.8843 16.04C23.8843 17.646 22.7403 18.834 21.3103 18.834C19.8803 18.834 18.7363 17.646 18.7363 16.04ZM26.7927 20H28.2117V17.085H29.5757L31.1267 20H32.7107L31.1047 17.085C30.9507 16.81 30.8407 16.7 30.8407 16.7V16.678C31.6657 16.348 32.1607 15.479 32.1607 14.544C32.1607 13.51 31.6657 12.762 30.8847 12.41C30.5437 12.256 30.1587 12.19 29.3117 12.19H26.7927V20ZM28.2117 15.853V13.411H29.2897C30.4007 13.411 30.7197 13.873 30.7197 14.621C30.7197 15.402 30.2467 15.853 29.4877 15.853H28.2117ZM34.033 20H38.884V18.779H35.452V16.678H38.081V15.457H35.452V13.411H38.708V12.19H34.033V20ZM39.7661 19.065C39.7661 19.065 40.7231 20.132 42.4611 20.132C44.0891 20.132 45.0351 19.087 45.0351 17.844C45.0351 15.347 41.3611 15.688 41.3611 14.302C41.3611 13.752 41.8781 13.367 42.5381 13.367C43.5171 13.367 44.2651 14.049 44.2651 14.049L44.8811 12.894C44.8811 12.894 44.0891 12.058 42.5491 12.058C41.0531 12.058 39.9311 13.026 39.9311 14.324C39.9311 16.722 43.6161 16.48 43.6161 17.877C43.6161 18.515 43.0771 18.823 42.4831 18.823C41.3831 18.823 40.5361 17.998 40.5361 17.998L39.7661 19.065ZM48.0679 20H49.4869V13.411H52.0499V12.19H45.5049V13.411H48.0679V20Z" fill="#1A1A1A"/>
<path fill-rule="evenodd" clip-rule="evenodd" d="M91 1.49365H231V121H91V1.49365Z" fill="#008837"/>
</svg>
