<svg width="232" height="125" viewBox="0 0 232 125" fill="none" xmlns="http://www.w3.org/2000/svg">
<path fill-rule="evenodd" clip-rule="evenodd" d="M1.00015 1.52437H231V123.476H1.00015V1.52437Z" fill="white"/>
<path d="M16.945 33.52C16.9983 33.52 17.045 33.5417 17.085 33.585L17.47 34C17.1767 34.34 16.82 34.605 16.4 34.795C15.9833 34.985 15.4783 35.08 14.885 35.08C14.3717 35.08 13.905 34.9917 13.485 34.815C13.065 34.635 12.7067 34.385 12.41 34.065C12.1133 33.7417 11.8833 33.355 11.72 32.905C11.5567 32.455 11.475 31.96 11.475 31.42C11.475 30.88 11.56 30.385 11.73 29.935C11.9 29.485 12.1383 29.0983 12.445 28.775C12.755 28.4517 13.125 28.2017 13.555 28.025C13.985 27.845 14.46 27.755 14.98 27.755C15.49 27.755 15.94 27.8367 16.33 28C16.72 28.1633 17.0633 28.385 17.36 28.665L17.04 29.11C17.02 29.1433 16.9933 29.1717 16.96 29.195C16.93 29.215 16.8883 29.225 16.835 29.225C16.775 29.225 16.7017 29.1933 16.615 29.13C16.5283 29.0633 16.415 28.99 16.275 28.91C16.135 28.83 15.96 28.7583 15.75 28.695C15.54 28.6283 15.2817 28.595 14.975 28.595C14.605 28.595 14.2667 28.66 13.96 28.79C13.6533 28.9167 13.3883 29.1017 13.165 29.345C12.945 29.5883 12.7733 29.885 12.65 30.235C12.5267 30.585 12.465 30.98 12.465 31.42C12.465 31.8667 12.5283 32.265 12.655 32.615C12.785 32.965 12.96 33.2617 13.18 33.505C13.4033 33.745 13.665 33.9283 13.965 34.055C14.2683 34.1817 14.595 34.245 14.945 34.245C15.1583 34.245 15.35 34.2333 15.52 34.21C15.6933 34.1833 15.8517 34.1433 15.995 34.09C16.1417 34.0367 16.2767 33.97 16.4 33.89C16.5267 33.8067 16.6517 33.7083 16.775 33.595C16.8317 33.545 16.8883 33.52 16.945 33.52ZM19.4897 30.54C19.863 30.46 20.2064 30.42 20.5197 30.42C20.893 30.42 21.223 30.475 21.5097 30.585C21.7964 30.695 22.0347 30.8467 22.2247 31.04C22.418 31.2333 22.563 31.4617 22.6597 31.725C22.7597 31.9883 22.8097 32.275 22.8097 32.585C22.8097 32.965 22.743 33.3083 22.6097 33.615C22.4797 33.9217 22.298 34.185 22.0647 34.405C21.8347 34.6217 21.563 34.7883 21.2497 34.905C20.9364 35.0217 20.598 35.08 20.2347 35.08C20.0247 35.08 19.823 35.0583 19.6297 35.015C19.4364 34.975 19.2547 34.92 19.0847 34.85C18.918 34.78 18.763 34.7 18.6197 34.61C18.4764 34.52 18.3497 34.425 18.2397 34.325L18.5147 33.945C18.5747 33.8583 18.653 33.815 18.7497 33.815C18.8164 33.815 18.8914 33.8417 18.9747 33.895C19.058 33.945 19.1597 34.0017 19.2797 34.065C19.3997 34.1283 19.5397 34.1867 19.6997 34.24C19.863 34.29 20.0564 34.315 20.2797 34.315C20.5297 34.315 20.7547 34.275 20.9547 34.195C21.1547 34.115 21.3264 34.0017 21.4697 33.855C21.613 33.705 21.723 33.5267 21.7997 33.32C21.8764 33.1133 21.9147 32.8817 21.9147 32.625C21.9147 32.4017 21.8814 32.2 21.8147 32.02C21.7514 31.84 21.653 31.6867 21.5197 31.56C21.3897 31.4333 21.2264 31.335 21.0297 31.265C20.833 31.195 20.603 31.16 20.3397 31.16C20.1597 31.16 19.9714 31.175 19.7747 31.205C19.5814 31.235 19.383 31.2833 19.1797 31.35L18.6197 31.185L19.1947 27.835H22.5897V28.225C22.5897 28.3517 22.5497 28.4567 22.4697 28.54C22.393 28.62 22.2597 28.66 22.0697 28.66H19.8197L19.4897 30.54ZM26.9105 34.23C27.1871 34.23 27.4255 34.1983 27.6255 34.135C27.8255 34.0717 27.9888 33.9833 28.1155 33.87C28.2455 33.7533 28.3405 33.6167 28.4005 33.46C28.4605 33.3 28.4905 33.125 28.4905 32.935C28.4905 32.565 28.3588 32.2733 28.0955 32.06C27.8321 31.8433 27.4371 31.735 26.9105 31.735H25.3605V34.23H26.9105ZM25.3605 28.6V31.045H26.6405C26.9138 31.045 27.1505 31.015 27.3505 30.955C27.5538 30.895 27.7205 30.8117 27.8505 30.705C27.9838 30.5983 28.0821 30.47 28.1455 30.32C28.2088 30.1667 28.2405 30 28.2405 29.82C28.2405 29.3967 28.1138 29.0883 27.8605 28.895C27.6071 28.6983 27.2138 28.6 26.6805 28.6H25.3605ZM26.6805 27.835C27.1205 27.835 27.4988 27.8783 27.8155 27.965C28.1355 28.0517 28.3971 28.175 28.6005 28.335C28.8071 28.495 28.9588 28.6917 29.0555 28.925C29.1521 29.155 29.2005 29.415 29.2005 29.705C29.2005 29.8817 29.1721 30.0517 29.1155 30.215C29.0621 30.375 28.9805 30.525 28.8705 30.665C28.7605 30.805 28.6205 30.9317 28.4505 31.045C28.2838 31.155 28.0871 31.245 27.8605 31.315C28.3871 31.415 28.7821 31.6033 29.0455 31.88C29.3121 32.1533 29.4455 32.5133 29.4455 32.96C29.4455 33.2633 29.3888 33.54 29.2755 33.79C29.1655 34.04 29.0021 34.255 28.7855 34.435C28.5721 34.615 28.3088 34.755 27.9955 34.855C27.6821 34.9517 27.3255 35 26.9255 35H24.3955V27.835H26.6805ZM31.3603 29.94C31.3603 30.1667 31.392 30.37 31.4553 30.55C31.522 30.7267 31.6153 30.8767 31.7353 31C31.8586 31.1233 32.007 31.2167 32.1803 31.28C32.357 31.3433 32.5536 31.375 32.7703 31.375C33.0103 31.375 33.222 31.3367 33.4053 31.26C33.592 31.18 33.7486 31.075 33.8753 30.945C34.002 30.815 34.0986 30.665 34.1653 30.495C34.232 30.325 34.2653 30.1483 34.2653 29.965C34.2653 29.7417 34.2286 29.54 34.1553 29.36C34.0853 29.1767 33.987 29.0217 33.8603 28.895C33.7336 28.7683 33.582 28.6717 33.4053 28.605C33.232 28.535 33.0403 28.5 32.8303 28.5C32.6103 28.5 32.4103 28.5367 32.2303 28.61C32.0503 28.68 31.8953 28.7783 31.7653 28.905C31.6353 29.0317 31.5353 29.1833 31.4653 29.36C31.3953 29.5367 31.3603 29.73 31.3603 29.94ZM33.4403 32.145C33.5136 32.0483 33.582 31.9567 33.6453 31.87C33.7086 31.7833 33.7686 31.6967 33.8253 31.61C33.642 31.7567 33.4353 31.8683 33.2053 31.945C32.9753 32.0217 32.732 32.06 32.4753 32.06C32.2053 32.06 31.9486 32.015 31.7053 31.925C31.4653 31.835 31.2536 31.7033 31.0703 31.53C30.887 31.3533 30.7403 31.1383 30.6303 30.885C30.5236 30.6283 30.4703 30.335 30.4703 30.005C30.4703 29.6917 30.5286 29.3983 30.6453 29.125C30.762 28.8517 30.9253 28.6133 31.1353 28.41C31.3453 28.2067 31.5953 28.0467 31.8853 27.93C32.1753 27.8133 32.4936 27.755 32.8403 27.755C33.1836 27.755 33.4953 27.8117 33.7753 27.925C34.0553 28.0383 34.2953 28.1967 34.4953 28.4C34.6953 28.6033 34.8486 28.8467 34.9553 29.13C35.0653 29.4133 35.1203 29.7267 35.1203 30.07C35.1203 30.2767 35.1003 30.4733 35.0603 30.66C35.0236 30.8433 34.9686 31.025 34.8953 31.205C34.8253 31.3817 34.7386 31.5583 34.6353 31.735C34.532 31.9083 34.4153 32.0867 34.2853 32.27L32.5403 34.79C32.497 34.8533 32.4353 34.905 32.3553 34.945C32.2753 34.9817 32.1836 35 32.0803 35H31.2603L33.4403 32.145ZM40.4661 32.34L39.3411 29.425C39.3078 29.3383 39.2728 29.2383 39.2361 29.125C39.1994 29.0083 39.1644 28.885 39.1311 28.755C39.0611 29.025 38.9894 29.25 38.9161 29.43L37.7911 32.34H40.4661ZM42.4861 35H41.7361C41.6494 35 41.5794 34.9783 41.5261 34.935C41.4728 34.8917 41.4328 34.8367 41.4061 34.77L40.7361 33.04H37.5211L36.8511 34.77C36.8311 34.83 36.7928 34.8833 36.7361 34.93C36.6794 34.9767 36.6094 35 36.5261 35H35.7761L38.6411 27.835H39.6211L42.4861 35ZM48.2731 33.52C48.3265 33.52 48.3731 33.5417 48.4131 33.585L48.7981 34C48.5048 34.34 48.1481 34.605 47.7281 34.795C47.3115 34.985 46.8065 35.08 46.2131 35.08C45.6998 35.08 45.2331 34.9917 44.8131 34.815C44.3931 34.635 44.0348 34.385 43.7381 34.065C43.4415 33.7417 43.2115 33.355 43.0481 32.905C42.8848 32.455 42.8031 31.96 42.8031 31.42C42.8031 30.88 42.8881 30.385 43.0581 29.935C43.2281 29.485 43.4665 29.0983 43.7731 28.775C44.0831 28.4517 44.4531 28.2017 44.8831 28.025C45.3131 27.845 45.7881 27.755 46.3081 27.755C46.8181 27.755 47.2681 27.8367 47.6581 28C48.0481 28.1633 48.3915 28.385 48.6881 28.665L48.3681 29.11C48.3481 29.1433 48.3215 29.1717 48.2881 29.195C48.2581 29.215 48.2165 29.225 48.1631 29.225C48.1031 29.225 48.0298 29.1933 47.9431 29.13C47.8565 29.0633 47.7431 28.99 47.6031 28.91C47.4631 28.83 47.2881 28.7583 47.0781 28.695C46.8681 28.6283 46.6098 28.595 46.3031 28.595C45.9331 28.595 45.5948 28.66 45.2881 28.79C44.9815 28.9167 44.7165 29.1017 44.4931 29.345C44.2731 29.5883 44.1015 29.885 43.9781 30.235C43.8548 30.585 43.7931 30.98 43.7931 31.42C43.7931 31.8667 43.8565 32.265 43.9831 32.615C44.1131 32.965 44.2881 33.2617 44.5081 33.505C44.7315 33.745 44.9931 33.9283 45.2931 34.055C45.5965 34.1817 45.9231 34.245 46.2731 34.245C46.4865 34.245 46.6781 34.2333 46.8481 34.21C47.0215 34.1833 47.1798 34.1433 47.3231 34.09C47.4698 34.0367 47.6048 33.97 47.7281 33.89C47.8548 33.8067 47.9798 33.7083 48.1031 33.595C48.1598 33.545 48.2165 33.52 48.2731 33.52Z" fill="#808080"/>
<path d="M11.451 16.04C11.451 18.339 13.189 20.132 15.488 20.132C17.787 20.132 19.525 18.339 19.525 16.04C19.525 13.807 17.787 12.058 15.488 12.058C13.189 12.058 11.451 13.807 11.451 16.04ZM12.914 16.04C12.914 14.5 14.058 13.356 15.488 13.356C16.918 13.356 18.062 14.5 18.062 16.04C18.062 17.646 16.918 18.834 15.488 18.834C14.058 18.834 12.914 17.646 12.914 16.04ZM25.4705 20H26.9335L24.1835 12.19H22.6985L19.9485 20H21.4115L22.0715 17.998H24.8105L25.4705 20ZM23.4575 13.543C23.4575 13.543 23.6225 14.313 23.7655 14.753L24.4585 16.843H22.4125L23.1055 14.753C23.2595 14.313 23.4355 13.543 23.4355 13.543H23.4575ZM29.0972 20H30.5162V13.411H33.0792V12.19H26.5342V13.411H29.0972V20ZM33.8339 20H35.2529L35.5829 15.633C35.6159 15.116 35.5939 14.412 35.5939 14.412H35.6159C35.6159 14.412 35.8579 15.182 36.0449 15.633L37.2989 18.658H38.5419L39.8069 15.633C39.9939 15.182 40.2249 14.423 40.2249 14.423H40.2469C40.2469 14.423 40.2249 15.116 40.2579 15.633L40.5879 20H41.9959L41.3689 12.19H39.8509L38.3219 16.051C38.1459 16.513 37.9369 17.195 37.9369 17.195H37.9149C37.9149 17.195 37.6949 16.513 37.5189 16.051L35.9899 12.19H34.4719L33.8339 20ZM43.7332 20H48.5842V18.779H45.1522V16.678H47.7812V15.457H45.1522V13.411H48.4082V12.19H43.7332V20ZM54.6033 20H56.0663L53.3163 12.19H51.8313L49.0813 20H50.5443L51.2043 17.998H53.9433L54.6033 20ZM52.5903 13.543C52.5903 13.543 52.7553 14.313 52.8983 14.753L53.5913 16.843H51.5453L52.2383 14.753C52.3923 14.313 52.5683 13.543 52.5683 13.543H52.5903ZM57.0642 20H61.8602V18.779H58.4832V12.19H57.0642V20Z" fill="#1A1A1A"/>
<path fill-rule="evenodd" clip-rule="evenodd" d="M91 1.52437H231V123.476H91V1.52437Z" fill="#C5B9AC"/>
</svg>
