<svg width="233" height="123" viewBox="0 0 233 123" fill="none" xmlns="http://www.w3.org/2000/svg">
<path fill-rule="evenodd" clip-rule="evenodd" d="M1.00004 1.49347H231V121H1.00004V1.49347Z" fill="white"/>
<path d="M12.885 28.625V31.13H15.83V31.92H12.885V35H11.915V27.835H16.33V28.625H12.885ZM19.5443 34.34C19.7843 34.34 20.001 34.3017 20.1943 34.225C20.391 34.1483 20.5576 34.0417 20.6943 33.905C20.8343 33.7683 20.941 33.6067 21.0143 33.42C21.091 33.2333 21.1293 33.03 21.1293 32.81C21.1293 32.5767 21.0926 32.3667 21.0193 32.18C20.946 31.99 20.841 31.83 20.7043 31.7C20.571 31.5667 20.411 31.465 20.2243 31.395C20.0376 31.325 19.8326 31.29 19.6093 31.29C19.3693 31.29 19.1526 31.3317 18.9593 31.415C18.766 31.495 18.601 31.605 18.4643 31.745C18.331 31.8817 18.2276 32.0417 18.1543 32.225C18.0843 32.405 18.0493 32.5933 18.0493 32.79C18.0493 33.02 18.0826 33.23 18.1493 33.42C18.216 33.61 18.3126 33.7733 18.4393 33.91C18.5693 34.0467 18.726 34.1533 18.9093 34.23C19.096 34.3033 19.3076 34.34 19.5443 34.34ZM19.0243 30.52C18.961 30.6 18.8993 30.6783 18.8393 30.755C18.7826 30.8283 18.7276 30.9017 18.6743 30.975C18.8443 30.8583 19.031 30.7683 19.2343 30.705C19.4376 30.6417 19.6593 30.61 19.8993 30.61C20.1893 30.61 20.4626 30.6583 20.7193 30.755C20.976 30.8483 21.1993 30.9867 21.3893 31.17C21.5826 31.35 21.736 31.5733 21.8493 31.84C21.9626 32.1033 22.0193 32.405 22.0193 32.745C22.0193 33.075 21.9593 33.3817 21.8393 33.665C21.7193 33.9483 21.551 34.195 21.3343 34.405C21.121 34.615 20.8626 34.78 20.5593 34.9C20.2593 35.02 19.9276 35.08 19.5643 35.08C19.2043 35.08 18.8776 35.0233 18.5843 34.91C18.291 34.7933 18.041 34.63 17.8343 34.42C17.631 34.2067 17.4726 33.95 17.3593 33.65C17.2493 33.3467 17.1943 33.0083 17.1943 32.635C17.1943 32.3217 17.2626 31.9883 17.3993 31.635C17.5393 31.2783 17.761 30.8983 18.0643 30.495L19.8843 28.05C19.931 27.99 19.9943 27.94 20.0743 27.9C20.1576 27.8567 20.2526 27.835 20.3593 27.835H21.1493L19.0243 30.52ZM24.3401 28.625V31.13H27.2851V31.92H24.3401V35H23.3701V27.835H27.7851V28.625H24.3401ZM29.9194 30.54C30.2927 30.46 30.636 30.42 30.9494 30.42C31.3227 30.42 31.6527 30.475 31.9394 30.585C32.226 30.695 32.4644 30.8467 32.6544 31.04C32.8477 31.2333 32.9927 31.4617 33.0894 31.725C33.1894 31.9883 33.2394 32.275 33.2394 32.585C33.2394 32.965 33.1727 33.3083 33.0394 33.615C32.9094 33.9217 32.7277 34.185 32.4944 34.405C32.2644 34.6217 31.9927 34.7883 31.6794 34.905C31.366 35.0217 31.0277 35.08 30.6644 35.08C30.4544 35.08 30.2527 35.0583 30.0594 35.015C29.866 34.975 29.6844 34.92 29.5144 34.85C29.3477 34.78 29.1927 34.7 29.0494 34.61C28.906 34.52 28.7794 34.425 28.6694 34.325L28.9444 33.945C29.0044 33.8583 29.0827 33.815 29.1794 33.815C29.246 33.815 29.321 33.8417 29.4044 33.895C29.4877 33.945 29.5894 34.0017 29.7094 34.065C29.8294 34.1283 29.9694 34.1867 30.1294 34.24C30.2927 34.29 30.486 34.315 30.7094 34.315C30.9594 34.315 31.1844 34.275 31.3844 34.195C31.5844 34.115 31.756 34.0017 31.8994 33.855C32.0427 33.705 32.1527 33.5267 32.2294 33.32C32.306 33.1133 32.3444 32.8817 32.3444 32.625C32.3444 32.4017 32.311 32.2 32.2444 32.02C32.181 31.84 32.0827 31.6867 31.9494 31.56C31.8194 31.4333 31.656 31.335 31.4594 31.265C31.2627 31.195 31.0327 31.16 30.7694 31.16C30.5894 31.16 30.401 31.175 30.2044 31.205C30.011 31.235 29.8127 31.2833 29.6094 31.35L29.0494 31.185L29.6244 27.835H33.0194V28.225C33.0194 28.3517 32.9794 28.4567 32.8994 28.54C32.8227 28.62 32.6894 28.66 32.4994 28.66H30.2494L29.9194 30.54ZM35.7952 28.625V31.13H38.7402V31.92H35.7952V35H34.8252V27.835H39.2402V28.625H35.7952ZM40.2145 29.775C40.2611 29.4483 40.3511 29.16 40.4845 28.91C40.6178 28.6567 40.7861 28.445 40.9895 28.275C41.1961 28.105 41.4311 27.9767 41.6945 27.89C41.9611 27.8 42.2478 27.755 42.5545 27.755C42.8578 27.755 43.1378 27.7983 43.3945 27.885C43.6511 27.9717 43.8711 28.095 44.0545 28.255C44.2411 28.415 44.3861 28.6083 44.4895 28.835C44.5928 29.0617 44.6445 29.3133 44.6445 29.59C44.6445 29.8167 44.6145 30.02 44.5545 30.2C44.4978 30.3767 44.4145 30.5317 44.3045 30.665C44.1978 30.7983 44.0678 30.9117 43.9145 31.005C43.7611 31.0983 43.5895 31.175 43.3995 31.235C43.8661 31.355 44.2161 31.5617 44.4495 31.855C44.6861 32.145 44.8045 32.5083 44.8045 32.945C44.8045 33.275 44.7411 33.5717 44.6145 33.835C44.4911 34.0983 44.3211 34.3233 44.1045 34.51C43.8878 34.6933 43.6345 34.835 43.3445 34.935C43.0578 35.0317 42.7495 35.08 42.4195 35.08C42.0395 35.08 41.7145 35.0333 41.4445 34.94C41.1745 34.8433 40.9461 34.7117 40.7595 34.545C40.5728 34.3783 40.4195 34.1817 40.2995 33.955C40.1795 33.725 40.0778 33.4767 39.9945 33.21L40.3795 33.05C40.4795 33.0067 40.5761 32.995 40.6695 33.015C40.7661 33.035 40.8361 33.09 40.8795 33.18C40.9228 33.2733 40.9761 33.385 41.0395 33.515C41.1061 33.645 41.1961 33.77 41.3095 33.89C41.4228 34.01 41.5661 34.1117 41.7395 34.195C41.9161 34.2783 42.1395 34.32 42.4095 34.32C42.6595 34.32 42.8778 34.28 43.0645 34.2C43.2545 34.1167 43.4111 34.01 43.5345 33.88C43.6611 33.75 43.7561 33.605 43.8195 33.445C43.8828 33.285 43.9145 33.1267 43.9145 32.97C43.9145 32.7767 43.8895 32.6 43.8395 32.44C43.7895 32.28 43.6961 32.1417 43.5595 32.025C43.4228 31.9083 43.2345 31.8167 42.9945 31.75C42.7578 31.6833 42.4528 31.65 42.0795 31.65V31.005C42.3861 31.0017 42.6461 30.9683 42.8595 30.905C43.0761 30.8417 43.2511 30.755 43.3845 30.645C43.5211 30.535 43.6195 30.4033 43.6795 30.25C43.7428 30.0967 43.7745 29.9267 43.7745 29.74C43.7745 29.5333 43.7411 29.3533 43.6745 29.2C43.6111 29.0467 43.5228 28.92 43.4095 28.82C43.2961 28.72 43.1611 28.645 43.0045 28.595C42.8511 28.545 42.6845 28.52 42.5045 28.52C42.3245 28.52 42.1561 28.5467 41.9995 28.6C41.8461 28.6533 41.7095 28.7283 41.5895 28.825C41.4728 28.9183 41.3745 29.03 41.2945 29.16C41.2145 29.29 41.1578 29.4333 41.1245 29.59C41.0811 29.7067 41.0261 29.785 40.9595 29.825C40.8961 29.8617 40.8028 29.8717 40.6795 29.855L40.2145 29.775Z" fill="#808080"/>
<path d="M11.396 19.065C11.396 19.065 12.353 20.132 14.091 20.132C15.719 20.132 16.665 19.087 16.665 17.844C16.665 15.347 12.991 15.688 12.991 14.302C12.991 13.752 13.508 13.367 14.168 13.367C15.147 13.367 15.895 14.049 15.895 14.049L16.511 12.894C16.511 12.894 15.719 12.058 14.179 12.058C12.683 12.058 11.561 13.026 11.561 14.324C11.561 16.722 15.246 16.48 15.246 17.877C15.246 18.515 14.707 18.823 14.113 18.823C13.013 18.823 12.166 17.998 12.166 17.998L11.396 19.065ZM18.0808 20H22.9318V18.779H19.4998V16.678H22.1288V15.457H19.4998V13.411H22.7558V12.19H18.0808V20ZM28.951 20H30.414L27.664 12.19H26.179L23.429 20H24.892L25.552 17.998H28.291L28.951 20ZM26.938 13.543C26.938 13.543 27.103 14.313 27.246 14.753L27.939 16.843H25.893L26.586 14.753C26.74 14.313 26.916 13.543 26.916 13.543H26.938ZM30.8179 19.065C30.8179 19.065 31.7749 20.132 33.5129 20.132C35.1409 20.132 36.0869 19.087 36.0869 17.844C36.0869 15.347 32.4129 15.688 32.4129 14.302C32.4129 13.752 32.9299 13.367 33.5899 13.367C34.5689 13.367 35.3169 14.049 35.3169 14.049L35.9329 12.894C35.9329 12.894 35.1409 12.058 33.6009 12.058C32.1049 12.058 30.9829 13.026 30.9829 14.324C30.9829 16.722 34.6679 16.48 34.6679 17.877C34.6679 18.515 34.1289 18.823 33.5349 18.823C32.4349 18.823 31.5879 17.998 31.5879 17.998L30.8179 19.065ZM37.5027 20H38.9217V16.722H42.4967V20H43.9157V12.19H42.4967V15.501H38.9217V12.19H37.5027V20ZM45.8923 20H50.7433V18.779H47.3113V16.678H49.9403V15.457H47.3113V13.411H50.5673V12.19H45.8923V20ZM52.2195 20H57.0155V18.779H53.6385V12.19H52.2195V20ZM58.1492 20H62.9452V18.779H59.5682V12.19H58.1492V20Z" fill="#1A1A1A"/>
<path d="M92.5 2.99347H229.5V119.5H92.5V2.99347Z" fill="#F6F5F3" stroke="white" stroke-width="3"/>
</svg>
