<svg width="233" height="123" viewBox="0 0 233 123" fill="none" xmlns="http://www.w3.org/2000/svg">
<path fill-rule="evenodd" clip-rule="evenodd" d="M1.00004 1.49347H231V121H1.00004V1.49347Z" fill="white"/>
<path d="M15.72 32.34L14.595 29.425C14.5617 29.3383 14.5267 29.2383 14.49 29.125C14.4533 29.0083 14.4183 28.885 14.385 28.755C14.315 29.025 14.2433 29.25 14.17 29.43L13.045 32.34H15.72ZM17.74 35H16.99C16.9033 35 16.8333 34.9783 16.78 34.935C16.7267 34.8917 16.6867 34.8367 16.66 34.77L15.99 33.04H12.775L12.105 34.77C12.085 34.83 12.0467 34.8833 11.99 34.93C11.9333 34.9767 11.8633 35 11.78 35H11.03L13.895 27.835H14.875L17.74 35ZM18.4176 29.775C18.4642 29.4483 18.5542 29.16 18.6876 28.91C18.8209 28.6567 18.9892 28.445 19.1926 28.275C19.3992 28.105 19.6342 27.9767 19.8976 27.89C20.1642 27.8 20.4509 27.755 20.7576 27.755C21.0609 27.755 21.3409 27.7983 21.5976 27.885C21.8542 27.9717 22.0742 28.095 22.2576 28.255C22.4442 28.415 22.5892 28.6083 22.6926 28.835C22.7959 29.0617 22.8476 29.3133 22.8476 29.59C22.8476 29.8167 22.8176 30.02 22.7576 30.2C22.7009 30.3767 22.6176 30.5317 22.5076 30.665C22.4009 30.7983 22.2709 30.9117 22.1176 31.005C21.9642 31.0983 21.7926 31.175 21.6026 31.235C22.0692 31.355 22.4192 31.5617 22.6526 31.855C22.8892 32.145 23.0076 32.5083 23.0076 32.945C23.0076 33.275 22.9442 33.5717 22.8176 33.835C22.6942 34.0983 22.5242 34.3233 22.3076 34.51C22.0909 34.6933 21.8376 34.835 21.5476 34.935C21.2609 35.0317 20.9526 35.08 20.6226 35.08C20.2426 35.08 19.9176 35.0333 19.6476 34.94C19.3776 34.8433 19.1492 34.7117 18.9626 34.545C18.7759 34.3783 18.6226 34.1817 18.5026 33.955C18.3826 33.725 18.2809 33.4767 18.1976 33.21L18.5826 33.05C18.6826 33.0067 18.7792 32.995 18.8726 33.015C18.9692 33.035 19.0392 33.09 19.0826 33.18C19.1259 33.2733 19.1792 33.385 19.2426 33.515C19.3092 33.645 19.3992 33.77 19.5126 33.89C19.6259 34.01 19.7692 34.1117 19.9426 34.195C20.1192 34.2783 20.3426 34.32 20.6126 34.32C20.8626 34.32 21.0809 34.28 21.2676 34.2C21.4576 34.1167 21.6142 34.01 21.7376 33.88C21.8642 33.75 21.9592 33.605 22.0226 33.445C22.0859 33.285 22.1176 33.1267 22.1176 32.97C22.1176 32.7767 22.0926 32.6 22.0426 32.44C21.9926 32.28 21.8992 32.1417 21.7626 32.025C21.6259 31.9083 21.4376 31.8167 21.1976 31.75C20.9609 31.6833 20.6559 31.65 20.2826 31.65V31.005C20.5892 31.0017 20.8492 30.9683 21.0626 30.905C21.2792 30.8417 21.4542 30.755 21.5876 30.645C21.7242 30.535 21.8226 30.4033 21.8826 30.25C21.9459 30.0967 21.9776 29.9267 21.9776 29.74C21.9776 29.5333 21.9442 29.3533 21.8776 29.2C21.8142 29.0467 21.7259 28.92 21.6126 28.82C21.4992 28.72 21.3642 28.645 21.2076 28.595C21.0542 28.545 20.8876 28.52 20.7076 28.52C20.5276 28.52 20.3592 28.5467 20.2026 28.6C20.0492 28.6533 19.9126 28.7283 19.7926 28.825C19.6759 28.9183 19.5776 29.03 19.4976 29.16C19.4176 29.29 19.3609 29.4333 19.3276 29.59C19.2842 29.7067 19.2292 29.785 19.1626 29.825C19.0992 29.8617 19.0059 29.8717 18.8826 29.855L18.4176 29.775ZM29.5134 33.52C29.5667 33.52 29.6134 33.5417 29.6534 33.585L30.0384 34C29.745 34.34 29.3884 34.605 28.9684 34.795C28.5517 34.985 28.0467 35.08 27.4534 35.08C26.94 35.08 26.4734 34.9917 26.0534 34.815C25.6334 34.635 25.275 34.385 24.9784 34.065C24.6817 33.7417 24.4517 33.355 24.2884 32.905C24.125 32.455 24.0434 31.96 24.0434 31.42C24.0434 30.88 24.1284 30.385 24.2984 29.935C24.4684 29.485 24.7067 29.0983 25.0134 28.775C25.3234 28.4517 25.6934 28.2017 26.1234 28.025C26.5534 27.845 27.0284 27.755 27.5484 27.755C28.0584 27.755 28.5084 27.8367 28.8984 28C29.2884 28.1633 29.6317 28.385 29.9284 28.665L29.6084 29.11C29.5884 29.1433 29.5617 29.1717 29.5284 29.195C29.4984 29.215 29.4567 29.225 29.4034 29.225C29.3434 29.225 29.27 29.1933 29.1834 29.13C29.0967 29.0633 28.9834 28.99 28.8434 28.91C28.7034 28.83 28.5284 28.7583 28.3184 28.695C28.1084 28.6283 27.85 28.595 27.5434 28.595C27.1734 28.595 26.835 28.66 26.5284 28.79C26.2217 28.9167 25.9567 29.1017 25.7334 29.345C25.5134 29.5883 25.3417 29.885 25.2184 30.235C25.095 30.585 25.0334 30.98 25.0334 31.42C25.0334 31.8667 25.0967 32.265 25.2234 32.615C25.3534 32.965 25.5284 33.2617 25.7484 33.505C25.9717 33.745 26.2334 33.9283 26.5334 34.055C26.8367 34.1817 27.1634 34.245 27.5134 34.245C27.7267 34.245 27.9184 34.2333 28.0884 34.21C28.2617 34.1833 28.42 34.1433 28.5634 34.09C28.71 34.0367 28.845 33.97 28.9684 33.89C29.095 33.8067 29.22 33.7083 29.3434 33.595C29.4 33.545 29.4567 33.52 29.5134 33.52ZM35.653 27.835V28.235C35.653 28.3483 35.6397 28.4417 35.613 28.515C35.5897 28.5883 35.5664 28.65 35.543 28.7L32.573 34.685C32.5297 34.7717 32.4697 34.8467 32.393 34.91C32.3164 34.97 32.2147 35 32.088 35H31.448L34.458 29.09C34.5014 29.0067 34.5464 28.93 34.593 28.86C34.6397 28.79 34.6897 28.7233 34.743 28.66H31.003C30.9464 28.66 30.8964 28.6383 30.853 28.595C30.8097 28.5483 30.788 28.4967 30.788 28.44V27.835H35.653ZM43.1738 31.42C43.1738 31.9567 43.0888 32.445 42.9188 32.885C42.7488 33.325 42.5088 33.7017 42.1988 34.015C41.8888 34.3283 41.5155 34.5717 41.0788 34.745C40.6455 34.915 40.1655 35 39.6388 35H36.9638V27.835H39.6388C40.1655 27.835 40.6455 27.9217 41.0788 28.095C41.5155 28.265 41.8888 28.5083 42.1988 28.825C42.5088 29.1383 42.7488 29.515 42.9188 29.955C43.0888 30.395 43.1738 30.8833 43.1738 31.42ZM42.1788 31.42C42.1788 30.98 42.1188 30.5867 41.9988 30.24C41.8788 29.8933 41.7088 29.6 41.4888 29.36C41.2688 29.12 41.0022 28.9367 40.6888 28.81C40.3755 28.6833 40.0255 28.62 39.6388 28.62H37.9338V34.215H39.6388C40.0255 34.215 40.3755 34.1517 40.6888 34.025C41.0022 33.8983 41.2688 33.7167 41.4888 33.48C41.7088 33.24 41.8788 32.9467 41.9988 32.6C42.1188 32.2533 42.1788 31.86 42.1788 31.42ZM48.5913 34.155C48.6879 34.155 48.7646 34.1833 48.8212 34.24C48.8779 34.2967 48.9063 34.37 48.9063 34.46V35H44.1263V34.695C44.1263 34.6317 44.1396 34.5667 44.1663 34.5C44.1929 34.4333 44.2346 34.3717 44.2913 34.315L46.5863 32.01C46.7763 31.8167 46.9496 31.6317 47.1063 31.455C47.2629 31.275 47.3963 31.095 47.5063 30.915C47.6163 30.735 47.7013 30.5533 47.7613 30.37C47.8213 30.1833 47.8513 29.985 47.8513 29.775C47.8513 29.565 47.8179 29.3817 47.7513 29.225C47.6846 29.065 47.5929 28.9333 47.4763 28.83C47.3629 28.7267 47.2279 28.65 47.0713 28.6C46.9146 28.5467 46.7463 28.52 46.5663 28.52C46.3829 28.52 46.2146 28.5467 46.0613 28.6C45.9079 28.6533 45.7713 28.7283 45.6513 28.825C45.5346 28.9183 45.4363 29.03 45.3563 29.16C45.2763 29.29 45.2196 29.4333 45.1863 29.59C45.1463 29.7067 45.0913 29.785 45.0213 29.825C44.9546 29.8617 44.8596 29.8717 44.7363 29.855L44.2713 29.775C44.3179 29.4483 44.4079 29.16 44.5413 28.91C44.6779 28.6567 44.8479 28.445 45.0513 28.275C45.2579 28.105 45.4929 27.9767 45.7563 27.89C46.0196 27.8 46.3046 27.755 46.6113 27.755C46.9146 27.755 47.1979 27.8 47.4613 27.89C47.7246 27.98 47.9529 28.1117 48.1463 28.285C48.3396 28.455 48.4913 28.6633 48.6013 28.91C48.7113 29.1567 48.7663 29.4367 48.7663 29.75C48.7663 30.0167 48.7263 30.265 48.6463 30.495C48.5663 30.7217 48.4579 30.9383 48.3213 31.145C48.1846 31.3517 48.0263 31.5533 47.8463 31.75C47.6696 31.9467 47.4813 32.145 47.2813 32.345L45.3913 34.275C45.5246 34.2383 45.6596 34.21 45.7963 34.19C45.9329 34.1667 46.0646 34.155 46.1913 34.155H48.5913Z" fill="#808080"/>
<path d="M11.396 19.065C11.396 19.065 12.353 20.132 14.091 20.132C15.719 20.132 16.665 19.087 16.665 17.844C16.665 15.347 12.991 15.688 12.991 14.302C12.991 13.752 13.508 13.367 14.168 13.367C15.147 13.367 15.895 14.049 15.895 14.049L16.511 12.894C16.511 12.894 15.719 12.058 14.179 12.058C12.683 12.058 11.561 13.026 11.561 14.324C11.561 16.722 15.246 16.48 15.246 17.877C15.246 18.515 14.707 18.823 14.113 18.823C13.013 18.823 12.166 17.998 12.166 17.998L11.396 19.065ZM18.0808 20H19.4998V16.59H20.5118L22.4258 20H24.0208L21.6778 15.93V15.908L23.8888 12.19H22.3488L20.5118 15.369H19.4998V12.19H18.0808V20ZM26.8631 20H28.2821V16.733L30.8781 12.19H29.2721L28.0621 14.489C27.8091 14.973 27.5891 15.534 27.5891 15.534H27.5671C27.5561 15.545 27.3471 14.973 27.0941 14.489L25.8731 12.19H24.2671L26.8631 16.733V20ZM31.8953 20H34.7223C36.1633 20 37.4173 19.296 37.4173 17.734C37.4173 16.942 37.0103 16.15 36.1523 15.897V15.875C36.7463 15.556 37.0983 14.929 37.0983 14.203C37.0983 12.916 36.0973 12.19 34.6893 12.19H31.8953V20ZM33.3143 15.38V13.411H34.6673C35.3273 13.411 35.6573 13.818 35.6573 14.379C35.6573 14.94 35.3053 15.38 34.6893 15.38H33.3143ZM33.3143 18.779V16.524H34.8323C35.5473 16.524 35.9653 16.997 35.9653 17.646C35.9653 18.306 35.5583 18.779 34.8323 18.779H33.3143ZM38.9529 20H43.7489V18.779H40.3719V12.19H38.9529V20ZM44.6759 17.195C44.6759 18.944 45.9409 20.132 47.8329 20.132C49.7139 20.132 50.9789 18.944 50.9789 17.195V12.19H49.5599V17.184C49.5599 18.24 48.8669 18.834 47.8219 18.834C46.7769 18.834 46.0949 18.24 46.0949 17.195V12.19H44.6759V17.195ZM52.8533 20H57.7043V18.779H54.2723V16.678H56.9013V15.457H54.2723V13.411H57.5283V12.19H52.8533V20Z" fill="#1A1A1A"/>
<path fill-rule="evenodd" clip-rule="evenodd" d="M91 1.49347H231V121H91V1.49347Z" fill="#A3C7D2"/>
</svg>
