<svg width="232" height="123" viewBox="0 0 232 123" fill="none" xmlns="http://www.w3.org/2000/svg">
<path fill-rule="evenodd" clip-rule="evenodd" d="M0.99992 1.99998H231V121.506H0.99992V1.99998Z" fill="white"/>
<path d="M16.42 28.835V29.235C16.42 29.3483 16.4067 29.4417 16.38 29.515C16.3567 29.5883 16.3317 29.65 16.305 29.7L13.34 35.685C13.2967 35.7717 13.2367 35.8467 13.16 35.91C13.0833 35.97 12.98 36 12.85 36H12.215L15.225 30.09C15.2683 30.0067 15.3117 29.93 15.355 29.86C15.4017 29.79 15.4533 29.7233 15.51 29.66H11.77C11.7133 29.66 11.6617 29.6383 11.615 29.595C11.5717 29.5483 11.55 29.4967 11.55 29.44V28.835H16.42ZM20.0508 31.61C20.3374 31.61 20.6091 31.6583 20.8658 31.755C21.1224 31.8483 21.3474 31.9867 21.5408 32.17C21.7341 32.35 21.8874 32.5733 22.0008 32.84C22.1141 33.1033 22.1708 33.405 22.1708 33.745C22.1708 34.075 22.1108 34.3817 21.9908 34.665C21.8708 34.9483 21.7024 35.195 21.4858 35.405C21.2724 35.615 21.0141 35.78 20.7108 35.9C20.4074 36.02 20.0741 36.08 19.7108 36.08C19.3508 36.08 19.0241 36.0233 18.7308 35.91C18.4408 35.7933 18.1924 35.63 17.9858 35.42C17.7791 35.2067 17.6191 34.95 17.5058 34.65C17.3958 34.3467 17.3408 34.0083 17.3408 33.635C17.3408 33.3217 17.4108 32.9883 17.5508 32.635C17.6908 32.2817 17.9124 31.9017 18.2158 31.495L20.0308 29.05C20.0774 28.99 20.1424 28.94 20.2258 28.9C20.3091 28.8567 20.4041 28.835 20.5108 28.835H21.3008L18.8158 31.98C18.9858 31.8633 19.1741 31.7733 19.3808 31.71C19.5874 31.6433 19.8108 31.61 20.0508 31.61ZM18.2008 33.79C18.2008 34.02 18.2341 34.23 18.3008 34.42C18.3674 34.61 18.4641 34.7733 18.5908 34.91C18.7208 35.0467 18.8774 35.1533 19.0608 35.23C19.2474 35.3033 19.4591 35.34 19.6958 35.34C19.9358 35.34 20.1524 35.3017 20.3458 35.225C20.5391 35.1483 20.7041 35.0417 20.8408 34.905C20.9808 34.7683 21.0874 34.6067 21.1608 34.42C21.2374 34.2333 21.2758 34.03 21.2758 33.81C21.2758 33.5767 21.2391 33.3667 21.1658 33.18C21.0924 32.99 20.9891 32.83 20.8558 32.7C20.7224 32.5667 20.5624 32.465 20.3758 32.395C20.1891 32.325 19.9841 32.29 19.7608 32.29C19.5208 32.29 19.3041 32.3317 19.1108 32.415C18.9174 32.495 18.7524 32.605 18.6158 32.745C18.4824 32.8817 18.3791 33.0417 18.3058 33.225C18.2358 33.405 18.2008 33.5933 18.2008 33.79ZM28.0216 28.835V29.235C28.0216 29.3483 28.0082 29.4417 27.9816 29.515C27.9582 29.5883 27.9332 29.65 27.9066 29.7L24.9416 35.685C24.8982 35.7717 24.8382 35.8467 24.7616 35.91C24.6849 35.97 24.5816 36 24.4516 36H23.8166L26.8266 30.09C26.8699 30.0067 26.9132 29.93 26.9566 29.86C27.0032 29.79 27.0549 29.7233 27.1116 29.66H23.3716C23.3149 29.66 23.2632 29.6383 23.2166 29.595C23.1732 29.5483 23.1516 29.4967 23.1516 29.44V28.835H28.0216ZM31.6523 31.61C31.939 31.61 32.2107 31.6583 32.4673 31.755C32.724 31.8483 32.949 31.9867 33.1423 32.17C33.3357 32.35 33.489 32.5733 33.6023 32.84C33.7157 33.1033 33.7723 33.405 33.7723 33.745C33.7723 34.075 33.7123 34.3817 33.5923 34.665C33.4723 34.9483 33.304 35.195 33.0873 35.405C32.874 35.615 32.6157 35.78 32.3123 35.9C32.009 36.02 31.6757 36.08 31.3123 36.08C30.9523 36.08 30.6257 36.0233 30.3323 35.91C30.0423 35.7933 29.794 35.63 29.5873 35.42C29.3807 35.2067 29.2207 34.95 29.1073 34.65C28.9973 34.3467 28.9423 34.0083 28.9423 33.635C28.9423 33.3217 29.0123 32.9883 29.1523 32.635C29.2923 32.2817 29.514 31.9017 29.8173 31.495L31.6323 29.05C31.679 28.99 31.744 28.94 31.8273 28.9C31.9107 28.8567 32.0057 28.835 32.1123 28.835H32.9023L30.4173 31.98C30.5873 31.8633 30.7757 31.7733 30.9823 31.71C31.189 31.6433 31.4123 31.61 31.6523 31.61ZM29.8023 33.79C29.8023 34.02 29.8357 34.23 29.9023 34.42C29.969 34.61 30.0657 34.7733 30.1923 34.91C30.3223 35.0467 30.479 35.1533 30.6623 35.23C30.849 35.3033 31.0607 35.34 31.2973 35.34C31.5373 35.34 31.754 35.3017 31.9473 35.225C32.1407 35.1483 32.3057 35.0417 32.4423 34.905C32.5823 34.7683 32.689 34.6067 32.7623 34.42C32.839 34.2333 32.8773 34.03 32.8773 33.81C32.8773 33.5767 32.8407 33.3667 32.7673 33.18C32.694 32.99 32.5907 32.83 32.4573 32.7C32.324 32.5667 32.164 32.465 31.9773 32.395C31.7907 32.325 31.5857 32.29 31.3623 32.29C31.1223 32.29 30.9057 32.3317 30.7123 32.415C30.519 32.495 30.354 32.605 30.2173 32.745C30.084 32.8817 29.9807 33.0417 29.9073 33.225C29.8373 33.405 29.8023 33.5933 29.8023 33.79ZM39.6231 28.835V29.235C39.6231 29.3483 39.6098 29.4417 39.5831 29.515C39.5598 29.5883 39.5348 29.65 39.5081 29.7L36.5431 35.685C36.4998 35.7717 36.4398 35.8467 36.3631 35.91C36.2865 35.97 36.1831 36 36.0531 36H35.4181L38.4281 30.09C38.4715 30.0067 38.5148 29.93 38.5581 29.86C38.6048 29.79 38.6565 29.7233 38.7131 29.66H34.9731C34.9165 29.66 34.8648 29.6383 34.8181 29.595C34.7748 29.5483 34.7531 29.4967 34.7531 29.44V28.835H39.6231ZM43.2539 31.61C43.5406 31.61 43.8122 31.6583 44.0689 31.755C44.3256 31.8483 44.5506 31.9867 44.7439 32.17C44.9372 32.35 45.0906 32.5733 45.2039 32.84C45.3172 33.1033 45.3739 33.405 45.3739 33.745C45.3739 34.075 45.3139 34.3817 45.1939 34.665C45.0739 34.9483 44.9056 35.195 44.6889 35.405C44.4756 35.615 44.2172 35.78 43.9139 35.9C43.6106 36.02 43.2772 36.08 42.9139 36.08C42.5539 36.08 42.2272 36.0233 41.9339 35.91C41.6439 35.7933 41.3956 35.63 41.1889 35.42C40.9822 35.2067 40.8222 34.95 40.7089 34.65C40.5989 34.3467 40.5439 34.0083 40.5439 33.635C40.5439 33.3217 40.6139 32.9883 40.7539 32.635C40.8939 32.2817 41.1156 31.9017 41.4189 31.495L43.2339 29.05C43.2806 28.99 43.3456 28.94 43.4289 28.9C43.5122 28.8567 43.6072 28.835 43.7139 28.835H44.5039L42.0189 31.98C42.1889 31.8633 42.3772 31.7733 42.5839 31.71C42.7906 31.6433 43.0139 31.61 43.2539 31.61ZM41.4039 33.79C41.4039 34.02 41.4372 34.23 41.5039 34.42C41.5706 34.61 41.6672 34.7733 41.7939 34.91C41.9239 35.0467 42.0806 35.1533 42.2639 35.23C42.4506 35.3033 42.6622 35.34 42.8989 35.34C43.1389 35.34 43.3556 35.3017 43.5489 35.225C43.7422 35.1483 43.9072 35.0417 44.0439 34.905C44.1839 34.7683 44.2906 34.6067 44.3639 34.42C44.4406 34.2333 44.4789 34.03 44.4789 33.81C44.4789 33.5767 44.4422 33.3667 44.3689 33.18C44.2956 32.99 44.1922 32.83 44.0589 32.7C43.9256 32.5667 43.7656 32.465 43.5789 32.395C43.3922 32.325 43.1872 32.29 42.9639 32.29C42.7239 32.29 42.5072 32.3317 42.3139 32.415C42.1206 32.495 41.9556 32.605 41.8189 32.745C41.6856 32.8817 41.5822 33.0417 41.5089 33.225C41.4389 33.405 41.4039 33.5933 41.4039 33.79Z" fill="#808080"/>
<path d="M12.396 20.065C12.396 20.065 13.353 21.132 15.091 21.132C16.719 21.132 17.665 20.087 17.665 18.844C17.665 16.347 13.991 16.688 13.991 15.302C13.991 14.752 14.508 14.367 15.168 14.367C16.147 14.367 16.895 15.049 16.895 15.049L17.511 13.894C17.511 13.894 16.719 13.058 15.179 13.058C13.683 13.058 12.561 14.026 12.561 15.324C12.561 17.722 16.246 17.48 16.246 18.877C16.246 19.515 15.707 19.823 15.113 19.823C14.013 19.823 13.166 18.998 13.166 18.998L12.396 20.065ZM19.0808 21H23.8768V19.779H20.4998V13.19H19.0808V21ZM29.8113 21H31.2743L28.5243 13.19H27.0393L24.2893 21H25.7523L26.4123 18.998H29.1513L29.8113 21ZM27.7983 14.543C27.7983 14.543 27.9633 15.313 28.1063 15.753L28.7993 17.843H26.7533L27.4463 15.753C27.6003 15.313 27.7763 14.543 27.7763 14.543H27.7983ZM33.4381 21H34.8571V14.411H37.4201V13.19H30.8751V14.411H33.4381V21ZM38.449 21H43.3V19.779H39.868V17.678H42.497V16.457H39.868V14.411H43.124V13.19H38.449V21Z" fill="#1A1A1A"/>
<path fill-rule="evenodd" clip-rule="evenodd" d="M91 1.99998H231V121.506H91V1.99998Z" fill="#767676"/>
</svg>
