<svg width="232" height="123" viewBox="0 0 232 123" fill="none" xmlns="http://www.w3.org/2000/svg">
<path fill-rule="evenodd" clip-rule="evenodd" d="M0.99992 1.99998H231V121.506H0.99992V1.99998Z" fill="white"/>
<path d="M16.09 35.32V36H12.25V35.32H13.785V30.435C13.785 30.2883 13.79 30.14 13.8 29.99L12.525 31.085C12.4817 31.1217 12.4383 31.145 12.395 31.155C12.3517 31.1617 12.3117 31.1617 12.275 31.155C12.2383 31.1483 12.2033 31.135 12.17 31.115C12.14 31.095 12.1167 31.0733 12.1 31.05L11.82 30.665L13.955 28.82H14.68V35.32H16.09ZM21.5208 33.34L20.3958 30.425C20.3624 30.3383 20.3274 30.2383 20.2908 30.125C20.2541 30.0083 20.2191 29.885 20.1858 29.755C20.1158 30.025 20.0441 30.25 19.9708 30.43L18.8458 33.34H21.5208ZM23.5408 36H22.7908C22.7041 36 22.6341 35.9783 22.5808 35.935C22.5274 35.8917 22.4874 35.8367 22.4608 35.77L21.7908 34.04H18.5758L17.9058 35.77C17.8858 35.83 17.8474 35.8833 17.7908 35.93C17.7341 35.9767 17.6641 36 17.5808 36H16.8308L19.6958 28.835H20.6758L23.5408 36ZM25.3784 31.54C25.7517 31.46 26.095 31.42 26.4084 31.42C26.7817 31.42 27.1117 31.475 27.3984 31.585C27.685 31.695 27.9234 31.8467 28.1134 32.04C28.3067 32.2333 28.4517 32.4617 28.5484 32.725C28.6484 32.9883 28.6984 33.275 28.6984 33.585C28.6984 33.965 28.6317 34.3083 28.4984 34.615C28.3684 34.9217 28.1867 35.185 27.9534 35.405C27.7234 35.6217 27.4517 35.7883 27.1384 35.905C26.825 36.0217 26.4867 36.08 26.1234 36.08C25.9134 36.08 25.7117 36.0583 25.5184 36.015C25.325 35.975 25.1434 35.92 24.9734 35.85C24.8067 35.78 24.6517 35.7 24.5084 35.61C24.365 35.52 24.2384 35.425 24.1284 35.325L24.4034 34.945C24.4634 34.8583 24.5417 34.815 24.6384 34.815C24.705 34.815 24.78 34.8417 24.8634 34.895C24.9467 34.945 25.0484 35.0017 25.1684 35.065C25.2884 35.1283 25.4284 35.1867 25.5884 35.24C25.7517 35.29 25.945 35.315 26.1684 35.315C26.4184 35.315 26.6434 35.275 26.8434 35.195C27.0434 35.115 27.215 35.0017 27.3584 34.855C27.5017 34.705 27.6117 34.5267 27.6884 34.32C27.765 34.1133 27.8034 33.8817 27.8034 33.625C27.8034 33.4017 27.77 33.2 27.7034 33.02C27.64 32.84 27.5417 32.6867 27.4084 32.56C27.2784 32.4333 27.115 32.335 26.9184 32.265C26.7217 32.195 26.4917 32.16 26.2284 32.16C26.0484 32.16 25.86 32.175 25.6634 32.205C25.47 32.235 25.2717 32.2833 25.0684 32.35L24.5084 32.185L25.0834 28.835H28.4784V29.225C28.4784 29.3517 28.4384 29.4567 28.3584 29.54C28.2817 29.62 28.1484 29.66 27.9584 29.66H25.7084L25.3784 31.54ZM32.7991 35.23C33.0758 35.23 33.3141 35.1983 33.5141 35.135C33.7141 35.0717 33.8775 34.9833 34.0041 34.87C34.1341 34.7533 34.2291 34.6167 34.2891 34.46C34.3491 34.3 34.3791 34.125 34.3791 33.935C34.3791 33.565 34.2475 33.2733 33.9841 33.06C33.7208 32.8433 33.3258 32.735 32.7991 32.735H31.2491V35.23H32.7991ZM31.2491 29.6V32.045H32.5291C32.8025 32.045 33.0391 32.015 33.2391 31.955C33.4425 31.895 33.6091 31.8117 33.7391 31.705C33.8725 31.5983 33.9708 31.47 34.0341 31.32C34.0975 31.1667 34.1291 31 34.1291 30.82C34.1291 30.3967 34.0025 30.0883 33.7491 29.895C33.4958 29.6983 33.1025 29.6 32.5691 29.6H31.2491ZM32.5691 28.835C33.0091 28.835 33.3875 28.8783 33.7041 28.965C34.0241 29.0517 34.2858 29.175 34.4891 29.335C34.6958 29.495 34.8475 29.6917 34.9441 29.925C35.0408 30.155 35.0891 30.415 35.0891 30.705C35.0891 30.8817 35.0608 31.0517 35.0041 31.215C34.9508 31.375 34.8691 31.525 34.7591 31.665C34.6491 31.805 34.5091 31.9317 34.3391 32.045C34.1725 32.155 33.9758 32.245 33.7491 32.315C34.2758 32.415 34.6708 32.6033 34.9341 32.88C35.2008 33.1533 35.3341 33.5133 35.3341 33.96C35.3341 34.2633 35.2775 34.54 35.1641 34.79C35.0541 35.04 34.8908 35.255 34.6741 35.435C34.4608 35.615 34.1975 35.755 33.8841 35.855C33.5708 35.9517 33.2141 36 32.8141 36H30.2841V28.835H32.5691ZM38.724 35.34C38.964 35.34 39.1807 35.3017 39.374 35.225C39.5707 35.1483 39.7373 35.0417 39.874 34.905C40.014 34.7683 40.1207 34.6067 40.194 34.42C40.2707 34.2333 40.309 34.03 40.309 33.81C40.309 33.5767 40.2723 33.3667 40.199 33.18C40.1257 32.99 40.0207 32.83 39.884 32.7C39.7507 32.5667 39.5907 32.465 39.404 32.395C39.2173 32.325 39.0123 32.29 38.789 32.29C38.549 32.29 38.3323 32.3317 38.139 32.415C37.9457 32.495 37.7807 32.605 37.644 32.745C37.5107 32.8817 37.4073 33.0417 37.334 33.225C37.264 33.405 37.229 33.5933 37.229 33.79C37.229 34.02 37.2623 34.23 37.329 34.42C37.3957 34.61 37.4923 34.7733 37.619 34.91C37.749 35.0467 37.9057 35.1533 38.089 35.23C38.2757 35.3033 38.4873 35.34 38.724 35.34ZM38.204 31.52C38.1407 31.6 38.079 31.6783 38.019 31.755C37.9623 31.8283 37.9073 31.9017 37.854 31.975C38.024 31.8583 38.2107 31.7683 38.414 31.705C38.6173 31.6417 38.839 31.61 39.079 31.61C39.369 31.61 39.6423 31.6583 39.899 31.755C40.1557 31.8483 40.379 31.9867 40.569 32.17C40.7623 32.35 40.9157 32.5733 41.029 32.84C41.1423 33.1033 41.199 33.405 41.199 33.745C41.199 34.075 41.139 34.3817 41.019 34.665C40.899 34.9483 40.7307 35.195 40.514 35.405C40.3007 35.615 40.0423 35.78 39.739 35.9C39.439 36.02 39.1073 36.08 38.744 36.08C38.384 36.08 38.0573 36.0233 37.764 35.91C37.4707 35.7933 37.2207 35.63 37.014 35.42C36.8107 35.2067 36.6523 34.95 36.539 34.65C36.429 34.3467 36.374 34.0083 36.374 33.635C36.374 33.3217 36.4423 32.9883 36.579 32.635C36.719 32.2783 36.9407 31.8983 37.244 31.495L39.064 29.05C39.1107 28.99 39.174 28.94 39.254 28.9C39.3373 28.8567 39.4323 28.835 39.539 28.835H40.329L38.204 31.52ZM47.1348 32.42C47.1348 33.0467 47.0664 33.59 46.9298 34.05C46.7964 34.5067 46.6131 34.885 46.3798 35.185C46.1464 35.485 45.8698 35.7083 45.5498 35.855C45.2331 36.0017 44.8931 36.075 44.5298 36.075C44.1631 36.075 43.8214 36.0017 43.5048 35.855C43.1914 35.7083 42.9181 35.485 42.6848 35.185C42.4514 34.885 42.2681 34.5067 42.1348 34.05C42.0014 33.59 41.9348 33.0467 41.9348 32.42C41.9348 31.7933 42.0014 31.25 42.1348 30.79C42.2681 30.33 42.4514 29.95 42.6848 29.65C42.9181 29.3467 43.1914 29.1217 43.5048 28.975C43.8214 28.8283 44.1631 28.755 44.5298 28.755C44.8931 28.755 45.2331 28.8283 45.5498 28.975C45.8698 29.1217 46.1464 29.3467 46.3798 29.65C46.6131 29.95 46.7964 30.33 46.9298 30.79C47.0664 31.25 47.1348 31.7933 47.1348 32.42ZM46.2098 32.42C46.2098 31.8733 46.1631 31.415 46.0698 31.045C45.9798 30.6717 45.8564 30.3717 45.6998 30.145C45.5464 29.9183 45.3681 29.7567 45.1648 29.66C44.9614 29.56 44.7498 29.51 44.5298 29.51C44.3098 29.51 44.0981 29.56 43.8948 29.66C43.6914 29.7567 43.5131 29.9183 43.3598 30.145C43.2064 30.3717 43.0831 30.6717 42.9898 31.045C42.8998 31.415 42.8548 31.8733 42.8548 32.42C42.8548 32.9667 42.8998 33.425 42.9898 33.795C43.0831 34.165 43.2064 34.4633 43.3598 34.69C43.5131 34.9167 43.6914 35.08 43.8948 35.18C44.0981 35.2767 44.3098 35.325 44.5298 35.325C44.7498 35.325 44.9614 35.2767 45.1648 35.18C45.3681 35.08 45.5464 34.9167 45.6998 34.69C45.8564 34.4633 45.9798 34.165 46.0698 33.795C46.1631 33.425 46.2098 32.9667 46.2098 32.42Z" fill="#808080"/>
<path d="M14.607 21H16.026V14.411H18.589V13.19H12.044V14.411H14.607V21ZM19.6179 21H24.4689V19.779H21.0369V17.678H23.6659V16.457H21.0369V14.411H24.2929V13.19H19.6179V21ZM30.4881 21H31.9511L29.2011 13.19H27.7161L24.9661 21H26.4291L27.0891 18.998H29.8281L30.4881 21ZM28.4751 14.543C28.4751 14.543 28.6401 15.313 28.7831 15.753L29.4761 17.843H27.4301L28.1231 15.753C28.2771 15.313 28.4531 14.543 28.4531 14.543H28.4751ZM32.949 21H37.745V19.779H34.368V13.19H32.949V21ZM42.5875 22.045H43.7645C42.9395 20.527 42.5215 18.877 42.5215 17.238C42.5215 15.687 42.9615 14.202 43.7645 12.849H42.5875C41.7515 14.169 41.2785 15.643 41.2785 17.227C41.2785 19.031 41.7735 20.714 42.5875 22.045ZM44.3648 20.065C44.3648 20.065 45.3218 21.132 47.0598 21.132C48.6878 21.132 49.6338 20.087 49.6338 18.844C49.6338 16.347 45.9598 16.688 45.9598 15.302C45.9598 14.752 46.4768 14.367 47.1368 14.367C48.1158 14.367 48.8638 15.049 48.8638 15.049L49.4798 13.894C49.4798 13.894 48.6878 13.058 47.1478 13.058C45.6518 13.058 44.5298 14.026 44.5298 15.324C44.5298 17.722 48.2148 17.48 48.2148 18.877C48.2148 19.515 47.6758 19.823 47.0818 19.823C45.9818 19.823 45.1348 18.998 45.1348 18.998L44.3648 20.065ZM51.0496 21H52.4686V17.722H56.0436V21H57.4626V13.19H56.0436V16.501H52.4686V13.19H51.0496V21ZM63.9822 21H65.4452L62.6952 13.19H61.2102L58.4602 21H59.9232L60.5832 18.998H63.3222L63.9822 21ZM61.9692 14.543C61.9692 14.543 62.1342 15.313 62.2772 15.753L62.9702 17.843H60.9242L61.6172 15.753C61.7712 15.313 61.9472 14.543 61.9472 14.543H61.9692ZM66.4431 21H69.1051C71.5141 21 73.0871 19.548 73.0871 17.084C73.0871 14.62 71.5141 13.19 69.1051 13.19H66.4431V21ZM67.8621 19.779V14.411H69.0281C70.5901 14.411 71.6241 15.346 71.6241 17.084C71.6241 18.844 70.6121 19.779 69.0281 19.779H67.8621ZM74.575 21H79.426V19.779H75.994V17.678H78.623V16.457H75.994V14.411H79.25V13.19H74.575V21ZM81.2981 22.045C82.1121 20.714 82.6071 19.031 82.6071 17.227C82.6071 15.643 82.1341 14.169 81.2981 12.849H80.1211C80.9241 14.202 81.3641 15.687 81.3641 17.238C81.3641 18.877 80.9351 20.527 80.1211 22.045H81.2981Z" fill="#1A1A1A"/>
<path fill-rule="evenodd" clip-rule="evenodd" d="M91 1.99998H231V121.506H91V1.99998Z" fill="#1A5B60"/>
</svg>
