<svg width="232" height="123" viewBox="0 0 232 123" fill="none" xmlns="http://www.w3.org/2000/svg">
<path fill-rule="evenodd" clip-rule="evenodd" d="M1.00015 1.99998H231V121.506H1.00015V1.99998Z" fill="white"/>
<path d="M16.5 32.42C16.5 33.0467 16.4317 33.59 16.295 34.05C16.1617 34.5067 15.9783 34.885 15.745 35.185C15.5117 35.485 15.235 35.7083 14.915 35.855C14.5983 36.0017 14.2583 36.075 13.895 36.075C13.5283 36.075 13.1867 36.0017 12.87 35.855C12.5567 35.7083 12.2833 35.485 12.05 35.185C11.8167 34.885 11.6333 34.5067 11.5 34.05C11.3667 33.59 11.3 33.0467 11.3 32.42C11.3 31.7933 11.3667 31.25 11.5 30.79C11.6333 30.33 11.8167 29.95 12.05 29.65C12.2833 29.3467 12.5567 29.1217 12.87 28.975C13.1867 28.8283 13.5283 28.755 13.895 28.755C14.2583 28.755 14.5983 28.8283 14.915 28.975C15.235 29.1217 15.5117 29.3467 15.745 29.65C15.9783 29.95 16.1617 30.33 16.295 30.79C16.4317 31.25 16.5 31.7933 16.5 32.42ZM15.575 32.42C15.575 31.8733 15.5283 31.415 15.435 31.045C15.345 30.6717 15.2217 30.3717 15.065 30.145C14.9117 29.9183 14.7333 29.7567 14.53 29.66C14.3267 29.56 14.115 29.51 13.895 29.51C13.675 29.51 13.4633 29.56 13.26 29.66C13.0567 29.7567 12.8783 29.9183 12.725 30.145C12.5717 30.3717 12.4483 30.6717 12.355 31.045C12.265 31.415 12.22 31.8733 12.22 32.42C12.22 32.9667 12.265 33.425 12.355 33.795C12.4483 34.165 12.5717 34.4633 12.725 34.69C12.8783 34.9167 13.0567 35.08 13.26 35.18C13.4633 35.2767 13.675 35.325 13.895 35.325C14.115 35.325 14.3267 35.2767 14.53 35.18C14.7333 35.08 14.9117 34.9167 15.065 34.69C15.2217 34.4633 15.345 34.165 15.435 33.795C15.5283 33.425 15.575 32.9667 15.575 32.42ZM22.3008 32.42C22.3008 33.0467 22.2324 33.59 22.0958 34.05C21.9624 34.5067 21.7791 34.885 21.5458 35.185C21.3124 35.485 21.0358 35.7083 20.7158 35.855C20.3991 36.0017 20.0591 36.075 19.6958 36.075C19.3291 36.075 18.9874 36.0017 18.6708 35.855C18.3574 35.7083 18.0841 35.485 17.8508 35.185C17.6174 34.885 17.4341 34.5067 17.3008 34.05C17.1674 33.59 17.1008 33.0467 17.1008 32.42C17.1008 31.7933 17.1674 31.25 17.3008 30.79C17.4341 30.33 17.6174 29.95 17.8508 29.65C18.0841 29.3467 18.3574 29.1217 18.6708 28.975C18.9874 28.8283 19.3291 28.755 19.6958 28.755C20.0591 28.755 20.3991 28.8283 20.7158 28.975C21.0358 29.1217 21.3124 29.3467 21.5458 29.65C21.7791 29.95 21.9624 30.33 22.0958 30.79C22.2324 31.25 22.3008 31.7933 22.3008 32.42ZM21.3758 32.42C21.3758 31.8733 21.3291 31.415 21.2358 31.045C21.1458 30.6717 21.0224 30.3717 20.8658 30.145C20.7124 29.9183 20.5341 29.7567 20.3308 29.66C20.1274 29.56 19.9158 29.51 19.6958 29.51C19.4758 29.51 19.2641 29.56 19.0608 29.66C18.8574 29.7567 18.6791 29.9183 18.5258 30.145C18.3724 30.3717 18.2491 30.6717 18.1558 31.045C18.0658 31.415 18.0208 31.8733 18.0208 32.42C18.0208 32.9667 18.0658 33.425 18.1558 33.795C18.2491 34.165 18.3724 34.4633 18.5258 34.69C18.6791 34.9167 18.8574 35.08 19.0608 35.18C19.2641 35.2767 19.4758 35.325 19.6958 35.325C19.9158 35.325 20.1274 35.2767 20.3308 35.18C20.5341 35.08 20.7124 34.9167 20.8658 34.69C21.0224 34.4633 21.1458 34.165 21.2358 33.795C21.3291 33.425 21.3758 32.9667 21.3758 32.42ZM25.3466 33.06C25.0766 33.06 24.8199 33.015 24.5766 32.925C24.3366 32.835 24.1249 32.7033 23.9416 32.53C23.7582 32.3533 23.6116 32.1383 23.5016 31.885C23.3949 31.6283 23.3416 31.335 23.3416 31.005C23.3416 30.6917 23.3999 30.3983 23.5166 30.125C23.6332 29.8517 23.7966 29.6133 24.0066 29.41C24.2166 29.2067 24.4666 29.0467 24.7566 28.93C25.0466 28.8133 25.3649 28.755 25.7116 28.755C26.0549 28.755 26.3666 28.8117 26.6466 28.925C26.9266 29.0383 27.1666 29.1967 27.3666 29.4C27.5666 29.6033 27.7199 29.8467 27.8266 30.13C27.9366 30.4133 27.9916 30.7267 27.9916 31.07C27.9916 31.2767 27.9716 31.4733 27.9316 31.66C27.8949 31.8433 27.8399 32.0233 27.7666 32.2C27.6932 32.3767 27.6049 32.5533 27.5016 32.73C27.4016 32.9033 27.2866 33.0833 27.1566 33.27L25.4116 35.79C25.3682 35.8533 25.3066 35.905 25.2266 35.945C25.1466 35.9817 25.0549 36 24.9516 36H24.1316L26.3116 33.145C26.3849 33.0483 26.4532 32.9567 26.5166 32.87C26.5799 32.7833 26.6399 32.6967 26.6966 32.61C26.5132 32.7567 26.3066 32.8683 26.0766 32.945C25.8466 33.0217 25.6032 33.06 25.3466 33.06ZM27.1366 30.965C27.1366 30.7417 27.0999 30.54 27.0266 30.36C26.9566 30.1767 26.8582 30.0217 26.7316 29.895C26.6049 29.7683 26.4532 29.6717 26.2766 29.605C26.1032 29.535 25.9116 29.5 25.7016 29.5C25.4816 29.5 25.2799 29.5367 25.0966 29.61C24.9166 29.68 24.7616 29.7783 24.6316 29.905C24.5049 30.0317 24.4066 30.1833 24.3366 30.36C24.2666 30.5367 24.2316 30.73 24.2316 30.94C24.2316 31.1667 24.2632 31.37 24.3266 31.55C24.3932 31.7267 24.4866 31.8767 24.6066 32C24.7299 32.1233 24.8782 32.2167 25.0516 32.28C25.2282 32.3433 25.4249 32.375 25.6416 32.375C25.8816 32.375 26.0932 32.3367 26.2766 32.26C26.4632 32.18 26.6199 32.075 26.7466 31.945C26.8732 31.815 26.9699 31.665 27.0366 31.495C27.1032 31.325 27.1366 31.1483 27.1366 30.965ZM34.3223 34.52C34.3757 34.52 34.424 34.5417 34.4673 34.585L34.8473 35C34.554 35.34 34.1973 35.605 33.7773 35.795C33.3607 35.985 32.8573 36.08 32.2673 36.08C31.7507 36.08 31.2823 35.9917 30.8623 35.815C30.4423 35.635 30.084 35.385 29.7873 35.065C29.4907 34.7417 29.2607 34.355 29.0973 33.905C28.934 33.455 28.8523 32.96 28.8523 32.42C28.8523 31.88 28.939 31.385 29.1123 30.935C29.289 30.485 29.5357 30.0983 29.8523 29.775C30.169 29.4517 30.5473 29.2017 30.9873 29.025C31.4307 28.845 31.919 28.755 32.4523 28.755C32.979 28.755 33.4323 28.8367 33.8123 29C34.1957 29.1633 34.5357 29.385 34.8323 29.665L34.5173 30.11C34.494 30.1433 34.4673 30.1717 34.4373 30.195C34.4073 30.215 34.364 30.225 34.3073 30.225C34.264 30.225 34.2173 30.21 34.1673 30.18C34.1207 30.1467 34.064 30.1067 33.9973 30.06C33.9307 30.0133 33.8523 29.9633 33.7623 29.91C33.6723 29.8567 33.5657 29.8067 33.4423 29.76C33.319 29.7133 33.1757 29.675 33.0123 29.645C32.849 29.6117 32.6607 29.595 32.4473 29.595C32.064 29.595 31.7123 29.6617 31.3923 29.795C31.0757 29.925 30.8023 30.1117 30.5723 30.355C30.3423 30.5983 30.1623 30.895 30.0323 31.245C29.9057 31.595 29.8423 31.9867 29.8423 32.42C29.8423 32.8667 29.9057 33.265 30.0323 33.615C30.1623 33.965 30.3373 34.2617 30.5573 34.505C30.7807 34.745 31.044 34.9283 31.3473 35.055C31.6507 35.1817 31.9773 35.245 32.3273 35.245C32.5407 35.245 32.7323 35.2333 32.9023 35.21C33.0723 35.1833 33.229 35.1433 33.3723 35.09C33.519 35.0367 33.654 34.97 33.7773 34.89C33.904 34.8067 34.0307 34.7083 34.1573 34.595C34.214 34.545 34.269 34.52 34.3223 34.52ZM42.013 36H41.263C41.1764 36 41.1064 35.9783 41.053 35.935C40.9997 35.8917 40.9597 35.8367 40.933 35.77L40.263 34.04H37.048L36.378 35.77C36.3547 35.83 36.3147 35.8833 36.258 35.93C36.2014 35.9767 36.1314 36 36.048 36H35.298L38.163 28.835H39.148L42.013 36ZM37.318 33.34H39.993L38.868 30.425C38.7947 30.245 38.723 30.02 38.653 29.75C38.6164 29.8867 38.5797 30.0133 38.543 30.13C38.5097 30.2433 38.4764 30.3433 38.443 30.43L37.318 33.34ZM45.2949 31.61C45.5816 31.61 45.8533 31.6583 46.1099 31.755C46.3666 31.8483 46.5916 31.9867 46.7849 32.17C46.9783 32.35 47.1316 32.5733 47.2449 32.84C47.3583 33.1033 47.4149 33.405 47.4149 33.745C47.4149 34.075 47.3549 34.3817 47.2349 34.665C47.1149 34.9483 46.9466 35.195 46.7299 35.405C46.5166 35.615 46.2583 35.78 45.9549 35.9C45.6516 36.02 45.3183 36.08 44.9549 36.08C44.5949 36.08 44.2683 36.0233 43.9749 35.91C43.6849 35.7933 43.4366 35.63 43.2299 35.42C43.0233 35.2067 42.8633 34.95 42.7499 34.65C42.6399 34.3467 42.5849 34.0083 42.5849 33.635C42.5849 33.3217 42.6549 32.9883 42.7949 32.635C42.9349 32.2817 43.1566 31.9017 43.4599 31.495L45.2749 29.05C45.3216 28.99 45.3866 28.94 45.4699 28.9C45.5533 28.8567 45.6483 28.835 45.7549 28.835H46.5449L44.0599 31.98C44.2299 31.8633 44.4183 31.7733 44.6249 31.71C44.8316 31.6433 45.0549 31.61 45.2949 31.61ZM43.4449 33.79C43.4449 34.02 43.4783 34.23 43.5449 34.42C43.6116 34.61 43.7083 34.7733 43.8349 34.91C43.9649 35.0467 44.1216 35.1533 44.3049 35.23C44.4916 35.3033 44.7033 35.34 44.9399 35.34C45.1799 35.34 45.3966 35.3017 45.5899 35.225C45.7833 35.1483 45.9483 35.0417 46.0849 34.905C46.2249 34.7683 46.3316 34.6067 46.4049 34.42C46.4816 34.2333 46.5199 34.03 46.5199 33.81C46.5199 33.5767 46.4833 33.3667 46.4099 33.18C46.3366 32.99 46.2333 32.83 46.0999 32.7C45.9666 32.5667 45.8066 32.465 45.6199 32.395C45.4333 32.325 45.2283 32.29 45.0049 32.29C44.7649 32.29 44.5483 32.3317 44.3549 32.415C44.1616 32.495 43.9966 32.605 43.8599 32.745C43.7266 32.8817 43.6233 33.0417 43.5499 33.225C43.4799 33.405 43.4449 33.5933 43.4449 33.79Z" fill="#808080"/>
<path d="M12.607 21H14.026V14.411H16.589V13.19H10.044V14.411H12.607V21ZM17.6179 21H22.4689V19.779H19.0369V17.678H21.6659V16.457H19.0369V14.411H22.2929V13.19H17.6179V21ZM28.4881 21H29.9511L27.2011 13.19H25.7161L22.9661 21H24.4291L25.0891 18.998H27.8281L28.4881 21ZM26.4751 14.543C26.4751 14.543 26.6401 15.313 26.7831 15.753L27.4761 17.843H25.4301L26.1231 15.753C26.2771 15.313 26.4531 14.543 26.4531 14.543H26.4751ZM30.949 21H35.745V19.779H32.368V13.19H30.949V21Z" fill="#1A1A1A"/>
<path fill-rule="evenodd" clip-rule="evenodd" d="M91 1.99998H231V121.506H91V1.99998Z" fill="#009CA6"/>
</svg>
