<svg width="232" height="123" viewBox="0 0 232 123" fill="none" xmlns="http://www.w3.org/2000/svg">
<path fill-rule="evenodd" clip-rule="evenodd" d="M1.00015 1.99998H231V121.506H1.00015V1.99998Z" fill="white"/>
<path d="M16.335 35.21L16.33 36H11.915V28.835H16.33V29.625H12.885V32.005H15.675V32.765H12.885V35.21H16.335ZM22.7165 34.52C22.7698 34.52 22.8165 34.5417 22.8565 34.585L23.2415 35C22.9482 35.34 22.5915 35.605 22.1715 35.795C21.7548 35.985 21.2498 36.08 20.6565 36.08C20.1432 36.08 19.6765 35.9917 19.2565 35.815C18.8365 35.635 18.4782 35.385 18.1815 35.065C17.8848 34.7417 17.6548 34.355 17.4915 33.905C17.3282 33.455 17.2465 32.96 17.2465 32.42C17.2465 31.88 17.3315 31.385 17.5015 30.935C17.6715 30.485 17.9098 30.0983 18.2165 29.775C18.5265 29.4517 18.8965 29.2017 19.3265 29.025C19.7565 28.845 20.2315 28.755 20.7515 28.755C21.2615 28.755 21.7115 28.8367 22.1015 29C22.4915 29.1633 22.8348 29.385 23.1315 29.665L22.8115 30.11C22.7915 30.1433 22.7648 30.1717 22.7315 30.195C22.7015 30.215 22.6598 30.225 22.6065 30.225C22.5465 30.225 22.4732 30.1933 22.3865 30.13C22.2998 30.0633 22.1865 29.99 22.0465 29.91C21.9065 29.83 21.7315 29.7583 21.5215 29.695C21.3115 29.6283 21.0532 29.595 20.7465 29.595C20.3765 29.595 20.0382 29.66 19.7315 29.79C19.4248 29.9167 19.1598 30.1017 18.9365 30.345C18.7165 30.5883 18.5448 30.885 18.4215 31.235C18.2982 31.585 18.2365 31.98 18.2365 32.42C18.2365 32.8667 18.2998 33.265 18.4265 33.615C18.5565 33.965 18.7315 34.2617 18.9515 34.505C19.1748 34.745 19.4365 34.9283 19.7365 35.055C20.0398 35.1817 20.3665 35.245 20.7165 35.245C20.9298 35.245 21.1215 35.2333 21.2915 35.21C21.4648 35.1833 21.6232 35.1433 21.7665 35.09C21.9132 35.0367 22.0482 34.97 22.1715 34.89C22.2982 34.8067 22.4232 34.7083 22.5465 34.595C22.6032 34.545 22.6598 34.52 22.7165 34.52ZM30.5762 32.42C30.5762 32.9567 30.4912 33.445 30.3212 33.885C30.1512 34.325 29.9112 34.7017 29.6012 35.015C29.2912 35.3283 28.9178 35.5717 28.4812 35.745C28.0478 35.915 27.5678 36 27.0412 36H24.3662V28.835H27.0412C27.5678 28.835 28.0478 28.9217 28.4812 29.095C28.9178 29.265 29.2912 29.5083 29.6012 29.825C29.9112 30.1383 30.1512 30.515 30.3212 30.955C30.4912 31.395 30.5762 31.8833 30.5762 32.42ZM29.5812 32.42C29.5812 31.98 29.5212 31.5867 29.4012 31.24C29.2812 30.8933 29.1112 30.6 28.8912 30.36C28.6712 30.12 28.4045 29.9367 28.0912 29.81C27.7778 29.6833 27.4278 29.62 27.0412 29.62H25.3362V35.215H27.0412C27.4278 35.215 27.7778 35.1517 28.0912 35.025C28.4045 34.8983 28.6712 34.7167 28.8912 34.48C29.1112 34.24 29.2812 33.9467 29.4012 33.6C29.5212 33.2533 29.5812 32.86 29.5812 32.42ZM33.9586 35.37C34.1919 35.37 34.4003 35.3383 34.5836 35.275C34.7703 35.2083 34.9269 35.1167 35.0536 35C35.1836 34.88 35.2819 34.7383 35.3486 34.575C35.4186 34.4083 35.4536 34.225 35.4536 34.025C35.4536 33.7783 35.4119 33.5683 35.3286 33.395C35.2486 33.2183 35.1386 33.075 34.9986 32.965C34.8619 32.855 34.7036 32.775 34.5236 32.725C34.3436 32.6717 34.1553 32.645 33.9586 32.645C33.7619 32.645 33.5736 32.6717 33.3936 32.725C33.2136 32.775 33.0536 32.855 32.9136 32.965C32.7769 33.075 32.6669 33.2183 32.5836 33.395C32.5036 33.5683 32.4636 33.7783 32.4636 34.025C32.4636 34.225 32.4969 34.4083 32.5636 34.575C32.6336 34.7383 32.7319 34.88 32.8586 35C32.9886 35.1167 33.1453 35.2083 33.3286 35.275C33.5153 35.3383 33.7253 35.37 33.9586 35.37ZM33.9586 29.445C33.7453 29.445 33.5569 29.4767 33.3936 29.54C33.2336 29.6033 33.0986 29.69 32.9886 29.8C32.8819 29.91 32.8003 30.0383 32.7436 30.185C32.6903 30.3317 32.6636 30.4883 32.6636 30.655C32.6636 30.8183 32.6869 30.9767 32.7336 31.13C32.7803 31.2833 32.8553 31.42 32.9586 31.54C33.0619 31.6567 33.1953 31.7517 33.3586 31.825C33.5253 31.895 33.7253 31.93 33.9586 31.93C34.1919 31.93 34.3903 31.895 34.5536 31.825C34.7203 31.7517 34.8553 31.6567 34.9586 31.54C35.0619 31.42 35.1369 31.2833 35.1836 31.13C35.2303 30.9767 35.2536 30.8183 35.2536 30.655C35.2536 30.4883 35.2253 30.3317 35.1686 30.185C35.1153 30.0383 35.0336 29.91 34.9236 29.8C34.8169 29.69 34.6819 29.6033 34.5186 29.54C34.3586 29.4767 34.1719 29.445 33.9586 29.445ZM34.9836 32.265C35.4303 32.3917 35.7736 32.6033 36.0136 32.9C36.2536 33.1967 36.3736 33.5767 36.3736 34.04C36.3736 34.3533 36.3136 34.6367 36.1936 34.89C36.0769 35.14 35.9119 35.3533 35.6986 35.53C35.4886 35.7067 35.2353 35.8433 34.9386 35.94C34.6419 36.0333 34.3153 36.08 33.9586 36.08C33.6019 36.08 33.2753 36.0333 32.9786 35.94C32.6819 35.8433 32.4269 35.7067 32.2136 35.53C32.0003 35.3533 31.8353 35.14 31.7186 34.89C31.6019 34.6367 31.5436 34.3533 31.5436 34.04C31.5436 33.5767 31.6636 33.1967 31.9036 32.9C32.1436 32.6033 32.4869 32.3917 32.9336 32.265C32.5569 32.125 32.2719 31.9167 32.0786 31.64C31.8886 31.36 31.7936 31.0267 31.7936 30.64C31.7936 30.3767 31.8453 30.13 31.9486 29.9C32.0519 29.67 32.1986 29.47 32.3886 29.3C32.5786 29.13 32.8053 28.9967 33.0686 28.9C33.3353 28.8033 33.6319 28.755 33.9586 28.755C34.2819 28.755 34.5769 28.8033 34.8436 28.9C35.1103 28.9967 35.3386 29.13 35.5286 29.3C35.7186 29.47 35.8653 29.67 35.9686 29.9C36.0719 30.13 36.1236 30.3767 36.1236 30.64C36.1236 31.0267 36.0269 31.36 35.8336 31.64C35.6436 31.9167 35.3603 32.125 34.9836 32.265ZM38.2744 30.94C38.2744 31.1667 38.306 31.37 38.3694 31.55C38.436 31.7267 38.5294 31.8767 38.6494 32C38.7727 32.1233 38.921 32.2167 39.0944 32.28C39.271 32.3433 39.4677 32.375 39.6844 32.375C39.9244 32.375 40.136 32.3367 40.3194 32.26C40.506 32.18 40.6627 32.075 40.7894 31.945C40.916 31.815 41.0127 31.665 41.0794 31.495C41.146 31.325 41.1794 31.1483 41.1794 30.965C41.1794 30.7417 41.1427 30.54 41.0694 30.36C40.9994 30.1767 40.901 30.0217 40.7744 29.895C40.6477 29.7683 40.496 29.6717 40.3194 29.605C40.146 29.535 39.9544 29.5 39.7444 29.5C39.5244 29.5 39.3244 29.5367 39.1444 29.61C38.9644 29.68 38.8094 29.7783 38.6794 29.905C38.5494 30.0317 38.4494 30.1833 38.3794 30.36C38.3094 30.5367 38.2744 30.73 38.2744 30.94ZM40.3544 33.145C40.4277 33.0483 40.496 32.9567 40.5594 32.87C40.6227 32.7833 40.6827 32.6967 40.7394 32.61C40.556 32.7567 40.3494 32.8683 40.1194 32.945C39.8894 33.0217 39.646 33.06 39.3894 33.06C39.1194 33.06 38.8627 33.015 38.6194 32.925C38.3794 32.835 38.1677 32.7033 37.9844 32.53C37.801 32.3533 37.6544 32.1383 37.5444 31.885C37.4377 31.6283 37.3844 31.335 37.3844 31.005C37.3844 30.6917 37.4427 30.3983 37.5594 30.125C37.676 29.8517 37.8394 29.6133 38.0494 29.41C38.2594 29.2067 38.5094 29.0467 38.7994 28.93C39.0894 28.8133 39.4077 28.755 39.7544 28.755C40.0977 28.755 40.4094 28.8117 40.6894 28.925C40.9694 29.0383 41.2094 29.1967 41.4094 29.4C41.6094 29.6033 41.7627 29.8467 41.8694 30.13C41.9794 30.4133 42.0344 30.7267 42.0344 31.07C42.0344 31.2767 42.0144 31.4733 41.9744 31.66C41.9377 31.8433 41.8827 32.025 41.8094 32.205C41.7394 32.3817 41.6527 32.5583 41.5494 32.735C41.446 32.9083 41.3294 33.0867 41.1994 33.27L39.4544 35.79C39.411 35.8533 39.3494 35.905 39.2694 35.945C39.1894 35.9817 39.0977 36 38.9944 36H38.1744L40.3544 33.145ZM45.5602 35.37C45.7935 35.37 46.0018 35.3383 46.1852 35.275C46.3718 35.2083 46.5285 35.1167 46.6552 35C46.7852 34.88 46.8835 34.7383 46.9502 34.575C47.0202 34.4083 47.0552 34.225 47.0552 34.025C47.0552 33.7783 47.0135 33.5683 46.9302 33.395C46.8502 33.2183 46.7402 33.075 46.6002 32.965C46.4635 32.855 46.3052 32.775 46.1252 32.725C45.9452 32.6717 45.7568 32.645 45.5602 32.645C45.3635 32.645 45.1752 32.6717 44.9952 32.725C44.8152 32.775 44.6552 32.855 44.5152 32.965C44.3785 33.075 44.2685 33.2183 44.1852 33.395C44.1052 33.5683 44.0652 33.7783 44.0652 34.025C44.0652 34.225 44.0985 34.4083 44.1652 34.575C44.2352 34.7383 44.3335 34.88 44.4602 35C44.5902 35.1167 44.7468 35.2083 44.9302 35.275C45.1168 35.3383 45.3268 35.37 45.5602 35.37ZM45.5602 29.445C45.3468 29.445 45.1585 29.4767 44.9952 29.54C44.8352 29.6033 44.7002 29.69 44.5902 29.8C44.4835 29.91 44.4018 30.0383 44.3452 30.185C44.2918 30.3317 44.2652 30.4883 44.2652 30.655C44.2652 30.8183 44.2885 30.9767 44.3352 31.13C44.3818 31.2833 44.4568 31.42 44.5602 31.54C44.6635 31.6567 44.7968 31.7517 44.9602 31.825C45.1268 31.895 45.3268 31.93 45.5602 31.93C45.7935 31.93 45.9918 31.895 46.1552 31.825C46.3218 31.7517 46.4568 31.6567 46.5602 31.54C46.6635 31.42 46.7385 31.2833 46.7852 31.13C46.8318 30.9767 46.8552 30.8183 46.8552 30.655C46.8552 30.4883 46.8268 30.3317 46.7702 30.185C46.7168 30.0383 46.6352 29.91 46.5252 29.8C46.4185 29.69 46.2835 29.6033 46.1202 29.54C45.9602 29.4767 45.7735 29.445 45.5602 29.445ZM46.5852 32.265C47.0318 32.3917 47.3752 32.6033 47.6152 32.9C47.8552 33.1967 47.9752 33.5767 47.9752 34.04C47.9752 34.3533 47.9152 34.6367 47.7952 34.89C47.6785 35.14 47.5135 35.3533 47.3002 35.53C47.0902 35.7067 46.8368 35.8433 46.5402 35.94C46.2435 36.0333 45.9168 36.08 45.5602 36.08C45.2035 36.08 44.8768 36.0333 44.5802 35.94C44.2835 35.8433 44.0285 35.7067 43.8152 35.53C43.6018 35.3533 43.4368 35.14 43.3202 34.89C43.2035 34.6367 43.1452 34.3533 43.1452 34.04C43.1452 33.5767 43.2652 33.1967 43.5052 32.9C43.7452 32.6033 44.0885 32.3917 44.5352 32.265C44.1585 32.125 43.8735 31.9167 43.6802 31.64C43.4902 31.36 43.3952 31.0267 43.3952 30.64C43.3952 30.3767 43.4468 30.13 43.5502 29.9C43.6535 29.67 43.8002 29.47 43.9902 29.3C44.1802 29.13 44.4068 28.9967 44.6702 28.9C44.9368 28.8033 45.2335 28.755 45.5602 28.755C45.8835 28.755 46.1785 28.8033 46.4452 28.9C46.7118 28.9967 46.9402 29.13 47.1302 29.3C47.3202 29.47 47.4668 29.67 47.5702 29.9C47.6735 30.13 47.7252 30.3767 47.7252 30.64C47.7252 31.0267 47.6285 31.36 47.4352 31.64C47.2452 31.9167 46.9618 32.125 46.5852 32.265Z" fill="#808080"/>
<path d="M16.918 13.19H15.686L14.278 18.591C14.157 19.042 14.146 19.416 14.135 19.416H14.113C14.113 19.416 14.08 19.031 13.981 18.591L12.749 13.19H11.286L13.244 21H14.883L16.082 16.38C16.214 15.874 16.28 15.357 16.28 15.357H16.302C16.302 15.357 16.368 15.874 16.5 16.38L17.699 21H19.338L21.351 13.19H19.888L18.601 18.591C18.502 19.031 18.469 19.416 18.469 19.416H18.447C18.436 19.416 18.425 19.042 18.304 18.591L16.918 13.19ZM22.614 21H24.033V17.722H27.608V21H29.027V13.19H27.608V16.501H24.033V13.19H22.614V21ZM31.0037 21H35.8547V19.779H32.4227V17.678H35.0517V16.457H32.4227V14.411H35.6787V13.19H31.0037V21ZM41.8738 21H43.3368L40.5868 13.19H39.1018L36.3518 21H37.8148L38.4748 18.998H41.2138L41.8738 21ZM39.8608 14.543C39.8608 14.543 40.0258 15.313 40.1688 15.753L40.8618 17.843H38.8158L39.5088 15.753C39.6628 15.313 39.8388 14.543 39.8388 14.543H39.8608ZM45.5006 21H46.9196V14.411H49.4826V13.19H42.9376V14.411H45.5006V21Z" fill="#1A1A1A"/>
<path fill-rule="evenodd" clip-rule="evenodd" d="M91 1.99998H231V121.506H91V1.99998Z" fill="#ECD898"/>
</svg>
