<svg width="149" height="18" viewBox="0 0 149 18" fill="none" xmlns="http://www.w3.org/2000/svg">
<path d="M0.271717 18H3.36772V0.959999H0.271717V18ZM8.95797 18H12.054V8.184C12.054 7.176 11.886 5.544 11.886 5.544H11.934C11.934 5.544 12.702 7.2 13.35 8.184L19.806 18H22.878V0.959999H19.806V10.8C19.806 11.808 19.974 13.44 19.974 13.44H19.926C19.926 13.44 19.158 11.784 18.51 10.8L12.054 0.959999H8.95797V18ZM28.4723 18H38.9363V15.336H31.5683V0.959999H28.4723V18ZM42.6898 18H45.7858V0.959999H42.6898V18ZM51.3761 18H54.4721V8.184C54.4721 7.176 54.3041 5.544 54.3041 5.544H54.3521C54.3521 5.544 55.1201 7.2 55.7681 8.184L62.2241 18H65.2961V0.959999H62.2241V10.8C62.2241 11.808 62.3921 13.44 62.3921 13.44H62.3441C62.3441 13.44 61.5761 11.784 60.9281 10.8L54.4721 0.959999H51.3761V18ZM70.8905 18H81.4745V15.336H73.9865V10.752H79.7225V8.088H73.9865V3.624H81.0905V0.959999H70.8905V18ZM93.0911 18H103.555V15.336H96.1871V0.959999H93.0911V18ZM107.309 18H110.405V0.959999H107.309V18ZM115.995 18H119.091V8.184C119.091 7.176 118.923 5.544 118.923 5.544H118.971C118.971 5.544 119.739 7.2 120.387 8.184L126.843 18H129.915V0.959999H126.843V10.8C126.843 11.808 127.011 13.44 127.011 13.44H126.963C126.963 13.44 126.195 11.784 125.547 10.8L119.091 0.959999H115.995V18ZM135.509 18H138.605V10.56H140.813L144.989 18H148.469L143.357 9.12V9.072L148.181 0.959999H144.821L140.813 7.896H138.605V0.959999H135.509V18Z" fill="#009CA6"/>
</svg>
