<svg width="172" height="19" viewBox="0 0 172 19" fill="none" xmlns="http://www.w3.org/2000/svg">
<path d="M0.0339674 18H4.23397V11.28H10.474V18H14.674V0.839999H10.474V7.704H4.23397V0.839999H0.0339674V18ZM18.8177 9.312C18.8177 14.352 22.6097 18.288 27.7937 18.288C32.9777 18.288 36.7697 14.352 36.7697 9.312C36.7697 4.392 32.9777 0.551999 27.7937 0.551999C22.6097 0.551999 18.8177 4.392 18.8177 9.312ZM23.1617 9.312C23.1617 6.504 25.2257 4.392 27.7937 4.392C30.3617 4.392 32.4257 6.504 32.4257 9.312C32.4257 12.24 30.3617 14.448 27.7937 14.448C25.2257 14.448 23.1617 12.24 23.1617 9.312ZM44.7325 18H49.1005L55.1485 0.839999H50.6605L47.5885 10.608C47.2525 11.688 46.9405 13.368 46.9405 13.368H46.8925C46.8925 13.368 46.5805 11.688 46.2445 10.608L43.2205 0.839999H38.6605L44.7325 18ZM58.2958 18H69.3838V14.4H62.4958V11.16H67.7278V7.56H62.4958V4.44H69.0478V0.839999H58.2958V18ZM73.6852 18H77.8852V12.216H79.8532L82.9012 18H87.5812L84.2452 12C83.8372 11.28 83.5972 10.968 83.5972 10.968V10.92C85.3012 10.056 86.1652 8.064 86.1652 6.24C86.1652 3.744 84.9412 1.992 82.9972 1.248C82.2532 0.959999 81.4132 0.839999 79.6612 0.839999H73.6852V18ZM77.8852 8.616V4.44H79.3012C81.4132 4.44 81.8932 5.208 81.8932 6.504C81.8932 7.872 81.0532 8.616 79.7092 8.616H77.8852ZM96.8873 15.84C96.8873 15.84 99.1193 18.288 103.151 18.288C107.015 18.288 109.199 15.816 109.199 12.96C109.199 7.536 101.471 7.92 101.471 5.76C101.471 4.8 102.431 4.416 103.295 4.416C105.359 4.416 107.087 5.928 107.087 5.928L108.863 2.496C108.863 2.496 107.039 0.551999 103.343 0.551999C99.9353 0.551999 97.2713 2.64 97.2713 5.808C97.2713 11.088 104.999 11.016 104.999 13.056C104.999 14.088 104.063 14.424 103.199 14.424C101.039 14.424 99.0953 12.648 99.0953 12.648L96.8873 15.84ZM116.649 18H120.849V4.44H126.057V0.839999H111.441V4.44H116.649V18ZM138.188 18H142.508L136.676 0.839999H132.26L126.428 18H130.748L131.78 14.4H137.132L138.188 18ZM134.492 4.752C134.492 4.752 134.876 6.624 135.188 7.704L136.148 11.04H132.764L133.748 7.704C134.06 6.624 134.444 4.752 134.444 4.752H134.492ZM148.084 18H152.284V4.44H157.492V0.839999H142.876V4.44H148.084V18ZM160.889 18H171.977V14.4H165.089V11.16H170.321V7.56H165.089V4.44H171.641V0.839999H160.889V18Z" fill="#009CA6"/>
</svg>
