<svg width="178" height="19" viewBox="0 0 178 19" fill="none" xmlns="http://www.w3.org/2000/svg">
<path d="M12.3154 18H16.6354L10.8034 0.839999H6.38741L0.555405 18H4.87541L5.90741 14.4H11.2594L12.3154 18ZM8.61941 4.752C8.61941 4.752 9.00341 6.624 9.31541 7.704L10.2754 11.04H6.89141L7.87541 7.704C8.18741 6.624 8.57141 4.752 8.57141 4.752H8.61941ZM18.5683 9.384C18.5683 14.472 22.1923 18.288 27.5683 18.288C32.0563 18.288 34.4803 15.408 34.4803 15.408L32.3203 12.336C32.3203 12.336 30.3523 14.448 27.7603 14.448C24.5923 14.448 22.9123 11.832 22.9123 9.288C22.9123 6.816 24.4723 4.392 27.7603 4.392C30.1363 4.392 32.0563 6.144 32.0563 6.144L34.0003 2.976C34.0003 2.976 31.8163 0.551999 27.5683 0.551999C22.4083 0.551999 18.5683 4.392 18.5683 9.384ZM41.5857 18H45.7857V4.44H50.9937V0.839999H36.3777V4.44H41.5857V18ZM54.3902 18H58.5902V0.839999H54.3902V18ZM67.8088 18H72.1768L78.2248 0.839999H73.7368L70.6648 10.608C70.3288 11.688 70.0168 13.368 70.0168 13.368H69.9688C69.9688 13.368 69.6568 11.688 69.3208 10.608L66.2968 0.839999H61.7368L67.8088 18ZM81.3721 18H92.4601V14.4H85.5721V11.16H90.8041V7.56H85.5721V4.44H92.1241V0.839999H81.3721V18ZM102.254 15.84C102.254 15.84 104.486 18.288 108.518 18.288C112.382 18.288 114.566 15.816 114.566 12.96C114.566 7.536 106.838 7.92 106.838 5.76C106.838 4.8 107.798 4.416 108.662 4.416C110.726 4.416 112.454 5.928 112.454 5.928L114.23 2.496C114.23 2.496 112.406 0.551999 108.71 0.551999C105.302 0.551999 102.638 2.64 102.638 5.808C102.638 11.088 110.366 11.016 110.366 13.056C110.366 14.088 109.43 14.424 108.566 14.424C106.406 14.424 104.462 12.648 104.462 12.648L102.254 15.84ZM122.016 18H126.216V4.44H131.424V0.839999H116.808V4.44H122.016V18ZM143.554 18H147.874L142.042 0.839999H137.626L131.794 18H136.114L137.146 14.4H142.498L143.554 18ZM139.858 4.752C139.858 4.752 140.242 6.624 140.554 7.704L141.514 11.04H138.13L139.114 7.704C139.426 6.624 139.81 4.752 139.81 4.752H139.858ZM153.451 18H157.651V4.44H162.859V0.839999H148.243V4.44H153.451V18ZM166.255 18H177.343V14.4H170.455V11.16H175.687V7.56H170.455V4.44H177.007V0.839999H166.255V18Z" fill="#54585A"/>
</svg>
