<svg width="1235" height="304" viewBox="0 0 1235 304" fill="none" xmlns="http://www.w3.org/2000/svg">
<path d="M58.1802 90.4L73.8762 50.224L89.8602 90.4H58.1802ZM132.052 126.832C129.316 126.688 125.14 125.68 122.548 124.24C119.092 122.224 117.796 120.064 116.644 117.184C111.316 103.792 97.2042 67.216 82.5162 30.064H77.0442C66.1002 57.568 54.1482 88.096 43.9242 112.864C41.7642 117.904 39.1722 122.08 35.7162 124.096C33.1242 125.536 28.3722 126.688 25.6362 126.832V130H65.2362V126.832C60.1962 126.544 48.9642 124.24 48.9642 119.056C48.9642 117.04 49.5402 114.16 50.5482 110.992C51.8442 106.672 53.5722 101.776 56.3082 95.152H91.7322L100.66 117.904C101.092 119.056 101.236 120.208 101.236 121.216C101.236 124.816 91.7322 126.544 86.6922 126.832V130H132.052V126.832ZM172.514 118.192C169.058 122.512 165.89 125.824 158.402 125.824C152.21 125.824 148.61 122.224 148.61 114.304C148.61 101.488 158.69 97.456 173.09 92.992L172.514 118.192ZM197.858 112.864C197.426 118.336 196.994 123.952 192.242 123.952C187.49 123.952 185.474 118.768 185.474 116.608C185.474 111.856 186.194 97.024 186.194 84.352C186.194 65.2 175.682 63.04 161.426 63.04C150.482 63.04 138.242 69.664 138.242 78.304C138.242 82.048 139.97 85.792 144.722 85.792C149.906 85.792 153.074 82.624 153.074 79.6C153.074 76.432 151.778 73.264 151.778 71.104C153.074 69.52 155.09 66.208 160.562 66.208C172.514 66.208 172.946 78.16 172.946 80.752V88.816C166.898 92.272 156.962 94.72 148.754 97.888C141.554 100.624 134.642 104.656 134.642 116.464C134.642 125.68 141.41 131.728 151.346 131.728C159.986 131.728 167.474 127.84 172.658 121.792H173.09C175.394 128.416 178.994 131.44 185.762 131.44C194.69 131.44 200.162 126.256 201.026 112.864H197.858Z" fill="black"/>
<path d="M237.696 49.8L242.928 36.408L248.256 49.8H237.696ZM262.32 61.944C261.408 61.896 260.016 61.56 259.152 61.08C258 60.408 257.568 59.688 257.184 58.728C255.408 54.264 250.704 42.072 245.808 29.688H243.984C240.336 38.856 236.352 49.032 232.944 57.288C232.224 58.968 231.36 60.36 230.208 61.032C229.344 61.512 227.76 61.896 226.848 61.944V63H240.048V61.944C238.368 61.848 234.624 61.08 234.624 59.352C234.624 58.68 234.816 57.72 235.152 56.664C235.584 55.224 236.16 53.592 237.072 51.384H248.88L251.856 58.968C252 59.352 252.048 59.736 252.048 60.072C252.048 61.272 248.88 61.848 247.2 61.944V63H262.32V61.944ZM281.717 45.576V45.144C286.277 43.848 290.021 42.216 290.021 36.792C290.021 31.656 284.165 30.216 280.613 30.216H264.197V31.272C265.061 31.32 266.549 31.656 267.557 32.088C268.709 32.568 269.045 33.432 269.045 34.488V59.016C269.045 60.072 268.709 60.888 267.557 61.32C266.933 61.56 264.869 61.896 264.005 61.944V63H280.709C285.269 63 291.749 60.456 291.749 54.312C291.749 47.976 285.125 45.96 281.717 45.576ZM277.109 45H274.133V31.608C275.285 31.56 277.253 31.512 278.069 31.512C281.045 31.512 284.261 32.952 284.261 37.704C284.261 41.736 282.389 45 277.109 45ZM278.645 61.656C275.813 61.656 274.469 60.888 274.133 58.728V46.392C274.997 46.344 277.349 46.296 278.213 46.296C283.157 46.296 285.845 49.464 285.845 53.352C285.845 57.24 284.357 61.656 278.645 61.656ZM324.276 54.024C322.404 58.2 319.668 61.224 313.812 61.224C307.524 61.224 302.292 55.32 302.292 46.632C302.292 35.736 307.044 30.984 311.94 30.984C318.132 30.984 321.396 36.024 323.124 41.592H324.276L324.084 29.736H322.116L320.676 32.184C319.236 30.84 316.068 29.592 313.428 29.592C303.78 29.592 296.532 37.128 296.532 47.016C296.532 57.192 302.964 63.72 312.42 63.72C319.716 63.72 323.556 59.16 325.524 54.696L324.276 54.024ZM344.628 30.216H329.172V31.272C330.036 31.32 331.38 31.56 332.532 32.04C333.684 32.52 334.02 33.432 334.02 34.488V59.112C334.02 60.168 333.684 61.032 332.532 61.464C331.908 61.704 329.94 61.944 328.98 61.944V63H343.668C352.932 63 362.532 58.008 362.532 46.824C362.532 33.672 351.204 30.216 344.628 30.216ZM344.34 61.608C340.644 61.608 339.396 60.264 339.108 57.912V31.656C340.164 31.608 342.18 31.56 343.284 31.56C351.348 31.56 356.628 38.04 356.628 46.776C356.628 55.416 352.788 61.608 344.34 61.608ZM394.786 53.784C394.306 55.224 392.338 59.016 390.898 60.504C389.746 61.704 386.386 61.608 383.026 61.608C378.178 61.608 377.314 61.176 377.314 57.24V46.68H381.49C384.082 46.68 384.898 47.496 385.522 48.168C386.098 48.792 386.914 51.432 387.01 52.824H388.306V39.432H387.01C386.866 40.68 386.242 43.128 385.522 43.848C384.946 44.424 384.178 45.336 381.49 45.336H377.314V31.512H382.978C384.514 31.512 385.81 31.56 386.962 31.704C389.026 31.992 391.57 35.544 392.098 37.656H393.394V30.216H366.946V31.272C367.81 31.32 369.826 31.752 370.738 32.136C371.938 32.616 372.226 33.432 372.226 34.488V59.016C372.226 60.12 371.89 60.936 370.738 61.368C370.018 61.656 367.81 61.896 366.946 61.944V63H395.362L395.986 53.784H394.786ZM426.499 30.216H399.715V31.272C400.579 31.32 402.595 31.752 403.507 32.136C404.707 32.616 404.995 33.432 404.995 34.488V59.112C404.995 60.168 404.659 61.032 403.507 61.464C402.883 61.704 400.579 61.896 399.715 61.944V63H415.219V61.944C414.355 61.896 412.147 61.464 411.571 61.224C410.467 60.744 410.083 59.928 410.083 58.872V46.824H414.355C416.611 46.824 418.003 47.688 418.627 48.312C419.299 48.984 420.019 51.672 420.115 53.064H421.411V39.576H420.115C419.923 41.352 419.299 43.368 418.627 43.992C418.003 44.568 416.803 45.48 414.355 45.48H410.083V31.512H416.083C417.619 31.512 418.915 31.56 420.067 31.704C422.131 31.992 424.675 35.88 425.203 37.992H426.499V30.216ZM464.225 48.504H448.337V49.608C449.201 49.656 451.937 49.944 453.089 50.376C454.337 50.856 454.673 51.96 454.673 53.208V56.136C454.337 59.208 451.697 62.184 446.465 62.184C440.513 62.184 435.713 55.848 435.713 47.016C435.713 36.552 440.561 30.984 446.081 30.984C452.753 30.984 456.497 36.024 458.177 41.256H459.281L459.041 29.736H457.169L455.633 32.184C454.145 30.84 450.689 29.592 447.953 29.592C437.633 29.592 429.857 37.416 429.857 47.352C429.857 58.008 437.585 63.72 444.593 63.72C448.625 63.72 453.377 62.232 456.161 61.176L458.753 64.104L459.377 63.912V52.776C459.377 51.72 459.665 50.808 460.817 50.28C461.729 49.896 463.361 49.752 464.225 49.608V48.504ZM503.382 61.944C502.518 61.896 500.598 61.512 500.022 61.224C498.918 60.696 498.534 59.928 498.534 58.872V34.248C498.534 33.192 498.822 32.28 500.022 31.896C500.886 31.608 502.518 31.32 503.382 31.272V30.216H488.502V31.272C489.366 31.32 491.142 31.8 491.958 32.136C493.062 32.616 493.446 33.432 493.446 34.488V45.144H476.886V34.248C476.886 33.192 477.174 32.28 478.374 31.896C479.238 31.608 480.966 31.32 481.83 31.272V30.216H466.95V31.272C467.814 31.32 469.494 31.8 470.31 32.136C471.462 32.616 471.798 33.432 471.798 34.488V59.112C471.798 60.168 471.462 61.032 470.31 61.464C469.686 61.704 467.814 61.896 466.95 61.944V63H481.83V61.944C480.966 61.896 478.95 61.464 478.374 61.224C477.27 60.744 476.886 59.928 476.886 58.872V46.728H493.446V59.112C493.446 60.168 493.11 61.032 491.958 61.464C491.334 61.704 489.366 61.896 488.502 61.944V63H503.382V61.944ZM523.696 61.944C522.832 61.896 520.768 61.464 520.192 61.224C519.088 60.744 518.704 59.976 518.704 58.92V34.2C518.704 33.144 518.992 32.28 520.192 31.896C521.056 31.608 522.832 31.32 523.696 31.272V30.216H508.624V31.272C509.488 31.32 511.264 31.8 512.128 32.136C513.328 32.616 513.616 33.384 513.616 34.44V59.16C513.616 60.216 513.28 61.032 512.128 61.464C511.504 61.704 509.488 61.896 508.624 61.944V63H523.696V61.944ZM549.18 30.216H533.58V31.272C534.54 31.32 536.412 31.656 537.468 32.136C538.62 32.664 538.956 33.432 538.956 34.488V52.488C538.956 57.48 538.428 62.52 532.044 62.52C531.852 62.52 531.372 62.472 531.18 62.424V62.184C532.572 61.416 533.148 60.12 533.148 58.92C533.148 57.192 531.996 55.848 530.028 55.848C528.06 55.848 526.716 57.432 526.716 59.304C526.716 61.176 528.252 63.816 533.34 63.816C540.444 63.816 544.044 57.528 544.044 54.072V34.248C544.044 33.192 544.332 32.28 545.532 31.896C546.396 31.608 548.316 31.32 549.18 31.272V30.216ZM588.242 61.944C587.378 61.896 585.698 61.656 584.786 61.272C582.914 60.456 581.666 59.16 580.802 58.056C576.818 53.016 573.314 49.512 568.37 44.376C572.642 40.776 574.754 38.136 578.834 33.768C581.138 31.32 584.738 31.32 585.602 31.272V30.216H572.018V31.272C572.882 31.32 575.906 31.56 575.906 33C575.906 35.304 570.194 40.968 563.954 46.008H563.426V34.248C563.426 33.192 563.714 32.28 564.914 31.896C565.778 31.608 567.506 31.32 568.37 31.272V30.216H553.49V31.272C554.354 31.32 556.034 31.8 556.85 32.136C558.002 32.616 558.338 33.432 558.338 34.488V59.112C558.338 60.168 558.002 61.032 556.85 61.464C556.226 61.704 554.354 61.896 553.49 61.944V63H568.37V61.944C567.506 61.896 565.49 61.464 564.914 61.224C563.81 60.744 563.426 59.928 563.426 58.872V46.92H564.194C567.17 49.896 575.282 58.008 575.282 59.832C575.282 61.656 572.642 61.848 570.674 61.944V63H588.242V61.944ZM616.608 53.688C616.128 55.32 613.68 59.112 612.432 60.456C611.472 61.464 608.16 61.704 605.376 61.704C600.192 61.704 599.664 61.368 599.664 57.288V34.344C599.664 33.288 599.952 32.328 601.152 31.944C602.016 31.656 603.792 31.32 604.656 31.272V30.216H589.632V31.272C590.496 31.32 592.224 31.8 593.088 32.184C594.288 32.712 594.576 33.528 594.576 34.584V59.016C594.576 60.072 594.24 60.984 593.088 61.416C592.464 61.656 590.496 61.896 589.632 61.944V63H617.04L617.76 53.688H616.608ZM662.475 61.944C661.611 61.896 659.451 61.512 658.875 61.224C657.771 60.696 657.387 59.928 657.387 58.872V34.248C657.387 33.192 657.675 32.28 658.875 31.896C659.739 31.608 661.563 31.32 662.427 31.272V30.216H651.579C651.531 30.744 651.243 32.52 650.475 34.296L641.499 54.648L630.363 30.216H619.563V31.272C620.859 31.32 622.731 31.704 623.883 32.616C624.843 33.384 625.371 34.584 625.371 36.552V54.12C625.371 57.816 624.939 59.928 623.787 60.744C622.635 61.56 620.139 61.848 619.323 61.944V63H633.723V61.944C632.859 61.896 629.595 61.128 628.779 60.456C627.723 59.592 627.147 57.528 627.147 53.88V34.968L636.459 55.8C637.371 57.864 638.427 60.6 639.003 62.472H639.915L652.347 34.296V58.872C652.347 59.976 651.915 60.744 650.811 61.32C650.139 61.656 647.499 61.896 646.635 61.944V63H662.475V61.944ZM703.259 30.216H688.955V31.272C690.059 31.32 692.939 32.136 693.851 32.712C694.907 33.384 695.483 35.736 695.483 39.192V55.464L675.419 30.216H665.531V31.272C666.827 31.32 669.515 32.472 670.667 33.384C671.627 34.152 672.203 35.784 672.203 37.176V54.072C672.203 57.816 671.771 59.832 670.619 60.648C670.091 61.032 667.019 61.896 666.155 61.944V63H680.555V61.944C679.691 61.896 676.427 61.08 675.611 60.408C674.555 59.544 673.979 57.48 673.979 53.832V36.264L695.483 63.336H697.259V38.904C697.259 35.736 697.547 33.288 698.843 32.472C699.611 31.992 702.395 31.32 703.259 31.272V30.216ZM734.641 34.44C731.041 30.936 726.961 29.448 722.449 29.448C717.793 29.448 713.569 31.128 710.305 34.44C707.185 37.56 705.649 41.736 705.649 46.968C705.649 52.2 707.617 56.28 710.785 59.256C713.905 62.184 717.889 63.768 722.257 63.768C727.201 63.768 731.137 62.088 734.209 59.16C737.761 55.8 739.201 51.384 739.201 46.392C739.201 41.688 737.473 37.272 734.641 34.44ZM722.449 62.28C714.961 62.28 711.457 55.272 711.457 46.728C711.457 36.792 715.633 30.936 722.449 30.936C730.417 30.936 733.393 38.712 733.393 46.536C733.393 55.464 729.889 62.28 722.449 62.28ZM759.892 30.216H743.812V31.272C744.676 31.32 746.26 31.56 747.46 31.944C748.66 32.328 748.948 33.336 748.948 34.392V59.016C748.948 60.072 748.612 60.984 747.46 61.416C746.836 61.656 744.868 61.896 744.004 61.944V63H759.316V61.944C758.116 61.896 756.148 61.656 755.524 61.416C754.372 60.984 754.036 60.072 754.036 59.016V47.976H757.78C763.972 47.976 770.164 44.52 770.164 37.992C770.164 33.048 765.556 30.216 759.892 30.216ZM756.388 46.536H754.036V31.56H757.3C762.772 31.56 764.212 35.592 764.212 39.192C764.212 41.448 763.3 46.536 756.388 46.536ZM812.632 63.048C811.576 64.68 809.656 66.744 807.016 66.744C804.232 66.744 800.584 65.64 799.528 60.792C805.336 57.336 807.832 52.392 807.832 46.392C807.832 41.688 806.104 37.272 803.272 34.44C799.672 30.936 795.592 29.448 791.08 29.448C786.424 29.448 782.2 31.128 778.936 34.44C775.816 37.56 774.28 41.736 774.28 46.968C774.28 52.2 776.248 56.28 779.416 59.256C782.536 62.184 786.52 63.72 790.888 63.72C792.04 63.72 793.384 63.48 794.632 63.096C796.072 68.424 800.056 70.056 803.608 70.056C808.408 70.056 812.296 65.736 813.592 63.768L812.632 63.048ZM798.856 59.064C797.752 55.512 794.488 52.824 790.984 52.824C788.392 52.824 784.888 54.12 783.208 58.488C781.048 55.608 780.088 51.384 780.088 46.728C780.088 36.792 784.264 30.936 791.08 30.936C799.048 30.936 802.024 38.712 802.024 46.536C802.024 51.912 801.112 56.328 798.856 59.064ZM791.08 62.328C788.152 62.328 785.944 61.32 784.12 59.448C785.272 55.56 788.296 54.888 789.208 54.888C792.136 54.888 793.96 56.952 794.344 61.992C793.432 62.184 792.232 62.328 791.08 62.328ZM846.226 55.704H844.882V56.424C844.882 59.64 843.682 61.032 842.434 61.032C841.714 61.032 840.562 60.936 839.986 58.776C839.362 56.424 839.074 54.072 838.354 51.432C837.394 47.928 833.41 46.68 831.154 46.44V45.96C834.562 45 840.034 42.84 840.034 37.608C840.034 32.376 834.61 30.216 829.762 30.216H813.01V31.272C813.874 31.32 815.602 31.656 816.466 31.944C817.666 32.328 817.954 33.288 817.954 34.344V59.016C817.954 60.12 817.618 60.984 816.466 61.416C815.842 61.656 813.874 61.896 813.01 61.944V63H828.034V61.944C827.17 61.896 825.154 61.656 824.53 61.416C823.378 60.984 823.042 60.12 823.042 59.016V47.016H826.834C832.402 47.016 833.218 51.624 833.698 55.416C834.37 60.84 836.146 63.528 839.986 63.528C844.114 63.528 846.226 60.888 846.226 56.424V55.704ZM826.018 45.624H823.042V31.56H827.266C830.914 31.56 834.13 33.096 834.13 38.568C834.13 44.04 830.242 45.624 826.018 45.624ZM864.753 44.76C862.593 43.752 860.577 43.272 858.225 41.976C855.585 40.536 854.001 38.856 854.001 35.928C854.001 32.184 857.169 31.032 858.561 31.032C864.993 31.032 867.153 35.208 869.073 40.632H870.129L869.889 29.736H868.257L866.625 31.992C864.945 30.696 862.209 29.592 859.713 29.592C854.241 29.592 850.113 33.384 850.113 38.472C850.113 42.744 852.081 45.384 855.777 47.016C858.465 48.216 859.905 48.744 862.641 49.848C865.521 51 867.345 53.208 867.345 56.136C867.345 59.736 865.521 62.184 861.249 62.184C855.297 62.184 852.225 57.336 850.257 52.248H849.153L849.489 63.48H851.121L852.801 61.224C854.241 62.376 856.785 63.624 860.673 63.624C866.865 63.624 871.521 59.496 871.521 53.64C871.521 48.552 868.881 46.68 864.753 44.76ZM894.395 18.12L887.627 24.552L880.763 18.12L880.043 18.696C882.587 22.44 884.363 25.272 885.563 27C886.091 27.816 886.139 27.96 887.531 27.96C888.923 27.96 889.019 27.816 889.643 26.904C890.795 25.128 892.571 22.392 895.115 18.696L894.395 18.12ZM891.803 44.76C889.643 43.752 887.627 43.272 885.275 41.976C882.635 40.536 881.051 38.856 881.051 35.928C881.051 32.184 884.219 31.032 885.611 31.032C892.043 31.032 894.203 35.208 896.123 40.632H897.179L896.939 29.736H895.307L893.675 31.992C891.995 30.696 889.259 29.592 886.763 29.592C881.291 29.592 877.163 33.384 877.163 38.472C877.163 42.744 879.131 45.384 882.827 47.016C885.515 48.216 886.955 48.744 889.691 49.848C892.571 51 894.395 53.208 894.395 56.136C894.395 59.736 892.571 62.184 888.299 62.184C882.347 62.184 879.275 57.336 877.307 52.248H876.203L876.539 63.48H878.171L879.851 61.224C881.291 62.376 883.835 63.624 887.723 63.624C893.915 63.624 898.571 59.496 898.571 53.64C898.571 48.552 895.931 46.68 891.803 44.76ZM931.573 30.216H901.525V38.568H902.677C903.205 36.456 905.797 31.992 907.861 31.704C909.013 31.56 910.693 31.512 911.749 31.512H914.005V58.968C914.005 60.024 913.669 60.936 912.517 61.368C911.893 61.608 909.445 61.896 908.581 61.944V63H924.517V61.944C923.653 61.896 921.157 61.368 920.581 61.128C919.477 60.648 919.093 59.784 919.093 58.728V31.512H921.349C922.645 31.512 924.085 31.56 925.237 31.704C927.301 31.992 929.893 36.456 930.421 38.568H931.573V30.216ZM970.321 30.216H955.969V31.272C957.073 31.32 959.665 31.896 960.865 32.664C961.921 33.336 962.497 35.592 962.497 39.096V53.304C962.497 56.472 960.721 61.704 953.089 61.704C945.601 61.704 944.353 56.856 944.353 53.4V34.248C944.353 33.192 944.641 32.28 945.841 31.896C946.705 31.608 948.433 31.32 949.297 31.272V30.216H934.369V31.272C935.137 31.32 936.865 31.656 937.729 32.088C938.833 32.664 939.217 33.432 939.217 34.488V54.36C939.217 59.352 943.537 63.768 951.937 63.768C956.689 63.768 964.321 61.32 964.321 53.496V38.808C964.321 35.832 964.609 33.24 965.905 32.424C966.913 31.8 969.457 31.32 970.321 31.272V30.216ZM1005.25 30.216H992.338V31.272C994.546 31.416 997.858 32.28 997.858 33.864C997.858 34.44 997.762 35.784 996.754 38.184C995.218 41.88 992.05 49.272 989.026 56.424C985.042 45.672 981.682 36.264 980.962 34.248C980.818 33.864 980.722 33.384 980.722 33.048C980.722 31.896 983.698 31.368 985.378 31.272V30.216H970.498V31.272C971.41 31.32 972.802 31.656 973.666 32.136C974.818 32.808 975.25 33.48 975.634 34.488C977.218 38.856 981.634 50.952 986.098 63.384H987.874C991.618 54.36 997.666 40.296 999.634 35.736C1000.31 34.248 1000.88 32.952 1002.13 32.232C1002.99 31.752 1004.34 31.32 1005.25 31.272V30.216ZM1053.51 30.216H1040.6V31.272C1042.81 31.416 1045.98 32.184 1045.98 33.864C1045.98 34.68 1045.74 35.688 1045.02 38.184C1043.86 42.072 1041.9 47.832 1039.21 55.32C1035.7 44.616 1032.92 36.264 1032.3 34.248C1032.2 33.912 1032.1 33.384 1032.1 33.048C1032.1 31.896 1035.03 31.368 1036.71 31.272V30.216H1021.78V31.272C1022.7 31.32 1024.71 31.704 1025.48 32.184C1027.26 33.288 1027.69 34.92 1027.69 36.552L1020.68 55.56C1017.27 44.808 1014.73 36.408 1014.06 34.248C1013.96 33.96 1013.86 33.336 1013.86 33.048C1013.86 31.896 1016.94 31.368 1018.62 31.272V30.216H1003.98V31.272C1004.89 31.32 1006.23 31.608 1007.1 32.136C1008.15 32.76 1008.58 33.48 1008.87 34.488C1010.17 38.856 1013.91 50.904 1017.7 63.384H1019.53L1028.6 38.616C1030.57 44.664 1033.35 53.448 1036.33 63.384H1038.06C1041.51 53.496 1045.69 41.592 1047.9 35.736C1048.47 34.2 1049.14 32.952 1050.39 32.232C1051.26 31.752 1052.6 31.32 1053.51 31.272V30.216ZM1090.03 61.944C1089.17 61.896 1086.96 61.752 1086.43 61.368C1084.85 60.312 1083.89 59.112 1083.07 58.056C1080.96 55.32 1077.7 50.76 1073.42 44.904C1076.35 41.208 1078.7 38.184 1081.25 35.16C1082.11 34.104 1083.31 32.76 1085.18 31.944C1086.1 31.56 1087.73 31.32 1088.59 31.272V30.216H1074.96V31.272C1076.93 31.368 1079.57 31.56 1079.57 33.384C1079.57 34.632 1076.54 38.568 1072.32 43.56C1069.15 39.288 1065.74 34.776 1065.74 33.384C1065.74 31.56 1068.67 31.368 1070.64 31.272V30.216H1053.12V31.272C1053.98 31.32 1056.05 31.608 1056.72 31.944C1058.5 32.856 1059.31 34.104 1060.08 35.16C1062.82 38.712 1065.55 42.552 1068.96 47.304C1065.55 51.576 1063.25 54.6 1060.37 58.056C1059.5 59.112 1058.3 60.456 1056.43 61.272C1055.52 61.656 1053.89 61.896 1053.02 61.944V63H1066.66V61.944C1064.69 61.848 1062.05 61.656 1062.05 59.832C1062.05 58.488 1066.51 53.112 1070.11 48.696C1073.14 52.824 1077.46 58.296 1077.46 59.832C1077.46 61.656 1074.48 61.848 1072.51 61.944V63H1090.03V61.944ZM1122.26 30.216H1109.78V31.272C1111.99 31.416 1114.96 31.992 1114.96 33.576C1114.96 34.344 1111.55 40.056 1107.09 47.064C1102.82 39.48 1099.65 33.624 1099.65 32.952C1099.65 31.8 1102.82 31.368 1104.5 31.272V30.216H1089.04V31.272C1089.95 31.32 1091.25 31.608 1092.11 32.088C1093.27 32.76 1094.23 33.912 1095.04 35.352C1097.11 38.856 1099.17 42.696 1101.38 47.016C1102.1 48.456 1102.63 49.656 1102.63 50.616V58.968C1102.63 60.024 1102.29 60.936 1101.14 61.368C1100.51 61.608 1098.07 61.896 1097.2 61.944V63H1113.14V61.944C1112.27 61.896 1109.78 61.368 1109.2 61.128C1108.1 60.648 1107.71 59.832 1107.71 58.728V52.344C1107.71 50.76 1108.34 48.504 1109.15 46.968C1111.94 41.928 1114.15 37.944 1116.79 34.68C1117.79 33.432 1118.23 32.952 1119.47 32.232C1120 31.896 1121.68 31.32 1122.26 31.272V30.216ZM1149.89 53.16C1149.07 55.224 1147.06 58.536 1144.99 60.456C1143.99 61.416 1140.82 61.704 1137.94 61.704H1127.91L1150.42 30.792V30.216H1124.55L1123.54 39.048H1124.69C1125.65 36.6 1128.63 32.28 1131.22 31.752C1132.18 31.56 1133.47 31.512 1135.11 31.512H1144.08L1121.57 62.424V63H1149.94L1151.04 53.16H1149.89ZM1166.62 59.064C1165.47 60.504 1164.42 61.608 1161.92 61.608C1159.86 61.608 1158.66 60.408 1158.66 57.768C1158.66 53.496 1162.02 52.152 1166.82 50.664L1166.62 59.064ZM1175.07 57.288C1174.93 59.112 1174.78 60.984 1173.2 60.984C1171.62 60.984 1170.94 59.256 1170.94 58.536C1170.94 56.952 1171.18 52.008 1171.18 47.784C1171.18 41.4 1167.68 40.68 1162.93 40.68C1159.28 40.68 1155.2 42.888 1155.2 45.768C1155.2 47.016 1155.78 48.264 1157.36 48.264C1159.09 48.264 1160.14 47.208 1160.14 46.2C1160.14 45.144 1159.71 44.088 1159.71 43.368C1160.14 42.84 1160.82 41.736 1162.64 41.736C1166.62 41.736 1166.77 45.72 1166.77 46.584V49.272C1164.75 50.424 1161.44 51.24 1158.7 52.296C1156.3 53.208 1154 54.552 1154 58.488C1154 61.56 1156.26 63.576 1159.57 63.576C1162.45 63.576 1164.94 62.28 1166.67 60.264H1166.82C1167.58 62.472 1168.78 63.48 1171.04 63.48C1174.02 63.48 1175.84 61.752 1176.13 57.288H1175.07ZM1190.19 62.664C1186.92 62.664 1185.39 59.832 1184.86 58.296V44.904C1186.01 43.56 1187.55 42.648 1189.85 42.648C1194.7 42.648 1196.57 47.496 1196.57 52.296C1196.57 58.872 1193.84 62.664 1190.19 62.664ZM1191.48 40.68C1188.46 40.68 1186.11 42.408 1185 43.608L1184.86 43.56V27.528L1184.52 27.192L1176.03 27.72V28.632C1176.89 28.68 1178.62 29.064 1179.2 29.448C1179.96 29.928 1180.49 31.128 1180.49 32.184V55.032C1180.49 58.488 1180.44 61.992 1180.3 63.912L1181.21 64.104L1182.99 61.272C1184.43 62.184 1187.4 63.672 1190.57 63.672C1196.24 63.672 1201.47 58.824 1201.47 52.248C1201.47 45.192 1197 40.68 1191.48 40.68ZM1223.71 57.192C1222.13 59.976 1220.31 61.464 1216.9 61.464C1212.67 61.464 1210.18 57.24 1210.18 51.624C1210.18 44.376 1213.15 41.832 1215.99 41.832C1217.67 41.832 1218.63 42.168 1218.87 43.56C1218.87 44.472 1218.24 44.52 1218.24 46.536C1218.24 48.408 1219.97 48.936 1220.93 48.936C1222.61 48.936 1223.43 47.832 1223.43 46.248C1223.43 43.32 1220.93 40.68 1215.99 40.68C1209.41 40.68 1205.33 46.152 1205.33 52.056C1205.33 58.68 1208.79 63.576 1215.75 63.576C1219.54 63.576 1222.85 61.032 1224.63 57.864L1223.71 57.192ZM241.392 128.752C236.544 128.752 234.432 124.192 234.432 119.392C234.432 112.816 237.216 108.736 240.864 108.736C244.176 108.736 245.76 111.088 246.288 112.72V126.304C245.04 127.648 243.696 128.752 241.392 128.752ZM254.736 128.656C253.872 128.608 252.48 128.416 251.904 128.032C251.136 127.504 250.752 126.688 250.656 125.68V94.528L250.32 94.192L240.816 94.72V95.584C242.112 95.68 244.224 96.112 245.04 96.688C245.808 97.216 246.192 98.464 246.288 99.472V108.976C245.712 108.736 243.504 107.68 240.48 107.68C234.816 107.68 229.536 112.288 229.536 118.864C229.536 126.064 234.144 130.624 239.76 130.624C242.784 130.624 245.088 128.752 246.144 127.648L246.336 127.696V129.76L246.672 130.096L254.736 129.568V128.656ZM276.149 124.192C274.325 127.12 273.125 128.464 269.381 128.464C264.245 128.464 262.229 124.048 262.229 117.856V117.328H276.533V116.896C276.533 112 274.133 107.68 267.557 107.68C261.173 107.68 257.477 113.2 257.477 118.96C257.477 125.296 260.837 130.576 268.085 130.576C272.117 130.576 275.333 128.176 277.013 124.768L276.149 124.192ZM262.229 116.272C262.373 111.76 264.485 108.784 267.509 108.784C271.157 108.784 271.877 112.72 271.877 116.176L262.229 116.272ZM294.178 94.144C291.73 94.144 289.09 94.96 287.122 97.072C284.77 99.568 283.858 102.928 283.858 106.912V108.4H278.962V110.416H283.858V126.544C283.858 127.6 283.474 128.416 282.562 128.704C281.89 128.896 281.314 128.992 280.45 129.04V130H292.642V129.04C291.778 128.992 290.242 128.752 289.522 128.464C288.658 128.128 288.226 127.312 288.226 126.304V110.416H294.274V108.4H288.226C288.226 107.584 288.274 106.192 288.274 105.472C288.514 98.128 290.002 95.248 293.026 95.248C293.554 95.248 293.986 95.584 294.178 96.16C294.178 97.216 293.89 97.984 293.89 98.704C293.89 100.336 295.57 100.864 296.674 100.864C298.354 100.864 299.266 99.28 299.266 98.368C299.266 96.304 297.778 94.144 294.178 94.144ZM305.699 120.688C303.299 120.688 301.715 118.096 301.715 114.688C301.715 111.52 302.579 108.736 305.651 108.736C308.675 108.736 309.779 111.664 309.779 114.832C309.779 117.904 308.531 120.688 305.699 120.688ZM317.219 107.68C315.155 107.68 314.147 108.016 312.371 109.12C311.747 109.12 309.107 107.68 305.795 107.68C301.043 107.68 297.203 110.32 297.203 114.736C297.203 117.568 299.267 119.776 302.627 121.12V121.408C301.043 122.032 298.355 122.944 298.355 125.296C298.355 128.032 301.523 129.04 303.395 129.568V129.904C298.307 130.048 295.811 132.304 295.811 134.992C295.811 138.64 298.691 140.848 306.275 140.848C314.531 140.848 318.323 137.44 318.323 133.024C318.323 128.992 315.011 126.64 312.179 126.496C311.171 126.448 308.195 126.256 306.803 126.208C304.451 126.112 301.667 126.208 301.667 123.856C301.667 122.8 302.483 122.224 303.347 121.792H306.131C310.067 121.792 314.243 119.152 314.243 114.976C314.243 113.536 313.571 111.664 312.419 110.416V110.08C313.139 109.552 313.811 109.264 315.395 109.264C315.395 111.28 315.875 112.336 317.459 112.336C318.755 112.336 319.475 111.376 319.475 109.984C319.475 108.688 318.371 107.68 317.219 107.68ZM307.091 139.6C301.763 139.6 299.891 137.2 299.891 135.28C299.891 132.304 301.187 130.96 304.595 130.288C308.915 130.288 310.979 130.48 312.035 130.624C314.291 131.344 314.483 132.88 314.483 133.984C314.483 137.728 311.747 139.6 307.091 139.6ZM346.762 129.04C345.898 128.992 345.322 128.8 344.65 128.512C343.786 128.128 343.402 127.408 343.402 126.352V115.264C343.402 110.704 341.434 107.68 336.97 107.68C332.842 107.68 330.922 109.84 329.098 111.616H329.002V94.528L328.666 94.192L320.122 94.72V95.632C320.986 95.68 322.762 96.016 323.338 96.4C324.106 96.928 324.538 98.176 324.634 99.184V126.544C324.634 127.6 324.25 128.416 323.338 128.704C322.666 128.896 322.09 128.992 321.226 129.04V130H332.554V129.04C331.69 128.992 331.018 128.8 330.298 128.464C329.434 128.08 329.002 127.36 329.002 126.304V113.2C329.53 112.096 331.498 109.84 335.002 109.84C337.066 109.84 338.986 111.664 338.986 114.976V126.544C338.986 127.6 338.602 128.416 337.69 128.704C337.018 128.896 336.298 128.992 335.434 129.04V130H346.762V129.04ZM355.299 95.584C353.715 95.584 352.371 96.976 352.371 98.608C352.371 100.192 353.715 101.536 355.299 101.536C357.027 101.536 358.323 100.096 358.323 98.416C358.323 96.88 357.075 95.584 355.299 95.584ZM361.299 129.04C360.675 128.992 359.955 128.8 359.187 128.464C358.323 128.08 357.891 127.264 357.891 126.256V108.352L357.555 108.016L349.395 108.544V109.456C350.259 109.504 351.651 109.984 352.227 110.368C352.995 110.896 353.427 111.76 353.523 112.768V126.544C353.523 127.504 353.139 128.416 352.227 128.704C351.555 128.896 350.979 128.992 350.115 129.04V130H361.299V129.04ZM370.082 95.584C368.498 95.584 367.154 96.976 367.154 98.608C367.154 100.192 368.498 101.536 370.082 101.536C371.81 101.536 373.106 100.096 373.106 98.416C373.106 96.88 371.858 95.584 370.082 95.584ZM372.77 108.352L372.434 108.016L363.17 108.544V109.408C364.034 109.456 366.53 110.032 367.106 110.416C367.874 110.944 368.306 111.952 368.402 112.96V129.472C368.402 136.864 367.49 139.744 364.562 139.744C364.418 139.744 363.698 139.648 363.554 139.6C363.554 138.832 363.986 137.968 363.986 137.056C363.986 135.376 362.546 134.704 361.25 134.704C359.618 134.704 358.562 136.144 358.562 137.248C358.562 139.312 360.338 140.848 363.506 140.848C366.002 140.848 367.778 139.936 369.746 137.872C372.098 135.424 372.77 132.016 372.77 128.032V108.352ZM403.714 129.088C403.522 129.088 402.658 128.992 401.842 128.656C401.026 128.32 400.402 127.888 400.066 127.216C397.666 122.608 395.986 118.288 391.138 116.032C392.722 114.448 394.114 113.2 395.41 112.096C396.514 111.136 398.77 109.936 401.314 109.216V108.304H391.666V109.264C392.914 109.408 394.642 109.744 394.642 110.56C394.642 110.848 394.258 111.376 394.018 111.616C392.002 113.776 388.546 117.184 386.386 119.2V94.528L386.05 94.192L377.506 94.72V95.632C378.37 95.68 380.05 95.968 380.722 96.448C381.49 96.976 382.018 98.08 382.018 99.232V126.544C382.018 127.6 381.634 128.416 380.722 128.704C380.05 128.896 379.474 128.992 378.61 129.04V130H389.938V129.04C389.074 128.992 388.402 128.752 387.682 128.464C386.818 128.128 386.386 127.36 386.386 126.304V120.256C386.77 119.92 387.202 119.536 388.45 119.536C391.57 119.536 394.978 126.304 396.082 130H403.714V129.088ZM416.283 129.04C415.419 128.992 414.891 128.8 414.171 128.464C413.307 128.08 412.875 127.312 412.875 126.256V94.528L412.539 94.192L403.851 94.72V95.632C404.715 95.68 406.635 96.208 407.211 96.592C407.979 97.12 408.507 98.224 408.507 99.328V126.544C408.507 127.6 408.123 128.416 407.211 128.704C406.539 128.896 405.963 128.992 405.099 129.04V130H416.283V129.04ZM459.289 129.04C458.425 128.992 457.705 128.8 457.033 128.512C456.169 128.128 455.785 127.36 455.785 126.304V115.36C455.785 110.992 453.913 107.68 449.449 107.68C445.321 107.68 443.449 109.936 441.481 111.808C440.377 109.312 438.265 107.68 435.289 107.68C431.161 107.68 429.433 109.84 427.561 111.664H427.417V108.352L427.081 108.016L419.353 108.544V109.456C420.217 109.504 421.225 109.936 421.801 110.32C422.569 110.848 423.001 111.664 423.097 112.672V126.544C423.097 127.6 422.713 128.416 421.801 128.704C421.129 128.896 420.553 128.992 419.689 129.04V130H430.921V129.04C430.057 128.992 429.481 128.8 428.761 128.464C427.897 128.08 427.465 127.312 427.465 126.256V113.2C428.041 112.192 429.817 109.84 433.321 109.84C435.385 109.84 437.209 111.616 437.209 114.928V126.544C437.209 127.6 436.825 128.416 435.913 128.704C435.241 128.896 434.809 128.992 433.945 129.04V130H444.985V129.04C444.121 128.992 443.545 128.8 442.873 128.512C442.009 128.128 441.625 127.36 441.625 126.304V113.152C442.201 112.144 443.977 109.84 447.481 109.84C449.545 109.84 451.369 111.616 451.369 114.928V126.544C451.369 127.6 450.985 128.416 450.073 128.704C449.401 128.896 448.873 128.992 448.009 129.04V130H459.289V129.04ZM487.978 129.04C487.114 128.992 486.538 128.8 485.866 128.512C485.002 128.128 484.618 127.408 484.618 126.352V115.264C484.618 110.704 482.554 107.68 478.09 107.68C473.962 107.68 472.138 109.84 470.314 111.616H470.218V108.352L469.882 108.016L462.202 108.544V109.456C463.066 109.504 463.978 109.84 464.554 110.224C465.322 110.752 465.754 111.76 465.85 112.768V126.544C465.85 127.6 465.466 128.416 464.554 128.704C463.882 128.896 463.306 128.992 462.442 129.04V130H473.77V129.04C472.954 128.992 472.234 128.8 471.514 128.464C470.65 128.08 470.218 127.36 470.218 126.304V113.2C470.746 112.096 472.714 109.84 476.218 109.84C478.282 109.84 480.202 111.664 480.202 114.976V126.544C480.202 127.6 479.818 128.416 478.906 128.704C478.234 128.896 477.514 128.992 476.65 129.04V130H487.978V129.04ZM502.409 107.68C495.689 107.68 491.225 112.432 491.225 119.248C491.225 126.304 496.313 130.672 502.073 130.672C509.321 130.672 513.353 125.296 513.353 118.912C513.353 112.528 509.129 107.68 502.409 107.68ZM502.361 129.568C497.849 129.568 496.073 124.576 496.073 118.864C496.073 114.304 497.369 108.784 502.361 108.784C507.017 108.784 508.505 113.92 508.505 118.96C508.505 124.72 506.633 129.568 502.361 129.568ZM529.871 129.568C526.703 129.568 525.071 127.264 524.543 125.728V112.048C525.695 110.704 527.231 109.648 529.535 109.648C534.383 109.648 536.255 114.496 536.255 119.296C536.255 125.872 533.519 129.568 529.871 129.568ZM531.167 107.68C528.143 107.68 525.791 109.6 524.687 110.8L524.495 110.752V108.304L524.159 108.016L516.287 108.544V109.456C517.151 109.504 518.351 109.888 518.927 110.272C519.695 110.8 520.079 111.664 520.175 112.672V137.2C520.175 138.256 519.839 139.168 518.927 139.456C518.255 139.648 517.151 139.84 516.287 139.888V140.848H529.199V139.888C528.335 139.84 526.607 139.456 525.887 139.168C525.023 138.832 524.543 137.968 524.543 136.912V129.088H524.735C525.839 129.904 527.471 130.576 530.255 130.576C535.919 130.576 541.151 125.92 541.151 119.344C541.151 112.288 536.687 107.68 531.167 107.68ZM570.293 139.888C569.429 139.792 568.229 139.504 567.461 139.168C566.597 138.784 566.165 137.872 566.165 136.816V115.6C566.165 113.584 566.453 109.12 566.549 107.2L565.685 107.008L563.333 109.936C562.277 109.36 559.925 107.68 556.085 107.68C550.421 107.68 545.045 112.288 545.045 118.864C545.045 126.016 549.653 130.576 555.269 130.576C558.293 130.576 560.597 128.896 561.653 127.792L561.797 127.84V137.2C561.797 138.256 561.461 139.168 560.501 139.456C559.829 139.648 558.677 139.84 557.813 139.888V140.848H570.293V139.888ZM556.901 128.704C552.053 128.704 549.941 124.192 549.941 119.392C549.941 112.816 552.725 108.688 556.373 108.688C559.685 108.688 561.269 111.088 561.797 112.72V126.496C560.549 127.84 559.205 128.704 556.901 128.704ZM586.491 107.776C584.475 107.776 582.075 108.976 580.011 111.616H579.915V108.352L579.579 108.016L571.899 108.544V109.456C572.763 109.504 573.675 109.84 574.251 110.224C575.019 110.752 575.451 111.76 575.547 112.768V126.544C575.547 127.6 575.163 128.416 574.251 128.704C573.579 128.896 573.003 128.992 572.139 129.04V130H584.331V129.04C583.419 128.992 582.027 128.8 581.211 128.464C580.347 128.128 579.915 127.36 579.915 126.304V113.056C580.491 112 582.267 109.936 584.715 109.936C584.715 110.56 584.379 110.944 584.379 111.424C584.379 113.056 585.435 113.728 586.971 113.728C588.603 113.728 589.515 112.384 589.515 110.704C589.515 109.12 587.979 107.776 586.491 107.776ZM601.572 116.8C597.588 115.504 595.956 114.976 595.956 112.24C595.956 110.464 596.772 108.784 599.7 108.784C603.108 108.784 605.556 111.52 606.036 114.256H607.044L606.708 107.632H605.22L604.836 108.928C603.636 108.112 601.716 107.68 599.844 107.68C595.38 107.68 592.644 110.416 592.644 113.968C592.644 118.096 596.1 119.872 599.172 120.784C602.916 121.888 604.788 122.896 604.788 125.392C604.788 127.744 603.636 129.52 600.276 129.52C596.436 129.52 593.556 125.152 593.028 122.8H592.02L592.26 130.24H593.844L594.324 128.752C595.14 129.568 597.684 130.672 600.036 130.672C604.548 130.672 608.1 128.08 608.1 123.808C608.1 119.872 605.508 118.096 601.572 116.8ZM626.774 94.288L620.006 100.72L613.142 94.288L612.422 94.864C614.966 98.608 616.742 101.44 617.942 103.168C618.47 103.984 618.518 104.128 619.91 104.128C621.302 104.128 621.398 103.984 622.022 103.072C623.174 101.296 624.95 98.56 627.494 94.864L626.774 94.288ZM621.638 116.8C617.654 115.504 616.022 114.976 616.022 112.24C616.022 110.464 616.838 108.784 619.766 108.784C623.174 108.784 625.622 111.52 626.102 114.256H627.11L626.774 107.632H625.286L624.902 108.928C623.702 108.112 621.782 107.68 619.91 107.68C615.446 107.68 612.71 110.416 612.71 113.968C612.71 118.096 616.166 119.872 619.238 120.784C622.982 121.888 624.854 122.896 624.854 125.392C624.854 127.744 623.702 129.52 620.342 129.52C616.502 129.52 613.622 125.152 613.094 122.8H612.086L612.326 130.24H613.91L614.39 128.752C615.206 129.568 617.75 130.672 620.102 130.672C624.614 130.672 628.166 128.08 628.166 123.808C628.166 119.872 625.574 118.096 621.638 116.8ZM646.12 124.048C645.832 125.872 645.64 127.792 643.192 127.792C640.264 127.792 639.496 126.016 639.496 123.28V110.464H646.024V108.4H639.448V100.96H635.272V108.4H630.568V110.464H635.176V123.856C635.176 128.128 637.048 130.48 640.984 130.48C644.536 130.48 646.792 127.504 647.176 124.048H646.12ZM674.218 128.656C673.354 128.608 672.49 128.416 671.914 128.032C671.146 127.504 670.762 126.736 670.666 125.728V108.352L670.33 108.016L661.93 108.592V109.504C663.178 109.552 664.474 109.744 665.05 110.128C665.818 110.656 666.202 111.52 666.298 112.528V125.392C665.674 126.4 663.994 128.656 660.49 128.656C658.426 128.656 656.698 126.928 656.698 123.616V108.352L656.362 108.016L648.634 108.592V109.504C649.498 109.552 650.458 109.888 651.034 110.272C651.802 110.8 652.186 111.664 652.282 112.672V122.752C652.282 127.264 654.058 130.576 658.522 130.576C662.65 130.576 664.378 128.656 666.202 126.832H666.346V129.76L666.682 130.096L674.218 129.568V128.656ZM699.373 108.304H690.829V109.264C691.597 109.36 694.333 110.032 694.381 110.992C694.381 111.376 694.285 112 694.141 112.336C692.317 117.088 690.877 120.352 689.053 124.72H688.909C686.941 119.728 684.541 113.872 683.629 111.424C683.389 110.848 683.293 110.464 683.293 110.416C683.293 109.648 684.925 109.456 686.029 109.408V108.304H675.373V109.312C676.765 109.504 678.349 110.32 678.925 111.664C682.141 119.44 683.197 121.84 686.557 130.336H688.237C688.861 128.224 689.389 126.784 690.109 125.152C692.221 120.112 693.757 116.272 695.725 111.904C696.349 110.512 698.461 109.36 699.373 109.216V108.304ZM735.587 108.304H726.947V109.264C727.667 109.264 730.355 109.744 730.355 110.896C730.355 111.184 730.259 111.712 730.115 112.144C728.771 116.08 727.475 119.536 725.555 124.528H725.411C723.587 119.776 721.331 113.872 720.419 111.424C720.179 110.848 720.083 110.368 720.083 110.32C720.083 109.504 721.475 109.408 722.579 109.36V108.304H712.643V109.312C713.987 109.456 715.187 109.984 715.811 111.376C716.195 112.192 716.579 112.912 716.675 113.2C715.283 117.04 713.795 120.64 712.307 124.48H712.163C710.147 119.392 707.939 113.872 706.979 111.424C706.739 110.848 706.643 110.464 706.643 110.416C706.643 109.648 708.083 109.456 709.187 109.408V108.304H698.819V109.312C700.163 109.456 701.795 110.416 702.323 111.712C705.107 118.288 706.499 121.744 709.907 130.336H711.347C712.019 128.224 712.547 126.88 713.219 125.248C714.611 121.744 715.955 117.904 717.347 114.784C719.219 119.488 721.139 124.528 723.251 130.336H724.595C725.267 128.224 725.747 126.928 726.419 125.248C728.579 119.776 729.491 117.424 731.603 112.144C732.227 110.512 734.243 109.408 735.587 109.264V108.304ZM757.861 128.992C755.557 128.608 755.029 127.888 754.165 126.544C752.677 124.336 750.517 121.168 748.213 117.808C750.517 114.64 751.669 113.152 752.629 111.952C753.301 111.136 754.885 109.936 757.285 109.216V108.304H749.077V109.264C749.701 109.408 751.717 110.032 751.717 110.656C751.717 110.944 751.621 111.328 751.477 111.52C749.989 113.728 749.125 114.928 747.637 116.992C746.149 114.736 744.277 111.952 743.701 111.04C743.461 110.608 743.269 110.272 743.269 109.984C743.269 109.6 744.517 109.312 745.477 109.312V108.304H735.589V109.312C736.645 109.312 737.893 109.6 739.141 111.472C740.869 113.968 743.077 117.28 744.805 119.824C742.501 122.992 740.629 125.104 739.813 126.16C739.285 126.832 737.989 128.08 735.253 129.088V130H743.509V129.04C742.981 128.992 740.533 128.512 740.533 127.552C740.533 127.216 740.725 126.88 741.013 126.448C742.453 124.24 743.845 122.656 745.381 120.64C747.109 123.28 748.693 125.488 749.365 126.544C749.605 126.976 750.037 127.744 750.037 127.984C750.037 128.56 748.693 128.896 747.445 128.992V130H757.861V128.992ZM781.831 108.304H773.527V109.264C774.295 109.36 776.983 110.032 776.983 110.992C776.983 111.376 776.839 111.952 776.695 112.336C774.871 117.088 773.527 120.256 771.703 124.624H771.607C769.639 119.632 767.191 113.872 766.279 111.424C766.039 110.848 765.943 110.464 765.943 110.416C765.943 109.648 767.431 109.456 768.535 109.408V108.304H758.023V109.312C759.415 109.504 760.999 110.32 761.575 111.664C764.791 119.44 765.943 121.984 769.303 130.48C769.303 130.48 766.087 138.208 763.303 138.88V137.2C763.303 135.28 761.863 134.8 760.807 134.8C759.127 134.8 758.071 136.336 758.071 137.584C758.071 139.984 760.327 140.848 761.623 140.848C764.503 140.848 766.231 140.416 770.503 130.72C770.695 130.336 771.655 127.744 772.999 124.528C774.823 120.064 777.127 114.448 778.279 111.904C778.903 110.512 780.919 109.36 781.831 109.216V108.304ZM801.443 122.752H800.291C800.003 123.904 799.235 126.064 798.947 126.784C798.563 127.744 798.083 128.608 796.787 128.656C795.059 128.752 793.283 128.8 792.035 128.8C790.787 128.8 789.587 128.8 788.003 128.752L801.251 108.736V108.304H783.635V114.544H784.883C785.363 112.288 786.179 110.464 787.139 110.08C788.771 109.408 792.467 109.552 795.875 109.552L782.771 129.28V130H801.443V122.752ZM820.604 94.288L813.836 100.72L806.972 94.288L806.252 94.864C808.796 98.608 810.572 101.44 811.772 103.168C812.3 103.984 812.348 104.128 813.74 104.128C815.132 104.128 815.228 103.984 815.852 103.072C817.004 101.296 818.78 98.56 821.324 94.864L820.604 94.288ZM823.196 122.752H822.044C821.756 123.904 820.988 126.064 820.7 126.784C820.316 127.744 819.836 128.608 818.54 128.656C816.812 128.752 815.036 128.8 813.788 128.8C812.54 128.8 811.34 128.8 809.756 128.752L823.004 108.736V108.304H805.388V114.544H806.636C807.116 112.288 807.932 110.464 808.892 110.08C810.524 109.408 814.22 109.552 817.628 109.552L804.524 129.28V130H823.196V122.752ZM843.989 87.856C843.461 87.04 843.413 86.896 842.021 86.896C840.629 86.896 840.533 87.04 839.909 87.952C838.757 89.728 836.981 92.464 834.437 96.16L835.157 96.736L841.925 90.304L848.789 96.736L849.509 96.16C846.965 92.416 845.189 89.584 843.989 87.856ZM834.821 116.8L840.053 103.408L845.381 116.8H834.821ZM859.445 128.944C858.533 128.896 857.141 128.56 856.277 128.08C855.125 127.408 854.693 126.688 854.309 125.728C852.533 121.264 847.829 109.072 842.933 96.688H841.109C837.461 105.856 833.477 116.032 830.069 124.288C829.349 125.968 828.485 127.36 827.333 128.032C826.469 128.512 824.885 128.896 823.973 128.944V130H837.173V128.944C835.493 128.848 831.749 128.08 831.749 126.352C831.749 125.68 831.941 124.72 832.277 123.664C832.709 122.224 833.285 120.592 834.197 118.384H846.005L848.981 125.968C849.125 126.352 849.173 126.736 849.173 127.072C849.173 128.272 846.005 128.848 844.325 128.944V130H859.445V128.944ZM877.402 86.608C876.874 85.792 876.826 85.648 875.434 85.648C874.042 85.648 873.946 85.792 873.322 86.704C872.17 88.48 870.394 91.216 867.85 94.912L868.57 95.488L875.338 89.056L882.202 95.488L882.922 94.912C880.378 91.168 878.602 88.336 877.402 86.608ZM888.73 120.784C888.25 122.224 886.282 126.016 884.842 127.504C883.69 128.704 880.33 128.608 876.97 128.608C872.122 128.608 871.258 128.176 871.258 124.24V113.68H875.434C878.026 113.68 878.842 114.496 879.466 115.168C880.042 115.792 880.858 118.432 880.954 119.824H882.25V106.432H880.954C880.81 107.68 880.186 110.128 879.466 110.848C878.89 111.424 878.122 112.336 875.434 112.336H871.258V98.512H876.922C878.458 98.512 879.754 98.56 880.906 98.704C882.97 98.992 885.514 102.544 886.042 104.656H887.338V97.216H860.89V98.272C861.754 98.32 863.77 98.752 864.682 99.136C865.882 99.616 866.17 100.432 866.17 101.488V126.016C866.17 127.12 865.834 127.936 864.682 128.368C863.962 128.656 861.754 128.896 860.89 128.944V130H889.306L889.93 120.784H888.73ZM912.234 86.608C911.706 85.792 911.658 85.648 910.266 85.648C908.874 85.648 908.778 85.792 908.154 86.704C907.002 88.48 905.226 91.216 902.682 94.912L903.402 95.488L910.17 89.056L917.034 95.488L917.754 94.912C915.21 91.168 913.434 88.336 912.234 86.608ZM922.65 101.44C919.05 97.936 914.97 96.448 910.458 96.448C905.802 96.448 901.578 98.128 898.314 101.44C895.194 104.56 893.658 108.736 893.658 113.968C893.658 119.2 895.626 123.28 898.794 126.256C901.914 129.184 905.898 130.768 910.266 130.768C915.21 130.768 919.146 129.088 922.218 126.16C925.77 122.8 927.21 118.384 927.21 113.392C927.21 108.688 925.482 104.272 922.65 101.44ZM910.458 129.28C902.97 129.28 899.466 122.272 899.466 113.728C899.466 103.792 903.642 97.936 910.458 97.936C918.426 97.936 921.402 105.712 921.402 113.536C921.402 122.464 917.898 129.28 910.458 129.28ZM942.861 95.776C942.333 94.96 942.285 94.816 940.893 94.816C939.501 94.816 939.405 94.96 938.781 95.872C937.629 97.648 935.853 100.384 933.309 104.08L934.029 104.656L940.797 98.224L947.661 104.656L948.381 104.08C945.837 100.336 944.061 97.504 942.861 95.776ZM944.253 126.064C943.101 127.504 942.045 128.608 939.549 128.608C937.485 128.608 936.285 127.408 936.285 124.768C936.285 120.496 939.645 119.152 944.445 117.664L944.253 126.064ZM952.701 124.288C952.557 126.112 952.413 127.984 950.829 127.984C949.245 127.984 948.573 126.256 948.573 125.536C948.573 123.952 948.813 119.008 948.813 114.784C948.813 108.4 945.309 107.68 940.557 107.68C936.909 107.68 932.829 109.888 932.829 112.768C932.829 114.016 933.405 115.264 934.989 115.264C936.717 115.264 937.773 114.208 937.773 113.2C937.773 112.144 937.341 111.088 937.341 110.368C937.773 109.84 938.445 108.736 940.269 108.736C944.253 108.736 944.397 112.72 944.397 113.584V116.272C942.381 117.424 939.069 118.24 936.333 119.296C933.933 120.208 931.629 121.552 931.629 125.488C931.629 128.56 933.885 130.576 937.197 130.576C940.077 130.576 942.573 129.28 944.301 127.264H944.445C945.213 129.472 946.413 130.48 948.669 130.48C951.645 130.48 953.469 128.752 953.757 124.288H952.701ZM967.864 95.776C967.336 94.96 967.288 94.816 965.896 94.816C964.504 94.816 964.408 94.96 963.784 95.872C962.632 97.648 960.856 100.384 958.312 104.08L959.032 104.656L965.8 98.224L972.664 104.656L973.384 104.08C970.84 100.336 969.064 97.504 967.864 95.776ZM974.392 124.192C972.568 127.12 971.368 128.464 967.624 128.464C962.488 128.464 960.472 124.048 960.472 117.856V117.328H974.776V116.896C974.776 112 972.376 107.68 965.8 107.68C959.416 107.68 955.72 113.2 955.72 118.96C955.72 125.296 959.08 130.576 966.328 130.576C970.36 130.576 973.576 128.176 975.256 124.768L974.392 124.192ZM960.472 116.272C960.616 111.76 962.728 108.784 965.752 108.784C969.4 108.784 970.12 112.72 970.12 116.176L960.472 116.272ZM991.515 95.776C990.987 94.96 990.939 94.816 989.547 94.816C988.155 94.816 988.059 94.96 987.435 95.872C986.283 97.648 984.507 100.384 981.963 104.08L982.683 104.656L989.451 98.224L996.315 104.656L997.035 104.08C994.491 100.336 992.715 97.504 991.515 95.776ZM989.547 107.68C982.827 107.68 978.363 112.432 978.363 119.248C978.363 126.304 983.451 130.672 989.211 130.672C996.459 130.672 1000.49 125.296 1000.49 118.912C1000.49 112.528 996.267 107.68 989.547 107.68ZM989.499 129.568C984.987 129.568 983.211 124.576 983.211 118.864C983.211 114.304 984.507 108.784 989.499 108.784C994.155 108.784 995.643 113.92 995.643 118.96C995.643 124.72 993.771 129.568 989.499 129.568ZM1021.38 128.944C1020.51 128.896 1018.5 128.608 1017.78 128.272C1016.91 127.888 1016.38 126.976 1016.38 125.968V107.488C1016.38 105.328 1016.72 102.304 1017.06 100.288H1016.43C1015.04 101.104 1012.45 102.304 1009.71 102.304C1007.79 102.304 1006.11 101.824 1004.67 101.2L1004.24 102.016C1005.97 103.456 1008.08 104.896 1009.62 104.896C1010.48 104.896 1011.25 104.8 1011.78 104.656V126.208C1011.78 127.264 1011.15 128.176 1010.29 128.464C1009.62 128.704 1007.36 128.896 1006.5 128.944V130H1021.38V128.944ZM1048.47 121.504C1047.51 123.52 1045.92 126.112 1043.48 126.112H1031.52L1032.92 124.912C1043.91 118.672 1048.52 114.4 1048.52 107.728C1048.52 102.976 1045.06 100.24 1039.88 100.24C1032.24 100.24 1027.16 106.432 1027.16 110.848C1027.16 114.16 1029.46 115.552 1031.67 115.552C1034.74 115.552 1037 113.776 1038.48 111.376L1037.91 110.848C1037.04 112 1036.13 113.488 1033.59 113.488C1031.33 113.488 1030.95 112.144 1030.95 110.368C1030.95 106.672 1033.78 101.488 1038.96 101.488C1041.17 101.488 1043.86 102.832 1043.86 106.624C1043.86 110.704 1042.66 114.016 1038.39 118.48C1035.12 121.888 1032.44 124.384 1026.63 128.8V130H1046.55L1049.38 121.792L1048.47 121.504ZM1069.72 114.16C1069.39 114.16 1068.19 114.256 1067.9 114.304L1068.76 113.584C1074.43 112.192 1076.4 109.072 1076.4 106.624C1076.4 104.512 1074.52 100.24 1068.33 100.24C1062.24 100.24 1056.76 104.272 1056.76 108.688C1056.76 110.656 1058.2 112.336 1061.18 112.336C1062.67 112.336 1065.21 110.416 1066.27 109.216L1065.69 108.64C1065.07 109.216 1064.01 110.176 1062.81 110.176C1060.94 110.176 1060.46 109.12 1060.46 107.632C1060.46 103.456 1064.59 101.44 1067.04 101.44C1070.2 101.44 1071.5 103.264 1071.5 106.144C1071.5 111.28 1067.32 113.488 1062.19 117.136L1063.15 118.288C1064.64 116.944 1066.12 115.36 1067.95 115.36C1070.54 115.36 1071.79 116.992 1071.79 120.352C1071.79 125.776 1067.13 130 1062.96 130C1059.26 130 1057.77 128.272 1057.77 126.448C1057.77 124.72 1059.98 125.104 1059.98 123.088C1059.98 121.6 1059.21 120.736 1057.63 120.736C1055.71 120.736 1053.98 122.176 1053.98 124.672C1053.98 129.04 1058.68 131.248 1062.96 131.248C1070.73 131.248 1076.78 127.312 1076.78 120.688C1076.78 115.552 1072.75 114.16 1069.72 114.16ZM1084.08 117.904L1094.35 105.568V117.904H1084.08ZM1105.78 113.632H1104.86C1104.82 114.832 1104.34 116.56 1103.47 117.28C1102.66 117.952 1101.07 117.904 1098.82 117.904V99.808H1097.52L1081.68 118.768V119.872H1094.35V126.352C1094.35 127.408 1093.92 128.272 1093.01 128.56C1092.38 128.8 1090.61 128.896 1089.74 128.944V130H1103.33V128.944C1102.46 128.896 1100.88 128.704 1100.11 128.368C1099.25 127.984 1098.82 127.12 1098.82 126.064V119.872C1101.07 119.872 1102.75 119.776 1103.52 120.4C1104.48 121.168 1104.91 122.992 1104.96 124.384H1105.78V113.632ZM1131.22 99.712C1129.1 101.344 1127.47 102.256 1124.06 102.256C1120.32 102.256 1118.5 101.152 1117.82 100.384H1116.58L1112.93 116.416L1114.18 116.656C1114.94 114.064 1118.3 112.816 1120.37 112.816C1122.62 112.816 1125.94 114.016 1125.94 118.432C1125.94 122.56 1124.54 129.568 1119.17 129.568C1116.58 129.568 1114.94 128.368 1114.7 127.072C1114.7 125.44 1115.38 125.44 1115.38 124C1115.38 122.752 1114.7 121.888 1113.36 121.888C1112.3 121.888 1110.34 122.464 1110.34 124.96C1110.34 128.08 1113.7 130.672 1119.22 130.672C1125.07 130.672 1130.88 126.736 1130.88 120.88C1130.88 114.88 1126.18 111.568 1121.23 111.568C1119.07 111.568 1116.34 112.336 1114.85 113.536L1116.62 106.528C1116.91 106.576 1118.3 106.624 1119.46 106.624C1121.23 106.624 1128.96 105.952 1131.84 100.24L1131.22 99.712ZM1153.69 96.4C1145.62 96.4 1137.32 105.472 1137.32 116.992C1137.32 125.728 1141.97 130.672 1147.59 130.672C1156.37 130.672 1159.01 124.144 1159.01 119.584C1159.01 113.536 1154.65 109.648 1150.42 109.648C1146.92 109.648 1144.57 110.944 1142.5 113.632L1142.31 113.536C1143.51 104.32 1147.4 97.984 1151.62 97.984C1153.35 97.984 1153.83 98.272 1154.5 99.712C1155.51 101.728 1155.13 103.888 1157.48 103.888C1159.3 103.888 1159.93 102.88 1159.93 101.2C1159.93 99.52 1158.58 96.4 1153.69 96.4ZM1147.73 129.568C1144.95 129.568 1142.02 126.4 1142.02 120.544C1142.02 113.92 1145.24 111.424 1147.93 111.424C1152.01 111.424 1153.88 114.4 1153.88 119.536C1153.88 123.424 1152.97 129.568 1147.73 129.568ZM1187.39 101.44H1168.57L1168.19 98.752H1167.32L1164.44 111.088L1165.4 111.328C1165.83 109.36 1167.37 105.712 1170.59 105.712H1183.5C1180.52 110.464 1178.65 113.632 1176.06 118.624C1173.47 123.616 1170.25 130.096 1170.25 132.4C1170.25 134.944 1171.11 135.76 1172.7 135.76C1174.86 135.76 1175.72 133.792 1175.87 131.632C1176.25 125.2 1177.59 121.408 1179.42 116.656C1181.77 110.56 1183.59 107.344 1187.39 101.872V101.44ZM1205.08 113.632V113.44C1208.39 112 1210.31 108.928 1210.31 107.008C1210.31 102.784 1206.95 99.952 1201.33 99.952C1196.53 99.952 1191.49 103.552 1191.49 108.496C1191.49 112.24 1193.22 113.824 1196.68 115.504V115.696C1194.28 116.56 1190.48 119.488 1190.48 123.472C1190.48 127.504 1194.37 130.72 1200.04 130.72C1205.6 130.72 1211.51 127.168 1211.51 121.408C1211.51 116.656 1207.91 114.736 1205.08 113.632ZM1203.73 113.008C1198.45 112.144 1195.48 110.032 1195.48 106.336C1195.48 103.552 1197.83 101.152 1201.38 101.152C1204.98 101.152 1207.24 103.264 1207.24 106.384C1207.24 109.408 1206.37 111.952 1203.73 113.008ZM1200.47 129.472C1196 129.472 1193.99 126.688 1193.99 123.52C1193.99 120.304 1195.67 117.328 1198.02 116.08C1202.34 116.944 1207.33 119.056 1207.33 123.376C1207.33 127.264 1203.97 129.472 1200.47 129.472ZM241.536 186.248C237.504 186.248 235.824 183.32 235.824 177.416C235.824 173.576 236.64 168.344 241.536 168.344C244.608 168.344 247.776 171.512 247.776 177.848C247.776 184.232 243.984 186.248 241.536 186.248ZM241.536 167.24C234.336 167.24 230.784 173.144 230.784 178.328C230.784 184.76 235.008 188.264 239.424 188.264C243.312 188.264 245.76 186.056 247.2 184.088L247.536 184.136C246.768 192.584 243.12 200.408 237.6 200.408C236.256 200.408 235.2 199.976 234.528 198.488C233.856 197 234.096 194.216 231.792 194.216C230.064 194.216 229.2 195.128 229.2 197C229.2 199.064 231.168 201.896 235.632 201.896C246.144 201.896 252.336 191.912 252.336 181.4C252.336 170.504 246.672 167.24 241.536 167.24ZM270.963 167.24C264.435 167.24 258.387 173.288 258.387 183.128C258.387 190.904 262.611 197.672 270.484 197.672C277.108 197.672 283.059 191.576 283.059 181.784C283.059 173.912 278.788 167.24 270.963 167.24ZM270.627 196.472C265.827 196.472 263.571 190.472 263.571 182.504C263.571 173.864 266.787 168.44 270.819 168.44C275.668 168.44 277.876 174.728 277.876 182.408C277.876 191.048 274.611 196.472 270.627 196.472ZM293.52 161.672C291.408 162.872 287.328 165.224 287.328 169.352C287.328 172.232 288.384 174.152 291.072 174.152C292.8 174.152 293.856 172.76 293.856 171.464C293.856 170.072 293.088 168.632 290.736 168.632H289.536C289.824 165.56 291.648 164.264 294.192 162.776L293.52 161.672ZM306.491 163.448C301.451 163.448 298.475 165.944 298.475 168.344C298.475 169.88 299.243 171.08 300.923 171.08C301.835 171.08 303.611 170.264 303.611 168.584C303.611 166.664 303.323 166.712 303.179 165.752C303.755 165.032 305.099 164.744 306.395 164.744C309.611 164.744 312.155 166.664 312.155 172.664C312.155 177.704 308.171 178.904 304.475 179.432V188.36H305.867L306.059 183.08C312.155 182.312 316.667 178.472 316.667 173.048C316.667 167.576 313.259 163.448 306.491 163.448ZM305.291 191.192C303.515 191.192 302.075 192.632 302.075 194.408C302.075 196.184 303.515 197.576 305.291 197.576C307.067 197.576 308.507 196.184 308.507 194.408C308.507 192.632 307.067 191.192 305.291 191.192ZM324.495 161.624C322.767 161.624 321.711 163.016 321.711 164.312C321.711 165.704 322.479 167.144 324.831 167.144H326.031C325.743 170.216 323.919 171.512 321.375 173L322.047 174.104C324.159 172.904 328.239 170.552 328.239 166.424C328.239 163.544 327.183 161.624 324.495 161.624ZM338.765 161.72C336.653 162.92 332.525 165.224 332.525 169.352C332.525 172.232 333.437 174.152 336.125 174.152C337.853 174.152 338.861 172.76 338.861 171.464C338.861 170.072 338.237 168.776 335.885 168.776H334.685C334.973 165.704 336.797 164.264 339.341 162.776L338.765 161.72ZM346.877 161.72C344.765 162.92 340.637 165.224 340.637 169.352C340.637 172.232 341.549 174.152 344.237 174.152C345.965 174.152 346.973 172.76 346.973 171.464C346.973 170.072 346.349 168.776 343.997 168.776H342.797C343.085 165.704 344.909 164.264 347.453 162.776L346.877 161.72ZM358.118 163.4C356.342 163.4 355.142 164.888 355.142 166.664C355.142 168.728 356.726 177.848 357.446 186.92H358.694C359.558 177.8 361.094 168.632 361.094 166.664C361.094 164.888 359.894 163.4 358.118 163.4ZM358.118 191.192C356.342 191.192 354.902 192.632 354.902 194.408C354.902 196.184 356.342 197.576 358.118 197.576C359.894 197.576 361.334 196.184 361.334 194.408C361.334 192.632 359.894 191.192 358.118 191.192ZM372.273 161.624C370.545 161.624 369.537 163.016 369.537 164.312C369.537 165.704 370.161 167 372.513 167H373.713C373.425 170.072 371.601 171.512 369.057 173L369.633 174.056C371.745 172.856 375.873 170.552 375.873 166.424C375.873 163.544 374.961 161.624 372.273 161.624ZM380.385 161.624C378.657 161.624 377.649 163.016 377.649 164.312C377.649 165.704 378.273 167 380.625 167H381.825C381.537 170.072 379.713 171.512 377.169 173L377.745 174.056C379.857 172.856 383.985 170.552 383.985 166.424C383.985 163.544 383.073 161.624 380.385 161.624ZM390.521 182.84C390.521 172.28 395.849 166.568 401.273 162.392L399.209 161.096C393.353 165.608 387.545 171.704 387.545 182.84C387.545 194.408 393.689 200.456 399.257 204.68L401.273 203.384C396.185 199.688 390.521 193.64 390.521 182.84ZM434.197 163.88L413.701 200.984L415.093 201.704L435.685 164.6L434.197 163.88ZM414.325 167.24C410.677 167.24 406.789 170.552 406.789 175.016C406.789 179.864 410.389 182.504 414.325 182.504C418.213 182.504 422.053 179.144 422.053 174.968C422.053 169.736 418.213 167.24 414.325 167.24ZM414.469 181.352C411.829 181.352 410.533 178.76 410.533 174.824C410.533 171.032 411.877 168.392 414.373 168.392C416.869 168.392 418.261 170.84 418.261 175.064C418.261 179.096 416.533 181.352 414.469 181.352ZM434.965 182.408C431.317 182.408 427.429 185.768 427.429 190.184C427.429 194.984 431.029 197.672 434.965 197.672C438.853 197.672 442.693 194.36 442.693 190.136C442.693 184.856 438.853 182.408 434.965 182.408ZM435.109 196.52C432.469 196.52 431.173 193.88 431.173 189.992C431.173 186.344 432.517 183.56 435.013 183.56C437.509 183.56 438.901 186.104 438.901 190.232C438.901 194.168 437.173 196.52 435.109 196.52ZM450.257 161.096L448.193 162.392C453.617 166.568 458.945 172.28 458.945 182.84C458.945 193.64 453.281 199.688 448.193 203.384L450.209 204.68C455.777 200.456 461.921 194.408 461.921 182.84C461.921 171.704 456.113 165.608 450.257 161.096ZM483.997 198.296C478.621 198.296 476.125 200.12 470.893 202.712V164.024C476.125 166.616 478.621 168.44 483.997 168.44C488.269 168.44 491.341 165.992 491.341 162.968C491.341 161.72 490.477 160.472 489.949 160.088L488.941 160.472C489.325 161 489.709 161.672 489.709 162.488C489.709 163.448 489.901 164.6 485.293 164.6C480.685 164.6 475.693 163.88 469.549 162.488L468.445 162.104V204.632L469.549 204.248C475.741 202.856 480.685 202.136 485.293 202.136C489.901 202.136 489.709 203.672 489.709 204.248C489.709 205.064 489.133 205.976 488.749 206.312L489.805 206.696C490.237 206.264 491.341 205.064 491.341 203.768C491.341 200.744 488.269 198.296 483.997 198.296ZM506.174 184.856V180.008L511.79 178.616V183.464L506.174 184.856ZM518.318 181.832L512.942 183.128V178.28L518.318 176.984V172.616L512.942 173.912V166.904H511.79V174.248L506.174 175.64V166.904H505.022V175.976L499.694 177.272V181.64L505.022 180.344V185.192L499.694 186.488V190.856L505.022 189.56V197.336H506.174V189.224L511.79 187.832V197.336H512.942V187.496L518.318 186.2V181.832ZM549.457 162.104L548.353 162.488C542.209 163.88 537.217 164.6 532.609 164.6C528.001 164.6 528.193 163.448 528.193 162.488C528.193 161.672 528.577 161 528.961 160.472L527.953 160.088C527.425 160.472 526.561 161.72 526.561 162.968C526.561 165.992 529.633 168.44 533.905 168.44C539.281 168.44 541.777 166.616 547.009 164.024V202.712C541.777 200.12 539.281 198.296 533.905 198.296C529.633 198.296 526.561 200.744 526.561 203.768C526.561 205.064 527.665 206.264 528.097 206.696L529.153 206.312C528.769 205.976 528.193 205.064 528.193 204.248C528.193 203.672 528.001 202.136 532.609 202.136C537.217 202.136 542.161 202.856 548.353 204.248L549.457 204.632V162.104ZM572.882 204.008C569.906 203.816 566.642 203.576 566.642 198.344C566.642 196.424 567.074 194.792 567.074 192.872C567.074 186.152 563.09 184.712 558.53 183.8V182.6C563.09 181.688 567.074 180.248 567.074 173.528C567.074 171.608 566.642 169.976 566.642 168.056C566.642 162.824 569.906 162.584 572.882 162.392V161.288C566.21 161.288 562.226 162.584 562.226 169.496C562.226 171.464 562.994 173.672 562.994 175.688C562.994 180.776 559.826 181.544 555.266 181.928V184.472C559.778 184.808 562.994 185.624 562.994 190.712C562.994 192.728 562.226 194.936 562.226 196.904C562.226 203.816 566.21 205.112 572.882 205.112V204.008ZM621.619 191.24C618.547 200.408 611.875 205.4 601.171 205.4C592.243 205.4 585.043 198.968 585.043 188.168C585.043 175.256 594.739 167.144 604.099 167.144C613.555 167.144 618.787 172.808 618.787 180.68C618.787 188.888 613.363 194.168 608.275 194.168C607.075 194.168 606.259 193.544 606.259 191.96C606.259 191.336 606.451 190.232 606.739 189.464L611.155 176.84H607.795L606.835 179.432H606.691C606.355 177.512 604.915 176.552 603.283 176.552C596.323 176.552 592.339 185 592.339 189.032C592.339 193.88 595.075 195.32 597.715 195.32C599.683 195.32 601.699 193.688 603.091 191.528L603.235 191.576C603.427 194.072 605.203 195.416 607.795 195.416C614.323 195.416 620.179 188.6 620.179 180.968C620.179 173.144 615.235 165.512 604.195 165.512C589.987 165.512 580.579 176.792 580.579 188.408C580.579 200.888 590.323 207.32 601.171 207.32C611.155 207.32 619.603 201.416 622.483 191.528L621.619 191.24ZM603.379 189.704C602.227 191.72 600.643 193.88 598.243 193.88C597.283 193.88 596.227 193.304 596.227 189.8C596.227 185.192 599.203 177.512 603.187 177.512C605.011 177.512 605.923 178.664 606.307 181.064L603.379 189.704ZM646.296 181.928C641.736 181.544 638.568 180.776 638.568 175.688C638.568 173.672 639.336 171.464 639.336 169.496C639.336 162.584 635.352 161.288 628.68 161.288V162.392C631.656 162.584 634.92 162.824 634.92 168.056C634.92 169.976 634.488 171.608 634.488 173.528C634.488 180.248 638.472 181.688 643.032 182.6V183.8C638.472 184.712 634.488 186.152 634.488 192.872C634.488 194.792 634.92 196.424 634.92 198.344C634.92 203.576 631.656 203.816 628.68 204.008V205.112C635.352 205.112 639.336 203.816 639.336 196.904C639.336 194.936 638.568 192.728 638.568 190.712C638.568 185.624 641.784 184.808 646.296 184.472V181.928ZM664.697 160.904L649.721 206.552L651.929 207.176L666.953 161.528L664.697 160.904ZM683.589 176.936C681.333 173.816 680.469 171.608 680.469 169.544C680.469 168.152 681.045 165.032 684.213 165.032C686.325 165.032 687.957 166.712 687.957 169.832C687.957 172.856 686.661 175.064 683.589 176.936ZM682.485 194.792C678.501 194.792 676.197 191.768 676.197 187.832C676.197 184.616 677.205 181.928 680.037 180.152C682.101 183.272 686.085 188.264 688.773 191.864C687.189 193.784 684.885 194.792 682.485 194.792ZM705.525 176.312H691.749V177.32C694.245 177.848 696.069 178.616 696.069 179.768C696.069 181.976 694.245 185.576 692.181 188.504C689.205 184.808 687.189 182.264 684.261 177.944C688.149 175.592 690.165 172.808 690.165 169.976C690.165 166.712 688.341 163.544 684.117 163.544C679.749 163.544 675.861 166.568 675.861 170.936C675.861 173.336 676.869 175.4 679.317 179.192C673.941 182.6 671.253 185.288 671.253 189.848C671.253 195.368 675.909 197.768 680.421 197.768C684.357 197.768 687.333 195.224 689.637 192.872L692.997 197H704.229V195.944C702.309 195.848 699.669 195.368 697.989 194.36C696.789 193.64 694.293 191.144 692.997 189.512C695.973 185.912 697.605 181.256 698.997 179.672C700.533 177.944 702.789 177.608 705.525 177.32V176.312ZM710.029 160.904L707.773 161.528L722.797 207.176L725.005 206.552L710.029 160.904ZM751.289 192.824L733.097 184.52L751.289 176.216V173.72L730.073 183.56V185.48L751.289 195.32V192.824ZM771.917 183.176H757.517V186.824H771.917V183.176ZM800.119 183.416H789.703V172.952H787.399V183.416H776.983V185.624H787.399V196.088H789.703V185.624H800.119V183.416ZM817.195 172.664C815.515 172.664 814.123 174.008 814.123 175.688C814.123 177.368 815.515 178.76 817.195 178.76C818.875 178.76 820.267 177.368 820.267 175.688C820.267 174.008 818.875 172.664 817.195 172.664ZM828.763 183.416H805.627V185.624H828.763V183.416ZM817.195 190.328C815.515 190.328 814.123 191.72 814.123 193.4C814.123 195.08 815.515 196.424 817.195 196.424C818.875 196.424 820.267 195.08 820.267 193.4C820.267 191.72 818.875 190.328 817.195 190.328ZM847.423 184.376L856.975 174.872L855.391 173.288L845.887 182.84L836.335 173.288L834.703 174.92L844.255 184.472L834.703 193.976L836.287 195.56L845.791 186.008L855.343 195.56L856.975 193.928L847.423 184.376ZM885.091 179.576H863.875V181.784H885.091V179.576ZM885.091 187.256H863.875V189.464H885.091V187.256ZM913.926 183.56L892.71 173.72V176.216L910.902 184.52L892.71 192.824V195.32L913.926 185.48V183.56ZM929.226 163.256C924.282 163.256 920.49 167.048 920.49 171.992C920.49 176.936 924.282 180.728 929.226 180.728C934.17 180.728 937.962 176.936 937.962 171.992C937.962 167.048 934.17 163.256 929.226 163.256ZM929.226 179.96C924.762 179.96 921.45 176.456 921.45 171.992C921.45 167.528 924.762 164.024 929.226 164.024C933.69 164.024 937.002 167.528 937.002 171.992C937.002 176.456 933.69 179.96 929.226 179.96ZM934.17 174.68C934.17 175.688 933.93 175.88 933.546 175.88C933.306 175.88 933.018 175.784 932.874 175.256C932.682 174.584 932.586 173.864 932.394 173.096C932.106 172.04 930.858 171.656 930.186 171.56V171.416C931.242 171.128 932.97 170.504 932.97 168.92C932.97 167.336 931.242 166.712 929.802 166.712H924.762V167.192C925.002 167.192 925.434 167.288 925.722 167.384C926.058 167.48 926.154 167.768 926.154 168.104V175.16C926.154 175.496 926.01 175.736 925.722 175.88C925.626 175.928 925.002 176.024 924.762 176.024V176.552H929.274V176.024C928.986 176.024 928.506 175.976 928.314 175.88C927.978 175.736 927.882 175.496 927.882 175.16V171.896H928.698C930.378 171.896 930.666 173.144 930.81 174.248C931.002 175.88 931.722 176.696 932.874 176.696C934.17 176.696 934.65 176.072 934.65 174.68H934.17ZM928.65 171.32H927.882V167.24H929.034C930.138 167.24 931.002 167.576 931.002 169.208C931.002 170.84 929.946 171.32 928.65 171.32ZM964.232 164.312C952.568 164.312 943.256 173.624 943.256 184.952C943.256 196.376 952.616 205.688 964.232 205.688C975.8 205.688 985.112 196.376 985.112 184.952C985.112 173.624 975.8 164.312 964.232 164.312ZM964.232 204.056C953.672 204.056 945.32 195.56 945.32 184.952C945.32 174.488 953.672 165.992 964.232 165.992C974.744 165.992 983.048 174.488 983.048 184.952C983.048 195.56 974.744 204.056 964.232 204.056ZM972.632 189.176C971.24 192.008 969.464 194.264 965.48 194.264C961.112 194.264 957.752 190.616 957.752 184.904C957.752 177.944 960.968 174.92 964.28 174.92C969.032 174.92 970.664 178.28 971.864 181.832H972.968L972.776 173.144H971.48L970.424 174.968C969.272 174.152 966.968 173.48 965.192 173.48C958.088 173.48 953.048 178.52 953.048 185.144C953.048 192.056 957.608 196.376 964.52 196.376C969.464 196.376 972.2 192.968 973.688 189.656L972.632 189.176ZM1001.04 179.096V168.536C1001.67 168.44 1002.34 168.392 1003.01 168.392C1003.54 168.392 1004.07 168.392 1004.59 168.44V179.48C1003.25 179.384 1002 179.288 1001.04 179.096ZM995.666 173.528C995.666 170.792 997.49 169.256 999.986 168.68V178.952C996.482 178.088 995.666 176.072 995.666 173.528ZM1002.24 196.184C1001.86 196.184 1001.43 196.184 1001.04 196.136V184.184C1002.39 184.28 1003.54 184.232 1004.59 184.52V196.04C1003.83 196.136 1003.06 196.184 1002.24 196.184ZM1005.65 195.848V184.664C1008.82 185.624 1010.31 187.784 1010.31 190.328C1010.31 193.496 1008.29 195.224 1005.65 195.848ZM1005.65 179.624V168.584C1007.81 168.92 1009.15 169.64 1009.49 170.792C1009.06 172.328 1007.76 172.424 1007.76 174.248C1007.76 175.736 1008.77 176.408 1010.07 176.408C1011.79 176.408 1012.47 174.824 1012.47 173.048C1012.47 169.784 1009.2 168.008 1005.65 167.432V162.776H1004.59V167.336C1004.07 167.288 1003.54 167.24 1003.01 167.24C1002.29 167.24 1001.67 167.288 1001.04 167.336V162.776H999.986V167.48C994.658 168.44 992.258 172.28 992.258 176.216C992.258 180.296 995.378 183.416 999.986 184.088V196.04C997.202 195.656 995.33 194.456 995.33 192.2C996.002 190.952 996.914 191.336 996.914 189.32C996.914 187.976 996.242 186.824 994.658 186.824C992.738 186.824 991.682 188.168 991.682 190.568C991.682 194.36 995.81 196.568 999.986 197.192V203.816H1001.04V197.288C1001.43 197.336 1001.86 197.336 1002.24 197.336C1003.11 197.336 1003.87 197.288 1004.59 197.192V203.816H1005.65V197.048C1011.12 195.992 1013.57 192.056 1013.57 187.976C1013.57 183.128 1010.59 180.632 1005.65 179.624ZM1023.07 182.84C1023.07 183.512 1023.07 184.136 1023.12 184.76H1019.61V185.864H1023.21C1024.03 193.448 1028.16 197.672 1034.64 197.672C1039.82 197.672 1042.99 194.36 1044.86 190.136L1043.61 189.56C1041.89 193.208 1039.82 195.464 1035.93 195.464C1030.61 195.464 1028.54 191.048 1027.97 185.864H1036.99V184.76H1027.87C1027.82 184.088 1027.82 183.368 1027.82 182.648C1027.82 182.12 1027.82 181.592 1027.87 181.112H1038.91V180.008H1027.92C1028.49 172.952 1031.37 168.44 1035.69 168.44C1038.29 168.44 1039.87 169.736 1040.11 171.032C1040.11 172.472 1039.44 172.664 1039.44 174.104C1039.44 175.352 1040.4 176.216 1041.93 176.216C1043.13 176.216 1044.48 175.544 1044.48 173.048C1044.48 169.928 1041.17 167.24 1035.89 167.24C1028.69 167.24 1024.22 173.144 1023.26 180.008H1019.61V181.112H1023.17C1023.12 181.688 1023.07 182.264 1023.07 182.84ZM1052.58 200.36C1049.75 200.36 1048.07 199.544 1048.07 198.008C1048.07 196.616 1049.18 195.272 1051.82 195.272C1054.89 195.272 1057.58 196.28 1060.12 197.48C1058.54 199.16 1055.8 200.36 1052.58 200.36ZM1075.19 163.496C1067.22 163.496 1062.09 170.936 1061.7 182.36H1054.07V183.464H1061.7L1061.75 187.352H1053.78V188.408H1061.75C1061.8 189.416 1061.9 190.664 1061.9 191.72C1061.9 192.344 1061.8 192.968 1061.66 193.688C1059.88 193.304 1057.19 192.824 1055.37 192.824C1050.95 192.824 1046.68 194.6 1046.68 197.48C1046.68 199.784 1048.31 201.704 1052.63 201.704C1056.23 201.704 1059.26 200.216 1061.13 197.96C1064.15 199.448 1067.03 201.176 1070.2 201.176C1078.6 201.176 1081.24 195.896 1081.86 190.904L1080.47 190.712C1079.94 193.928 1078.79 198.008 1074.52 198.008C1070.06 198.008 1067.37 195.512 1063.48 194.216C1064.34 192.776 1065.45 190.712 1066.07 188.408H1074.33V187.352H1066.26C1066.46 186.44 1066.84 184.856 1066.98 183.464H1074.71V182.36H1067.03C1067.18 181.112 1067.22 179.912 1067.22 178.424C1067.22 167.72 1070.54 164.696 1075.48 164.696C1079.94 164.696 1081.53 168.488 1081.53 171.896C1081.53 175.592 1079.9 177.992 1077.02 177.992C1074.23 177.992 1072.55 175.88 1072.55 173.144C1072.55 172.28 1072.7 171.032 1073.22 169.784L1072.17 169.592C1071.5 170.984 1071.35 172.088 1071.35 173.336C1071.35 176.792 1073.85 179.336 1077.02 179.336C1081.58 179.336 1084.55 176.168 1084.55 171.656C1084.55 168.2 1082.15 163.496 1075.19 163.496ZM1116.2 167.864H1105.25V168.92C1107.13 169.064 1109.48 169.496 1109.48 170.744C1109.48 171.416 1106.93 175.64 1103.09 181.688C1099.4 175.16 1097 170.792 1097 170.216C1097 169.304 1099.73 169.016 1101.17 168.92V167.864H1087.64V168.92C1088.45 168.968 1089.56 169.16 1090.28 169.592C1091.29 170.168 1092.15 171.176 1093.01 172.664C1094.74 175.688 1096.37 178.568 1098.25 182.312C1098.63 183.032 1098.92 183.704 1099.06 184.28H1091.72V185.384H1099.25V188.84H1091.72V189.944H1099.25V193.208C1099.25 194.264 1098.63 195.176 1097.77 195.464C1097.09 195.704 1094.84 195.896 1093.97 195.944V197H1108.85V195.944C1107.99 195.896 1105.97 195.608 1105.25 195.272C1104.39 194.888 1103.86 193.976 1103.86 192.968V189.944H1111.69V188.84H1103.86V186.872C1103.86 186.392 1103.91 185.912 1104.01 185.384H1111.69V184.28H1104.29C1104.53 183.608 1104.82 182.888 1105.16 182.264C1107.56 177.896 1109.19 174.92 1111.45 172.088C1112.5 170.792 1112.74 170.312 1113.85 169.688C1114.28 169.4 1115.72 168.968 1116.2 168.92V167.864ZM1126.27 190.136C1124.59 188.408 1123.53 185.48 1123.53 182.024C1123.53 174.776 1126.56 172.232 1129.68 172.232H1130.49L1126.27 190.136ZM1137.16 187.592C1135.58 190.376 1133.76 191.864 1130.35 191.864C1129.2 191.864 1128.14 191.528 1127.28 190.952L1131.64 172.424C1132.46 172.616 1132.89 173.096 1133.04 173.96C1133.04 174.872 1132.41 174.92 1132.41 176.936C1132.41 178.808 1134.14 179.336 1135.1 179.336C1136.78 179.336 1137.6 178.232 1137.6 176.648C1137.6 174.152 1135.72 171.896 1131.88 171.272L1133.37 165.08L1132.22 164.84L1130.73 171.128C1130.4 171.08 1130.06 171.08 1129.68 171.08C1122.81 171.08 1118.78 176.552 1118.78 182.456C1118.78 187.784 1120.99 191.96 1125.5 193.448L1123.44 202.28L1124.54 202.52L1126.6 193.736C1127.42 193.88 1128.28 193.976 1129.2 193.976C1132.99 193.976 1136.3 191.432 1138.08 188.264L1137.16 187.592ZM1148.59 175.208C1146.82 175.208 1145.38 176.648 1145.38 178.424C1145.38 180.2 1146.82 181.592 1148.59 181.592C1150.37 181.592 1151.81 180.2 1151.81 178.424C1151.81 176.648 1150.37 175.208 1148.59 175.208ZM1148.59 191C1146.82 191 1145.38 192.44 1145.38 194.216C1145.38 195.992 1146.82 197.384 1148.59 197.384C1150.37 197.384 1151.81 195.992 1151.81 194.216C1151.81 192.44 1150.37 191 1148.59 191ZM1165.71 175.16C1164.03 175.16 1162.68 176.312 1162.68 178.184C1162.68 180.248 1163.83 181.544 1165.66 181.544C1167.63 181.544 1168.59 179.912 1168.59 178.28C1168.59 176.696 1167.58 175.16 1165.71 175.16ZM1165.08 191.048C1163.21 191.048 1162.11 192.536 1162.11 193.88C1162.11 195.368 1162.92 196.904 1165.42 196.904H1166.71C1166.43 200.168 1164.55 202.328 1161.87 203.912L1162.44 204.968C1164.7 203.72 1169.11 200.552 1169.11 196.136C1169.11 193.112 1167.91 191.048 1165.08 191.048ZM1180.08 191.048C1178.21 191.048 1177.11 192.536 1177.11 193.88C1177.11 195.368 1177.92 196.904 1180.42 196.904H1181.72C1181.43 200.168 1179.56 202.328 1176.87 203.912L1177.4 205.016C1179.65 203.768 1184.12 200.552 1184.12 196.136C1184.12 193.112 1182.92 191.048 1180.08 191.048ZM1193.51 191.048C1191.73 191.048 1190.29 192.488 1190.29 194.264C1190.29 196.04 1191.73 197.432 1193.51 197.432C1195.28 197.432 1196.72 196.04 1196.72 194.264C1196.72 192.488 1195.28 191.048 1193.51 191.048ZM1210.05 170.792C1214.42 168.824 1216.05 169.352 1216.05 167.912C1216.05 167.144 1215.48 166.472 1214.8 166.472C1213.89 166.472 1212.88 168.056 1209.91 170.168C1210.15 167.432 1210.96 165.656 1210.96 164.84C1210.96 164.12 1210.58 163.544 1209.62 163.544C1208.76 163.544 1208.32 164.024 1208.32 164.84C1208.32 165.752 1209 167.528 1209.33 170.168C1206.4 168.296 1205.35 166.472 1204.39 166.472C1203.72 166.472 1203.14 167.192 1203.14 167.912C1203.14 169.4 1204.87 168.872 1209.24 170.792C1204.68 172.808 1203.14 172.184 1203.14 173.624C1203.14 174.392 1203.81 175.112 1204.44 175.112C1205.2 175.112 1206.4 173.336 1209.38 171.368C1209.04 174.344 1208.32 175.832 1208.32 176.744C1208.32 177.512 1208.76 178.04 1209.62 178.04C1210.48 178.04 1210.96 177.464 1210.96 176.744C1210.96 175.976 1210.2 174.2 1209.96 171.416C1212.84 173.384 1214.04 175.112 1214.71 175.112C1215.33 175.112 1216.05 174.584 1216.05 173.624C1216.05 172.232 1214.23 172.616 1210.05 170.792Z" fill="black"/>
</svg>
