<svg width="256" height="32" viewBox="0 0 256 32" fill="none" xmlns="http://www.w3.org/2000/svg">
<path d="M11.032 3.144H0.312V3.848C0.888 3.88 1.944 4.04 2.744 4.296C3.544 4.552 3.736 5.224 3.736 5.928V22.344C3.736 23.048 3.512 23.656 2.744 23.944C2.328 24.104 1.016 24.264 0.44 24.296V25H10.648V24.296C9.848 24.264 8.536 24.104 8.12 23.944C7.352 23.656 7.128 23.048 7.128 22.344V14.984H9.624C13.752 14.984 17.88 12.68 17.88 8.328C17.88 5.032 14.808 3.144 11.032 3.144ZM8.696 14.024H7.128V4.04H9.304C12.952 4.04 13.912 6.728 13.912 9.128C13.912 10.632 13.304 14.024 8.696 14.024ZM31.483 3.144H21.179V3.848C21.755 3.88 22.651 4.04 23.419 4.36C24.187 4.68 24.411 5.288 24.411 5.992V22.408C24.411 23.112 24.187 23.688 23.419 23.976C23.003 24.136 21.691 24.296 21.051 24.296V25H30.843C37.019 25 43.419 21.672 43.419 14.216C43.419 5.448 35.867 3.144 31.483 3.144ZM31.291 24.072C28.827 24.072 27.995 23.176 27.803 21.608V4.104C28.507 4.072 29.851 4.04 30.587 4.04C35.963 4.04 39.483 8.36 39.483 14.184C39.483 19.944 36.923 24.072 31.291 24.072ZM57.4445 3.144H46.7245V3.848C47.3005 3.88 48.3565 4.04 49.1565 4.296C49.9565 4.552 50.1485 5.224 50.1485 5.928V22.344C50.1485 23.048 49.9245 23.656 49.1565 23.944C48.7405 24.104 47.4285 24.264 46.8525 24.296V25H57.0605V24.296C56.2605 24.264 54.9485 24.104 54.5325 23.944C53.7645 23.656 53.5405 23.048 53.5405 22.344V14.984H56.0365C60.1645 14.984 64.2925 12.68 64.2925 8.328C64.2925 5.032 61.2205 3.144 57.4445 3.144ZM55.1085 14.024H53.5405V4.04H55.7165C59.3645 4.04 60.3245 6.728 60.3245 9.128C60.3245 10.632 59.7165 14.024 55.1085 14.024ZM74.9333 0.935999L64.9493 31.368L66.4213 31.784L76.4373 1.352L74.9333 0.935999ZM90.4507 3.144H79.7307V3.848C80.3067 3.88 81.3627 4.04 82.1627 4.296C82.9627 4.552 83.1547 5.224 83.1547 5.928V22.344C83.1547 23.048 82.9307 23.656 82.1627 23.944C81.7467 24.104 80.4347 24.264 79.8587 24.296V25H90.0667V24.296C89.2667 24.264 87.9547 24.104 87.5387 23.944C86.7707 23.656 86.5467 23.048 86.5467 22.344V14.984H89.0427C93.1707 14.984 97.2987 12.68 97.2987 8.328C97.2987 5.032 94.2267 3.144 90.4507 3.144ZM88.1147 14.024H86.5467V4.04H88.7227C92.3707 4.04 93.3307 6.728 93.3307 9.128C93.3307 10.632 92.7227 14.024 88.1147 14.024ZM118.518 18.792C118.198 19.88 116.566 22.408 115.734 23.304C115.094 23.976 112.886 24.136 111.03 24.136C107.574 24.136 107.222 23.912 107.222 21.192V5.896C107.222 5.192 107.414 4.552 108.214 4.296C108.79 4.104 109.974 3.88 110.55 3.848V3.144H100.534V3.848C101.11 3.88 102.262 4.2 102.838 4.456C103.638 4.808 103.83 5.352 103.83 6.056V22.344C103.83 23.048 103.606 23.656 102.838 23.944C102.422 24.104 101.11 24.264 100.534 24.296V25H118.806L119.286 18.792H118.518ZM132.051 3.144H121.331V3.848C121.907 3.88 122.963 4.04 123.763 4.296C124.563 4.552 124.755 5.224 124.755 5.928V22.344C124.755 23.048 124.531 23.656 123.763 23.944C123.347 24.104 122.035 24.264 121.459 24.296V25H131.667V24.296C130.867 24.264 129.555 24.104 129.139 23.944C128.371 23.656 128.147 23.048 128.147 22.344V14.984H130.643C134.771 14.984 138.899 12.68 138.899 8.328C138.899 5.032 135.827 3.144 132.051 3.144ZM129.715 14.024H128.147V4.04H130.323C133.971 4.04 134.931 6.728 134.931 9.128C134.931 10.632 134.323 14.024 129.715 14.024ZM174.848 24.296C174.272 24.264 172.992 24.008 172.608 23.816C171.872 23.464 171.616 22.952 171.616 22.248V5.832C171.616 5.128 171.808 4.52 172.608 4.264C173.184 4.072 174.272 3.88 174.848 3.848V3.144H164.928V3.848C165.504 3.88 166.688 4.2 167.232 4.424C167.968 4.744 168.224 5.288 168.224 5.992V13.096H157.184V5.832C157.184 5.128 157.376 4.52 158.176 4.264C158.752 4.072 159.904 3.88 160.48 3.848V3.144H150.56V3.848C151.136 3.88 152.256 4.2 152.8 4.424C153.568 4.744 153.792 5.288 153.792 5.992V22.408C153.792 23.112 153.568 23.688 152.8 23.976C152.384 24.136 151.136 24.264 150.56 24.296V25H160.48V24.296C159.904 24.264 158.56 23.976 158.176 23.816C157.44 23.496 157.184 22.952 157.184 22.248V14.152H168.224V22.408C168.224 23.112 168 23.688 167.232 23.976C166.816 24.136 165.504 24.264 164.928 24.296V25H174.848V24.296ZM189.984 21.128C188.768 23.08 187.968 23.976 185.472 23.976C182.048 23.976 180.704 21.032 180.704 16.904V16.552H190.24V16.264C190.24 13 188.64 10.12 184.256 10.12C180 10.12 177.536 13.8 177.536 17.64C177.536 21.864 179.776 25.384 184.608 25.384C187.296 25.384 189.44 23.784 190.56 21.512L189.984 21.128ZM180.704 15.848C180.8 12.84 182.208 10.856 184.224 10.856C186.656 10.856 187.136 13.48 187.136 15.784L180.704 15.848ZM201.506 22.376C200.738 23.336 200.034 24.072 198.37 24.072C196.994 24.072 196.194 23.272 196.194 21.512C196.194 18.664 198.434 17.768 201.634 16.776L201.506 22.376ZM207.138 21.192C207.042 22.408 206.946 23.656 205.89 23.656C204.834 23.656 204.386 22.504 204.386 22.024C204.386 20.968 204.546 17.672 204.546 14.856C204.546 10.6 202.21 10.12 199.042 10.12C196.61 10.12 193.89 11.592 193.89 13.512C193.89 14.344 194.274 15.176 195.33 15.176C196.482 15.176 197.186 14.472 197.186 13.8C197.186 13.096 196.898 12.392 196.898 11.912C197.186 11.56 197.634 10.824 198.85 10.824C201.506 10.824 201.602 13.48 201.602 14.056V15.848C200.258 16.616 198.05 17.16 196.226 17.864C194.626 18.472 193.09 19.368 193.09 21.992C193.09 24.04 194.594 25.384 196.802 25.384C198.722 25.384 200.386 24.52 201.538 23.176H201.634C202.146 24.648 202.946 25.32 204.45 25.32C206.434 25.32 207.65 24.168 207.842 21.192H207.138ZM217.322 24.168C214.09 24.168 212.682 21.128 212.682 17.928C212.682 13.544 214.538 10.824 216.97 10.824C219.178 10.824 220.234 12.392 220.586 13.48V22.536C219.754 23.432 218.858 24.168 217.322 24.168ZM226.218 24.104C225.642 24.072 224.714 23.944 224.33 23.688C223.818 23.336 223.562 22.792 223.498 22.12V1.352L223.274 1.128L216.938 1.48V2.056C217.802 2.12 219.21 2.408 219.754 2.792C220.266 3.144 220.522 3.976 220.586 4.648V10.984C220.202 10.824 218.73 10.12 216.714 10.12C212.938 10.12 209.418 13.192 209.418 17.576C209.418 22.376 212.49 25.416 216.234 25.416C218.25 25.416 219.786 24.168 220.49 23.432L220.618 23.464V24.84L220.842 25.064L226.218 24.712V24.104ZM240.76 21.128C239.544 23.08 238.744 23.976 236.248 23.976C232.824 23.976 231.48 21.032 231.48 16.904V16.552H241.016V16.264C241.016 13 239.416 10.12 235.032 10.12C230.776 10.12 228.312 13.8 228.312 17.64C228.312 21.864 230.552 25.384 235.384 25.384C238.072 25.384 240.216 23.784 241.336 21.512L240.76 21.128ZM231.48 15.848C231.576 12.84 232.984 10.856 235 10.856C237.432 10.856 237.912 13.48 237.912 15.784L231.48 15.848ZM253.177 10.184C251.833 10.184 250.233 10.984 248.857 12.744H248.793V10.568L248.569 10.344L243.449 10.696V11.304C244.025 11.336 244.633 11.56 245.017 11.816C245.529 12.168 245.817 12.84 245.881 13.512V22.696C245.881 23.4 245.625 23.944 245.017 24.136C244.569 24.264 244.185 24.328 243.609 24.36V25H251.737V24.36C251.129 24.328 250.201 24.2 249.657 23.976C249.081 23.752 248.793 23.24 248.793 22.536V13.704C249.177 13 250.361 11.624 251.993 11.624C251.993 12.04 251.769 12.296 251.769 12.616C251.769 13.704 252.473 14.152 253.497 14.152C254.585 14.152 255.193 13.256 255.193 12.136C255.193 11.08 254.169 10.184 253.177 10.184Z" fill="#54585A"/>
</svg>
