<svg width="1235" height="304" viewBox="0 0 1235 304" fill="none" xmlns="http://www.w3.org/2000/svg">
<path d="M58.1802 90.4L73.8762 50.224L89.8602 90.4H58.1802ZM132.052 126.832C129.316 126.688 125.14 125.68 122.548 124.24C119.092 122.224 117.796 120.064 116.644 117.184C111.316 103.792 97.2042 67.216 82.5162 30.064H77.0442C66.1002 57.568 54.1482 88.096 43.9242 112.864C41.7642 117.904 39.1722 122.08 35.7162 124.096C33.1242 125.536 28.3722 126.688 25.6362 126.832V130H65.2362V126.832C60.1962 126.544 48.9642 124.24 48.9642 119.056C48.9642 117.04 49.5402 114.16 50.5482 110.992C51.8442 106.672 53.5722 101.776 56.3082 95.152H91.7322L100.66 117.904C101.092 119.056 101.236 120.208 101.236 121.216C101.236 124.816 91.7322 126.544 86.6922 126.832V130H132.052V126.832ZM172.514 118.192C169.058 122.512 165.89 125.824 158.402 125.824C152.21 125.824 148.61 122.224 148.61 114.304C148.61 101.488 158.69 97.456 173.09 92.992L172.514 118.192ZM197.858 112.864C197.426 118.336 196.994 123.952 192.242 123.952C187.49 123.952 185.474 118.768 185.474 116.608C185.474 111.856 186.194 97.024 186.194 84.352C186.194 65.2 175.682 63.04 161.426 63.04C150.482 63.04 138.242 69.664 138.242 78.304C138.242 82.048 139.97 85.792 144.722 85.792C149.906 85.792 153.074 82.624 153.074 79.6C153.074 76.432 151.778 73.264 151.778 71.104C153.074 69.52 155.09 66.208 160.562 66.208C172.514 66.208 172.946 78.16 172.946 80.752V88.816C166.898 92.272 156.962 94.72 148.754 97.888C141.554 100.624 134.642 104.656 134.642 116.464C134.642 125.68 141.41 131.728 151.346 131.728C159.986 131.728 167.474 127.84 172.658 121.792H173.09C175.394 128.416 178.994 131.44 185.762 131.44C194.69 131.44 200.162 126.256 201.026 112.864H197.858Z" fill="black"/>
<path d="M237.696 118.8L242.928 105.408L248.256 118.8H237.696ZM262.32 130.944C261.408 130.896 260.016 130.56 259.152 130.08C258 129.408 257.568 128.688 257.184 127.728C255.408 123.264 250.704 111.072 245.808 98.688H243.984C240.336 107.856 236.352 118.032 232.944 126.288C232.224 127.968 231.36 129.36 230.208 130.032C229.344 130.512 227.76 130.896 226.848 130.944V132H240.048V130.944C238.368 130.848 234.624 130.08 234.624 128.352C234.624 127.68 234.816 126.72 235.152 125.664C235.584 124.224 236.16 122.592 237.072 120.384H248.88L251.856 127.968C252 128.352 252.048 128.736 252.048 129.072C252.048 130.272 248.88 130.848 247.2 130.944V132H262.32V130.944ZM281.717 114.576V114.144C286.277 112.848 290.021 111.216 290.021 105.792C290.021 100.656 284.165 99.216 280.613 99.216H264.197V100.272C265.061 100.32 266.549 100.656 267.557 101.088C268.709 101.568 269.045 102.432 269.045 103.488V128.016C269.045 129.072 268.709 129.888 267.557 130.32C266.933 130.56 264.869 130.896 264.005 130.944V132H280.709C285.269 132 291.749 129.456 291.749 123.312C291.749 116.976 285.125 114.96 281.717 114.576ZM277.109 114H274.133V100.608C275.285 100.56 277.253 100.512 278.069 100.512C281.045 100.512 284.261 101.952 284.261 106.704C284.261 110.736 282.389 114 277.109 114ZM278.645 130.656C275.813 130.656 274.469 129.888 274.133 127.728V115.392C274.997 115.344 277.349 115.296 278.213 115.296C283.157 115.296 285.845 118.464 285.845 122.352C285.845 126.24 284.357 130.656 278.645 130.656ZM324.276 123.024C322.404 127.2 319.668 130.224 313.812 130.224C307.524 130.224 302.292 124.32 302.292 115.632C302.292 104.736 307.044 99.984 311.94 99.984C318.132 99.984 321.396 105.024 323.124 110.592H324.276L324.084 98.736H322.116L320.676 101.184C319.236 99.84 316.068 98.592 313.428 98.592C303.78 98.592 296.532 106.128 296.532 116.016C296.532 126.192 302.964 132.72 312.42 132.72C319.716 132.72 323.556 128.16 325.524 123.696L324.276 123.024ZM344.628 99.216H329.172V100.272C330.036 100.32 331.38 100.56 332.532 101.04C333.684 101.52 334.02 102.432 334.02 103.488V128.112C334.02 129.168 333.684 130.032 332.532 130.464C331.908 130.704 329.94 130.944 328.98 130.944V132H343.668C352.932 132 362.532 127.008 362.532 115.824C362.532 102.672 351.204 99.216 344.628 99.216ZM344.34 130.608C340.644 130.608 339.396 129.264 339.108 126.912V100.656C340.164 100.608 342.18 100.56 343.284 100.56C351.348 100.56 356.628 107.04 356.628 115.776C356.628 124.416 352.788 130.608 344.34 130.608ZM394.786 122.784C394.306 124.224 392.338 128.016 390.898 129.504C389.746 130.704 386.386 130.608 383.026 130.608C378.178 130.608 377.314 130.176 377.314 126.24V115.68H381.49C384.082 115.68 384.898 116.496 385.522 117.168C386.098 117.792 386.914 120.432 387.01 121.824H388.306V108.432H387.01C386.866 109.68 386.242 112.128 385.522 112.848C384.946 113.424 384.178 114.336 381.49 114.336H377.314V100.512H382.978C384.514 100.512 385.81 100.56 386.962 100.704C389.026 100.992 391.57 104.544 392.098 106.656H393.394V99.216H366.946V100.272C367.81 100.32 369.826 100.752 370.738 101.136C371.938 101.616 372.226 102.432 372.226 103.488V128.016C372.226 129.12 371.89 129.936 370.738 130.368C370.018 130.656 367.81 130.896 366.946 130.944V132H395.362L395.986 122.784H394.786ZM426.499 99.216H399.715V100.272C400.579 100.32 402.595 100.752 403.507 101.136C404.707 101.616 404.995 102.432 404.995 103.488V128.112C404.995 129.168 404.659 130.032 403.507 130.464C402.883 130.704 400.579 130.896 399.715 130.944V132H415.219V130.944C414.355 130.896 412.147 130.464 411.571 130.224C410.467 129.744 410.083 128.928 410.083 127.872V115.824H414.355C416.611 115.824 418.003 116.688 418.627 117.312C419.299 117.984 420.019 120.672 420.115 122.064H421.411V108.576H420.115C419.923 110.352 419.299 112.368 418.627 112.992C418.003 113.568 416.803 114.48 414.355 114.48H410.083V100.512H416.083C417.619 100.512 418.915 100.56 420.067 100.704C422.131 100.992 424.675 104.88 425.203 106.992H426.499V99.216ZM464.225 117.504H448.337V118.608C449.201 118.656 451.937 118.944 453.089 119.376C454.337 119.856 454.673 120.96 454.673 122.208V125.136C454.337 128.208 451.697 131.184 446.465 131.184C440.513 131.184 435.713 124.848 435.713 116.016C435.713 105.552 440.561 99.984 446.081 99.984C452.753 99.984 456.497 105.024 458.177 110.256H459.281L459.041 98.736H457.169L455.633 101.184C454.145 99.84 450.689 98.592 447.953 98.592C437.633 98.592 429.857 106.416 429.857 116.352C429.857 127.008 437.585 132.72 444.593 132.72C448.625 132.72 453.377 131.232 456.161 130.176L458.753 133.104L459.377 132.912V121.776C459.377 120.72 459.665 119.808 460.817 119.28C461.729 118.896 463.361 118.752 464.225 118.608V117.504ZM503.382 130.944C502.518 130.896 500.598 130.512 500.022 130.224C498.918 129.696 498.534 128.928 498.534 127.872V103.248C498.534 102.192 498.822 101.28 500.022 100.896C500.886 100.608 502.518 100.32 503.382 100.272V99.216H488.502V100.272C489.366 100.32 491.142 100.8 491.958 101.136C493.062 101.616 493.446 102.432 493.446 103.488V114.144H476.886V103.248C476.886 102.192 477.174 101.28 478.374 100.896C479.238 100.608 480.966 100.32 481.83 100.272V99.216H466.95V100.272C467.814 100.32 469.494 100.8 470.31 101.136C471.462 101.616 471.798 102.432 471.798 103.488V128.112C471.798 129.168 471.462 130.032 470.31 130.464C469.686 130.704 467.814 130.896 466.95 130.944V132H481.83V130.944C480.966 130.896 478.95 130.464 478.374 130.224C477.27 129.744 476.886 128.928 476.886 127.872V115.728H493.446V128.112C493.446 129.168 493.11 130.032 491.958 130.464C491.334 130.704 489.366 130.896 488.502 130.944V132H503.382V130.944ZM523.696 130.944C522.832 130.896 520.768 130.464 520.192 130.224C519.088 129.744 518.704 128.976 518.704 127.92V103.2C518.704 102.144 518.992 101.28 520.192 100.896C521.056 100.608 522.832 100.32 523.696 100.272V99.216H508.624V100.272C509.488 100.32 511.264 100.8 512.128 101.136C513.328 101.616 513.616 102.384 513.616 103.44V128.16C513.616 129.216 513.28 130.032 512.128 130.464C511.504 130.704 509.488 130.896 508.624 130.944V132H523.696V130.944ZM549.18 99.216H533.58V100.272C534.54 100.32 536.412 100.656 537.468 101.136C538.62 101.664 538.956 102.432 538.956 103.488V121.488C538.956 126.48 538.428 131.52 532.044 131.52C531.852 131.52 531.372 131.472 531.18 131.424V131.184C532.572 130.416 533.148 129.12 533.148 127.92C533.148 126.192 531.996 124.848 530.028 124.848C528.06 124.848 526.716 126.432 526.716 128.304C526.716 130.176 528.252 132.816 533.34 132.816C540.444 132.816 544.044 126.528 544.044 123.072V103.248C544.044 102.192 544.332 101.28 545.532 100.896C546.396 100.608 548.316 100.32 549.18 100.272V99.216ZM588.242 130.944C587.378 130.896 585.698 130.656 584.786 130.272C582.914 129.456 581.666 128.16 580.802 127.056C576.818 122.016 573.314 118.512 568.37 113.376C572.642 109.776 574.754 107.136 578.834 102.768C581.138 100.32 584.738 100.32 585.602 100.272V99.216H572.018V100.272C572.882 100.32 575.906 100.56 575.906 102C575.906 104.304 570.194 109.968 563.954 115.008H563.426V103.248C563.426 102.192 563.714 101.28 564.914 100.896C565.778 100.608 567.506 100.32 568.37 100.272V99.216H553.49V100.272C554.354 100.32 556.034 100.8 556.85 101.136C558.002 101.616 558.338 102.432 558.338 103.488V128.112C558.338 129.168 558.002 130.032 556.85 130.464C556.226 130.704 554.354 130.896 553.49 130.944V132H568.37V130.944C567.506 130.896 565.49 130.464 564.914 130.224C563.81 129.744 563.426 128.928 563.426 127.872V115.92H564.194C567.17 118.896 575.282 127.008 575.282 128.832C575.282 130.656 572.642 130.848 570.674 130.944V132H588.242V130.944ZM616.608 122.688C616.128 124.32 613.68 128.112 612.432 129.456C611.472 130.464 608.16 130.704 605.376 130.704C600.192 130.704 599.664 130.368 599.664 126.288V103.344C599.664 102.288 599.952 101.328 601.152 100.944C602.016 100.656 603.792 100.32 604.656 100.272V99.216H589.632V100.272C590.496 100.32 592.224 100.8 593.088 101.184C594.288 101.712 594.576 102.528 594.576 103.584V128.016C594.576 129.072 594.24 129.984 593.088 130.416C592.464 130.656 590.496 130.896 589.632 130.944V132H617.04L617.76 122.688H616.608ZM662.475 130.944C661.611 130.896 659.451 130.512 658.875 130.224C657.771 129.696 657.387 128.928 657.387 127.872V103.248C657.387 102.192 657.675 101.28 658.875 100.896C659.739 100.608 661.563 100.32 662.427 100.272V99.216H651.579C651.531 99.744 651.243 101.52 650.475 103.296L641.499 123.648L630.363 99.216H619.563V100.272C620.859 100.32 622.731 100.704 623.883 101.616C624.843 102.384 625.371 103.584 625.371 105.552V123.12C625.371 126.816 624.939 128.928 623.787 129.744C622.635 130.56 620.139 130.848 619.323 130.944V132H633.723V130.944C632.859 130.896 629.595 130.128 628.779 129.456C627.723 128.592 627.147 126.528 627.147 122.88V103.968L636.459 124.8C637.371 126.864 638.427 129.6 639.003 131.472H639.915L652.347 103.296V127.872C652.347 128.976 651.915 129.744 650.811 130.32C650.139 130.656 647.499 130.896 646.635 130.944V132H662.475V130.944ZM703.259 99.216H688.955V100.272C690.059 100.32 692.939 101.136 693.851 101.712C694.907 102.384 695.483 104.736 695.483 108.192V124.464L675.419 99.216H665.531V100.272C666.827 100.32 669.515 101.472 670.667 102.384C671.627 103.152 672.203 104.784 672.203 106.176V123.072C672.203 126.816 671.771 128.832 670.619 129.648C670.091 130.032 667.019 130.896 666.155 130.944V132H680.555V130.944C679.691 130.896 676.427 130.08 675.611 129.408C674.555 128.544 673.979 126.48 673.979 122.832V105.264L695.483 132.336H697.259V107.904C697.259 104.736 697.547 102.288 698.843 101.472C699.611 100.992 702.395 100.32 703.259 100.272V99.216ZM734.641 103.44C731.041 99.936 726.961 98.448 722.449 98.448C717.793 98.448 713.569 100.128 710.305 103.44C707.185 106.56 705.649 110.736 705.649 115.968C705.649 121.2 707.617 125.28 710.785 128.256C713.905 131.184 717.889 132.768 722.257 132.768C727.201 132.768 731.137 131.088 734.209 128.16C737.761 124.8 739.201 120.384 739.201 115.392C739.201 110.688 737.473 106.272 734.641 103.44ZM722.449 131.28C714.961 131.28 711.457 124.272 711.457 115.728C711.457 105.792 715.633 99.936 722.449 99.936C730.417 99.936 733.393 107.712 733.393 115.536C733.393 124.464 729.889 131.28 722.449 131.28ZM759.892 99.216H743.812V100.272C744.676 100.32 746.26 100.56 747.46 100.944C748.66 101.328 748.948 102.336 748.948 103.392V128.016C748.948 129.072 748.612 129.984 747.46 130.416C746.836 130.656 744.868 130.896 744.004 130.944V132H759.316V130.944C758.116 130.896 756.148 130.656 755.524 130.416C754.372 129.984 754.036 129.072 754.036 128.016V116.976H757.78C763.972 116.976 770.164 113.52 770.164 106.992C770.164 102.048 765.556 99.216 759.892 99.216ZM756.388 115.536H754.036V100.56H757.3C762.772 100.56 764.212 104.592 764.212 108.192C764.212 110.448 763.3 115.536 756.388 115.536ZM812.632 132.048C811.576 133.68 809.656 135.744 807.016 135.744C804.232 135.744 800.584 134.64 799.528 129.792C805.336 126.336 807.832 121.392 807.832 115.392C807.832 110.688 806.104 106.272 803.272 103.44C799.672 99.936 795.592 98.448 791.08 98.448C786.424 98.448 782.2 100.128 778.936 103.44C775.816 106.56 774.28 110.736 774.28 115.968C774.28 121.2 776.248 125.28 779.416 128.256C782.536 131.184 786.52 132.72 790.888 132.72C792.04 132.72 793.384 132.48 794.632 132.096C796.072 137.424 800.056 139.056 803.608 139.056C808.408 139.056 812.296 134.736 813.592 132.768L812.632 132.048ZM798.856 128.064C797.752 124.512 794.488 121.824 790.984 121.824C788.392 121.824 784.888 123.12 783.208 127.488C781.048 124.608 780.088 120.384 780.088 115.728C780.088 105.792 784.264 99.936 791.08 99.936C799.048 99.936 802.024 107.712 802.024 115.536C802.024 120.912 801.112 125.328 798.856 128.064ZM791.08 131.328C788.152 131.328 785.944 130.32 784.12 128.448C785.272 124.56 788.296 123.888 789.208 123.888C792.136 123.888 793.96 125.952 794.344 130.992C793.432 131.184 792.232 131.328 791.08 131.328ZM846.226 124.704H844.882V125.424C844.882 128.64 843.682 130.032 842.434 130.032C841.714 130.032 840.562 129.936 839.986 127.776C839.362 125.424 839.074 123.072 838.354 120.432C837.394 116.928 833.41 115.68 831.154 115.44V114.96C834.562 114 840.034 111.84 840.034 106.608C840.034 101.376 834.61 99.216 829.762 99.216H813.01V100.272C813.874 100.32 815.602 100.656 816.466 100.944C817.666 101.328 817.954 102.288 817.954 103.344V128.016C817.954 129.12 817.618 129.984 816.466 130.416C815.842 130.656 813.874 130.896 813.01 130.944V132H828.034V130.944C827.17 130.896 825.154 130.656 824.53 130.416C823.378 129.984 823.042 129.12 823.042 128.016V116.016H826.834C832.402 116.016 833.218 120.624 833.698 124.416C834.37 129.84 836.146 132.528 839.986 132.528C844.114 132.528 846.226 129.888 846.226 125.424V124.704ZM826.018 114.624H823.042V100.56H827.266C830.914 100.56 834.13 102.096 834.13 107.568C834.13 113.04 830.242 114.624 826.018 114.624ZM864.753 113.76C862.593 112.752 860.577 112.272 858.225 110.976C855.585 109.536 854.001 107.856 854.001 104.928C854.001 101.184 857.169 100.032 858.561 100.032C864.993 100.032 867.153 104.208 869.073 109.632H870.129L869.889 98.736H868.257L866.625 100.992C864.945 99.696 862.209 98.592 859.713 98.592C854.241 98.592 850.113 102.384 850.113 107.472C850.113 111.744 852.081 114.384 855.777 116.016C858.465 117.216 859.905 117.744 862.641 118.848C865.521 120 867.345 122.208 867.345 125.136C867.345 128.736 865.521 131.184 861.249 131.184C855.297 131.184 852.225 126.336 850.257 121.248H849.153L849.489 132.48H851.121L852.801 130.224C854.241 131.376 856.785 132.624 860.673 132.624C866.865 132.624 871.521 128.496 871.521 122.64C871.521 117.552 868.881 115.68 864.753 113.76ZM894.395 87.12L887.627 93.552L880.763 87.12L880.043 87.696C882.587 91.44 884.363 94.272 885.563 96C886.091 96.816 886.139 96.96 887.531 96.96C888.923 96.96 889.019 96.816 889.643 95.904C890.795 94.128 892.571 91.392 895.115 87.696L894.395 87.12ZM891.803 113.76C889.643 112.752 887.627 112.272 885.275 110.976C882.635 109.536 881.051 107.856 881.051 104.928C881.051 101.184 884.219 100.032 885.611 100.032C892.043 100.032 894.203 104.208 896.123 109.632H897.179L896.939 98.736H895.307L893.675 100.992C891.995 99.696 889.259 98.592 886.763 98.592C881.291 98.592 877.163 102.384 877.163 107.472C877.163 111.744 879.131 114.384 882.827 116.016C885.515 117.216 886.955 117.744 889.691 118.848C892.571 120 894.395 122.208 894.395 125.136C894.395 128.736 892.571 131.184 888.299 131.184C882.347 131.184 879.275 126.336 877.307 121.248H876.203L876.539 132.48H878.171L879.851 130.224C881.291 131.376 883.835 132.624 887.723 132.624C893.915 132.624 898.571 128.496 898.571 122.64C898.571 117.552 895.931 115.68 891.803 113.76ZM931.573 99.216H901.525V107.568H902.677C903.205 105.456 905.797 100.992 907.861 100.704C909.013 100.56 910.693 100.512 911.749 100.512H914.005V127.968C914.005 129.024 913.669 129.936 912.517 130.368C911.893 130.608 909.445 130.896 908.581 130.944V132H924.517V130.944C923.653 130.896 921.157 130.368 920.581 130.128C919.477 129.648 919.093 128.784 919.093 127.728V100.512H921.349C922.645 100.512 924.085 100.56 925.237 100.704C927.301 100.992 929.893 105.456 930.421 107.568H931.573V99.216ZM970.321 99.216H955.969V100.272C957.073 100.32 959.665 100.896 960.865 101.664C961.921 102.336 962.497 104.592 962.497 108.096V122.304C962.497 125.472 960.721 130.704 953.089 130.704C945.601 130.704 944.353 125.856 944.353 122.4V103.248C944.353 102.192 944.641 101.28 945.841 100.896C946.705 100.608 948.433 100.32 949.297 100.272V99.216H934.369V100.272C935.137 100.32 936.865 100.656 937.729 101.088C938.833 101.664 939.217 102.432 939.217 103.488V123.36C939.217 128.352 943.537 132.768 951.937 132.768C956.689 132.768 964.321 130.32 964.321 122.496V107.808C964.321 104.832 964.609 102.24 965.905 101.424C966.913 100.8 969.457 100.32 970.321 100.272V99.216ZM1005.25 99.216H992.338V100.272C994.546 100.416 997.858 101.28 997.858 102.864C997.858 103.44 997.762 104.784 996.754 107.184C995.218 110.88 992.05 118.272 989.026 125.424C985.042 114.672 981.682 105.264 980.962 103.248C980.818 102.864 980.722 102.384 980.722 102.048C980.722 100.896 983.698 100.368 985.378 100.272V99.216H970.498V100.272C971.41 100.32 972.802 100.656 973.666 101.136C974.818 101.808 975.25 102.48 975.634 103.488C977.218 107.856 981.634 119.952 986.098 132.384H987.874C991.618 123.36 997.666 109.296 999.634 104.736C1000.31 103.248 1000.88 101.952 1002.13 101.232C1002.99 100.752 1004.34 100.32 1005.25 100.272V99.216ZM1053.51 99.216H1040.6V100.272C1042.81 100.416 1045.98 101.184 1045.98 102.864C1045.98 103.68 1045.74 104.688 1045.02 107.184C1043.86 111.072 1041.9 116.832 1039.21 124.32C1035.7 113.616 1032.92 105.264 1032.3 103.248C1032.2 102.912 1032.1 102.384 1032.1 102.048C1032.1 100.896 1035.03 100.368 1036.71 100.272V99.216H1021.78V100.272C1022.7 100.32 1024.71 100.704 1025.48 101.184C1027.26 102.288 1027.69 103.92 1027.69 105.552L1020.68 124.56C1017.27 113.808 1014.73 105.408 1014.06 103.248C1013.96 102.96 1013.86 102.336 1013.86 102.048C1013.86 100.896 1016.94 100.368 1018.62 100.272V99.216H1003.98V100.272C1004.89 100.32 1006.23 100.608 1007.1 101.136C1008.15 101.76 1008.58 102.48 1008.87 103.488C1010.17 107.856 1013.91 119.904 1017.7 132.384H1019.53L1028.6 107.616C1030.57 113.664 1033.35 122.448 1036.33 132.384H1038.06C1041.51 122.496 1045.69 110.592 1047.9 104.736C1048.47 103.2 1049.14 101.952 1050.39 101.232C1051.26 100.752 1052.6 100.32 1053.51 100.272V99.216ZM1090.03 130.944C1089.17 130.896 1086.96 130.752 1086.43 130.368C1084.85 129.312 1083.89 128.112 1083.07 127.056C1080.96 124.32 1077.7 119.76 1073.42 113.904C1076.35 110.208 1078.7 107.184 1081.25 104.16C1082.11 103.104 1083.31 101.76 1085.18 100.944C1086.1 100.56 1087.73 100.32 1088.59 100.272V99.216H1074.96V100.272C1076.93 100.368 1079.57 100.56 1079.57 102.384C1079.57 103.632 1076.54 107.568 1072.32 112.56C1069.15 108.288 1065.74 103.776 1065.74 102.384C1065.74 100.56 1068.67 100.368 1070.64 100.272V99.216H1053.12V100.272C1053.98 100.32 1056.05 100.608 1056.72 100.944C1058.5 101.856 1059.31 103.104 1060.08 104.16C1062.82 107.712 1065.55 111.552 1068.96 116.304C1065.55 120.576 1063.25 123.6 1060.37 127.056C1059.5 128.112 1058.3 129.456 1056.43 130.272C1055.52 130.656 1053.89 130.896 1053.02 130.944V132H1066.66V130.944C1064.69 130.848 1062.05 130.656 1062.05 128.832C1062.05 127.488 1066.51 122.112 1070.11 117.696C1073.14 121.824 1077.46 127.296 1077.46 128.832C1077.46 130.656 1074.48 130.848 1072.51 130.944V132H1090.03V130.944ZM1122.26 99.216H1109.78V100.272C1111.99 100.416 1114.96 100.992 1114.96 102.576C1114.96 103.344 1111.55 109.056 1107.09 116.064C1102.82 108.48 1099.65 102.624 1099.65 101.952C1099.65 100.8 1102.82 100.368 1104.5 100.272V99.216H1089.04V100.272C1089.95 100.32 1091.25 100.608 1092.11 101.088C1093.27 101.76 1094.23 102.912 1095.04 104.352C1097.11 107.856 1099.17 111.696 1101.38 116.016C1102.1 117.456 1102.63 118.656 1102.63 119.616V127.968C1102.63 129.024 1102.29 129.936 1101.14 130.368C1100.51 130.608 1098.07 130.896 1097.2 130.944V132H1113.14V130.944C1112.27 130.896 1109.78 130.368 1109.2 130.128C1108.1 129.648 1107.71 128.832 1107.71 127.728V121.344C1107.71 119.76 1108.34 117.504 1109.15 115.968C1111.94 110.928 1114.15 106.944 1116.79 103.68C1117.79 102.432 1118.23 101.952 1119.47 101.232C1120 100.896 1121.68 100.32 1122.26 100.272V99.216ZM1149.89 122.16C1149.07 124.224 1147.06 127.536 1144.99 129.456C1143.99 130.416 1140.82 130.704 1137.94 130.704H1127.91L1150.42 99.792V99.216H1124.55L1123.54 108.048H1124.69C1125.65 105.6 1128.63 101.28 1131.22 100.752C1132.18 100.56 1133.47 100.512 1135.11 100.512H1144.08L1121.57 131.424V132H1149.94L1151.04 122.16H1149.89ZM1166.62 128.064C1165.47 129.504 1164.42 130.608 1161.92 130.608C1159.86 130.608 1158.66 129.408 1158.66 126.768C1158.66 122.496 1162.02 121.152 1166.82 119.664L1166.62 128.064ZM1175.07 126.288C1174.93 128.112 1174.78 129.984 1173.2 129.984C1171.62 129.984 1170.94 128.256 1170.94 127.536C1170.94 125.952 1171.18 121.008 1171.18 116.784C1171.18 110.4 1167.68 109.68 1162.93 109.68C1159.28 109.68 1155.2 111.888 1155.2 114.768C1155.2 116.016 1155.78 117.264 1157.36 117.264C1159.09 117.264 1160.14 116.208 1160.14 115.2C1160.14 114.144 1159.71 113.088 1159.71 112.368C1160.14 111.84 1160.82 110.736 1162.64 110.736C1166.62 110.736 1166.77 114.72 1166.77 115.584V118.272C1164.75 119.424 1161.44 120.24 1158.7 121.296C1156.3 122.208 1154 123.552 1154 127.488C1154 130.56 1156.26 132.576 1159.57 132.576C1162.45 132.576 1164.94 131.28 1166.67 129.264H1166.82C1167.58 131.472 1168.78 132.48 1171.04 132.48C1174.02 132.48 1175.84 130.752 1176.13 126.288H1175.07ZM1190.19 131.664C1186.92 131.664 1185.39 128.832 1184.86 127.296V113.904C1186.01 112.56 1187.55 111.648 1189.85 111.648C1194.7 111.648 1196.57 116.496 1196.57 121.296C1196.57 127.872 1193.84 131.664 1190.19 131.664ZM1191.48 109.68C1188.46 109.68 1186.11 111.408 1185 112.608L1184.86 112.56V96.528L1184.52 96.192L1176.03 96.72V97.632C1176.89 97.68 1178.62 98.064 1179.2 98.448C1179.96 98.928 1180.49 100.128 1180.49 101.184V124.032C1180.49 127.488 1180.44 130.992 1180.3 132.912L1181.21 133.104L1182.99 130.272C1184.43 131.184 1187.4 132.672 1190.57 132.672C1196.24 132.672 1201.47 127.824 1201.47 121.248C1201.47 114.192 1197 109.68 1191.48 109.68ZM1223.71 126.192C1222.13 128.976 1220.31 130.464 1216.9 130.464C1212.67 130.464 1210.18 126.24 1210.18 120.624C1210.18 113.376 1213.15 110.832 1215.99 110.832C1217.67 110.832 1218.63 111.168 1218.87 112.56C1218.87 113.472 1218.24 113.52 1218.24 115.536C1218.24 117.408 1219.97 117.936 1220.93 117.936C1222.61 117.936 1223.43 116.832 1223.43 115.248C1223.43 112.32 1220.93 109.68 1215.99 109.68C1209.41 109.68 1205.33 115.152 1205.33 121.056C1205.33 127.68 1208.79 132.576 1215.75 132.576C1219.54 132.576 1222.85 130.032 1224.63 126.864L1223.71 126.192ZM241.392 197.752C236.544 197.752 234.432 193.192 234.432 188.392C234.432 181.816 237.216 177.736 240.864 177.736C244.176 177.736 245.76 180.088 246.288 181.72V195.304C245.04 196.648 243.696 197.752 241.392 197.752ZM254.736 197.656C253.872 197.608 252.48 197.416 251.904 197.032C251.136 196.504 250.752 195.688 250.656 194.68V163.528L250.32 163.192L240.816 163.72V164.584C242.112 164.68 244.224 165.112 245.04 165.688C245.808 166.216 246.192 167.464 246.288 168.472V177.976C245.712 177.736 243.504 176.68 240.48 176.68C234.816 176.68 229.536 181.288 229.536 187.864C229.536 195.064 234.144 199.624 239.76 199.624C242.784 199.624 245.088 197.752 246.144 196.648L246.336 196.696V198.76L246.672 199.096L254.736 198.568V197.656ZM276.149 193.192C274.325 196.12 273.125 197.464 269.381 197.464C264.245 197.464 262.229 193.048 262.229 186.856V186.328H276.533V185.896C276.533 181 274.133 176.68 267.557 176.68C261.173 176.68 257.477 182.2 257.477 187.96C257.477 194.296 260.837 199.576 268.085 199.576C272.117 199.576 275.333 197.176 277.013 193.768L276.149 193.192ZM262.229 185.272C262.373 180.76 264.485 177.784 267.509 177.784C271.157 177.784 271.877 181.72 271.877 185.176L262.229 185.272ZM294.178 163.144C291.73 163.144 289.09 163.96 287.122 166.072C284.77 168.568 283.858 171.928 283.858 175.912V177.4H278.962V179.416H283.858V195.544C283.858 196.6 283.474 197.416 282.562 197.704C281.89 197.896 281.314 197.992 280.45 198.04V199H292.642V198.04C291.778 197.992 290.242 197.752 289.522 197.464C288.658 197.128 288.226 196.312 288.226 195.304V179.416H294.274V177.4H288.226C288.226 176.584 288.274 175.192 288.274 174.472C288.514 167.128 290.002 164.248 293.026 164.248C293.554 164.248 293.986 164.584 294.178 165.16C294.178 166.216 293.89 166.984 293.89 167.704C293.89 169.336 295.57 169.864 296.674 169.864C298.354 169.864 299.266 168.28 299.266 167.368C299.266 165.304 297.778 163.144 294.178 163.144ZM305.699 189.688C303.299 189.688 301.715 187.096 301.715 183.688C301.715 180.52 302.579 177.736 305.651 177.736C308.675 177.736 309.779 180.664 309.779 183.832C309.779 186.904 308.531 189.688 305.699 189.688ZM317.219 176.68C315.155 176.68 314.147 177.016 312.371 178.12C311.747 178.12 309.107 176.68 305.795 176.68C301.043 176.68 297.203 179.32 297.203 183.736C297.203 186.568 299.267 188.776 302.627 190.12V190.408C301.043 191.032 298.355 191.944 298.355 194.296C298.355 197.032 301.523 198.04 303.395 198.568V198.904C298.307 199.048 295.811 201.304 295.811 203.992C295.811 207.64 298.691 209.848 306.275 209.848C314.531 209.848 318.323 206.44 318.323 202.024C318.323 197.992 315.011 195.64 312.179 195.496C311.171 195.448 308.195 195.256 306.803 195.208C304.451 195.112 301.667 195.208 301.667 192.856C301.667 191.8 302.483 191.224 303.347 190.792H306.131C310.067 190.792 314.243 188.152 314.243 183.976C314.243 182.536 313.571 180.664 312.419 179.416V179.08C313.139 178.552 313.811 178.264 315.395 178.264C315.395 180.28 315.875 181.336 317.459 181.336C318.755 181.336 319.475 180.376 319.475 178.984C319.475 177.688 318.371 176.68 317.219 176.68ZM307.091 208.6C301.763 208.6 299.891 206.2 299.891 204.28C299.891 201.304 301.187 199.96 304.595 199.288C308.915 199.288 310.979 199.48 312.035 199.624C314.291 200.344 314.483 201.88 314.483 202.984C314.483 206.728 311.747 208.6 307.091 208.6ZM346.762 198.04C345.898 197.992 345.322 197.8 344.65 197.512C343.786 197.128 343.402 196.408 343.402 195.352V184.264C343.402 179.704 341.434 176.68 336.97 176.68C332.842 176.68 330.922 178.84 329.098 180.616H329.002V163.528L328.666 163.192L320.122 163.72V164.632C320.986 164.68 322.762 165.016 323.338 165.4C324.106 165.928 324.538 167.176 324.634 168.184V195.544C324.634 196.6 324.25 197.416 323.338 197.704C322.666 197.896 322.09 197.992 321.226 198.04V199H332.554V198.04C331.69 197.992 331.018 197.8 330.298 197.464C329.434 197.08 329.002 196.36 329.002 195.304V182.2C329.53 181.096 331.498 178.84 335.002 178.84C337.066 178.84 338.986 180.664 338.986 183.976V195.544C338.986 196.6 338.602 197.416 337.69 197.704C337.018 197.896 336.298 197.992 335.434 198.04V199H346.762V198.04ZM355.299 164.584C353.715 164.584 352.371 165.976 352.371 167.608C352.371 169.192 353.715 170.536 355.299 170.536C357.027 170.536 358.323 169.096 358.323 167.416C358.323 165.88 357.075 164.584 355.299 164.584ZM361.299 198.04C360.675 197.992 359.955 197.8 359.187 197.464C358.323 197.08 357.891 196.264 357.891 195.256V177.352L357.555 177.016L349.395 177.544V178.456C350.259 178.504 351.651 178.984 352.227 179.368C352.995 179.896 353.427 180.76 353.523 181.768V195.544C353.523 196.504 353.139 197.416 352.227 197.704C351.555 197.896 350.979 197.992 350.115 198.04V199H361.299V198.04ZM370.082 164.584C368.498 164.584 367.154 165.976 367.154 167.608C367.154 169.192 368.498 170.536 370.082 170.536C371.81 170.536 373.106 169.096 373.106 167.416C373.106 165.88 371.858 164.584 370.082 164.584ZM372.77 177.352L372.434 177.016L363.17 177.544V178.408C364.034 178.456 366.53 179.032 367.106 179.416C367.874 179.944 368.306 180.952 368.402 181.96V198.472C368.402 205.864 367.49 208.744 364.562 208.744C364.418 208.744 363.698 208.648 363.554 208.6C363.554 207.832 363.986 206.968 363.986 206.056C363.986 204.376 362.546 203.704 361.25 203.704C359.618 203.704 358.562 205.144 358.562 206.248C358.562 208.312 360.338 209.848 363.506 209.848C366.002 209.848 367.778 208.936 369.746 206.872C372.098 204.424 372.77 201.016 372.77 197.032V177.352ZM403.714 198.088C403.522 198.088 402.658 197.992 401.842 197.656C401.026 197.32 400.402 196.888 400.066 196.216C397.666 191.608 395.986 187.288 391.138 185.032C392.722 183.448 394.114 182.2 395.41 181.096C396.514 180.136 398.77 178.936 401.314 178.216V177.304H391.666V178.264C392.914 178.408 394.642 178.744 394.642 179.56C394.642 179.848 394.258 180.376 394.018 180.616C392.002 182.776 388.546 186.184 386.386 188.2V163.528L386.05 163.192L377.506 163.72V164.632C378.37 164.68 380.05 164.968 380.722 165.448C381.49 165.976 382.018 167.08 382.018 168.232V195.544C382.018 196.6 381.634 197.416 380.722 197.704C380.05 197.896 379.474 197.992 378.61 198.04V199H389.938V198.04C389.074 197.992 388.402 197.752 387.682 197.464C386.818 197.128 386.386 196.36 386.386 195.304V189.256C386.77 188.92 387.202 188.536 388.45 188.536C391.57 188.536 394.978 195.304 396.082 199H403.714V198.088ZM416.283 198.04C415.419 197.992 414.891 197.8 414.171 197.464C413.307 197.08 412.875 196.312 412.875 195.256V163.528L412.539 163.192L403.851 163.72V164.632C404.715 164.68 406.635 165.208 407.211 165.592C407.979 166.12 408.507 167.224 408.507 168.328V195.544C408.507 196.6 408.123 197.416 407.211 197.704C406.539 197.896 405.963 197.992 405.099 198.04V199H416.283V198.04ZM459.289 198.04C458.425 197.992 457.705 197.8 457.033 197.512C456.169 197.128 455.785 196.36 455.785 195.304V184.36C455.785 179.992 453.913 176.68 449.449 176.68C445.321 176.68 443.449 178.936 441.481 180.808C440.377 178.312 438.265 176.68 435.289 176.68C431.161 176.68 429.433 178.84 427.561 180.664H427.417V177.352L427.081 177.016L419.353 177.544V178.456C420.217 178.504 421.225 178.936 421.801 179.32C422.569 179.848 423.001 180.664 423.097 181.672V195.544C423.097 196.6 422.713 197.416 421.801 197.704C421.129 197.896 420.553 197.992 419.689 198.04V199H430.921V198.04C430.057 197.992 429.481 197.8 428.761 197.464C427.897 197.08 427.465 196.312 427.465 195.256V182.2C428.041 181.192 429.817 178.84 433.321 178.84C435.385 178.84 437.209 180.616 437.209 183.928V195.544C437.209 196.6 436.825 197.416 435.913 197.704C435.241 197.896 434.809 197.992 433.945 198.04V199H444.985V198.04C444.121 197.992 443.545 197.8 442.873 197.512C442.009 197.128 441.625 196.36 441.625 195.304V182.152C442.201 181.144 443.977 178.84 447.481 178.84C449.545 178.84 451.369 180.616 451.369 183.928V195.544C451.369 196.6 450.985 197.416 450.073 197.704C449.401 197.896 448.873 197.992 448.009 198.04V199H459.289V198.04ZM487.978 198.04C487.114 197.992 486.538 197.8 485.866 197.512C485.002 197.128 484.618 196.408 484.618 195.352V184.264C484.618 179.704 482.554 176.68 478.09 176.68C473.962 176.68 472.138 178.84 470.314 180.616H470.218V177.352L469.882 177.016L462.202 177.544V178.456C463.066 178.504 463.978 178.84 464.554 179.224C465.322 179.752 465.754 180.76 465.85 181.768V195.544C465.85 196.6 465.466 197.416 464.554 197.704C463.882 197.896 463.306 197.992 462.442 198.04V199H473.77V198.04C472.954 197.992 472.234 197.8 471.514 197.464C470.65 197.08 470.218 196.36 470.218 195.304V182.2C470.746 181.096 472.714 178.84 476.218 178.84C478.282 178.84 480.202 180.664 480.202 183.976V195.544C480.202 196.6 479.818 197.416 478.906 197.704C478.234 197.896 477.514 197.992 476.65 198.04V199H487.978V198.04ZM502.409 176.68C495.689 176.68 491.225 181.432 491.225 188.248C491.225 195.304 496.313 199.672 502.073 199.672C509.321 199.672 513.353 194.296 513.353 187.912C513.353 181.528 509.129 176.68 502.409 176.68ZM502.361 198.568C497.849 198.568 496.073 193.576 496.073 187.864C496.073 183.304 497.369 177.784 502.361 177.784C507.017 177.784 508.505 182.92 508.505 187.96C508.505 193.72 506.633 198.568 502.361 198.568ZM529.871 198.568C526.703 198.568 525.071 196.264 524.543 194.728V181.048C525.695 179.704 527.231 178.648 529.535 178.648C534.383 178.648 536.255 183.496 536.255 188.296C536.255 194.872 533.519 198.568 529.871 198.568ZM531.167 176.68C528.143 176.68 525.791 178.6 524.687 179.8L524.495 179.752V177.304L524.159 177.016L516.287 177.544V178.456C517.151 178.504 518.351 178.888 518.927 179.272C519.695 179.8 520.079 180.664 520.175 181.672V206.2C520.175 207.256 519.839 208.168 518.927 208.456C518.255 208.648 517.151 208.84 516.287 208.888V209.848H529.199V208.888C528.335 208.84 526.607 208.456 525.887 208.168C525.023 207.832 524.543 206.968 524.543 205.912V198.088H524.735C525.839 198.904 527.471 199.576 530.255 199.576C535.919 199.576 541.151 194.92 541.151 188.344C541.151 181.288 536.687 176.68 531.167 176.68ZM570.293 208.888C569.429 208.792 568.229 208.504 567.461 208.168C566.597 207.784 566.165 206.872 566.165 205.816V184.6C566.165 182.584 566.453 178.12 566.549 176.2L565.685 176.008L563.333 178.936C562.277 178.36 559.925 176.68 556.085 176.68C550.421 176.68 545.045 181.288 545.045 187.864C545.045 195.016 549.653 199.576 555.269 199.576C558.293 199.576 560.597 197.896 561.653 196.792L561.797 196.84V206.2C561.797 207.256 561.461 208.168 560.501 208.456C559.829 208.648 558.677 208.84 557.813 208.888V209.848H570.293V208.888ZM556.901 197.704C552.053 197.704 549.941 193.192 549.941 188.392C549.941 181.816 552.725 177.688 556.373 177.688C559.685 177.688 561.269 180.088 561.797 181.72V195.496C560.549 196.84 559.205 197.704 556.901 197.704ZM586.491 176.776C584.475 176.776 582.075 177.976 580.011 180.616H579.915V177.352L579.579 177.016L571.899 177.544V178.456C572.763 178.504 573.675 178.84 574.251 179.224C575.019 179.752 575.451 180.76 575.547 181.768V195.544C575.547 196.6 575.163 197.416 574.251 197.704C573.579 197.896 573.003 197.992 572.139 198.04V199H584.331V198.04C583.419 197.992 582.027 197.8 581.211 197.464C580.347 197.128 579.915 196.36 579.915 195.304V182.056C580.491 181 582.267 178.936 584.715 178.936C584.715 179.56 584.379 179.944 584.379 180.424C584.379 182.056 585.435 182.728 586.971 182.728C588.603 182.728 589.515 181.384 589.515 179.704C589.515 178.12 587.979 176.776 586.491 176.776ZM601.572 185.8C597.588 184.504 595.956 183.976 595.956 181.24C595.956 179.464 596.772 177.784 599.7 177.784C603.108 177.784 605.556 180.52 606.036 183.256H607.044L606.708 176.632H605.22L604.836 177.928C603.636 177.112 601.716 176.68 599.844 176.68C595.38 176.68 592.644 179.416 592.644 182.968C592.644 187.096 596.1 188.872 599.172 189.784C602.916 190.888 604.788 191.896 604.788 194.392C604.788 196.744 603.636 198.52 600.276 198.52C596.436 198.52 593.556 194.152 593.028 191.8H592.02L592.26 199.24H593.844L594.324 197.752C595.14 198.568 597.684 199.672 600.036 199.672C604.548 199.672 608.1 197.08 608.1 192.808C608.1 188.872 605.508 187.096 601.572 185.8ZM626.774 163.288L620.006 169.72L613.142 163.288L612.422 163.864C614.966 167.608 616.742 170.44 617.942 172.168C618.47 172.984 618.518 173.128 619.91 173.128C621.302 173.128 621.398 172.984 622.022 172.072C623.174 170.296 624.95 167.56 627.494 163.864L626.774 163.288ZM621.638 185.8C617.654 184.504 616.022 183.976 616.022 181.24C616.022 179.464 616.838 177.784 619.766 177.784C623.174 177.784 625.622 180.52 626.102 183.256H627.11L626.774 176.632H625.286L624.902 177.928C623.702 177.112 621.782 176.68 619.91 176.68C615.446 176.68 612.71 179.416 612.71 182.968C612.71 187.096 616.166 188.872 619.238 189.784C622.982 190.888 624.854 191.896 624.854 194.392C624.854 196.744 623.702 198.52 620.342 198.52C616.502 198.52 613.622 194.152 613.094 191.8H612.086L612.326 199.24H613.91L614.39 197.752C615.206 198.568 617.75 199.672 620.102 199.672C624.614 199.672 628.166 197.08 628.166 192.808C628.166 188.872 625.574 187.096 621.638 185.8ZM646.12 193.048C645.832 194.872 645.64 196.792 643.192 196.792C640.264 196.792 639.496 195.016 639.496 192.28V179.464H646.024V177.4H639.448V169.96H635.272V177.4H630.568V179.464H635.176V192.856C635.176 197.128 637.048 199.48 640.984 199.48C644.536 199.48 646.792 196.504 647.176 193.048H646.12ZM674.218 197.656C673.354 197.608 672.49 197.416 671.914 197.032C671.146 196.504 670.762 195.736 670.666 194.728V177.352L670.33 177.016L661.93 177.592V178.504C663.178 178.552 664.474 178.744 665.05 179.128C665.818 179.656 666.202 180.52 666.298 181.528V194.392C665.674 195.4 663.994 197.656 660.49 197.656C658.426 197.656 656.698 195.928 656.698 192.616V177.352L656.362 177.016L648.634 177.592V178.504C649.498 178.552 650.458 178.888 651.034 179.272C651.802 179.8 652.186 180.664 652.282 181.672V191.752C652.282 196.264 654.058 199.576 658.522 199.576C662.65 199.576 664.378 197.656 666.202 195.832H666.346V198.76L666.682 199.096L674.218 198.568V197.656ZM699.373 177.304H690.829V178.264C691.597 178.36 694.333 179.032 694.381 179.992C694.381 180.376 694.285 181 694.141 181.336C692.317 186.088 690.877 189.352 689.053 193.72H688.909C686.941 188.728 684.541 182.872 683.629 180.424C683.389 179.848 683.293 179.464 683.293 179.416C683.293 178.648 684.925 178.456 686.029 178.408V177.304H675.373V178.312C676.765 178.504 678.349 179.32 678.925 180.664C682.141 188.44 683.197 190.84 686.557 199.336H688.237C688.861 197.224 689.389 195.784 690.109 194.152C692.221 189.112 693.757 185.272 695.725 180.904C696.349 179.512 698.461 178.36 699.373 178.216V177.304ZM735.587 177.304H726.947V178.264C727.667 178.264 730.355 178.744 730.355 179.896C730.355 180.184 730.259 180.712 730.115 181.144C728.771 185.08 727.475 188.536 725.555 193.528H725.411C723.587 188.776 721.331 182.872 720.419 180.424C720.179 179.848 720.083 179.368 720.083 179.32C720.083 178.504 721.475 178.408 722.579 178.36V177.304H712.643V178.312C713.987 178.456 715.187 178.984 715.811 180.376C716.195 181.192 716.579 181.912 716.675 182.2C715.283 186.04 713.795 189.64 712.307 193.48H712.163C710.147 188.392 707.939 182.872 706.979 180.424C706.739 179.848 706.643 179.464 706.643 179.416C706.643 178.648 708.083 178.456 709.187 178.408V177.304H698.819V178.312C700.163 178.456 701.795 179.416 702.323 180.712C705.107 187.288 706.499 190.744 709.907 199.336H711.347C712.019 197.224 712.547 195.88 713.219 194.248C714.611 190.744 715.955 186.904 717.347 183.784C719.219 188.488 721.139 193.528 723.251 199.336H724.595C725.267 197.224 725.747 195.928 726.419 194.248C728.579 188.776 729.491 186.424 731.603 181.144C732.227 179.512 734.243 178.408 735.587 178.264V177.304ZM757.861 197.992C755.557 197.608 755.029 196.888 754.165 195.544C752.677 193.336 750.517 190.168 748.213 186.808C750.517 183.64 751.669 182.152 752.629 180.952C753.301 180.136 754.885 178.936 757.285 178.216V177.304H749.077V178.264C749.701 178.408 751.717 179.032 751.717 179.656C751.717 179.944 751.621 180.328 751.477 180.52C749.989 182.728 749.125 183.928 747.637 185.992C746.149 183.736 744.277 180.952 743.701 180.04C743.461 179.608 743.269 179.272 743.269 178.984C743.269 178.6 744.517 178.312 745.477 178.312V177.304H735.589V178.312C736.645 178.312 737.893 178.6 739.141 180.472C740.869 182.968 743.077 186.28 744.805 188.824C742.501 191.992 740.629 194.104 739.813 195.16C739.285 195.832 737.989 197.08 735.253 198.088V199H743.509V198.04C742.981 197.992 740.533 197.512 740.533 196.552C740.533 196.216 740.725 195.88 741.013 195.448C742.453 193.24 743.845 191.656 745.381 189.64C747.109 192.28 748.693 194.488 749.365 195.544C749.605 195.976 750.037 196.744 750.037 196.984C750.037 197.56 748.693 197.896 747.445 197.992V199H757.861V197.992ZM781.831 177.304H773.527V178.264C774.295 178.36 776.983 179.032 776.983 179.992C776.983 180.376 776.839 180.952 776.695 181.336C774.871 186.088 773.527 189.256 771.703 193.624H771.607C769.639 188.632 767.191 182.872 766.279 180.424C766.039 179.848 765.943 179.464 765.943 179.416C765.943 178.648 767.431 178.456 768.535 178.408V177.304H758.023V178.312C759.415 178.504 760.999 179.32 761.575 180.664C764.791 188.44 765.943 190.984 769.303 199.48C769.303 199.48 766.087 207.208 763.303 207.88V206.2C763.303 204.28 761.863 203.8 760.807 203.8C759.127 203.8 758.071 205.336 758.071 206.584C758.071 208.984 760.327 209.848 761.623 209.848C764.503 209.848 766.231 209.416 770.503 199.72C770.695 199.336 771.655 196.744 772.999 193.528C774.823 189.064 777.127 183.448 778.279 180.904C778.903 179.512 780.919 178.36 781.831 178.216V177.304ZM801.443 191.752H800.291C800.003 192.904 799.235 195.064 798.947 195.784C798.563 196.744 798.083 197.608 796.787 197.656C795.059 197.752 793.283 197.8 792.035 197.8C790.787 197.8 789.587 197.8 788.003 197.752L801.251 177.736V177.304H783.635V183.544H784.883C785.363 181.288 786.179 179.464 787.139 179.08C788.771 178.408 792.467 178.552 795.875 178.552L782.771 198.28V199H801.443V191.752ZM820.604 163.288L813.836 169.72L806.972 163.288L806.252 163.864C808.796 167.608 810.572 170.44 811.772 172.168C812.3 172.984 812.348 173.128 813.74 173.128C815.132 173.128 815.228 172.984 815.852 172.072C817.004 170.296 818.78 167.56 821.324 163.864L820.604 163.288ZM823.196 191.752H822.044C821.756 192.904 820.988 195.064 820.7 195.784C820.316 196.744 819.836 197.608 818.54 197.656C816.812 197.752 815.036 197.8 813.788 197.8C812.54 197.8 811.34 197.8 809.756 197.752L823.004 177.736V177.304H805.388V183.544H806.636C807.116 181.288 807.932 179.464 808.892 179.08C810.524 178.408 814.22 178.552 817.628 178.552L804.524 198.28V199H823.196V191.752ZM843.989 156.856C843.461 156.04 843.413 155.896 842.021 155.896C840.629 155.896 840.533 156.04 839.909 156.952C838.757 158.728 836.981 161.464 834.437 165.16L835.157 165.736L841.925 159.304L848.789 165.736L849.509 165.16C846.965 161.416 845.189 158.584 843.989 156.856ZM834.821 185.8L840.053 172.408L845.381 185.8H834.821ZM859.445 197.944C858.533 197.896 857.141 197.56 856.277 197.08C855.125 196.408 854.693 195.688 854.309 194.728C852.533 190.264 847.829 178.072 842.933 165.688H841.109C837.461 174.856 833.477 185.032 830.069 193.288C829.349 194.968 828.485 196.36 827.333 197.032C826.469 197.512 824.885 197.896 823.973 197.944V199H837.173V197.944C835.493 197.848 831.749 197.08 831.749 195.352C831.749 194.68 831.941 193.72 832.277 192.664C832.709 191.224 833.285 189.592 834.197 187.384H846.005L848.981 194.968C849.125 195.352 849.173 195.736 849.173 196.072C849.173 197.272 846.005 197.848 844.325 197.944V199H859.445V197.944ZM877.402 155.608C876.874 154.792 876.826 154.648 875.434 154.648C874.042 154.648 873.946 154.792 873.322 155.704C872.17 157.48 870.394 160.216 867.85 163.912L868.57 164.488L875.338 158.056L882.202 164.488L882.922 163.912C880.378 160.168 878.602 157.336 877.402 155.608ZM888.73 189.784C888.25 191.224 886.282 195.016 884.842 196.504C883.69 197.704 880.33 197.608 876.97 197.608C872.122 197.608 871.258 197.176 871.258 193.24V182.68H875.434C878.026 182.68 878.842 183.496 879.466 184.168C880.042 184.792 880.858 187.432 880.954 188.824H882.25V175.432H880.954C880.81 176.68 880.186 179.128 879.466 179.848C878.89 180.424 878.122 181.336 875.434 181.336H871.258V167.512H876.922C878.458 167.512 879.754 167.56 880.906 167.704C882.97 167.992 885.514 171.544 886.042 173.656H887.338V166.216H860.89V167.272C861.754 167.32 863.77 167.752 864.682 168.136C865.882 168.616 866.17 169.432 866.17 170.488V195.016C866.17 196.12 865.834 196.936 864.682 197.368C863.962 197.656 861.754 197.896 860.89 197.944V199H889.306L889.93 189.784H888.73ZM912.234 155.608C911.706 154.792 911.658 154.648 910.266 154.648C908.874 154.648 908.778 154.792 908.154 155.704C907.002 157.48 905.226 160.216 902.682 163.912L903.402 164.488L910.17 158.056L917.034 164.488L917.754 163.912C915.21 160.168 913.434 157.336 912.234 155.608ZM922.65 170.44C919.05 166.936 914.97 165.448 910.458 165.448C905.802 165.448 901.578 167.128 898.314 170.44C895.194 173.56 893.658 177.736 893.658 182.968C893.658 188.2 895.626 192.28 898.794 195.256C901.914 198.184 905.898 199.768 910.266 199.768C915.21 199.768 919.146 198.088 922.218 195.16C925.77 191.8 927.21 187.384 927.21 182.392C927.21 177.688 925.482 173.272 922.65 170.44ZM910.458 198.28C902.97 198.28 899.466 191.272 899.466 182.728C899.466 172.792 903.642 166.936 910.458 166.936C918.426 166.936 921.402 174.712 921.402 182.536C921.402 191.464 917.898 198.28 910.458 198.28ZM942.861 164.776C942.333 163.96 942.285 163.816 940.893 163.816C939.501 163.816 939.405 163.96 938.781 164.872C937.629 166.648 935.853 169.384 933.309 173.08L934.029 173.656L940.797 167.224L947.661 173.656L948.381 173.08C945.837 169.336 944.061 166.504 942.861 164.776ZM944.253 195.064C943.101 196.504 942.045 197.608 939.549 197.608C937.485 197.608 936.285 196.408 936.285 193.768C936.285 189.496 939.645 188.152 944.445 186.664L944.253 195.064ZM952.701 193.288C952.557 195.112 952.413 196.984 950.829 196.984C949.245 196.984 948.573 195.256 948.573 194.536C948.573 192.952 948.813 188.008 948.813 183.784C948.813 177.4 945.309 176.68 940.557 176.68C936.909 176.68 932.829 178.888 932.829 181.768C932.829 183.016 933.405 184.264 934.989 184.264C936.717 184.264 937.773 183.208 937.773 182.2C937.773 181.144 937.341 180.088 937.341 179.368C937.773 178.84 938.445 177.736 940.269 177.736C944.253 177.736 944.397 181.72 944.397 182.584V185.272C942.381 186.424 939.069 187.24 936.333 188.296C933.933 189.208 931.629 190.552 931.629 194.488C931.629 197.56 933.885 199.576 937.197 199.576C940.077 199.576 942.573 198.28 944.301 196.264H944.445C945.213 198.472 946.413 199.48 948.669 199.48C951.645 199.48 953.469 197.752 953.757 193.288H952.701ZM967.864 164.776C967.336 163.96 967.288 163.816 965.896 163.816C964.504 163.816 964.408 163.96 963.784 164.872C962.632 166.648 960.856 169.384 958.312 173.08L959.032 173.656L965.8 167.224L972.664 173.656L973.384 173.08C970.84 169.336 969.064 166.504 967.864 164.776ZM974.392 193.192C972.568 196.12 971.368 197.464 967.624 197.464C962.488 197.464 960.472 193.048 960.472 186.856V186.328H974.776V185.896C974.776 181 972.376 176.68 965.8 176.68C959.416 176.68 955.72 182.2 955.72 187.96C955.72 194.296 959.08 199.576 966.328 199.576C970.36 199.576 973.576 197.176 975.256 193.768L974.392 193.192ZM960.472 185.272C960.616 180.76 962.728 177.784 965.752 177.784C969.4 177.784 970.12 181.72 970.12 185.176L960.472 185.272ZM991.515 164.776C990.987 163.96 990.939 163.816 989.547 163.816C988.155 163.816 988.059 163.96 987.435 164.872C986.283 166.648 984.507 169.384 981.963 173.08L982.683 173.656L989.451 167.224L996.315 173.656L997.035 173.08C994.491 169.336 992.715 166.504 991.515 164.776ZM989.547 176.68C982.827 176.68 978.363 181.432 978.363 188.248C978.363 195.304 983.451 199.672 989.211 199.672C996.459 199.672 1000.49 194.296 1000.49 187.912C1000.49 181.528 996.267 176.68 989.547 176.68ZM989.499 198.568C984.987 198.568 983.211 193.576 983.211 187.864C983.211 183.304 984.507 177.784 989.499 177.784C994.155 177.784 995.643 182.92 995.643 187.96C995.643 193.72 993.771 198.568 989.499 198.568ZM1021.38 197.944C1020.51 197.896 1018.5 197.608 1017.78 197.272C1016.91 196.888 1016.38 195.976 1016.38 194.968V176.488C1016.38 174.328 1016.72 171.304 1017.06 169.288H1016.43C1015.04 170.104 1012.45 171.304 1009.71 171.304C1007.79 171.304 1006.11 170.824 1004.67 170.2L1004.24 171.016C1005.97 172.456 1008.08 173.896 1009.62 173.896C1010.48 173.896 1011.25 173.8 1011.78 173.656V195.208C1011.78 196.264 1011.15 197.176 1010.29 197.464C1009.62 197.704 1007.36 197.896 1006.5 197.944V199H1021.38V197.944ZM1048.47 190.504C1047.51 192.52 1045.92 195.112 1043.48 195.112H1031.52L1032.92 193.912C1043.91 187.672 1048.52 183.4 1048.52 176.728C1048.52 171.976 1045.06 169.24 1039.88 169.24C1032.24 169.24 1027.16 175.432 1027.16 179.848C1027.16 183.16 1029.46 184.552 1031.67 184.552C1034.74 184.552 1037 182.776 1038.48 180.376L1037.91 179.848C1037.04 181 1036.13 182.488 1033.59 182.488C1031.33 182.488 1030.95 181.144 1030.95 179.368C1030.95 175.672 1033.78 170.488 1038.96 170.488C1041.17 170.488 1043.86 171.832 1043.86 175.624C1043.86 179.704 1042.66 183.016 1038.39 187.48C1035.12 190.888 1032.44 193.384 1026.63 197.8V199H1046.55L1049.38 190.792L1048.47 190.504ZM1069.72 183.16C1069.39 183.16 1068.19 183.256 1067.9 183.304L1068.76 182.584C1074.43 181.192 1076.4 178.072 1076.4 175.624C1076.4 173.512 1074.52 169.24 1068.33 169.24C1062.24 169.24 1056.76 173.272 1056.76 177.688C1056.76 179.656 1058.2 181.336 1061.18 181.336C1062.67 181.336 1065.21 179.416 1066.27 178.216L1065.69 177.64C1065.07 178.216 1064.01 179.176 1062.81 179.176C1060.94 179.176 1060.46 178.12 1060.46 176.632C1060.46 172.456 1064.59 170.44 1067.04 170.44C1070.2 170.44 1071.5 172.264 1071.5 175.144C1071.5 180.28 1067.32 182.488 1062.19 186.136L1063.15 187.288C1064.64 185.944 1066.12 184.36 1067.95 184.36C1070.54 184.36 1071.79 185.992 1071.79 189.352C1071.79 194.776 1067.13 199 1062.96 199C1059.26 199 1057.77 197.272 1057.77 195.448C1057.77 193.72 1059.98 194.104 1059.98 192.088C1059.98 190.6 1059.21 189.736 1057.63 189.736C1055.71 189.736 1053.98 191.176 1053.98 193.672C1053.98 198.04 1058.68 200.248 1062.96 200.248C1070.73 200.248 1076.78 196.312 1076.78 189.688C1076.78 184.552 1072.75 183.16 1069.72 183.16ZM1084.08 186.904L1094.35 174.568V186.904H1084.08ZM1105.78 182.632H1104.86C1104.82 183.832 1104.34 185.56 1103.47 186.28C1102.66 186.952 1101.07 186.904 1098.82 186.904V168.808H1097.52L1081.68 187.768V188.872H1094.35V195.352C1094.35 196.408 1093.92 197.272 1093.01 197.56C1092.38 197.8 1090.61 197.896 1089.74 197.944V199H1103.33V197.944C1102.46 197.896 1100.88 197.704 1100.11 197.368C1099.25 196.984 1098.82 196.12 1098.82 195.064V188.872C1101.07 188.872 1102.75 188.776 1103.52 189.4C1104.48 190.168 1104.91 191.992 1104.96 193.384H1105.78V182.632ZM1131.22 168.712C1129.1 170.344 1127.47 171.256 1124.06 171.256C1120.32 171.256 1118.5 170.152 1117.82 169.384H1116.58L1112.93 185.416L1114.18 185.656C1114.94 183.064 1118.3 181.816 1120.37 181.816C1122.62 181.816 1125.94 183.016 1125.94 187.432C1125.94 191.56 1124.54 198.568 1119.17 198.568C1116.58 198.568 1114.94 197.368 1114.7 196.072C1114.7 194.44 1115.38 194.44 1115.38 193C1115.38 191.752 1114.7 190.888 1113.36 190.888C1112.3 190.888 1110.34 191.464 1110.34 193.96C1110.34 197.08 1113.7 199.672 1119.22 199.672C1125.07 199.672 1130.88 195.736 1130.88 189.88C1130.88 183.88 1126.18 180.568 1121.23 180.568C1119.07 180.568 1116.34 181.336 1114.85 182.536L1116.62 175.528C1116.91 175.576 1118.3 175.624 1119.46 175.624C1121.23 175.624 1128.96 174.952 1131.84 169.24L1131.22 168.712ZM1153.69 165.4C1145.62 165.4 1137.32 174.472 1137.32 185.992C1137.32 194.728 1141.97 199.672 1147.59 199.672C1156.37 199.672 1159.01 193.144 1159.01 188.584C1159.01 182.536 1154.65 178.648 1150.42 178.648C1146.92 178.648 1144.57 179.944 1142.5 182.632L1142.31 182.536C1143.51 173.32 1147.4 166.984 1151.62 166.984C1153.35 166.984 1153.83 167.272 1154.5 168.712C1155.51 170.728 1155.13 172.888 1157.48 172.888C1159.3 172.888 1159.93 171.88 1159.93 170.2C1159.93 168.52 1158.58 165.4 1153.69 165.4ZM1147.73 198.568C1144.95 198.568 1142.02 195.4 1142.02 189.544C1142.02 182.92 1145.24 180.424 1147.93 180.424C1152.01 180.424 1153.88 183.4 1153.88 188.536C1153.88 192.424 1152.97 198.568 1147.73 198.568ZM1187.39 170.44H1168.57L1168.19 167.752H1167.32L1164.44 180.088L1165.4 180.328C1165.83 178.36 1167.37 174.712 1170.59 174.712H1183.5C1180.52 179.464 1178.65 182.632 1176.06 187.624C1173.47 192.616 1170.25 199.096 1170.25 201.4C1170.25 203.944 1171.11 204.76 1172.7 204.76C1174.86 204.76 1175.72 202.792 1175.87 200.632C1176.25 194.2 1177.59 190.408 1179.42 185.656C1181.77 179.56 1183.59 176.344 1187.39 170.872V170.44ZM1205.08 182.632V182.44C1208.39 181 1210.31 177.928 1210.31 176.008C1210.31 171.784 1206.95 168.952 1201.33 168.952C1196.53 168.952 1191.49 172.552 1191.49 177.496C1191.49 181.24 1193.22 182.824 1196.68 184.504V184.696C1194.28 185.56 1190.48 188.488 1190.48 192.472C1190.48 196.504 1194.37 199.72 1200.04 199.72C1205.6 199.72 1211.51 196.168 1211.51 190.408C1211.51 185.656 1207.91 183.736 1205.08 182.632ZM1203.73 182.008C1198.45 181.144 1195.48 179.032 1195.48 175.336C1195.48 172.552 1197.83 170.152 1201.38 170.152C1204.98 170.152 1207.24 172.264 1207.24 175.384C1207.24 178.408 1206.37 180.952 1203.73 182.008ZM1200.47 198.472C1196 198.472 1193.99 195.688 1193.99 192.52C1193.99 189.304 1195.67 186.328 1198.02 185.08C1202.34 185.944 1207.33 188.056 1207.33 192.376C1207.33 196.264 1203.97 198.472 1200.47 198.472ZM241.536 255.248C237.504 255.248 235.824 252.32 235.824 246.416C235.824 242.576 236.64 237.344 241.536 237.344C244.608 237.344 247.776 240.512 247.776 246.848C247.776 253.232 243.984 255.248 241.536 255.248ZM241.536 236.24C234.336 236.24 230.784 242.144 230.784 247.328C230.784 253.76 235.008 257.264 239.424 257.264C243.312 257.264 245.76 255.056 247.2 253.088L247.536 253.136C246.768 261.584 243.12 269.408 237.6 269.408C236.256 269.408 235.2 268.976 234.528 267.488C233.856 266 234.096 263.216 231.792 263.216C230.064 263.216 229.2 264.128 229.2 266C229.2 268.064 231.168 270.896 235.632 270.896C246.144 270.896 252.336 260.912 252.336 250.4C252.336 239.504 246.672 236.24 241.536 236.24ZM270.963 236.24C264.435 236.24 258.387 242.288 258.387 252.128C258.387 259.904 262.611 266.672 270.484 266.672C277.108 266.672 283.059 260.576 283.059 250.784C283.059 242.912 278.788 236.24 270.963 236.24ZM270.627 265.472C265.827 265.472 263.571 259.472 263.571 251.504C263.571 242.864 266.787 237.44 270.819 237.44C275.668 237.44 277.876 243.728 277.876 251.408C277.876 260.048 274.611 265.472 270.627 265.472ZM293.52 230.672C291.408 231.872 287.328 234.224 287.328 238.352C287.328 241.232 288.384 243.152 291.072 243.152C292.8 243.152 293.856 241.76 293.856 240.464C293.856 239.072 293.088 237.632 290.736 237.632H289.536C289.824 234.56 291.648 233.264 294.192 231.776L293.52 230.672ZM306.491 232.448C301.451 232.448 298.475 234.944 298.475 237.344C298.475 238.88 299.243 240.08 300.923 240.08C301.835 240.08 303.611 239.264 303.611 237.584C303.611 235.664 303.323 235.712 303.179 234.752C303.755 234.032 305.099 233.744 306.395 233.744C309.611 233.744 312.155 235.664 312.155 241.664C312.155 246.704 308.171 247.904 304.475 248.432V257.36H305.867L306.059 252.08C312.155 251.312 316.667 247.472 316.667 242.048C316.667 236.576 313.259 232.448 306.491 232.448ZM305.291 260.192C303.515 260.192 302.075 261.632 302.075 263.408C302.075 265.184 303.515 266.576 305.291 266.576C307.067 266.576 308.507 265.184 308.507 263.408C308.507 261.632 307.067 260.192 305.291 260.192ZM324.495 230.624C322.767 230.624 321.711 232.016 321.711 233.312C321.711 234.704 322.479 236.144 324.831 236.144H326.031C325.743 239.216 323.919 240.512 321.375 242L322.047 243.104C324.159 241.904 328.239 239.552 328.239 235.424C328.239 232.544 327.183 230.624 324.495 230.624ZM338.765 230.72C336.653 231.92 332.525 234.224 332.525 238.352C332.525 241.232 333.437 243.152 336.125 243.152C337.853 243.152 338.861 241.76 338.861 240.464C338.861 239.072 338.237 237.776 335.885 237.776H334.685C334.973 234.704 336.797 233.264 339.341 231.776L338.765 230.72ZM346.877 230.72C344.765 231.92 340.637 234.224 340.637 238.352C340.637 241.232 341.549 243.152 344.237 243.152C345.965 243.152 346.973 241.76 346.973 240.464C346.973 239.072 346.349 237.776 343.997 237.776H342.797C343.085 234.704 344.909 233.264 347.453 231.776L346.877 230.72ZM358.118 232.4C356.342 232.4 355.142 233.888 355.142 235.664C355.142 237.728 356.726 246.848 357.446 255.92H358.694C359.558 246.8 361.094 237.632 361.094 235.664C361.094 233.888 359.894 232.4 358.118 232.4ZM358.118 260.192C356.342 260.192 354.902 261.632 354.902 263.408C354.902 265.184 356.342 266.576 358.118 266.576C359.894 266.576 361.334 265.184 361.334 263.408C361.334 261.632 359.894 260.192 358.118 260.192ZM372.273 230.624C370.545 230.624 369.537 232.016 369.537 233.312C369.537 234.704 370.161 236 372.513 236H373.713C373.425 239.072 371.601 240.512 369.057 242L369.633 243.056C371.745 241.856 375.873 239.552 375.873 235.424C375.873 232.544 374.961 230.624 372.273 230.624ZM380.385 230.624C378.657 230.624 377.649 232.016 377.649 233.312C377.649 234.704 378.273 236 380.625 236H381.825C381.537 239.072 379.713 240.512 377.169 242L377.745 243.056C379.857 241.856 383.985 239.552 383.985 235.424C383.985 232.544 383.073 230.624 380.385 230.624ZM390.521 251.84C390.521 241.28 395.849 235.568 401.273 231.392L399.209 230.096C393.353 234.608 387.545 240.704 387.545 251.84C387.545 263.408 393.689 269.456 399.257 273.68L401.273 272.384C396.185 268.688 390.521 262.64 390.521 251.84ZM434.197 232.88L413.701 269.984L415.093 270.704L435.685 233.6L434.197 232.88ZM414.325 236.24C410.677 236.24 406.789 239.552 406.789 244.016C406.789 248.864 410.389 251.504 414.325 251.504C418.213 251.504 422.053 248.144 422.053 243.968C422.053 238.736 418.213 236.24 414.325 236.24ZM414.469 250.352C411.829 250.352 410.533 247.76 410.533 243.824C410.533 240.032 411.877 237.392 414.373 237.392C416.869 237.392 418.261 239.84 418.261 244.064C418.261 248.096 416.533 250.352 414.469 250.352ZM434.965 251.408C431.317 251.408 427.429 254.768 427.429 259.184C427.429 263.984 431.029 266.672 434.965 266.672C438.853 266.672 442.693 263.36 442.693 259.136C442.693 253.856 438.853 251.408 434.965 251.408ZM435.109 265.52C432.469 265.52 431.173 262.88 431.173 258.992C431.173 255.344 432.517 252.56 435.013 252.56C437.509 252.56 438.901 255.104 438.901 259.232C438.901 263.168 437.173 265.52 435.109 265.52ZM450.257 230.096L448.193 231.392C453.617 235.568 458.945 241.28 458.945 251.84C458.945 262.64 453.281 268.688 448.193 272.384L450.209 273.68C455.777 269.456 461.921 263.408 461.921 251.84C461.921 240.704 456.113 234.608 450.257 230.096ZM483.997 267.296C478.621 267.296 476.125 269.12 470.893 271.712V233.024C476.125 235.616 478.621 237.44 483.997 237.44C488.269 237.44 491.341 234.992 491.341 231.968C491.341 230.72 490.477 229.472 489.949 229.088L488.941 229.472C489.325 230 489.709 230.672 489.709 231.488C489.709 232.448 489.901 233.6 485.293 233.6C480.685 233.6 475.693 232.88 469.549 231.488L468.445 231.104V273.632L469.549 273.248C475.741 271.856 480.685 271.136 485.293 271.136C489.901 271.136 489.709 272.672 489.709 273.248C489.709 274.064 489.133 274.976 488.749 275.312L489.805 275.696C490.237 275.264 491.341 274.064 491.341 272.768C491.341 269.744 488.269 267.296 483.997 267.296ZM506.174 253.856V249.008L511.79 247.616V252.464L506.174 253.856ZM518.318 250.832L512.942 252.128V247.28L518.318 245.984V241.616L512.942 242.912V235.904H511.79V243.248L506.174 244.64V235.904H505.022V244.976L499.694 246.272V250.64L505.022 249.344V254.192L499.694 255.488V259.856L505.022 258.56V266.336H506.174V258.224L511.79 256.832V266.336H512.942V256.496L518.318 255.2V250.832ZM549.457 231.104L548.353 231.488C542.209 232.88 537.217 233.6 532.609 233.6C528.001 233.6 528.193 232.448 528.193 231.488C528.193 230.672 528.577 230 528.961 229.472L527.953 229.088C527.425 229.472 526.561 230.72 526.561 231.968C526.561 234.992 529.633 237.44 533.905 237.44C539.281 237.44 541.777 235.616 547.009 233.024V271.712C541.777 269.12 539.281 267.296 533.905 267.296C529.633 267.296 526.561 269.744 526.561 272.768C526.561 274.064 527.665 275.264 528.097 275.696L529.153 275.312C528.769 274.976 528.193 274.064 528.193 273.248C528.193 272.672 528.001 271.136 532.609 271.136C537.217 271.136 542.161 271.856 548.353 273.248L549.457 273.632V231.104ZM572.882 273.008C569.906 272.816 566.642 272.576 566.642 267.344C566.642 265.424 567.074 263.792 567.074 261.872C567.074 255.152 563.09 253.712 558.53 252.8V251.6C563.09 250.688 567.074 249.248 567.074 242.528C567.074 240.608 566.642 238.976 566.642 237.056C566.642 231.824 569.906 231.584 572.882 231.392V230.288C566.21 230.288 562.226 231.584 562.226 238.496C562.226 240.464 562.994 242.672 562.994 244.688C562.994 249.776 559.826 250.544 555.266 250.928V253.472C559.778 253.808 562.994 254.624 562.994 259.712C562.994 261.728 562.226 263.936 562.226 265.904C562.226 272.816 566.21 274.112 572.882 274.112V273.008ZM621.619 260.24C618.547 269.408 611.875 274.4 601.171 274.4C592.243 274.4 585.043 267.968 585.043 257.168C585.043 244.256 594.739 236.144 604.099 236.144C613.555 236.144 618.787 241.808 618.787 249.68C618.787 257.888 613.363 263.168 608.275 263.168C607.075 263.168 606.259 262.544 606.259 260.96C606.259 260.336 606.451 259.232 606.739 258.464L611.155 245.84H607.795L606.835 248.432H606.691C606.355 246.512 604.915 245.552 603.283 245.552C596.323 245.552 592.339 254 592.339 258.032C592.339 262.88 595.075 264.32 597.715 264.32C599.683 264.32 601.699 262.688 603.091 260.528L603.235 260.576C603.427 263.072 605.203 264.416 607.795 264.416C614.323 264.416 620.179 257.6 620.179 249.968C620.179 242.144 615.235 234.512 604.195 234.512C589.987 234.512 580.579 245.792 580.579 257.408C580.579 269.888 590.323 276.32 601.171 276.32C611.155 276.32 619.603 270.416 622.483 260.528L621.619 260.24ZM603.379 258.704C602.227 260.72 600.643 262.88 598.243 262.88C597.283 262.88 596.227 262.304 596.227 258.8C596.227 254.192 599.203 246.512 603.187 246.512C605.011 246.512 605.923 247.664 606.307 250.064L603.379 258.704ZM646.296 250.928C641.736 250.544 638.568 249.776 638.568 244.688C638.568 242.672 639.336 240.464 639.336 238.496C639.336 231.584 635.352 230.288 628.68 230.288V231.392C631.656 231.584 634.92 231.824 634.92 237.056C634.92 238.976 634.488 240.608 634.488 242.528C634.488 249.248 638.472 250.688 643.032 251.6V252.8C638.472 253.712 634.488 255.152 634.488 261.872C634.488 263.792 634.92 265.424 634.92 267.344C634.92 272.576 631.656 272.816 628.68 273.008V274.112C635.352 274.112 639.336 272.816 639.336 265.904C639.336 263.936 638.568 261.728 638.568 259.712C638.568 254.624 641.784 253.808 646.296 253.472V250.928ZM664.697 229.904L649.721 275.552L651.929 276.176L666.953 230.528L664.697 229.904ZM683.589 245.936C681.333 242.816 680.469 240.608 680.469 238.544C680.469 237.152 681.045 234.032 684.213 234.032C686.325 234.032 687.957 235.712 687.957 238.832C687.957 241.856 686.661 244.064 683.589 245.936ZM682.485 263.792C678.501 263.792 676.197 260.768 676.197 256.832C676.197 253.616 677.205 250.928 680.037 249.152C682.101 252.272 686.085 257.264 688.773 260.864C687.189 262.784 684.885 263.792 682.485 263.792ZM705.525 245.312H691.749V246.32C694.245 246.848 696.069 247.616 696.069 248.768C696.069 250.976 694.245 254.576 692.181 257.504C689.205 253.808 687.189 251.264 684.261 246.944C688.149 244.592 690.165 241.808 690.165 238.976C690.165 235.712 688.341 232.544 684.117 232.544C679.749 232.544 675.861 235.568 675.861 239.936C675.861 242.336 676.869 244.4 679.317 248.192C673.941 251.6 671.253 254.288 671.253 258.848C671.253 264.368 675.909 266.768 680.421 266.768C684.357 266.768 687.333 264.224 689.637 261.872L692.997 266H704.229V264.944C702.309 264.848 699.669 264.368 697.989 263.36C696.789 262.64 694.293 260.144 692.997 258.512C695.973 254.912 697.605 250.256 698.997 248.672C700.533 246.944 702.789 246.608 705.525 246.32V245.312ZM710.029 229.904L707.773 230.528L722.797 276.176L725.005 275.552L710.029 229.904ZM751.289 261.824L733.097 253.52L751.289 245.216V242.72L730.073 252.56V254.48L751.289 264.32V261.824ZM771.917 252.176H757.517V255.824H771.917V252.176ZM800.119 252.416H789.703V241.952H787.399V252.416H776.983V254.624H787.399V265.088H789.703V254.624H800.119V252.416ZM817.195 241.664C815.515 241.664 814.123 243.008 814.123 244.688C814.123 246.368 815.515 247.76 817.195 247.76C818.875 247.76 820.267 246.368 820.267 244.688C820.267 243.008 818.875 241.664 817.195 241.664ZM828.763 252.416H805.627V254.624H828.763V252.416ZM817.195 259.328C815.515 259.328 814.123 260.72 814.123 262.4C814.123 264.08 815.515 265.424 817.195 265.424C818.875 265.424 820.267 264.08 820.267 262.4C820.267 260.72 818.875 259.328 817.195 259.328ZM847.423 253.376L856.975 243.872L855.391 242.288L845.887 251.84L836.335 242.288L834.703 243.92L844.255 253.472L834.703 262.976L836.287 264.56L845.791 255.008L855.343 264.56L856.975 262.928L847.423 253.376ZM885.091 248.576H863.875V250.784H885.091V248.576ZM885.091 256.256H863.875V258.464H885.091V256.256ZM913.926 252.56L892.71 242.72V245.216L910.902 253.52L892.71 261.824V264.32L913.926 254.48V252.56ZM929.226 232.256C924.282 232.256 920.49 236.048 920.49 240.992C920.49 245.936 924.282 249.728 929.226 249.728C934.17 249.728 937.962 245.936 937.962 240.992C937.962 236.048 934.17 232.256 929.226 232.256ZM929.226 248.96C924.762 248.96 921.45 245.456 921.45 240.992C921.45 236.528 924.762 233.024 929.226 233.024C933.69 233.024 937.002 236.528 937.002 240.992C937.002 245.456 933.69 248.96 929.226 248.96ZM934.17 243.68C934.17 244.688 933.93 244.88 933.546 244.88C933.306 244.88 933.018 244.784 932.874 244.256C932.682 243.584 932.586 242.864 932.394 242.096C932.106 241.04 930.858 240.656 930.186 240.56V240.416C931.242 240.128 932.97 239.504 932.97 237.92C932.97 236.336 931.242 235.712 929.802 235.712H924.762V236.192C925.002 236.192 925.434 236.288 925.722 236.384C926.058 236.48 926.154 236.768 926.154 237.104V244.16C926.154 244.496 926.01 244.736 925.722 244.88C925.626 244.928 925.002 245.024 924.762 245.024V245.552H929.274V245.024C928.986 245.024 928.506 244.976 928.314 244.88C927.978 244.736 927.882 244.496 927.882 244.16V240.896H928.698C930.378 240.896 930.666 242.144 930.81 243.248C931.002 244.88 931.722 245.696 932.874 245.696C934.17 245.696 934.65 245.072 934.65 243.68H934.17ZM928.65 240.32H927.882V236.24H929.034C930.138 236.24 931.002 236.576 931.002 238.208C931.002 239.84 929.946 240.32 928.65 240.32ZM964.232 233.312C952.568 233.312 943.256 242.624 943.256 253.952C943.256 265.376 952.616 274.688 964.232 274.688C975.8 274.688 985.112 265.376 985.112 253.952C985.112 242.624 975.8 233.312 964.232 233.312ZM964.232 273.056C953.672 273.056 945.32 264.56 945.32 253.952C945.32 243.488 953.672 234.992 964.232 234.992C974.744 234.992 983.048 243.488 983.048 253.952C983.048 264.56 974.744 273.056 964.232 273.056ZM972.632 258.176C971.24 261.008 969.464 263.264 965.48 263.264C961.112 263.264 957.752 259.616 957.752 253.904C957.752 246.944 960.968 243.92 964.28 243.92C969.032 243.92 970.664 247.28 971.864 250.832H972.968L972.776 242.144H971.48L970.424 243.968C969.272 243.152 966.968 242.48 965.192 242.48C958.088 242.48 953.048 247.52 953.048 254.144C953.048 261.056 957.608 265.376 964.52 265.376C969.464 265.376 972.2 261.968 973.688 258.656L972.632 258.176ZM1001.04 248.096V237.536C1001.67 237.44 1002.34 237.392 1003.01 237.392C1003.54 237.392 1004.07 237.392 1004.59 237.44V248.48C1003.25 248.384 1002 248.288 1001.04 248.096ZM995.666 242.528C995.666 239.792 997.49 238.256 999.986 237.68V247.952C996.482 247.088 995.666 245.072 995.666 242.528ZM1002.24 265.184C1001.86 265.184 1001.43 265.184 1001.04 265.136V253.184C1002.39 253.28 1003.54 253.232 1004.59 253.52V265.04C1003.83 265.136 1003.06 265.184 1002.24 265.184ZM1005.65 264.848V253.664C1008.82 254.624 1010.31 256.784 1010.31 259.328C1010.31 262.496 1008.29 264.224 1005.65 264.848ZM1005.65 248.624V237.584C1007.81 237.92 1009.15 238.64 1009.49 239.792C1009.06 241.328 1007.76 241.424 1007.76 243.248C1007.76 244.736 1008.77 245.408 1010.07 245.408C1011.79 245.408 1012.47 243.824 1012.47 242.048C1012.47 238.784 1009.2 237.008 1005.65 236.432V231.776H1004.59V236.336C1004.07 236.288 1003.54 236.24 1003.01 236.24C1002.29 236.24 1001.67 236.288 1001.04 236.336V231.776H999.986V236.48C994.658 237.44 992.258 241.28 992.258 245.216C992.258 249.296 995.378 252.416 999.986 253.088V265.04C997.202 264.656 995.33 263.456 995.33 261.2C996.002 259.952 996.914 260.336 996.914 258.32C996.914 256.976 996.242 255.824 994.658 255.824C992.738 255.824 991.682 257.168 991.682 259.568C991.682 263.36 995.81 265.568 999.986 266.192V272.816H1001.04V266.288C1001.43 266.336 1001.86 266.336 1002.24 266.336C1003.11 266.336 1003.87 266.288 1004.59 266.192V272.816H1005.65V266.048C1011.12 264.992 1013.57 261.056 1013.57 256.976C1013.57 252.128 1010.59 249.632 1005.65 248.624ZM1023.07 251.84C1023.07 252.512 1023.07 253.136 1023.12 253.76H1019.61V254.864H1023.21C1024.03 262.448 1028.16 266.672 1034.64 266.672C1039.82 266.672 1042.99 263.36 1044.86 259.136L1043.61 258.56C1041.89 262.208 1039.82 264.464 1035.93 264.464C1030.61 264.464 1028.54 260.048 1027.97 254.864H1036.99V253.76H1027.87C1027.82 253.088 1027.82 252.368 1027.82 251.648C1027.82 251.12 1027.82 250.592 1027.87 250.112H1038.91V249.008H1027.92C1028.49 241.952 1031.37 237.44 1035.69 237.44C1038.29 237.44 1039.87 238.736 1040.11 240.032C1040.11 241.472 1039.44 241.664 1039.44 243.104C1039.44 244.352 1040.4 245.216 1041.93 245.216C1043.13 245.216 1044.48 244.544 1044.48 242.048C1044.48 238.928 1041.17 236.24 1035.89 236.24C1028.69 236.24 1024.22 242.144 1023.26 249.008H1019.61V250.112H1023.17C1023.12 250.688 1023.07 251.264 1023.07 251.84ZM1052.58 269.36C1049.75 269.36 1048.07 268.544 1048.07 267.008C1048.07 265.616 1049.18 264.272 1051.82 264.272C1054.89 264.272 1057.58 265.28 1060.12 266.48C1058.54 268.16 1055.8 269.36 1052.58 269.36ZM1075.19 232.496C1067.22 232.496 1062.09 239.936 1061.7 251.36H1054.07V252.464H1061.7L1061.75 256.352H1053.78V257.408H1061.75C1061.8 258.416 1061.9 259.664 1061.9 260.72C1061.9 261.344 1061.8 261.968 1061.66 262.688C1059.88 262.304 1057.19 261.824 1055.37 261.824C1050.95 261.824 1046.68 263.6 1046.68 266.48C1046.68 268.784 1048.31 270.704 1052.63 270.704C1056.23 270.704 1059.26 269.216 1061.13 266.96C1064.15 268.448 1067.03 270.176 1070.2 270.176C1078.6 270.176 1081.24 264.896 1081.86 259.904L1080.47 259.712C1079.94 262.928 1078.79 267.008 1074.52 267.008C1070.06 267.008 1067.37 264.512 1063.48 263.216C1064.34 261.776 1065.45 259.712 1066.07 257.408H1074.33V256.352H1066.26C1066.46 255.44 1066.84 253.856 1066.98 252.464H1074.71V251.36H1067.03C1067.18 250.112 1067.22 248.912 1067.22 247.424C1067.22 236.72 1070.54 233.696 1075.48 233.696C1079.94 233.696 1081.53 237.488 1081.53 240.896C1081.53 244.592 1079.9 246.992 1077.02 246.992C1074.23 246.992 1072.55 244.88 1072.55 242.144C1072.55 241.28 1072.7 240.032 1073.22 238.784L1072.17 238.592C1071.5 239.984 1071.35 241.088 1071.35 242.336C1071.35 245.792 1073.85 248.336 1077.02 248.336C1081.58 248.336 1084.55 245.168 1084.55 240.656C1084.55 237.2 1082.15 232.496 1075.19 232.496ZM1116.2 236.864H1105.25V237.92C1107.13 238.064 1109.48 238.496 1109.48 239.744C1109.48 240.416 1106.93 244.64 1103.09 250.688C1099.4 244.16 1097 239.792 1097 239.216C1097 238.304 1099.73 238.016 1101.17 237.92V236.864H1087.64V237.92C1088.45 237.968 1089.56 238.16 1090.28 238.592C1091.29 239.168 1092.15 240.176 1093.01 241.664C1094.74 244.688 1096.37 247.568 1098.25 251.312C1098.63 252.032 1098.92 252.704 1099.06 253.28H1091.72V254.384H1099.25V257.84H1091.72V258.944H1099.25V262.208C1099.25 263.264 1098.63 264.176 1097.77 264.464C1097.09 264.704 1094.84 264.896 1093.97 264.944V266H1108.85V264.944C1107.99 264.896 1105.97 264.608 1105.25 264.272C1104.39 263.888 1103.86 262.976 1103.86 261.968V258.944H1111.69V257.84H1103.86V255.872C1103.86 255.392 1103.91 254.912 1104.01 254.384H1111.69V253.28H1104.29C1104.53 252.608 1104.82 251.888 1105.16 251.264C1107.56 246.896 1109.19 243.92 1111.45 241.088C1112.5 239.792 1112.74 239.312 1113.85 238.688C1114.28 238.4 1115.72 237.968 1116.2 237.92V236.864ZM1126.27 259.136C1124.59 257.408 1123.53 254.48 1123.53 251.024C1123.53 243.776 1126.56 241.232 1129.68 241.232H1130.49L1126.27 259.136ZM1137.16 256.592C1135.58 259.376 1133.76 260.864 1130.35 260.864C1129.2 260.864 1128.14 260.528 1127.28 259.952L1131.64 241.424C1132.46 241.616 1132.89 242.096 1133.04 242.96C1133.04 243.872 1132.41 243.92 1132.41 245.936C1132.41 247.808 1134.14 248.336 1135.1 248.336C1136.78 248.336 1137.6 247.232 1137.6 245.648C1137.6 243.152 1135.72 240.896 1131.88 240.272L1133.37 234.08L1132.22 233.84L1130.73 240.128C1130.4 240.08 1130.06 240.08 1129.68 240.08C1122.81 240.08 1118.78 245.552 1118.78 251.456C1118.78 256.784 1120.99 260.96 1125.5 262.448L1123.44 271.28L1124.54 271.52L1126.6 262.736C1127.42 262.88 1128.28 262.976 1129.2 262.976C1132.99 262.976 1136.3 260.432 1138.08 257.264L1137.16 256.592ZM1148.59 244.208C1146.82 244.208 1145.38 245.648 1145.38 247.424C1145.38 249.2 1146.82 250.592 1148.59 250.592C1150.37 250.592 1151.81 249.2 1151.81 247.424C1151.81 245.648 1150.37 244.208 1148.59 244.208ZM1148.59 260C1146.82 260 1145.38 261.44 1145.38 263.216C1145.38 264.992 1146.82 266.384 1148.59 266.384C1150.37 266.384 1151.81 264.992 1151.81 263.216C1151.81 261.44 1150.37 260 1148.59 260ZM1165.71 244.16C1164.03 244.16 1162.68 245.312 1162.68 247.184C1162.68 249.248 1163.83 250.544 1165.66 250.544C1167.63 250.544 1168.59 248.912 1168.59 247.28C1168.59 245.696 1167.58 244.16 1165.71 244.16ZM1165.08 260.048C1163.21 260.048 1162.11 261.536 1162.11 262.88C1162.11 264.368 1162.92 265.904 1165.42 265.904H1166.71C1166.43 269.168 1164.55 271.328 1161.87 272.912L1162.44 273.968C1164.7 272.72 1169.11 269.552 1169.11 265.136C1169.11 262.112 1167.91 260.048 1165.08 260.048ZM1180.08 260.048C1178.21 260.048 1177.11 261.536 1177.11 262.88C1177.11 264.368 1177.92 265.904 1180.42 265.904H1181.72C1181.43 269.168 1179.56 271.328 1176.87 272.912L1177.4 274.016C1179.65 272.768 1184.12 269.552 1184.12 265.136C1184.12 262.112 1182.92 260.048 1180.08 260.048ZM1193.51 260.048C1191.73 260.048 1190.29 261.488 1190.29 263.264C1190.29 265.04 1191.73 266.432 1193.51 266.432C1195.28 266.432 1196.72 265.04 1196.72 263.264C1196.72 261.488 1195.28 260.048 1193.51 260.048ZM1210.05 239.792C1214.42 237.824 1216.05 238.352 1216.05 236.912C1216.05 236.144 1215.48 235.472 1214.8 235.472C1213.89 235.472 1212.88 237.056 1209.91 239.168C1210.15 236.432 1210.96 234.656 1210.96 233.84C1210.96 233.12 1210.58 232.544 1209.62 232.544C1208.76 232.544 1208.32 233.024 1208.32 233.84C1208.32 234.752 1209 236.528 1209.33 239.168C1206.4 237.296 1205.35 235.472 1204.39 235.472C1203.72 235.472 1203.14 236.192 1203.14 236.912C1203.14 238.4 1204.87 237.872 1209.24 239.792C1204.68 241.808 1203.14 241.184 1203.14 242.624C1203.14 243.392 1203.81 244.112 1204.44 244.112C1205.2 244.112 1206.4 242.336 1209.38 240.368C1209.04 243.344 1208.32 244.832 1208.32 245.744C1208.32 246.512 1208.76 247.04 1209.62 247.04C1210.48 247.04 1210.96 246.464 1210.96 245.744C1210.96 244.976 1210.2 243.2 1209.96 240.416C1212.84 242.384 1214.04 244.112 1214.71 244.112C1215.33 244.112 1216.05 243.584 1216.05 242.624C1216.05 241.232 1214.23 241.616 1210.05 239.792Z" fill="black"/>
</svg>
