<svg width="269" height="47" viewBox="0 0 269 47" fill="none" xmlns="http://www.w3.org/2000/svg">
<path d="M17.048 3.216H0.968V4.272C1.832 4.32 3.416 4.56 4.616 4.944C5.816 5.328 6.104 6.336 6.104 7.392V32.016C6.104 33.072 5.768 33.984 4.616 34.416C3.992 34.656 2.024 34.896 1.16 34.944V36H16.472V34.944C15.272 34.896 13.304 34.656 12.68 34.416C11.528 33.984 11.192 33.072 11.192 32.016V20.976H14.936C21.128 20.976 27.32 17.52 27.32 10.992C27.32 6.048 22.712 3.216 17.048 3.216ZM13.544 19.536H11.192V4.56H14.456C19.928 4.56 21.368 8.592 21.368 12.192C21.368 14.448 20.456 19.536 13.544 19.536ZM41.9969 32.064C40.8449 33.504 39.7889 34.608 37.2929 34.608C35.2289 34.608 34.0289 33.408 34.0289 30.768C34.0289 26.496 37.3889 25.152 42.1889 23.664L41.9969 32.064ZM50.4449 30.288C50.3009 32.112 50.1569 33.984 48.5729 33.984C46.9889 33.984 46.3169 32.256 46.3169 31.536C46.3169 29.952 46.5569 25.008 46.5569 20.784C46.5569 14.4 43.0529 13.68 38.3009 13.68C34.6529 13.68 30.5729 15.888 30.5729 18.768C30.5729 20.016 31.1489 21.264 32.7329 21.264C34.4609 21.264 35.5169 20.208 35.5169 19.2C35.5169 18.144 35.0849 17.088 35.0849 16.368C35.5169 15.84 36.1889 14.736 38.0129 14.736C41.9969 14.736 42.1409 18.72 42.1409 19.584V22.272C40.1249 23.424 36.8129 24.24 34.0769 25.296C31.6769 26.208 29.3729 27.552 29.3729 31.488C29.3729 34.56 31.6289 36.576 34.9409 36.576C37.8209 36.576 40.3169 35.28 42.0449 33.264H42.1889C42.9569 35.472 44.1569 36.48 46.4129 36.48C49.3889 36.48 51.2129 34.752 51.5009 30.288H50.4449ZM62.6801 26.688C60.2801 26.688 58.6961 24.096 58.6961 20.688C58.6961 17.52 59.5601 14.736 62.6321 14.736C65.6561 14.736 66.7601 17.664 66.7601 20.832C66.7601 23.904 65.5121 26.688 62.6801 26.688ZM74.2001 13.68C72.1361 13.68 71.1281 14.016 69.3521 15.12C68.7281 15.12 66.0881 13.68 62.7761 13.68C58.0241 13.68 54.1841 16.32 54.1841 20.736C54.1841 23.568 56.2481 25.776 59.6081 27.12V27.408C58.0241 28.032 55.3361 28.944 55.3361 31.296C55.3361 34.032 58.5041 35.04 60.3761 35.568V35.904C55.2881 36.048 52.7921 38.304 52.7921 40.992C52.7921 44.64 55.6721 46.848 63.2561 46.848C71.5121 46.848 75.3041 43.44 75.3041 39.024C75.3041 34.992 71.9921 32.64 69.1601 32.496C68.1521 32.448 65.1761 32.256 63.7841 32.208C61.4321 32.112 58.6481 32.208 58.6481 29.856C58.6481 28.8 59.4641 28.224 60.3281 27.792H63.1121C67.0481 27.792 71.2241 25.152 71.2241 20.976C71.2241 19.536 70.5521 17.664 69.4001 16.416V16.08C70.1201 15.552 70.7921 15.264 72.3761 15.264C72.3761 17.28 72.8561 18.336 74.4401 18.336C75.7361 18.336 76.4561 17.376 76.4561 15.984C76.4561 14.688 75.3521 13.68 74.2001 13.68ZM64.0721 45.6C58.7441 45.6 56.8721 43.2 56.8721 41.28C56.8721 38.304 58.1681 36.96 61.5761 36.288C65.8961 36.288 67.9601 36.48 69.0161 36.624C71.2721 37.344 71.4641 38.88 71.4641 39.984C71.4641 43.728 68.7281 45.6 64.0721 45.6ZM97.0768 30.192C95.2528 33.12 94.0528 34.464 90.3088 34.464C85.1728 34.464 83.1568 30.048 83.1568 23.856V23.328H97.4608V22.896C97.4608 18 95.0608 13.68 88.4848 13.68C82.1008 13.68 78.4048 19.2 78.4048 24.96C78.4048 31.296 81.7648 36.576 89.0128 36.576C93.0448 36.576 96.2608 34.176 97.9408 30.768L97.0768 30.192ZM83.1568 22.272C83.3008 17.76 85.4128 14.784 88.4368 14.784C92.0848 14.784 92.8048 18.72 92.8048 22.176L83.1568 22.272ZM150.391 34.944C149.527 34.896 147.607 34.512 147.031 34.224C145.927 33.696 145.543 32.928 145.543 31.872V7.248C145.543 6.192 145.831 5.28 147.031 4.896C147.895 4.608 149.527 4.32 150.391 4.272V3.216H135.511V4.272C136.375 4.32 138.151 4.8 138.967 5.136C140.071 5.616 140.455 6.432 140.455 7.488V18.144H123.895V7.248C123.895 6.192 124.183 5.28 125.383 4.896C126.247 4.608 127.975 4.32 128.839 4.272V3.216H113.959V4.272C114.823 4.32 116.503 4.8 117.319 5.136C118.471 5.616 118.807 6.432 118.807 7.488V32.112C118.807 33.168 118.471 34.032 117.319 34.464C116.695 34.704 114.823 34.896 113.959 34.944V36H128.839V34.944C127.975 34.896 125.959 34.464 125.383 34.224C124.279 33.744 123.895 32.928 123.895 31.872V19.728H140.455V32.112C140.455 33.168 140.119 34.032 138.967 34.464C138.343 34.704 136.375 34.896 135.511 34.944V36H150.391V34.944ZM172.696 30.192C170.872 33.12 169.672 34.464 165.928 34.464C160.792 34.464 158.776 30.048 158.776 23.856V23.328H173.08V22.896C173.08 18 170.68 13.68 164.104 13.68C157.72 13.68 154.024 19.2 154.024 24.96C154.024 31.296 157.384 36.576 164.632 36.576C168.664 36.576 171.88 34.176 173.56 30.768L172.696 30.192ZM158.776 22.272C158.92 17.76 161.032 14.784 164.056 14.784C167.704 14.784 168.424 18.72 168.424 22.176L158.776 22.272ZM189.578 32.064C188.426 33.504 187.37 34.608 184.874 34.608C182.81 34.608 181.61 33.408 181.61 30.768C181.61 26.496 184.97 25.152 189.77 23.664L189.578 32.064ZM198.026 30.288C197.882 32.112 197.738 33.984 196.154 33.984C194.57 33.984 193.898 32.256 193.898 31.536C193.898 29.952 194.138 25.008 194.138 20.784C194.138 14.4 190.634 13.68 185.882 13.68C182.234 13.68 178.154 15.888 178.154 18.768C178.154 20.016 178.73 21.264 180.314 21.264C182.042 21.264 183.098 20.208 183.098 19.2C183.098 18.144 182.666 17.088 182.666 16.368C183.098 15.84 183.77 14.736 185.594 14.736C189.578 14.736 189.722 18.72 189.722 19.584V22.272C187.706 23.424 184.394 24.24 181.658 25.296C179.258 26.208 176.954 27.552 176.954 31.488C176.954 34.56 179.21 36.576 182.522 36.576C185.402 36.576 187.898 35.28 189.626 33.264H189.77C190.538 35.472 191.738 36.48 193.994 36.48C196.97 36.48 198.794 34.752 199.082 30.288H198.026ZM212.901 34.752C208.053 34.752 205.941 30.192 205.941 25.392C205.941 18.816 208.725 14.736 212.373 14.736C215.685 14.736 217.269 17.088 217.797 18.72V32.304C216.549 33.648 215.205 34.752 212.901 34.752ZM226.245 34.656C225.381 34.608 223.989 34.416 223.413 34.032C222.645 33.504 222.261 32.688 222.165 31.68V0.527999L221.829 0.191998L212.325 0.719999V1.584C213.621 1.68 215.733 2.112 216.549 2.688C217.317 3.216 217.701 4.464 217.797 5.472V14.976C217.221 14.736 215.013 13.68 211.989 13.68C206.325 13.68 201.045 18.288 201.045 24.864C201.045 32.064 205.653 36.624 211.269 36.624C214.293 36.624 216.597 34.752 217.653 33.648L217.845 33.696V35.76L218.181 36.096L226.245 35.568V34.656ZM247.658 30.192C245.834 33.12 244.634 34.464 240.89 34.464C235.754 34.464 233.738 30.048 233.738 23.856V23.328H248.042V22.896C248.042 18 245.642 13.68 239.066 13.68C232.682 13.68 228.986 19.2 228.986 24.96C228.986 31.296 232.346 36.576 239.594 36.576C243.626 36.576 246.842 34.176 248.522 30.768L247.658 30.192ZM233.738 22.272C233.882 17.76 235.994 14.784 239.018 14.784C242.666 14.784 243.386 18.72 243.386 22.176L233.738 22.272ZM265.885 13.776C263.869 13.776 261.469 14.976 259.405 17.616H259.309V14.352L258.973 14.016L251.293 14.544V15.456C252.157 15.504 253.069 15.84 253.645 16.224C254.413 16.752 254.845 17.76 254.941 18.768V32.544C254.941 33.6 254.557 34.416 253.645 34.704C252.973 34.896 252.397 34.992 251.533 35.04V36H263.725V35.04C262.813 34.992 261.421 34.8 260.605 34.464C259.741 34.128 259.309 33.36 259.309 32.304V19.056C259.885 18 261.661 15.936 264.109 15.936C264.109 16.56 263.773 16.944 263.773 17.424C263.773 19.056 264.829 19.728 266.365 19.728C267.997 19.728 268.909 18.384 268.909 16.704C268.909 15.12 267.373 13.776 265.885 13.776Z" fill="#54585A"/>
</svg>
