<svg width="151" height="14" viewBox="0 0 151 14" fill="none" xmlns="http://www.w3.org/2000/svg">
<path d="M0.756 11.542C0.756 11.542 2.268 13.216 4.968 13.216C7.488 13.216 9 11.596 9 9.634C9 5.512 2.844 6.214 2.844 3.586C2.844 2.578 3.798 1.732 5.148 1.732C6.768 1.732 7.938 2.83 7.938 2.83L8.748 1.354C8.748 1.354 7.506 0.075999 5.148 0.075999C2.754 0.075999 1.044 1.642 1.044 3.622C1.044 7.528 7.2 6.934 7.2 9.688C7.2 10.894 6.192 11.56 5.004 11.56C3.114 11.56 1.764 10.192 1.764 10.192L0.756 11.542ZM11.9942 13H13.7402V8.842C13.7402 8.428 13.7582 8.014 13.8482 7.654C14.1902 6.358 15.1262 5.26 16.4582 5.26C17.8622 5.26 18.0422 6.358 18.0422 7.546V13H19.7882V8.842C19.7882 8.374 19.8242 7.96 19.9142 7.582C20.2382 6.34 21.1922 5.26 22.4702 5.26C23.8382 5.26 24.0902 6.268 24.0902 7.546V13H25.8362V7.168C25.8362 4.846 24.8822 3.676 22.8302 3.676C21.3542 3.676 20.0942 4.648 19.5902 5.746H19.5542C19.2482 4.378 18.3482 3.676 16.8182 3.676C15.3962 3.676 14.1182 4.702 13.6862 5.764H13.6502C13.6502 5.764 13.6862 5.458 13.6862 5.098V3.892H11.9942V13ZM28.5093 10.444C28.5093 12.262 30.0393 13.216 31.6053 13.216C33.7833 13.216 34.5213 11.416 34.5213 11.416H34.5573C34.5573 11.416 34.5213 11.722 34.5213 12.136V13H36.1413V7.24C36.1413 4.936 34.8453 3.676 32.5413 3.676C30.4533 3.676 29.1393 4.756 29.1393 4.756L29.8593 6.034C29.8593 6.034 30.9933 5.152 32.3973 5.152C33.5493 5.152 34.3953 5.656 34.3953 7.15V7.312H33.9993C32.4693 7.312 28.5093 7.438 28.5093 10.444ZM30.2733 10.354C30.2733 8.716 32.6493 8.626 33.9633 8.626H34.4133V8.914C34.4133 10.264 33.4593 11.812 31.9833 11.812C30.8493 11.812 30.2733 11.092 30.2733 10.354ZM39.4491 10.516C39.4491 12.802 40.9071 13.072 41.8971 13.072C42.2031 13.072 42.4731 13.036 42.4731 13.036V11.488C42.4731 11.488 42.3291 11.506 42.1671 11.506C41.6271 11.506 41.1951 11.308 41.1951 10.21V0.291999H39.4491V10.516ZM45.0127 10.516C45.0127 12.802 46.4707 13.072 47.4607 13.072C47.7667 13.072 48.0367 13.036 48.0367 13.036V11.488C48.0367 11.488 47.8927 11.506 47.7307 11.506C47.1907 11.506 46.7587 11.308 46.7587 10.21V0.291999H45.0127V10.516ZM55.4955 11.542C55.4955 11.542 57.0075 13.216 59.7075 13.216C62.2275 13.216 63.7395 11.596 63.7395 9.634C63.7395 5.512 57.5835 6.214 57.5835 3.586C57.5835 2.578 58.5375 1.732 59.8875 1.732C61.5075 1.732 62.6775 2.83 62.6775 2.83L63.4875 1.354C63.4875 1.354 62.2455 0.075999 59.8875 0.075999C57.4935 0.075999 55.7835 1.642 55.7835 3.622C55.7835 7.528 61.9395 6.934 61.9395 9.688C61.9395 10.894 60.9315 11.56 59.7435 11.56C57.8535 11.56 56.5035 10.192 56.5035 10.192L55.4955 11.542ZM66.6076 9.724C66.6076 12.136 67.6696 13.216 69.7216 13.216C71.5036 13.216 72.6916 12.028 73.0696 11.128H73.1056C73.1056 11.128 73.0696 11.416 73.0696 11.794V13H74.7616V3.892H73.0156V8.158C73.0156 9.958 71.9176 11.596 70.0636 11.596C68.6056 11.596 68.3536 10.588 68.3536 9.328V3.892H66.6076V9.724ZM78.2914 13H79.9474V12.334C79.9474 11.938 79.9114 11.65 79.9114 11.65H79.9474C79.9474 11.65 80.7754 13.216 82.8094 13.216C85.2034 13.216 86.9494 11.344 86.9494 8.446C86.9494 5.62 85.4014 3.676 82.9534 3.676C80.8114 3.676 80.0374 5.224 80.0374 5.224H80.0014C80.0014 5.224 80.0374 4.9 80.0374 4.45V0.291999H78.2914V13ZM79.9834 8.482C79.9834 6.16 81.2434 5.206 82.6114 5.206C84.1234 5.206 85.1854 6.484 85.1854 8.464C85.1854 10.534 83.9974 11.722 82.5574 11.722C80.8294 11.722 79.9834 10.102 79.9834 8.482ZM89.8844 13H91.6304V8.734C91.6304 8.302 91.6664 7.888 91.7744 7.528C92.1524 6.214 93.2864 5.278 94.6544 5.278C96.1124 5.278 96.3824 6.286 96.3824 7.564V13H98.1284V7.168C98.1284 4.846 97.1384 3.676 94.9964 3.676C93.1784 3.676 92.0264 4.828 91.6304 5.71H91.5944C91.5944 5.71 91.6304 5.386 91.6304 4.954V0.291999H89.8844V13ZM100.9 8.446C100.9 11.146 102.862 13.216 105.724 13.216C107.902 13.216 109.252 11.92 109.252 11.92L108.532 10.642C108.532 10.642 107.398 11.704 105.832 11.704C104.212 11.704 102.79 10.696 102.7 8.698H109.342C109.342 8.698 109.396 8.176 109.396 7.942C109.396 5.584 108.028 3.676 105.454 3.676C102.862 3.676 100.9 5.548 100.9 8.446ZM102.754 7.384C103.006 5.89 104.086 5.062 105.418 5.062C106.588 5.062 107.56 5.818 107.614 7.384H102.754ZM111.576 10.444C111.576 12.262 113.106 13.216 114.672 13.216C116.85 13.216 117.588 11.416 117.588 11.416H117.624C117.624 11.416 117.588 11.722 117.588 12.136V13H119.208V7.24C119.208 4.936 117.912 3.676 115.608 3.676C113.52 3.676 112.206 4.756 112.206 4.756L112.926 6.034C112.926 6.034 114.06 5.152 115.464 5.152C116.616 5.152 117.462 5.656 117.462 7.15V7.312H117.066C115.536 7.312 111.576 7.438 111.576 10.444ZM113.34 10.354C113.34 8.716 115.716 8.626 117.03 8.626H117.48V8.914C117.48 10.264 116.526 11.812 115.05 11.812C113.916 11.812 113.34 11.092 113.34 10.354ZM122.03 8.446C122.03 11.272 123.578 13.216 126.044 13.216C128.294 13.216 129.032 11.524 129.032 11.524H129.068C129.068 11.524 129.05 11.776 129.05 12.136V13H130.706V0.291999H128.96V4.504C128.96 4.846 128.996 5.116 128.996 5.116H128.96C128.96 5.116 128.258 3.676 126.152 3.676C123.74 3.676 122.03 5.548 122.03 8.446ZM123.812 8.446C123.812 6.376 125 5.188 126.44 5.188C128.168 5.188 129.014 6.808 129.014 8.428C129.014 10.75 127.736 11.704 126.386 11.704C124.874 11.704 123.812 10.426 123.812 8.446ZM133.605 8.446C133.605 11.146 135.567 13.216 138.429 13.216C140.607 13.216 141.957 11.92 141.957 11.92L141.237 10.642C141.237 10.642 140.103 11.704 138.537 11.704C136.917 11.704 135.495 10.696 135.405 8.698H142.047C142.047 8.698 142.101 8.176 142.101 7.942C142.101 5.584 140.733 3.676 138.159 3.676C135.567 3.676 133.605 5.548 133.605 8.446ZM135.459 7.384C135.711 5.89 136.791 5.062 138.123 5.062C139.293 5.062 140.265 5.818 140.319 7.384H135.459ZM145.019 13H146.765V9.274C146.765 8.716 146.819 8.158 146.981 7.636C147.395 6.286 148.421 5.494 149.537 5.494C149.807 5.494 150.041 5.548 150.041 5.548V3.82C150.041 3.82 149.825 3.784 149.591 3.784C148.187 3.784 147.125 4.828 146.711 6.16H146.675C146.675 6.16 146.711 5.854 146.711 5.476V3.892H145.019V13Z" fill="#54585A"/>
</svg>
