<svg width="204" height="30" viewBox="0 0 204 30" fill="none" xmlns="http://www.w3.org/2000/svg">
<path d="M0.072 23H13.352V20.248H3.24V0.407999H0.072V23ZM15.8575 18.456C15.8575 21.688 18.5775 23.384 21.3615 23.384C25.2335 23.384 26.5455 20.184 26.5455 20.184H26.6095C26.6095 20.184 26.5455 20.728 26.5455 21.464V23H29.4255V12.76C29.4255 8.664 27.1215 6.424 23.0255 6.424C19.3135 6.424 16.9775 8.344 16.9775 8.344L18.2575 10.616C18.2575 10.616 20.2735 9.048 22.7695 9.048C24.8175 9.048 26.3215 9.944 26.3215 12.6V12.888H25.6175C22.8975 12.888 15.8575 13.112 15.8575 18.456ZM18.9935 18.296C18.9935 15.384 23.2175 15.224 25.5535 15.224H26.3535V15.736C26.3535 18.136 24.6575 20.888 22.0335 20.888C20.0175 20.888 18.9935 19.608 18.9935 18.296ZM34.8757 23H37.9797V16.376C37.9797 15.384 38.0757 14.392 38.3637 13.464C39.0997 11.064 40.9237 9.656 42.9077 9.656C43.3877 9.656 43.8037 9.752 43.8037 9.752V6.68C43.8037 6.68 43.4197 6.616 43.0037 6.616C40.5077 6.616 38.6197 8.472 37.8837 10.84H37.8197C37.8197 10.84 37.8837 10.296 37.8837 9.624V6.808H34.8757V23ZM49.1158 25.944L48.0918 28.376C49.6598 29.176 51.6758 29.72 53.6278 29.72C57.7238 29.72 61.7878 27.672 61.7878 22.328V6.808H58.8118V8.312C58.8118 8.6 58.8438 8.824 58.8438 8.824H58.7798C58.7798 8.824 57.5958 6.424 53.6918 6.424C49.2118 6.424 46.6198 9.88 46.6198 14.52C46.6198 19.192 49.3398 22.808 53.8518 22.808C56.1878 22.808 57.6918 21.88 58.6518 20.28H58.7158C58.7158 20.28 58.6838 20.792 58.6838 21.304V22.488C58.6838 25.784 56.3798 27.032 53.5638 27.032C51.1318 27.032 49.1158 25.944 49.1158 25.944ZM54.4598 20.12C51.5478 20.12 49.7558 17.816 49.7558 14.456C49.7558 11.16 51.3558 9.112 54.1718 9.112C56.6998 9.112 58.7478 10.328 58.7478 14.552C58.7478 18.776 56.6998 20.12 54.4598 20.12ZM66.3245 14.904C66.3245 19.704 69.8125 23.384 74.9005 23.384C78.7725 23.384 81.1725 21.08 81.1725 21.08L79.8925 18.808C79.8925 18.808 77.8765 20.696 75.0925 20.696C72.2125 20.696 69.6845 18.904 69.5245 15.352H81.3325C81.3325 15.352 81.4285 14.424 81.4285 14.008C81.4285 9.816 78.9965 6.424 74.4205 6.424C69.8125 6.424 66.3245 9.752 66.3245 14.904ZM69.6205 13.016C70.0685 10.36 71.9885 8.888 74.3565 8.888C76.4365 8.888 78.1645 10.232 78.2605 13.016H69.6205ZM94.1173 11.576C94.1173 18.2 98.8853 23.384 105.669 23.384C111.333 23.384 114.437 19.8 114.437 19.8L112.741 17.528C112.741 17.528 110.021 20.472 105.765 20.472C100.741 20.472 97.3813 16.376 97.3813 11.544C97.3813 6.744 100.677 2.904 105.733 2.904C109.637 2.904 112.261 5.368 112.261 5.368L113.829 3C113.829 3 111.045 0.0239983 105.605 0.0239983C99.0453 0.0239983 94.1173 5.016 94.1173 11.576ZM117.595 18.456C117.595 21.688 120.315 23.384 123.099 23.384C126.971 23.384 128.283 20.184 128.283 20.184H128.347C128.347 20.184 128.283 20.728 128.283 21.464V23H131.163V12.76C131.163 8.664 128.859 6.424 124.763 6.424C121.051 6.424 118.715 8.344 118.715 8.344L119.995 10.616C119.995 10.616 122.011 9.048 124.507 9.048C126.555 9.048 128.059 9.944 128.059 12.6V12.888H127.355C124.635 12.888 117.595 13.112 117.595 18.456ZM120.731 18.296C120.731 15.384 124.955 15.224 127.291 15.224H128.091V15.736C128.091 18.136 126.395 20.888 123.771 20.888C121.755 20.888 120.731 19.608 120.731 18.296ZM136.421 18.584C136.421 22.648 139.013 23.128 140.773 23.128C141.317 23.128 141.797 23.064 141.797 23.064V20.312C141.797 20.312 141.541 20.344 141.253 20.344C140.293 20.344 139.525 19.992 139.525 18.04V0.407999H136.421V18.584ZM145.69 18.584C145.69 22.648 148.282 23.128 150.042 23.128C150.586 23.128 151.066 23.064 151.066 23.064V20.312C151.066 20.312 150.81 20.344 150.522 20.344C149.562 20.344 148.794 19.992 148.794 18.04V0.407999H145.69V18.584ZM153.967 14.872C153.967 19.8 157.871 23.384 162.703 23.384C167.535 23.384 171.439 19.8 171.439 14.872C171.439 9.976 167.535 6.424 162.703 6.424C157.871 6.424 153.967 9.976 153.967 14.872ZM157.135 14.872C157.135 11.512 159.663 9.112 162.703 9.112C165.775 9.112 168.271 11.512 168.271 14.872C168.271 18.264 165.775 20.696 162.703 20.696C159.663 20.696 157.135 18.264 157.135 14.872ZM175.696 17.176C175.696 21.464 177.584 23.384 181.232 23.384C184.4 23.384 186.512 21.272 187.184 19.672H187.248C187.248 19.672 187.184 20.184 187.184 20.856V23H190.192V6.808H187.088V14.392C187.088 17.592 185.136 20.504 181.84 20.504C179.248 20.504 178.8 18.712 178.8 16.472V6.808H175.696V17.176ZM196.517 17.08C196.517 22.488 200.645 23.128 202.725 23.128C203.365 23.128 203.813 23.064 203.813 23.064V20.312C203.813 20.312 203.525 20.376 203.077 20.376C201.893 20.376 199.621 19.96 199.621 16.728V9.528H203.525V7.032H199.621V2.36H196.613V7.032H194.405V9.528H196.517V17.08Z" fill="#54585A"/>
</svg>
