<svg width="1235" height="304" viewBox="0 0 1235 304" fill="none" xmlns="http://www.w3.org/2000/svg">
<path d="M104.798 133H119.63L83.054 31.336H68.078L31.502 133H46.19L56.27 103.768H94.574L104.798 133ZM75.71 45.304C75.71 45.304 77.87 54.52 79.598 59.704L90.83 91.96H60.014L71.39 59.704C73.118 54.52 75.422 45.304 75.422 45.304H75.71ZM126.612 112.552C126.612 127.096 138.852 134.728 151.38 134.728C168.804 134.728 174.708 120.328 174.708 120.328H174.996C174.996 120.328 174.708 122.776 174.708 126.088V133H187.668V86.92C187.668 68.488 177.3 58.408 158.868 58.408C142.164 58.408 131.652 67.048 131.652 67.048L137.412 77.272C137.412 77.272 146.484 70.216 157.716 70.216C166.932 70.216 173.7 74.248 173.7 86.2V87.496H170.532C158.292 87.496 126.612 88.504 126.612 112.552ZM140.724 111.832C140.724 98.728 159.732 98.008 170.244 98.008H173.844V100.312C173.844 111.112 166.212 123.496 154.404 123.496C145.332 123.496 140.724 117.736 140.724 111.832Z" fill="black"/>
<path d="M252.816 66H257.76L245.568 32.112H240.576L228.384 66H233.28L236.64 56.256H249.408L252.816 66ZM243.12 36.768C243.12 36.768 243.84 39.84 244.416 41.568L248.16 52.32H237.888L241.68 41.568C242.256 39.84 243.024 36.768 243.024 36.768H243.12ZM263.549 66H275.693C281.645 66 286.589 62.736 286.589 56.352C286.589 52.56 284.573 49.2 281.021 48.144V48.048C283.613 46.704 285.245 44.064 285.245 40.752C285.245 35.28 281.117 32.112 275.405 32.112H263.549V66ZM268.301 46.368V36.24H275.309C278.573 36.24 280.397 38.256 280.397 41.232C280.397 44.208 278.477 46.368 275.405 46.368H268.301ZM268.301 61.872V50.304H275.885C279.437 50.304 281.741 52.656 281.741 56.112C281.741 59.568 279.581 61.872 275.933 61.872H268.301ZM292.466 48.864C292.466 58.8 299.618 66.576 309.794 66.576C318.29 66.576 322.946 61.2 322.946 61.2L320.403 57.792C320.403 57.792 316.322 62.208 309.938 62.208C302.402 62.208 297.362 56.064 297.362 48.816C297.362 41.616 302.306 35.856 309.89 35.856C315.747 35.856 319.682 39.552 319.682 39.552L322.035 36C322.035 36 317.858 31.536 309.698 31.536C299.858 31.536 292.466 39.024 292.466 48.864ZM327.673 48.864C327.673 58.8 334.825 66.576 345.001 66.576C353.497 66.576 358.153 61.2 358.153 61.2L355.609 57.792C355.609 57.792 351.529 62.208 345.145 62.208C337.609 62.208 332.569 56.064 332.569 48.816C332.569 41.616 337.513 35.856 345.097 35.856C350.953 35.856 354.889 39.552 354.889 39.552L357.241 36C357.241 36 353.065 31.536 344.905 31.536C335.065 31.536 327.673 39.024 327.673 48.864ZM342.121 29.76H346.969L351.193 23.664H347.113L344.569 27.552H344.473L341.977 23.664H337.897L342.121 29.76ZM362.879 48.864C362.879 58.8 370.031 66.576 380.207 66.576C388.703 66.576 393.359 61.2 393.359 61.2L390.815 57.792C390.815 57.792 386.735 62.208 380.351 62.208C372.815 62.208 367.775 56.064 367.775 48.816C367.775 41.616 372.719 35.856 380.303 35.856C386.159 35.856 390.095 39.552 390.095 39.552L392.447 36C392.447 36 388.271 31.536 380.111 31.536C370.271 31.536 362.879 39.024 362.879 48.864ZM377.663 29.76H381.551L386.159 23.664H381.167L377.663 29.76ZM400.624 66H411.856C422.224 66 429.04 59.76 429.04 49.008C429.04 38.304 422.224 32.112 411.856 32.112H400.624V66ZM405.376 61.872V36.24H411.52C419.104 36.24 424.144 40.704 424.144 49.008C424.144 57.36 419.152 61.872 411.52 61.872H405.376ZM437.867 66H449.099C459.467 66 466.283 59.76 466.283 49.008C466.283 38.304 459.467 32.112 449.099 32.112H437.867V47.088H435.035V51.024H437.867V66ZM442.619 61.872V51.024H449.771V47.088H442.619V36.24H448.763C456.347 36.24 461.387 40.704 461.387 49.008C461.387 57.36 456.395 61.872 448.763 61.872H442.619ZM474.177 66H494.673V61.872H478.929V50.976H491.073V46.848H478.929V36.24H493.857V32.112H474.177V66ZM502.492 66H507.244V51.504H519.1V47.376H507.244V36.24H521.164V32.112H502.492V66ZM526.068 49.008C526.068 59.376 533.604 66.576 542.724 66.576C549.444 66.576 553.14 62.448 553.14 62.448H553.236C553.236 62.448 553.188 63.168 553.188 63.888V66H557.364V48.96H547.524V53.088H553.044V57.984C553.044 57.984 549.3 62.208 543.444 62.208C536.34 62.208 530.964 56.784 530.964 48.912C530.964 41.664 535.764 35.856 543.732 35.856C549.492 35.856 553.284 39.168 553.284 39.168L555.684 35.616C555.684 35.616 551.46 31.536 543.348 31.536C533.46 31.536 526.068 39.216 526.068 49.008ZM565.592 66H570.344V51.12H587.912V66H592.664V32.112H587.912V46.992H570.344V32.112H565.592V66ZM602.674 66H607.426V32.112H602.674V66ZM614.274 56.256C614.274 63.552 619.362 66.576 624.306 66.576C629.25 66.576 634.386 63.6 634.386 56.256V32.112H621.09V36.24H629.634V56.208C629.634 60.672 626.994 62.208 624.354 62.208C621.666 62.208 618.978 60.624 618.978 56.016V54.576H614.274V56.256ZM644.024 66H648.776V50.448H653.816L662.84 66H668.216L657.752 48.288V48.192L667.592 32.112H662.36L653.816 46.368H648.776V32.112H644.024V66ZM674.73 66H694.65V61.872H679.482V32.112H674.73V66ZM699.88 66H704.632L706.264 44.64C706.408 42.576 706.36 39.552 706.36 39.552H706.456C706.456 39.552 707.512 42.816 708.28 44.64L715 59.904H719.224L725.992 44.64C726.808 42.768 727.816 39.648 727.816 39.648H727.912C727.912 39.648 727.816 42.576 727.96 44.64L729.64 66H734.344L731.608 32.112H726.616L718.84 50.448C718.072 52.32 717.16 55.008 717.16 55.008H717.064C717.064 55.008 716.152 52.32 715.384 50.448L707.608 32.112H702.616L699.88 66ZM743.314 66H748.066V44.016C748.066 42.096 747.73 39.072 747.73 39.072H747.826C747.826 39.072 749.41 42.144 750.658 44.016L765.778 66H770.434V32.112H765.682V54.144C765.682 56.016 766.018 59.04 766.018 59.04H765.922C765.922 59.04 764.338 55.968 763.09 54.144L748.018 32.112H743.314V66ZM778.138 48.816C778.138 58.8 785.77 66.576 795.562 66.576C805.354 66.576 812.938 58.8 812.938 48.816C812.938 39.072 805.354 31.536 795.562 31.536C785.77 31.536 778.138 39.072 778.138 48.816ZM783.034 48.816C783.034 41.424 788.65 35.856 795.562 35.856C802.474 35.856 808.042 41.424 808.042 48.816C808.042 56.448 802.474 62.208 795.562 62.208C788.65 62.208 783.034 56.448 783.034 48.816ZM820.664 66H825.416V53.472H833.048C839.24 53.472 843.704 49.152 843.704 42.72C843.704 36.288 839.24 32.112 833.048 32.112H820.664V66ZM825.416 49.344V36.24H832.328C836.36 36.24 838.856 38.64 838.856 42.72C838.856 46.8 836.36 49.344 832.28 49.344H825.416ZM848.365 48.864C848.365 58.752 855.949 66.576 865.741 66.576C869.869 66.576 873.565 65.28 876.493 62.928L880.429 66.864L883.213 63.888L879.181 60.048C881.629 57.072 883.165 53.136 883.165 48.864C883.165 39.072 875.581 31.536 865.741 31.536C855.949 31.536 848.365 39.072 848.365 48.864ZM853.261 48.864C853.261 41.376 858.733 35.856 865.741 35.856C872.797 35.856 878.269 41.376 878.269 48.864C878.269 51.84 877.309 54.672 875.773 56.784L871.885 52.848L869.101 55.824L873.085 59.712C871.117 61.296 868.285 62.208 865.741 62.208C858.733 62.208 853.261 56.448 853.261 48.864ZM891.405 66H896.157V52.512H903.405L910.557 66H915.933L908.733 52.848C908.109 51.744 907.725 51.312 907.725 51.312V51.216C911.421 50.016 913.821 46.368 913.821 42.048C913.821 37.584 911.565 34.176 908.109 32.88C906.813 32.4 905.325 32.112 901.773 32.112H891.405V66ZM896.157 48.384V36.24H901.629C904.269 36.24 905.373 36.528 906.285 37.008C908.013 37.968 908.973 39.744 908.973 42.24C908.973 46.032 906.669 48.384 902.973 48.384H896.157ZM920.363 62.112C920.363 62.112 924.395 66.576 931.595 66.576C938.315 66.576 942.347 62.256 942.347 57.024C942.347 46.032 925.931 47.904 925.931 40.896C925.931 38.208 928.475 35.952 932.075 35.952C936.395 35.952 939.515 38.88 939.515 38.88L941.675 34.944C941.675 34.944 938.363 31.536 932.075 31.536C925.691 31.536 921.131 35.712 921.131 40.992C921.131 51.408 937.547 49.824 937.547 57.168C937.547 60.384 934.859 62.16 931.691 62.16C926.651 62.16 923.051 58.512 923.051 58.512L920.363 62.112ZM947.366 62.112C947.366 62.112 951.398 66.576 958.598 66.576C965.318 66.576 969.35 62.256 969.35 57.024C969.35 46.032 952.934 47.904 952.934 40.896C952.934 38.208 955.478 35.952 959.078 35.952C963.398 35.952 966.518 38.88 966.518 38.88L968.678 34.944C968.678 34.944 965.366 31.536 959.078 31.536C952.694 31.536 948.134 35.712 948.134 40.992C948.134 51.408 964.55 49.824 964.55 57.168C964.55 60.384 961.862 62.16 958.694 62.16C953.654 62.16 950.054 58.512 950.054 58.512L947.366 62.112ZM956.15 29.76H960.998L965.222 23.664H961.142L958.598 27.552H958.502L956.006 23.664H951.926L956.15 29.76ZM984.209 66H988.961V36.24H1000.58V32.112H972.593V36.24H984.209V66ZM1005.73 54C1005.73 61.536 1011.16 66.576 1019.08 66.576C1027 66.576 1032.42 61.536 1032.42 54V32.112H1027.67V53.904C1027.67 59.184 1024.26 62.208 1019.03 62.208C1013.85 62.208 1010.49 59.184 1010.49 54V32.112H1005.73V54ZM1050.14 66H1054.9L1067.38 32.112H1062.34L1053.84 56.064C1053.22 57.888 1052.54 60.72 1052.54 60.72H1052.45C1052.45 60.72 1051.78 57.888 1051.15 56.064L1042.75 32.112H1037.62L1050.14 66ZM1089 32.112L1082.38 56.976C1081.9 58.848 1081.66 60.576 1081.66 60.576H1081.56C1081.56 60.576 1081.37 58.8 1080.94 56.976L1074.94 32.112H1070.04L1078.68 66H1084.2L1090.06 44.016C1090.63 41.856 1091.06 39.216 1091.06 39.216H1091.16C1091.16 39.216 1091.59 41.856 1092.17 44.016L1098.02 66H1103.54L1112.42 32.112H1107.53L1101.29 56.976C1100.81 58.8 1100.66 60.576 1100.66 60.576H1100.57C1100.57 60.576 1100.33 58.848 1099.85 56.976L1093.22 32.112H1089ZM1115.83 66H1121.16L1127.3 55.584C1128.4 53.712 1129.32 51.696 1129.32 51.696H1129.41C1129.41 51.696 1130.47 53.664 1131.57 55.584L1137.72 66H1143.09L1132.39 48.528L1142.42 32.112H1136.95L1131.62 41.28C1130.52 43.152 1129.56 45.312 1129.56 45.312H1129.46C1129.46 45.312 1128.36 43.104 1127.3 41.28L1121.97 32.112H1116.5L1126.53 48.528L1115.83 66ZM1156.72 66H1161.47V51.648L1172.8 32.112H1167.43L1161.23 43.248C1160.18 45.168 1159.17 47.52 1159.17 47.52H1159.07C1159.07 47.52 1158.07 45.12 1157.01 43.248L1150.72 32.112H1145.35L1156.72 51.648V66ZM1175.95 66H1200.81V61.872H1184.4C1182.77 61.872 1181.85 61.968 1181.85 61.968V61.872C1181.85 61.872 1183.01 60.672 1184.3 58.8L1200.62 35.232V32.112H1176.81V36.24H1192.17C1193.81 36.24 1194.72 36.096 1194.72 36.096V36.192C1194.72 36.192 1193.57 37.392 1192.27 39.312L1175.95 62.832V66ZM229.968 133H254.832V128.872H238.416C236.784 128.872 235.872 128.968 235.872 128.968V128.872C235.872 128.872 237.024 127.672 238.32 125.8L254.64 102.232V99.112H230.832V103.24H246.192C247.824 103.24 248.736 103.096 248.736 103.096V103.192C248.736 103.192 247.584 104.392 246.288 106.312L229.968 129.832V133ZM240.624 96.76H245.472L249.696 90.664H245.616L243.072 94.552H242.976L240.48 90.664H236.4L240.624 96.76ZM259.636 126.184C259.636 131.032 263.716 133.576 267.892 133.576C273.7 133.576 275.668 128.776 275.668 128.776H275.764C275.764 128.776 275.668 129.592 275.668 130.696V133H279.988V117.64C279.988 111.496 276.532 108.136 270.388 108.136C264.82 108.136 261.316 111.016 261.316 111.016L263.236 114.424C263.236 114.424 266.26 112.072 270.004 112.072C273.076 112.072 275.332 113.416 275.332 117.4V117.832H274.276C270.196 117.832 259.636 118.168 259.636 126.184ZM264.34 125.944C264.34 121.576 270.676 121.336 274.18 121.336H275.38V122.104C275.38 125.704 272.836 129.832 268.9 129.832C265.876 129.832 264.34 127.912 264.34 125.944ZM287.764 133H292.18V131.224C292.18 130.168 292.084 129.4 292.084 129.4H292.18C292.18 129.4 294.388 133.576 299.812 133.576C306.196 133.576 310.852 128.584 310.852 120.856C310.852 113.32 306.724 108.136 300.196 108.136C294.484 108.136 292.42 112.264 292.42 112.264H292.324C292.324 112.264 292.42 111.4 292.42 110.2V99.112H287.764V133ZM292.276 120.952C292.276 114.76 295.636 112.216 299.284 112.216C303.316 112.216 306.148 115.624 306.148 120.904C306.148 126.424 302.98 129.592 299.14 129.592C294.532 129.592 292.276 125.272 292.276 120.952ZM315.617 120.856C315.617 128.152 320.993 133.576 328.625 133.576C334.961 133.576 338.321 129.688 338.321 129.688L336.449 126.28C336.449 126.28 333.473 129.544 328.961 129.544C323.921 129.544 320.369 125.752 320.369 120.808C320.369 115.816 323.921 112.168 328.817 112.168C332.945 112.168 335.537 114.952 335.537 114.952L337.745 111.688C337.745 111.688 334.721 108.136 328.625 108.136C320.993 108.136 315.617 113.656 315.617 120.856ZM342.667 120.856C342.667 128.152 348.043 133.576 355.675 133.576C362.011 133.576 365.371 129.688 365.371 129.688L363.499 126.28C363.499 126.28 360.523 129.544 356.011 129.544C350.971 129.544 347.419 125.752 347.419 120.808C347.419 115.816 350.971 112.168 355.867 112.168C359.995 112.168 362.587 114.952 362.587 114.952L364.795 111.688C364.795 111.688 361.771 108.136 355.675 108.136C348.043 108.136 342.667 113.656 342.667 120.856ZM352.363 105.208H357.211L361.435 99.112H357.355L354.811 103H354.715L352.219 99.112H348.139L352.363 105.208ZM369.717 120.856C369.717 128.152 375.093 133.576 382.725 133.576C389.061 133.576 392.421 129.688 392.421 129.688L390.549 126.28C390.549 126.28 387.573 129.544 383.061 129.544C378.021 129.544 374.469 125.752 374.469 120.808C374.469 115.816 378.021 112.168 382.917 112.168C387.045 112.168 389.637 114.952 389.637 114.952L391.845 111.688C391.845 111.688 388.821 108.136 382.725 108.136C375.093 108.136 369.717 113.656 369.717 120.856ZM379.749 105.208H383.637L388.245 99.112H383.253L379.749 105.208ZM396.911 120.856C396.911 128.392 401.039 133.576 407.615 133.576C413.615 133.576 415.583 129.064 415.583 129.064H415.679C415.679 129.064 415.631 129.736 415.631 130.696V133H420.047V99.112H415.391V110.344C415.391 111.256 415.487 111.976 415.487 111.976H415.391C415.391 111.976 413.519 108.136 407.903 108.136C401.471 108.136 396.911 113.128 396.911 120.856ZM401.663 120.856C401.663 115.336 404.831 112.168 408.671 112.168C413.279 112.168 415.535 116.488 415.535 120.808C415.535 127 412.127 129.544 408.527 129.544C404.495 129.544 401.663 126.136 401.663 120.856ZM438.779 105.976H445.019V110.344C445.019 111.256 445.115 111.976 445.115 111.976H445.019C445.019 111.976 443.147 108.136 437.531 108.136C431.099 108.136 426.539 113.128 426.539 120.856C426.539 128.392 430.667 133.576 437.243 133.576C443.243 133.576 445.211 129.064 445.211 129.064H445.307C445.307 129.064 445.259 129.736 445.259 130.696V133H449.675V105.976H453.323V102.952H449.675V99.112H445.019V102.952H438.779V105.976ZM431.291 120.856C431.291 115.336 434.459 112.168 438.299 112.168C442.907 112.168 445.163 116.488 445.163 120.808C445.163 127 441.755 129.544 438.155 129.544C434.123 129.544 431.291 126.136 431.291 120.856ZM456.071 120.856C456.071 128.056 461.303 133.576 468.935 133.576C474.743 133.576 478.343 130.12 478.343 130.12L476.423 126.712C476.423 126.712 473.399 129.544 469.223 129.544C464.903 129.544 461.111 126.856 460.871 121.528H478.583C478.583 121.528 478.727 120.136 478.727 119.512C478.727 113.224 475.079 108.136 468.215 108.136C461.303 108.136 456.071 113.128 456.071 120.856ZM461.015 118.024C461.687 114.04 464.567 111.832 468.119 111.832C471.239 111.832 473.831 113.848 473.975 118.024H461.015ZM486.472 133H491.08V112.792H496.84V109.048H491.08V107.992C491.08 103.48 494.392 102.904 496.168 102.904C496.888 102.904 497.368 103 497.368 103V99.016C497.368 99.016 496.648 98.872 495.592 98.872C492.52 98.872 486.472 99.88 486.472 107.896V109.048H483.448V112.792H486.472V133ZM504.261 137.416L502.725 141.064C505.077 142.264 508.101 143.08 511.029 143.08C517.173 143.08 523.269 140.008 523.269 131.992V108.712H518.805V110.968C518.805 111.4 518.853 111.736 518.853 111.736H518.757C518.757 111.736 516.981 108.136 511.125 108.136C504.405 108.136 500.517 113.32 500.517 120.28C500.517 127.288 504.597 132.712 511.365 132.712C514.869 132.712 517.125 131.32 518.565 128.92H518.661C518.661 128.92 518.613 129.688 518.613 130.456V132.232C518.613 137.176 515.157 139.048 510.933 139.048C507.285 139.048 504.261 137.416 504.261 137.416ZM512.277 128.68C507.909 128.68 505.221 125.224 505.221 120.184C505.221 115.24 507.621 112.168 511.845 112.168C515.637 112.168 518.709 113.992 518.709 120.328C518.709 126.664 515.637 128.68 512.277 128.68ZM531.354 133H536.01V121.624C536.01 120.472 536.106 119.368 536.394 118.408C537.402 114.904 540.426 112.408 544.074 112.408C547.962 112.408 548.682 115.096 548.682 118.504V133H553.338V117.448C553.338 111.256 550.698 108.136 544.986 108.136C540.138 108.136 537.066 111.208 536.01 113.56H535.914C535.914 113.56 536.01 112.696 536.01 111.544V99.112H531.354V133ZM561.028 103.864H565.732V99.112H561.028V103.864ZM561.076 133H565.732V108.712H561.076V133ZM573.781 103.864H578.485V99.112H573.781V103.864ZM573.829 108.712V133.528C573.829 138.28 570.373 138.856 568.597 138.856C567.973 138.856 567.541 138.808 567.541 138.808V142.792C567.541 142.792 568.165 142.888 569.173 142.888C572.197 142.888 578.437 141.928 578.437 133.816V108.712H573.829ZM586.536 133H591.192V121.576H594.696L601.992 133H607.416L598.44 119.512V119.416L606.504 108.712H601.224L594.6 117.64H591.192V99.112H586.536V133ZM612.313 126.376C612.313 132.472 616.201 133.192 618.841 133.192C619.657 133.192 620.377 133.096 620.377 133.096V128.968C620.377 128.968 619.993 129.016 619.561 129.016C618.121 129.016 616.969 128.488 616.969 125.56V99.112H612.313V126.376ZM626.104 133H630.76V121.912C630.76 120.808 630.808 119.704 631.048 118.744C631.96 115.288 634.456 112.36 638.008 112.36C641.752 112.36 642.232 115.288 642.232 118.456V133H646.888V121.912C646.888 120.664 646.984 119.56 647.224 118.552C648.088 115.24 650.632 112.36 654.04 112.36C657.688 112.36 658.36 115.048 658.36 118.456V133H663.016V117.448C663.016 111.256 660.472 108.136 655 108.136C651.064 108.136 647.704 110.728 646.36 113.656H646.264C645.448 110.008 643.048 108.136 638.968 108.136C635.176 108.136 631.768 110.872 630.616 113.704H630.52C630.52 113.704 630.616 112.888 630.616 111.928V108.712H626.104V133ZM670.779 133H675.435V121.624C675.435 120.424 675.531 119.32 675.819 118.36C676.827 114.856 679.803 112.408 683.499 112.408C687.387 112.408 688.107 115.096 688.107 118.504V133H692.763V117.448C692.763 111.256 690.123 108.136 684.411 108.136C679.131 108.136 676.251 111.592 675.291 113.704H675.195C675.195 113.704 675.291 112.888 675.291 111.928V108.712H670.779V133ZM698.725 120.808C698.725 128.2 704.581 133.576 711.829 133.576C719.077 133.576 724.933 128.2 724.933 120.808C724.933 113.464 719.077 108.136 711.829 108.136C704.581 108.136 698.725 113.464 698.725 120.808ZM703.477 120.808C703.477 115.768 707.269 112.168 711.829 112.168C716.437 112.168 720.181 115.768 720.181 120.808C720.181 125.896 716.437 129.544 711.829 129.544C707.269 129.544 703.477 125.896 703.477 120.808ZM731.254 142.6H735.91V131.704C735.91 130.456 735.814 129.592 735.814 129.592H735.91C735.91 129.592 738.022 133.576 743.35 133.576C749.686 133.576 754.342 128.584 754.342 120.856C754.342 113.32 750.214 108.136 743.686 108.136C737.59 108.136 735.526 112.552 735.526 112.552H735.43C735.43 112.552 735.526 111.736 735.526 110.776V108.712H731.254V142.6ZM735.766 120.952C735.766 114.76 739.126 112.216 742.774 112.216C746.806 112.216 749.638 115.624 749.638 120.904C749.638 126.424 746.47 129.592 742.63 129.592C738.166 129.592 735.766 125.272 735.766 120.952ZM759.252 120.856C759.252 128.392 763.38 133.576 769.956 133.576C775.716 133.576 777.732 129.4 777.732 129.4H777.828C777.828 129.4 777.732 130.264 777.732 131.512V142.6H782.388V108.712H777.972V110.536C777.972 111.496 778.02 112.216 778.02 112.216H777.924C777.924 112.216 775.86 108.136 770.244 108.136C763.812 108.136 759.252 113.128 759.252 120.856ZM764.004 120.856C764.004 115.336 767.172 112.168 771.012 112.168C775.62 112.168 777.876 116.488 777.876 120.808C777.876 127 774.468 129.544 770.868 129.544C766.836 129.544 764.004 126.136 764.004 120.856ZM790.464 133H795.12V123.064C795.12 121.576 795.264 120.088 795.696 118.696C796.8 115.096 799.536 112.984 802.512 112.984C803.232 112.984 803.856 113.128 803.856 113.128V108.52C803.856 108.52 803.28 108.424 802.656 108.424C798.912 108.424 796.08 111.208 794.976 114.76H794.88C794.88 114.76 794.976 113.944 794.976 112.936V108.712H790.464V133ZM807.296 130.024C807.296 130.024 810.56 133.576 816.512 133.576C821.84 133.576 825.296 130.552 825.296 126.52C825.296 118.552 812.816 119.512 812.816 115.144C812.816 113.032 814.784 112.168 816.8 112.168C820.64 112.168 822.8 114.328 822.8 114.328L824.672 110.824C824.672 110.824 822.176 108.136 816.848 108.136C812 108.136 808.064 110.632 808.064 115.048C808.064 122.968 820.544 122.056 820.544 126.52C820.544 128.488 818.528 129.544 816.512 129.544C812.288 129.544 809.552 126.712 809.552 126.712L807.296 130.024ZM829.611 130.024C829.611 130.024 832.875 133.576 838.827 133.576C844.155 133.576 847.611 130.552 847.611 126.52C847.611 118.552 835.131 119.512 835.131 115.144C835.131 113.032 837.099 112.168 839.115 112.168C842.955 112.168 845.115 114.328 845.115 114.328L846.987 110.824C846.987 110.824 844.491 108.136 839.163 108.136C834.315 108.136 830.379 110.632 830.379 115.048C830.379 122.968 842.859 122.056 842.859 126.52C842.859 128.488 840.843 129.544 838.827 129.544C834.603 129.544 831.867 126.712 831.867 126.712L829.611 130.024ZM836.475 105.208H841.323L845.547 99.112H841.467L838.923 103H838.827L836.331 99.112H832.251L836.475 105.208ZM854.903 124.12C854.903 132.232 861.095 133.192 864.215 133.192C865.175 133.192 865.847 133.096 865.847 133.096V128.968C865.847 128.968 865.415 129.064 864.743 129.064C862.967 129.064 859.559 128.44 859.559 123.592V112.792H865.415V109.048H859.559V102.04H855.047V109.048H851.735V112.792H854.903V124.12ZM871.562 124.264C871.562 130.696 874.394 133.576 879.866 133.576C884.618 133.576 887.786 130.408 888.794 128.008H888.89C888.89 128.008 888.794 128.776 888.794 129.784V133H893.306V108.712H888.65V120.088C888.65 124.888 885.722 129.256 880.778 129.256C876.89 129.256 876.218 126.568 876.218 123.208V108.712H871.562V124.264ZM907.145 133H912.521L921.497 108.712H916.601L910.697 125.128C910.217 126.472 909.881 128.44 909.833 128.44H909.737C909.689 128.44 909.401 126.472 908.921 125.128L903.017 108.712H898.073L907.145 133ZM931.271 133H936.455L941.447 117.4C941.831 116.152 942.119 114.76 942.119 114.76H942.215C942.215 114.76 942.503 116.152 942.887 117.4L947.927 133H953.063L960.887 108.712H955.991L950.903 125.752C950.519 127 950.327 128.344 950.327 128.344H950.231C950.231 128.344 949.943 127 949.559 125.752L944.327 108.76H940.055L934.775 125.752C934.391 127 934.151 128.344 934.151 128.344H934.055C934.007 128.344 933.815 127 933.431 125.752L928.391 108.712H923.447L931.271 133ZM974.765 123.544C974.765 123.544 975.149 124.312 975.485 124.888L980.573 133H985.853L977.597 120.52L985.421 108.712H980.093L975.581 116.104C975.197 116.728 974.765 117.544 974.765 117.544H974.669C974.669 117.544 974.237 116.728 973.853 116.104L969.341 108.712H964.013L971.837 120.52L963.581 133H968.861L973.949 124.888C974.285 124.312 974.669 123.544 974.669 123.544H974.765ZM987.94 141.592C987.94 141.592 989.908 143.08 992.644 143.08C996.052 143.08 999.028 141.112 1000.52 137.368L1011.89 108.712H1006.85L1000.95 124.648C1000.52 125.896 1000.13 127.528 1000.13 127.528H1000.04C1000.04 127.528 999.604 125.848 999.124 124.6L993.028 108.712H987.796L997.972 132.712L996.772 135.496C995.86 137.704 994.276 139.048 992.404 139.048C990.916 139.048 989.572 138.04 989.572 138.04L987.94 141.592ZM1014.84 133H1035.82V129.016H1023.48C1021.9 129.016 1021.08 129.112 1021.08 129.112V129.016C1021.08 129.016 1022.14 128.056 1023.14 126.808L1035.38 111.4V108.712H1015.37V112.696H1026.74C1028.33 112.696 1029.1 112.6 1029.1 112.6V112.696C1029.1 112.696 1028.14 113.656 1027.08 114.952L1014.84 130.312V133ZM1040.44 133H1061.41V129.016H1049.08C1047.49 129.016 1046.68 129.112 1046.68 129.112V129.016C1046.68 129.016 1047.73 128.056 1048.74 126.808L1060.98 111.4V108.712H1040.97V112.696H1052.34C1053.93 112.696 1054.69 112.6 1054.69 112.6V112.696C1054.69 112.696 1053.73 113.656 1052.68 114.952L1040.44 130.312V133ZM1048.36 105.208H1053.21L1057.43 99.112H1053.35L1050.81 103H1050.71L1048.21 99.112H1044.13L1048.36 105.208ZM1088.98 133H1093.92L1081.73 99.112H1076.74L1064.55 133H1069.44L1072.8 123.256H1085.57L1088.98 133ZM1079.28 103.768C1079.28 103.768 1080 106.84 1080.58 108.568L1084.32 119.32H1074.05L1077.84 108.568C1078.42 106.84 1079.19 103.768 1079.19 103.768H1079.28ZM1079.23 96.952C1082.5 96.952 1085.52 95.032 1085.52 91.336V90.664H1082.07V91.24C1082.07 93.304 1080.63 94.168 1079.23 94.168C1077.75 94.168 1076.35 93.304 1076.35 91.288V90.664H1072.9V91.336C1072.9 95.032 1075.92 96.952 1079.23 96.952ZM1119.92 133H1124.86L1112.67 99.112H1107.68L1095.49 133H1100.38L1103.74 123.256H1116.51L1119.92 133ZM1110.22 103.768C1110.22 103.768 1110.94 106.84 1111.52 108.568L1115.26 119.32H1104.99L1108.78 108.568C1109.36 106.84 1110.13 103.768 1110.13 103.768H1110.22ZM1103.5 96.76H1107.58L1110.08 92.92H1110.18L1112.72 96.76H1116.8L1112.58 90.664H1107.73L1103.5 96.76ZM1130.65 133H1151.15V128.872H1135.4V117.976H1147.55V113.848H1135.4V103.24H1150.33V99.112H1130.65V133ZM1134.4 96.76H1138.48L1140.97 92.92H1141.07L1143.61 96.76H1147.69L1143.47 90.664H1138.62L1134.4 96.76ZM1156.43 115.816C1156.43 125.8 1164.06 133.576 1173.85 133.576C1183.65 133.576 1191.23 125.8 1191.23 115.816C1191.23 106.072 1183.65 98.536 1173.85 98.536C1164.06 98.536 1156.43 106.072 1156.43 115.816ZM1161.33 115.816C1161.33 108.424 1166.94 102.856 1173.85 102.856C1180.77 102.856 1186.33 108.424 1186.33 115.816C1186.33 123.448 1180.77 129.208 1173.85 129.208C1166.94 129.208 1161.33 123.448 1161.33 115.816ZM1167.18 96.76H1171.26L1173.76 92.92H1173.85L1176.4 96.76H1180.48L1176.25 90.664H1171.41L1167.18 96.76ZM262.512 182.816C262.512 186.368 261.92 189.472 260.736 192.128C259.552 194.752 257.792 196.8 255.456 198.272C253.12 199.744 250.224 200.48 246.768 200.48C243.184 200.48 240.224 199.744 237.888 198.272C235.552 196.8 233.808 194.736 232.656 192.08C231.504 189.424 230.928 186.32 230.928 182.768C230.928 179.248 231.504 176.176 232.656 173.552C233.808 170.928 235.552 168.88 237.888 167.408C240.256 165.936 243.232 165.2 246.816 165.2C249.44 165.2 251.744 165.648 253.728 166.544C255.712 167.408 257.36 168.624 258.672 170.192C260.016 169.84 260.864 169.056 261.216 167.84C261.568 166.624 261.744 165.184 261.744 163.52H266.304L266.64 164.048C266.288 165.936 265.648 167.68 264.72 169.28C263.824 170.88 262.368 172.048 260.352 172.784C261.792 175.504 262.512 178.848 262.512 182.816ZM235.488 182.816C235.488 187.136 236.384 190.544 238.176 193.04C240 195.504 242.864 196.736 246.768 196.736C250.672 196.736 253.504 195.504 255.264 193.04C257.056 190.544 257.952 187.136 257.952 182.816C257.952 178.528 257.072 175.152 255.312 172.688C253.552 170.224 250.72 168.992 246.816 168.992C242.88 168.992 240 170.224 238.176 172.688C236.384 175.152 235.488 178.528 235.488 182.816ZM297.161 165.728V170.384C298.729 170.128 299.737 169.392 300.185 168.176C300.665 166.96 300.905 165.408 300.905 163.52H305.369L305.705 164.048C305.449 165.552 305.017 166.96 304.409 168.272C303.833 169.552 302.969 170.64 301.817 171.536C300.665 172.4 299.113 173.008 297.161 173.36V187.904C297.161 190.272 296.713 192.416 295.817 194.336C294.921 196.224 293.513 197.728 291.593 198.848C289.705 199.936 287.225 200.48 284.153 200.48C279.801 200.48 276.473 199.328 274.169 197.024C271.897 194.688 270.761 191.616 270.761 187.808V165.728H275.081V188C275.081 190.752 275.833 192.896 277.337 194.432C278.873 195.968 281.177 196.736 284.249 196.736C286.329 196.736 287.993 196.368 289.241 195.632C290.521 194.864 291.449 193.824 292.025 192.512C292.601 191.168 292.889 189.648 292.889 187.952V165.728H297.161ZM306.374 193.184C306.374 198.032 310.454 200.576 314.63 200.576C320.438 200.576 322.406 195.776 322.406 195.776H322.502C322.502 195.776 322.406 196.592 322.406 197.696V200H326.726V184.64C326.726 178.496 323.27 175.136 317.126 175.136C311.558 175.136 308.054 178.016 308.054 178.016L309.974 181.424C309.974 181.424 312.998 179.072 316.742 179.072C319.814 179.072 322.07 180.416 322.07 184.4V184.832H321.014C316.934 184.832 306.374 185.168 306.374 193.184ZM311.078 192.944C311.078 188.576 317.414 188.336 320.918 188.336H322.118V189.104C322.118 192.704 319.574 196.832 315.638 196.832C312.614 196.832 311.078 194.912 311.078 192.944ZM317.27 172.4C320.534 172.4 323.558 170.48 323.558 166.784V166.112H320.102V166.688C320.102 168.752 318.662 169.616 317.27 169.616C315.782 169.616 314.39 168.752 314.39 166.736V166.112H310.934V166.784C310.934 170.48 313.958 172.4 317.27 172.4ZM332.533 193.184C332.533 198.032 336.613 200.576 340.789 200.576C346.597 200.576 348.565 195.776 348.565 195.776H348.661C348.661 195.776 348.565 196.592 348.565 197.696V200H352.885V184.64C352.885 178.496 349.429 175.136 343.285 175.136C337.717 175.136 334.213 178.016 334.213 178.016L336.133 181.424C336.133 181.424 339.157 179.072 342.901 179.072C345.973 179.072 348.229 180.416 348.229 184.4V184.832H347.173C343.093 184.832 332.533 185.168 332.533 193.184ZM337.237 192.944C337.237 188.576 343.573 188.336 347.077 188.336H348.277V189.104C348.277 192.704 345.733 196.832 341.797 196.832C338.773 196.832 337.237 194.912 337.237 192.944ZM336.757 172.208H340.837L343.333 168.368H343.429L345.973 172.208H350.053L345.829 166.112H340.981L336.757 172.208ZM358.98 187.856C358.98 195.056 364.212 200.576 371.844 200.576C377.652 200.576 381.252 197.12 381.252 197.12L379.332 193.712C379.332 193.712 376.308 196.544 372.132 196.544C367.812 196.544 364.02 193.856 363.78 188.528H381.492C381.492 188.528 381.636 187.136 381.636 186.512C381.636 180.224 377.988 175.136 371.124 175.136C364.212 175.136 358.98 180.128 358.98 187.856ZM363.924 185.024C364.596 181.04 367.476 178.832 371.028 178.832C374.148 178.832 376.74 180.848 376.884 185.024H363.924ZM364.452 172.208H368.532L371.028 168.368H371.124L373.668 172.208H377.748L373.524 166.112H368.676L364.452 172.208ZM386.31 187.808C386.31 195.2 392.166 200.576 399.414 200.576C406.662 200.576 412.518 195.2 412.518 187.808C412.518 180.464 406.662 175.136 399.414 175.136C392.166 175.136 386.31 180.464 386.31 187.808ZM391.062 187.808C391.062 182.768 394.854 179.168 399.414 179.168C404.022 179.168 407.766 182.768 407.766 187.808C407.766 192.896 404.022 196.544 399.414 196.544C394.854 196.544 391.062 192.896 391.062 187.808ZM392.79 172.208H396.87L399.366 168.368H399.462L402.006 172.208H406.086L401.862 166.112H397.014L392.79 172.208ZM441.639 187.088C441.639 191.344 440.551 194.64 438.375 196.976C436.231 199.312 433.319 200.48 429.639 200.48C427.367 200.48 425.335 199.968 423.543 198.944C421.783 197.888 420.391 196.368 419.367 194.384C418.343 192.368 417.831 189.936 417.831 187.088C417.831 182.832 418.903 179.552 421.047 177.248C423.191 174.944 426.103 173.792 429.783 173.792C431.479 173.792 433.031 174.08 434.439 174.656C435.879 175.232 437.111 176.048 438.135 177.104C439.575 176.656 440.471 175.824 440.823 174.608C441.175 173.36 441.351 171.936 441.351 170.336H445.863L446.199 170.864C445.783 173.072 445.111 174.928 444.183 176.432C443.255 177.904 441.863 178.976 440.007 179.648C440.519 180.64 440.919 181.76 441.207 183.008C441.495 184.256 441.639 185.616 441.639 187.088ZM422.199 187.088C422.199 190.32 422.791 192.784 423.975 194.48C425.191 196.144 427.111 196.976 429.735 196.976C432.391 196.976 434.311 196.144 435.495 194.48C436.679 192.784 437.271 190.32 437.271 187.088C437.271 183.856 436.663 181.424 435.447 179.792C434.263 178.16 432.343 177.344 429.687 177.344C427.063 177.344 425.159 178.16 423.975 179.792C422.791 181.424 422.199 183.856 422.199 187.088ZM479.217 170.288L479.553 170.816C479.297 172.32 478.881 173.744 478.305 175.088C477.729 176.432 476.865 177.552 475.713 178.448C474.593 179.344 473.073 179.904 471.153 180.128V200H467.697L467.073 196.592H466.881C466.049 197.936 464.897 198.928 463.425 199.568C461.985 200.176 460.449 200.48 458.817 200.48C455.681 200.48 453.313 199.744 451.713 198.272C450.145 196.768 449.361 194.384 449.361 191.12V174.32H453.633V190.832C453.633 194.928 455.537 196.976 459.345 196.976C462.193 196.976 464.161 196.176 465.249 194.576C466.369 192.976 466.929 190.672 466.929 187.664V174.32H471.153V177.152C472.689 176.896 473.665 176.16 474.081 174.944C474.529 173.696 474.753 172.144 474.753 170.288H479.217ZM481.4 200H500.888V195.872H493.496V166.112H489.272L481.16 173.984L484.04 176.96L487.208 173.84C488.456 172.64 488.84 171.872 488.84 171.872H488.936C488.936 171.872 488.888 172.928 488.888 173.984V195.872H481.4V200ZM505.877 200H527.717V195.872H510.917C511.013 188.144 527.189 186.416 527.189 175.28C527.189 169.424 522.725 165.536 516.485 165.536C508.853 165.536 505.781 171.968 505.781 171.968L509.285 174.32C509.285 174.32 511.685 170 516.149 170C519.701 170 522.245 172.256 522.245 175.616C522.245 183.584 505.637 185.312 505.637 197.408C505.637 198.224 505.733 199.088 505.877 200ZM533.186 195.968C533.186 195.968 537.266 200.576 544.178 200.576C551.138 200.576 555.698 195.488 555.698 189.68C555.698 183.104 550.226 180.224 545.762 179.744L554.978 169.136V166.112H534.722V170.24H546.194C548.066 170.24 549.074 170.096 549.074 170.096V170.192C549.074 170.192 548.066 171.104 546.962 172.4L539.57 181.088L540.674 183.632H543.026C547.202 183.632 550.898 185.696 550.898 189.872C550.898 193.52 547.778 196.064 543.986 196.064C539.09 196.064 535.778 192.368 535.778 192.368L533.186 195.968ZM560.788 190.928H577.204V200H581.86V190.928H586.468V186.896H581.86V166.112H576.436L560.788 187.952V190.928ZM566.02 186.896V186.8L575.62 173.984C576.532 172.784 577.3 171.2 577.3 171.2H577.396C577.396 171.2 577.204 172.976 577.204 174.56V186.896H566.02ZM591.513 195.872C591.513 195.872 594.921 200.576 601.881 200.576C608.745 200.576 613.881 195.68 613.881 189.152C613.881 183.056 609.225 178.112 602.073 178.112C599.577 178.112 597.705 179.168 597.705 179.168H597.609C597.609 179.168 597.801 178.4 597.849 177.392L598.665 170.24H611.625V166.112H594.537L592.857 182.912L595.593 183.92C595.593 183.92 597.993 182.24 601.305 182.24C605.673 182.24 609.033 185.12 609.033 189.2C609.033 193.328 605.577 196.064 601.593 196.064C596.793 196.064 594.153 192.416 594.153 192.416L591.513 195.872ZM632.56 200.576C638.896 200.576 643.456 195.92 643.456 189.248C643.456 182.96 639.184 178.064 632.752 178.064C629.776 178.064 626.704 179.36 625.264 181.28H625.168C625.888 175.664 629.104 169.904 635.344 169.904C638.032 169.904 640.192 171.008 640.192 171.008L641.728 166.928C641.728 166.928 639.136 165.536 635.152 165.536C624.64 165.536 619.888 175.904 619.888 184.592C619.888 194.24 625.312 200.576 632.56 200.576ZM632.512 196.208C628.192 196.208 624.88 191.264 624.88 186.848C624.88 184.4 627.952 182.096 631.792 182.096C636.112 182.096 638.752 185.12 638.752 189.248C638.752 193.184 636.4 196.208 632.512 196.208ZM650.719 200H655.615L670.927 169.376V166.112H648.271V170.24H663.391C665.119 170.24 665.887 170.096 665.887 170.096V170.192C665.887 170.192 664.879 171.392 663.919 173.312L650.719 200ZM675.533 190.208C675.533 196.352 680.573 200.576 687.341 200.576C694.397 200.576 698.957 195.92 698.957 190.64C698.957 187.136 696.941 185.024 694.349 183.44C694.781 182.96 698.381 179.12 698.381 174.608C698.381 169.04 694.013 165.536 687.725 165.536C680.573 165.536 677.165 169.904 677.165 174.416C677.165 177.536 678.749 179.6 680.957 181.184C680.045 181.808 675.533 185.024 675.533 190.208ZM694.061 190.496C694.061 194 690.893 196.304 687.341 196.304C683.741 196.304 680.381 193.808 680.381 189.92C680.381 186.272 683.357 183.968 684.461 183.2C689.021 185.408 694.061 186.848 694.061 190.496ZM681.869 174.512C681.869 171.92 683.933 169.808 687.677 169.808C691.229 169.808 693.725 171.776 693.725 174.896C693.725 178.448 691.277 181.04 690.749 181.568C686.381 179.696 681.869 178.256 681.869 174.512ZM713.409 200.576C723.921 200.576 728.673 190.208 728.673 181.52C728.673 171.824 723.201 165.536 716.001 165.536C709.665 165.536 705.105 170.192 705.105 176.864C705.105 183.152 709.377 188 715.809 188C718.785 188 721.905 186.752 723.297 184.832H723.393C722.673 190.448 719.457 196.208 713.217 196.208C710.529 196.208 708.369 195.056 708.369 195.056L706.833 199.184C706.833 199.184 709.377 200.576 713.409 200.576ZM716.769 184.016C712.401 184.016 709.809 180.992 709.809 176.864C709.809 172.928 712.113 169.904 716.049 169.904C720.369 169.904 723.681 174.848 723.681 179.264C723.681 181.664 720.609 184.016 716.769 184.016ZM747.264 200.576C756.336 200.576 759.264 192.8 759.264 183.008C759.264 173.264 756.336 165.536 747.264 165.536C738.24 165.536 735.312 173.264 735.312 183.008C735.312 192.8 738.24 200.576 747.264 200.576ZM747.264 196.208C741.744 196.208 740.16 190.4 740.16 183.008C740.16 175.664 741.744 169.904 747.264 169.904C752.832 169.904 754.416 175.664 754.416 183.008C754.416 190.4 752.832 196.208 747.264 196.208ZM765.44 174.944H769.952L772.016 165.584H768.608L765.44 174.944ZM781.675 190.688H786.235V188.72C786.235 182.96 794.731 182.144 794.731 174.224C794.731 168.896 790.123 165.44 784.699 165.44C779.467 165.44 776.299 168.512 776.299 168.512L778.891 171.824C778.891 171.824 781.339 169.808 784.363 169.808C787.531 169.808 789.835 171.872 789.835 174.56C789.835 180.08 781.675 181.136 781.675 188.432V190.688ZM781.579 200H786.331V195.344H781.579V200ZM801.495 174.896H804.951L808.071 165.536H803.559L801.495 174.896ZM819.467 174.944H824.027L826.091 165.584H822.635L819.467 174.944ZM812.699 174.944H817.259L819.323 165.584H815.867L812.699 174.944ZM834.434 190.688H838.61L838.898 166.112H834.098L834.434 190.688ZM834.146 200H838.898V195.344H834.146V200ZM854.163 174.896H857.667L860.787 165.536H856.227L854.163 174.896ZM847.395 174.896H850.851L854.019 165.536H849.459L847.395 174.896ZM872.116 204.56H876.196C872.596 198.032 870.772 190.88 870.772 183.728C870.772 176.96 872.692 170.576 876.196 164.72H872.116C868.564 170.384 866.548 176.768 866.548 183.68C866.548 191.408 868.66 198.8 872.116 204.56ZM887.88 179.744C891.912 179.744 895.176 176.576 895.176 172.64C895.176 168.752 891.912 165.536 887.88 165.536C883.848 165.536 880.632 168.752 880.632 172.64C880.632 176.576 883.848 179.744 887.88 179.744ZM881.352 200H885.864L911.784 166.112H907.272L881.352 200ZM887.88 176.192C885.864 176.192 884.328 174.656 884.328 172.64C884.328 170.672 885.864 169.04 887.88 169.04C889.896 169.04 891.432 170.672 891.432 172.64C891.432 174.656 889.896 176.192 887.88 176.192ZM898.008 193.472C898.008 197.408 901.224 200.576 905.304 200.576C909.288 200.576 912.6 197.408 912.6 193.472C912.6 189.584 909.288 186.368 905.304 186.368C901.224 186.368 898.008 189.584 898.008 193.472ZM901.752 193.472C901.752 191.504 903.288 189.872 905.304 189.872C907.272 189.872 908.856 191.504 908.856 193.472C908.856 195.488 907.272 197.024 905.304 197.024C903.288 197.024 901.752 195.488 901.752 193.472ZM921.068 204.56C924.524 198.8 926.636 191.408 926.636 183.68C926.636 176.768 924.62 170.384 921.068 164.72H916.988C920.492 170.576 922.412 176.96 922.412 183.728C922.412 190.88 920.588 198.032 916.988 204.56H921.068ZM935.776 204.56H943.696V201.008H939.856V168.224H943.696V164.72H935.776V204.56ZM952.934 200H956.822L958.406 190.832H965.846L964.262 200H968.15L969.782 190.832H975.974L976.598 187.28H970.358L971.798 179.216H978.038L978.662 175.712H972.374L974.054 166.112H970.166L968.486 175.712H961.046L962.726 166.112H958.838L957.158 175.712H950.918L950.342 179.216H956.534L955.142 187.28H948.854L948.278 190.832H954.518L952.934 200ZM959.03 187.28L960.47 179.216H967.91L966.47 187.28H959.03ZM983.099 201.008V204.56H991.067V164.72H983.099V168.224H986.987V201.008H983.099ZM1003.14 196.304C1003.14 203.936 1008.61 204.704 1010.91 204.704C1011.58 204.704 1012.02 204.608 1012.02 204.608V201.056C1012.02 201.056 1011.73 201.056 1011.34 201.056C1010.14 201.056 1007.22 200.624 1007.22 196.016V190.496C1007.22 185.552 1003.33 184.4 1003.33 184.4V184.304C1003.33 184.304 1007.22 182.96 1007.22 178.208V173.264C1007.22 168.656 1010.14 168.224 1011.34 168.224C1011.73 168.224 1012.02 168.224 1012.02 168.224V164.672C1012.02 164.672 1011.58 164.624 1010.91 164.624C1008.61 164.624 1003.14 165.392 1003.14 172.976V177.008C1003.14 182 999.055 182.336 999.055 182.336V186.464C999.055 186.464 1003.14 186.8 1003.14 191.696V196.304ZM1017.12 188.432C1017.12 198.224 1024.65 206 1035.4 206V202.208C1027.24 202.208 1021.77 196.016 1021.77 188.432C1021.77 180.944 1027.44 174.512 1034.88 174.512C1039.82 174.512 1042.56 176.72 1042.65 179.456H1037.47C1031.42 179.456 1027.53 183.68 1027.53 188.432C1027.53 193.28 1031.47 197.504 1037.47 197.504H1050.57V194H1047.12V180.416C1047.12 175.328 1043.9 170.672 1034.64 170.672C1024.84 170.672 1017.12 178.544 1017.12 188.432ZM1032.24 188.384C1032.24 185.264 1034.54 182.672 1037.9 182.672H1042.65V194H1037.8C1034.54 194 1032.24 191.504 1032.24 188.384ZM1055.99 201.056V204.608C1055.99 204.608 1056.43 204.704 1057.1 204.704C1059.4 204.704 1064.87 203.936 1064.87 196.304V191.696C1064.87 186.8 1068.95 186.464 1068.95 186.464V182.336C1068.95 182.336 1064.87 182 1064.87 177.008V172.976C1064.87 165.392 1059.4 164.624 1057.1 164.624C1056.43 164.624 1055.99 164.672 1055.99 164.672V168.224C1055.99 168.224 1056.23 168.224 1056.67 168.224C1057.87 168.224 1060.79 168.656 1060.79 173.264V178.208C1060.79 182.96 1064.68 184.304 1064.68 184.304V184.4C1064.68 184.4 1060.79 185.552 1060.79 190.496V196.016C1060.79 200.624 1057.87 201.056 1056.67 201.056C1056.23 201.056 1055.99 201.056 1055.99 201.056ZM1073.82 202.016H1077.94L1090.14 164.288H1086.01L1073.82 202.016ZM1094.89 190.496C1094.89 196.208 1099.59 200.576 1106.65 200.576C1113.89 200.576 1118.36 196.256 1118.36 188.72V184.208H1122.87V180.08H1118.36V175.472H1113.7V180.08H1107.41C1102.18 180.08 1101.17 176.864 1101.17 174.752C1101.17 171.44 1103.81 169.568 1107.17 169.568C1108.33 169.568 1109.72 169.856 1109.72 169.856L1110.92 166.064C1110.92 166.064 1108.66 165.536 1106.79 165.536C1100.79 165.536 1096.37 168.656 1096.37 174.272C1096.37 180.176 1100.84 181.712 1100.84 181.712V181.808C1097.09 183.056 1094.89 186.752 1094.89 190.496ZM1099.73 190.256C1099.73 186.464 1102.42 184.208 1107.22 184.208H1113.7V188.528C1113.7 193.856 1110.97 196.208 1106.65 196.208C1102.42 196.208 1099.73 193.52 1099.73 190.256ZM1139.44 202.016H1143.57L1131.38 164.288H1127.25L1139.44 202.016ZM1147.7 187.904L1170.06 197.888V193.616L1152.88 186.368V186.272L1170.06 179.024V174.752L1147.7 184.736V187.904ZM1178 188.384H1192.01V184.256H1178V188.384ZM231.696 255.192H242.448V267H246.384V255.192H257.088V251.448H246.384V239.64H242.448V251.448H231.696V255.192ZM274.526 246.12H279.038V241.752H274.526V246.12ZM264.686 255.192H288.926V251.448H264.686V255.192ZM274.526 264.888H279.038V260.52H274.526V264.888ZM295.858 264.36L298.498 267L308.29 256.104L318.13 267L320.77 264.36L310.834 253.32L320.77 242.28L318.13 239.64L308.29 250.584L298.498 239.64L295.858 242.28L305.746 253.32L295.858 264.36ZM329.18 250.68H352.076V246.936H329.18V250.68ZM329.18 259.752H352.076V256.008H329.18V259.752ZM360.313 264.888L382.681 254.904V251.736L360.313 241.752V246.024L377.449 253.272V253.368L360.313 260.616V264.888ZM387.639 250.056C387.639 259.8 395.223 267.576 404.679 267.576C414.231 267.576 421.863 259.8 421.863 250.056C421.863 240.312 414.231 232.536 404.679 232.536C395.223 232.536 387.639 240.312 387.639 250.056ZM391.143 250.056C391.143 242.04 397.047 235.8 404.679 235.8C412.407 235.8 418.359 242.04 418.359 250.056C418.359 258.072 412.407 264.312 404.679 264.312C397.047 264.312 391.143 258.072 391.143 250.056ZM398.823 259.032H402.231V252.024H405.159L408.519 259.032H412.263L408.807 252.36C408.375 251.544 408.183 251.352 408.183 251.352V251.256C409.671 250.872 411.495 249.24 411.495 246.456C411.495 243.096 409.191 240.936 405.783 240.936H398.823V259.032ZM402.231 249.528V243.528H405.111C406.887 243.528 408.039 244.584 408.039 246.456C408.039 248.376 406.887 249.528 405.111 249.528H402.231ZM427.861 250.056C427.861 259.8 435.445 267.576 444.901 267.576C454.453 267.576 462.085 259.8 462.085 250.056C462.085 240.312 454.453 232.536 444.901 232.536C435.445 232.536 427.861 240.312 427.861 250.056ZM431.365 250.056C431.365 242.04 437.269 235.8 444.901 235.8C452.629 235.8 458.581 242.04 458.581 250.056C458.581 258.072 452.629 264.312 444.901 264.312C437.269 264.312 431.365 258.072 431.365 250.056ZM435.781 250.104C435.781 255.192 439.429 259.704 445.237 259.704C450.757 259.704 453.061 254.952 453.061 254.952L450.133 253.368C450.133 253.368 448.549 256.392 445.381 256.392C441.493 256.392 439.429 253.512 439.429 250.104C439.429 246.792 441.589 243.816 445.381 243.816C448.501 243.816 450.133 246.84 450.133 246.84L453.061 245.256C453.061 245.256 450.757 240.504 445.237 240.504C439.429 240.504 435.781 245.064 435.781 250.104ZM468.083 263.112C468.083 263.112 471.443 266.856 477.587 267.48V271.896H480.995V267.48C486.659 266.808 490.067 262.824 490.067 258.024C490.067 247.224 473.459 248.616 473.459 241.896C473.459 239.208 475.955 236.952 479.603 236.952C483.923 236.952 487.043 239.88 487.043 239.88L489.203 235.944C489.203 235.944 486.371 233.016 480.995 232.632V228.168H477.587V232.68C472.259 233.448 468.659 237.336 468.659 241.992C468.659 252.264 485.267 251.16 485.267 258.168C485.267 261.384 482.579 263.16 479.411 263.16C474.371 263.16 470.771 259.512 470.771 259.512L468.083 263.112ZM495.302 254.616H498.47C500.246 262.248 506.582 267.576 514.742 267.576C517.814 267.576 520.118 266.76 520.118 266.76L519.206 262.44C519.206 262.44 517.238 263.064 514.838 263.064C509.462 263.064 505.142 259.656 503.654 254.616H515.174L515.798 251.592H502.838C502.694 250.488 502.694 249.192 502.886 248.136H516.422L517.046 245.064H503.558C505.142 240.168 509.27 236.952 514.646 236.952C516.662 236.952 518.438 237.48 518.438 237.48L519.59 233.112C519.59 233.112 517.43 232.536 514.742 232.536C506.822 232.536 500.438 237.768 498.518 245.064H495.302V248.136H497.942C497.798 249.192 497.846 250.728 497.942 251.592H495.302V254.616ZM526.142 251.688H528.254V262.872H525.326V267H548.654V262.872H533.054V251.688H541.886V248.328H533.054V241.992C533.054 239.16 535.166 236.856 538.718 236.856C541.646 236.856 543.95 238.92 543.95 238.92L546.686 235.608C546.686 235.608 543.518 232.536 538.67 232.536C532.622 232.536 528.254 236.472 528.254 241.8V248.328H526.142V251.688ZM556.117 250.344H562.645L563.941 252.648V254.424H556.117V257.448H563.941V267H568.741V257.448H576.517V254.424H568.741V252.648L570.037 250.344H576.517V247.32H571.621L579.589 233.112H574.165L568.453 243.672C567.397 245.928 566.389 248.568 566.389 248.568H566.293C566.293 248.568 565.285 245.928 564.229 243.672L558.565 233.112H553.141L561.061 247.32H556.117V250.344ZM594.425 267.624H597.833V263.496C602.345 263.016 605.321 259.656 606.857 256.104L602.633 254.424C601.433 257.16 599.369 259.176 596.249 259.176C591.497 259.176 589.049 255.384 589.049 250.056C589.049 244.872 591.641 240.888 596.249 240.888C599.417 240.888 601.433 242.952 602.633 245.64L606.857 244.008C605.225 240.024 602.057 237.192 597.833 236.568V232.536H594.425V236.568C588.089 237.432 584.297 243.096 584.297 250.056C584.297 256.968 588.089 262.632 594.425 263.496V267.624ZM614.769 247.656H619.665V242.712H614.769V247.656ZM614.769 267H619.665V262.056H614.769V267ZM627.281 271.848H631.025L634.625 261.96H629.825L627.281 271.848ZM629.873 247.656H634.769V242.712H629.873V247.656ZM641.184 271.848H644.88L648.912 261.96H644.16L641.184 271.848ZM656.57 267H661.466V262.056H656.57V267ZM673.349 251.208L677.093 245.544H677.189L680.885 251.208L684.293 248.712L680.069 243.432V243.336L686.645 241.56L685.349 237.528L678.917 239.928L679.301 233.112H674.933L675.269 239.928L668.885 237.528L667.637 241.56L674.165 243.336V243.432L669.893 248.712L673.349 251.208Z" fill="black"/>
</svg>
