<svg width="62" height="11" viewBox="0 0 62 11" fill="none" xmlns="http://www.w3.org/2000/svg">
<path d="M0.326 10H1.223V5.905H4.577V5.099H1.223V1.667H5.136V0.861H0.326V10ZM7.51773 1.966H8.44073V0.861H7.51773V1.966ZM7.54373 10H8.42773V3.461H7.54373V10ZM11.3652 10H12.2492V6.867C12.2492 6.555 12.2752 6.256 12.3532 5.983C12.6522 4.904 13.6142 4.137 14.7322 4.137C15.9932 4.137 16.1492 5.047 16.1492 6.074V10H17.0332V5.84C17.0332 4.228 16.4612 3.305 14.8492 3.305C13.3022 3.305 12.4702 4.358 12.2362 4.956H12.2102C12.2102 4.956 12.2362 4.722 12.2362 4.436V3.461H11.3652V10ZM19.4163 6.737C19.4163 8.752 20.8853 10.156 22.8353 10.156C24.3043 10.156 25.2533 9.246 25.2533 9.246L24.8503 8.57C24.8503 8.57 24.0573 9.363 22.8613 9.363C21.5093 9.363 20.3653 8.453 20.3263 6.776H25.3443C25.3443 6.776 25.3703 6.477 25.3703 6.321C25.3703 4.696 24.4473 3.305 22.6403 3.305C20.8723 3.305 19.4163 4.592 19.4163 6.737ZM20.3653 6.048C20.5733 4.735 21.5223 4.046 22.6143 4.046C23.5893 4.046 24.4213 4.683 24.4733 6.048H20.3653ZM32.408 10H33.305V6.412H35.567C37.205 6.412 38.388 5.32 38.388 3.617C38.388 1.927 37.205 0.861 35.567 0.861H32.408V10ZM33.305 5.606V1.667H35.463C36.672 1.667 37.465 2.382 37.465 3.617C37.465 4.865 36.672 5.606 35.45 5.606H33.305ZM40.7176 10H41.6016V7.244C41.6016 6.828 41.6536 6.386 41.7836 5.97C42.0696 5.008 42.7586 4.28 43.6816 4.28C43.8506 4.28 44.0066 4.306 44.0066 4.306V3.435C44.0066 3.435 43.8376 3.396 43.6556 3.396C42.6286 3.396 41.9006 4.15 41.5886 5.138H41.5626C41.5626 5.138 41.5886 4.904 41.5886 4.618V3.461H40.7176V10ZM46.1254 1.966H47.0484V0.861H46.1254V1.966ZM46.1514 10H47.0354V3.461H46.1514V10ZM49.9728 10H50.8568V6.867C50.8568 6.555 50.8828 6.256 50.9608 5.983C51.2598 4.904 52.2218 4.137 53.3398 4.137C54.6008 4.137 54.7568 5.047 54.7568 6.074V10H55.6408V5.84C55.6408 4.228 55.0688 3.305 53.4568 3.305C51.9098 3.305 51.0778 4.358 50.8438 4.956H50.8178C50.8178 4.956 50.8438 4.722 50.8438 4.436V3.461H49.9728V10ZM58.7259 7.621C58.7259 9.805 60.2469 10.052 61.0009 10.052C61.2349 10.052 61.3779 10.026 61.3779 10.026V9.233C61.3779 9.233 61.2609 9.259 61.0789 9.259C60.5849 9.259 59.6099 9.064 59.6099 7.53V4.28H61.2479V3.539H59.6099V1.654H58.7389V3.539H57.8679V4.28H58.7259V7.621Z" fill="#767676"/>
</svg>
