<svg width="76" height="14" viewBox="0 0 76 14" fill="none" xmlns="http://www.w3.org/2000/svg">
<path d="M0.428 11H3.9C5.552 11 6.854 9.992 6.854 8.242C6.854 7.052 6.21 6.086 5.202 5.806V5.778C5.958 5.4 6.448 4.658 6.448 3.636C6.448 2.096 5.342 1.158 3.788 1.158H0.428V11ZM1.394 5.428V2.026H3.774C4.824 2.026 5.454 2.698 5.454 3.706C5.454 4.728 4.782 5.428 3.788 5.428H1.394ZM1.394 10.132V6.268H3.9C5.048 6.268 5.846 7.038 5.846 8.214C5.846 9.39 5.104 10.132 3.914 10.132H1.394ZM9.19367 7.444C9.19367 9.572 10.8597 11.168 12.9177 11.168C14.9757 11.168 16.6417 9.572 16.6417 7.444C16.6417 5.358 14.9757 3.79 12.9177 3.79C10.8597 3.79 9.19367 5.358 9.19367 7.444ZM10.1737 7.444C10.1737 5.848 11.4057 4.658 12.9177 4.658C14.4297 4.658 15.6617 5.848 15.6617 7.444C15.6617 9.082 14.4297 10.314 12.9177 10.314C11.4057 10.314 10.1737 9.082 10.1737 7.444ZM18.7587 7.472C18.7587 9.656 19.9347 11.168 21.8247 11.168C23.6727 11.168 24.2467 9.754 24.2467 9.754H24.2747C24.2747 9.754 24.2467 9.95 24.2467 10.258V11H25.1707V1.158H24.2187V4.588C24.2187 4.882 24.2467 5.12 24.2467 5.12H24.2187C24.2187 5.12 23.6307 3.79 21.9227 3.79C20.0747 3.79 18.7587 5.246 18.7587 7.472ZM19.7387 7.472C19.7387 5.694 20.7607 4.644 22.0067 4.644C23.5187 4.644 24.2467 6.044 24.2467 7.472C24.2467 9.474 23.1407 10.314 21.9647 10.314C20.6487 10.314 19.7387 9.208 19.7387 7.472ZM27.2148 13.52C27.2148 13.52 27.7188 13.94 28.4468 13.94C29.3848 13.94 30.1128 13.366 30.4768 12.47L33.9488 3.958H32.9128L30.8828 9.096C30.7428 9.446 30.6448 9.838 30.6448 9.838H30.6168C30.6168 9.838 30.5048 9.446 30.3648 9.096L28.2928 3.958H27.2428L30.1828 10.944L29.7488 11.938C29.4688 12.582 29.0348 13.086 28.4188 13.086C27.9708 13.086 27.5788 12.764 27.5788 12.764L27.2148 13.52ZM40.2329 6.016C40.2329 8.886 42.3049 11.168 45.2169 11.168C47.6389 11.168 48.9829 9.642 48.9829 9.642L48.4229 8.956C48.4229 8.956 47.2189 10.272 45.2309 10.272C42.8929 10.272 41.2409 8.354 41.2409 6.002C41.2409 3.678 42.8929 1.886 45.2029 1.886C47.0509 1.886 48.1989 2.978 48.1989 2.978L48.7169 2.264C48.7169 2.264 47.5269 0.99 45.1749 0.99C42.3609 0.99 40.2329 3.16 40.2329 6.016ZM51.0784 7.444C51.0784 9.572 52.7444 11.168 54.8024 11.168C56.8604 11.168 58.5264 9.572 58.5264 7.444C58.5264 5.358 56.8604 3.79 54.8024 3.79C52.7444 3.79 51.0784 5.358 51.0784 7.444ZM52.0584 7.444C52.0584 5.848 53.2904 4.658 54.8024 4.658C56.3144 4.658 57.5464 5.848 57.5464 7.444C57.5464 9.082 56.3144 10.314 54.8024 10.314C53.2904 10.314 52.0584 9.082 52.0584 7.444ZM61.1054 13.8H62.0574V10.44C62.0574 10.076 62.0294 9.824 62.0294 9.824H62.0574C62.0574 9.824 62.6734 11.168 64.3674 11.168C66.1874 11.168 67.5174 9.712 67.5174 7.486C67.5174 5.302 66.3414 3.79 64.4514 3.79C62.5894 3.79 62.0154 5.19 62.0154 5.19H61.9874C61.9874 5.19 62.0154 4.952 62.0154 4.644V3.958H61.1054V13.8ZM62.0294 7.5C62.0294 5.498 63.1354 4.658 64.3114 4.658C65.6274 4.658 66.5374 5.764 66.5374 7.486C66.5374 9.278 65.5154 10.328 64.2694 10.328C62.8134 10.328 62.0294 8.914 62.0294 7.5ZM69.0996 13.52C69.0996 13.52 69.6036 13.94 70.3316 13.94C71.2696 13.94 71.9976 13.366 72.3616 12.47L75.8336 3.958H74.7976L72.7676 9.096C72.6276 9.446 72.5296 9.838 72.5296 9.838H72.5016C72.5016 9.838 72.3896 9.446 72.2496 9.096L70.1776 3.958H69.1276L72.0676 10.944L71.6336 11.938C71.3536 12.582 70.9196 13.086 70.3036 13.086C69.8556 13.086 69.4636 12.764 69.4636 12.764L69.0996 13.52Z" fill="#54585A"/>
</svg>
