<svg width="152" height="17" viewBox="0 0 152 17" fill="none" xmlns="http://www.w3.org/2000/svg">
<path d="M0.836 13H7.946V11.884H2.078V0.346H0.836V13ZM9.85441 10.534C9.85441 12.334 11.4204 13.216 12.9324 13.216C15.2004 13.216 15.9564 11.254 15.9564 11.254H15.9924C15.9924 11.254 15.9564 11.56 15.9564 12.01V13H17.1264V7.204C17.1264 4.936 15.9204 3.73 13.7424 3.73C11.7084 3.73 10.5204 4.756 10.5204 4.756L11.0964 5.692C11.0964 5.692 12.1584 4.828 13.6524 4.828C14.9484 4.828 15.9024 5.422 15.9024 7.168V7.402H15.3984C13.8324 7.402 9.85441 7.474 9.85441 10.534ZM11.1144 10.462C11.1144 8.464 13.9584 8.41 15.3804 8.41H15.9024V8.806C15.9024 10.372 14.8584 12.172 13.1304 12.172C11.7804 12.172 11.1144 11.308 11.1144 10.462ZM20.744 13H21.968V9.184C21.968 8.608 22.04 7.996 22.22 7.42C22.616 6.088 23.57 5.08 24.848 5.08C25.082 5.08 25.298 5.116 25.298 5.116V3.91C25.298 3.91 25.064 3.856 24.812 3.856C23.39 3.856 22.382 4.9 21.95 6.268H21.914C21.914 6.268 21.95 5.944 21.95 5.548V3.946H20.744V13ZM28.5912 15.052L28.1232 16.06C29.0052 16.51 30.0492 16.78 31.0932 16.78C33.3073 16.78 35.4312 15.664 35.4312 12.784V3.946H34.2432V4.936C34.2432 5.134 34.2613 5.242 34.2613 5.242H34.2253C34.2253 5.242 33.6312 3.73 31.2372 3.73C28.8072 3.73 27.3132 5.584 27.3132 8.302C27.3132 11.02 28.9152 12.946 31.3452 12.946C32.7492 12.946 33.6672 12.37 34.2072 11.362H34.2432C34.2432 11.362 34.2072 11.668 34.2072 12.01V12.838C34.2072 14.854 32.8032 15.682 31.0392 15.682C29.7072 15.682 28.5912 15.052 28.5912 15.052ZM31.5432 11.848C29.7432 11.848 28.5732 10.444 28.5732 8.284C28.5732 6.124 29.5992 4.846 31.3632 4.846C32.9652 4.846 34.2253 5.656 34.2253 8.302C34.2253 10.966 32.9652 11.848 31.5432 11.848ZM38.5538 8.482C38.5538 11.272 40.5878 13.216 43.2878 13.216C45.3218 13.216 46.6358 11.956 46.6358 11.956L46.0778 11.02C46.0778 11.02 44.9798 12.118 43.3238 12.118C41.4518 12.118 39.8678 10.858 39.8138 8.536H46.7618C46.7618 8.536 46.7978 8.122 46.7978 7.906C46.7978 5.656 45.5198 3.73 43.0178 3.73C40.5698 3.73 38.5538 5.512 38.5538 8.482ZM39.8678 7.528C40.1558 5.71 41.4698 4.756 42.9818 4.756C44.3318 4.756 45.4838 5.638 45.5558 7.528H39.8678ZM55.927 13H60.391C62.515 13 64.189 11.704 64.189 9.454C64.189 7.924 63.361 6.682 62.065 6.322V6.286C63.037 5.8 63.667 4.846 63.667 3.532C63.667 1.552 62.245 0.346 60.247 0.346H55.927V13ZM57.169 5.836V1.462H60.229C61.579 1.462 62.389 2.326 62.389 3.622C62.389 4.936 61.525 5.836 60.247 5.836H57.169ZM57.169 11.884V6.916H60.391C61.867 6.916 62.893 7.906 62.893 9.418C62.893 10.93 61.939 11.884 60.409 11.884H57.169ZM66.9686 8.428C66.9686 11.164 69.1106 13.216 71.7566 13.216C74.4026 13.216 76.5446 11.164 76.5446 8.428C76.5446 5.746 74.4026 3.73 71.7566 3.73C69.1106 3.73 66.9686 5.746 66.9686 8.428ZM68.2286 8.428C68.2286 6.376 69.8126 4.846 71.7566 4.846C73.7006 4.846 75.2846 6.376 75.2846 8.428C75.2846 10.534 73.7006 12.118 71.7566 12.118C69.8126 12.118 68.2286 10.534 68.2286 8.428ZM79.0379 8.464C79.0379 11.272 80.5499 13.216 82.9799 13.216C85.3559 13.216 86.0939 11.398 86.0939 11.398H86.1299C86.1299 11.398 86.0939 11.65 86.0939 12.046V13H87.2819V0.346H86.0579V4.756C86.0579 5.134 86.0939 5.44 86.0939 5.44H86.0579C86.0579 5.44 85.3019 3.73 83.1059 3.73C80.7299 3.73 79.0379 5.602 79.0379 8.464ZM80.2979 8.464C80.2979 6.178 81.6119 4.828 83.2139 4.828C85.1579 4.828 86.0939 6.628 86.0939 8.464C86.0939 11.038 84.6719 12.118 83.1599 12.118C81.4679 12.118 80.2979 10.696 80.2979 8.464ZM89.6815 16.24C89.6815 16.24 90.3295 16.78 91.2655 16.78C92.4715 16.78 93.4075 16.042 93.8755 14.89L98.3395 3.946H97.0075L94.3975 10.552C94.2175 11.002 94.0915 11.506 94.0915 11.506H94.0555C94.0555 11.506 93.9115 11.002 93.7315 10.552L91.0675 3.946H89.7175L93.4975 12.928L92.9395 14.206C92.5795 15.034 92.0215 15.682 91.2295 15.682C90.6535 15.682 90.1495 15.268 90.1495 15.268L89.6815 16.24ZM105.962 6.592C105.962 10.282 108.626 13.216 112.37 13.216C115.484 13.216 117.212 11.254 117.212 11.254L116.492 10.372C116.492 10.372 114.944 12.064 112.388 12.064C109.382 12.064 107.258 9.598 107.258 6.574C107.258 3.586 109.382 1.282 112.352 1.282C114.728 1.282 116.204 2.686 116.204 2.686L116.87 1.768C116.87 1.768 115.34 0.129999 112.316 0.129999C108.698 0.129999 105.962 2.92 105.962 6.592ZM119.678 8.428C119.678 11.164 121.82 13.216 124.466 13.216C127.112 13.216 129.254 11.164 129.254 8.428C129.254 5.746 127.112 3.73 124.466 3.73C121.82 3.73 119.678 5.746 119.678 8.428ZM120.938 8.428C120.938 6.376 122.522 4.846 124.466 4.846C126.41 4.846 127.994 6.376 127.994 8.428C127.994 10.534 126.41 12.118 124.466 12.118C122.522 12.118 120.938 10.534 120.938 8.428ZM132.341 16.6H133.565V12.28C133.565 11.812 133.529 11.488 133.529 11.488H133.565C133.565 11.488 134.357 13.216 136.535 13.216C138.875 13.216 140.585 11.344 140.585 8.482C140.585 5.674 139.073 3.73 136.643 3.73C134.249 3.73 133.511 5.53 133.511 5.53H133.475C133.475 5.53 133.511 5.224 133.511 4.828V3.946H132.341V16.6ZM133.529 8.5C133.529 5.926 134.951 4.846 136.463 4.846C138.155 4.846 139.325 6.268 139.325 8.482C139.325 10.786 138.011 12.136 136.409 12.136C134.537 12.136 133.529 10.318 133.529 8.5ZM142.39 16.24C142.39 16.24 143.038 16.78 143.974 16.78C145.18 16.78 146.116 16.042 146.584 14.89L151.048 3.946H149.716L147.106 10.552C146.926 11.002 146.8 11.506 146.8 11.506H146.764C146.764 11.506 146.62 11.002 146.44 10.552L143.776 3.946H142.426L146.206 12.928L145.648 14.206C145.288 15.034 144.73 15.682 143.938 15.682C143.362 15.682 142.858 15.268 142.858 15.268L142.39 16.24Z" fill="#54585A"/>
</svg>
