<svg width="187" height="19" viewBox="0 0 187 19" fill="none" xmlns="http://www.w3.org/2000/svg">
<path d="M0.776 18H3.152L3.968 7.32C4.04 6.288 4.016 4.776 4.016 4.776H4.064C4.064 4.776 4.592 6.408 4.976 7.32L8.336 14.952H10.448L13.832 7.32C14.24 6.384 14.744 4.824 14.744 4.824H14.792C14.792 4.824 14.744 6.288 14.816 7.32L15.656 18H18.008L16.64 1.056H14.144L10.256 10.224C9.872 11.16 9.416 12.504 9.416 12.504H9.368C9.368 12.504 8.912 11.16 8.528 10.224L4.64 1.056H2.144L0.776 18ZM21.5731 11.928C21.5731 15.528 24.1891 18.288 28.0051 18.288C30.9091 18.288 32.7091 16.56 32.7091 16.56L31.7491 14.856C31.7491 14.856 30.2371 16.272 28.1491 16.272C25.9891 16.272 24.0931 14.928 23.9731 12.264H32.8291C32.8291 12.264 32.9011 11.568 32.9011 11.256C32.9011 8.112 31.0771 5.568 27.6451 5.568C24.1891 5.568 21.5731 8.064 21.5731 11.928ZM24.0451 10.512C24.3811 8.52 25.8211 7.416 27.5971 7.416C29.1571 7.416 30.4531 8.424 30.5251 10.512H24.0451ZM35.7336 11.928C35.7336 15.696 37.7976 18.288 41.0856 18.288C44.0856 18.288 45.0696 16.032 45.0696 16.032H45.1176C45.1176 16.032 45.0936 16.368 45.0936 16.848V18H47.3016V1.056H44.9736V6.672C44.9736 7.128 45.0216 7.488 45.0216 7.488H44.9736C44.9736 7.488 44.0376 5.568 41.2296 5.568C38.0136 5.568 35.7336 8.064 35.7336 11.928ZM38.1096 11.928C38.1096 9.168 39.6936 7.584 41.6136 7.584C43.9176 7.584 45.0456 9.744 45.0456 11.904C45.0456 15 43.3416 16.272 41.5416 16.272C39.5256 16.272 38.1096 14.568 38.1096 11.928ZM51.7156 3.432H54.0676V1.056H51.7156V3.432ZM51.7396 18H54.0676V5.856H51.7396V18ZM58.3482 13.632C58.3482 16.848 59.7642 18.288 62.5002 18.288C64.8762 18.288 66.4602 16.704 66.9642 15.504H67.0122C67.0122 15.504 66.9642 15.888 66.9642 16.392V18H69.2202V5.856H66.8922V11.544C66.8922 13.944 65.4282 16.128 62.9562 16.128C61.0122 16.128 60.6762 14.784 60.6762 13.104V5.856H58.3482V13.632ZM73.6599 18H75.9879V12.456C75.9879 11.904 76.0119 11.352 76.1319 10.872C76.5879 9.144 77.8359 7.68 79.6119 7.68C81.4839 7.68 81.7239 9.144 81.7239 10.728V18H84.0519V12.456C84.0519 11.832 84.0999 11.28 84.2199 10.776C84.6519 9.12 85.9239 7.68 87.6279 7.68C89.4519 7.68 89.7879 9.024 89.7879 10.728V18H92.1159V10.224C92.1159 7.128 90.8439 5.568 88.1079 5.568C86.1399 5.568 84.4599 6.864 83.7879 8.328H83.7399C83.3319 6.504 82.1319 5.568 80.0919 5.568C78.1959 5.568 76.4919 6.936 75.9159 8.352H75.8679C75.8679 8.352 75.9159 7.944 75.9159 7.464V5.856H73.6599V18ZM102.689 9.432C102.689 14.4 106.265 18.288 111.353 18.288C115.601 18.288 117.929 15.6 117.929 15.6L116.657 13.896C116.657 13.896 114.617 16.104 111.425 16.104C107.657 16.104 105.137 13.032 105.137 9.408C105.137 5.808 107.609 2.928 111.401 2.928C114.329 2.928 116.297 4.776 116.297 4.776L117.473 3C117.473 3 115.385 0.767999 111.305 0.767999C106.385 0.767999 102.689 4.512 102.689 9.432ZM120.498 14.592C120.498 17.016 122.538 18.288 124.626 18.288C127.53 18.288 128.514 15.888 128.514 15.888H128.562C128.562 15.888 128.514 16.296 128.514 16.848V18H130.674V10.32C130.674 7.248 128.946 5.568 125.874 5.568C123.09 5.568 121.338 7.008 121.338 7.008L122.298 8.712C122.298 8.712 123.81 7.536 125.682 7.536C127.218 7.536 128.346 8.208 128.346 10.2V10.416H127.818C125.778 10.416 120.498 10.584 120.498 14.592ZM122.85 14.472C122.85 12.288 126.018 12.168 127.77 12.168H128.37V12.552C128.37 14.352 127.098 16.416 125.13 16.416C123.618 16.416 122.85 15.456 122.85 14.472ZM134.817 14.688C134.817 17.736 136.761 18.096 138.081 18.096C138.489 18.096 138.849 18.048 138.849 18.048V15.984C138.849 15.984 138.657 16.008 138.441 16.008C137.721 16.008 137.145 15.744 137.145 14.28V1.056H134.817V14.688ZM141.969 14.688C141.969 17.736 143.913 18.096 145.233 18.096C145.641 18.096 146.001 18.048 146.001 18.048V15.984C146.001 15.984 145.809 16.008 145.593 16.008C144.873 16.008 144.297 15.744 144.297 14.28V1.056H141.969V14.688ZM148.377 11.904C148.377 15.6 151.305 18.288 154.929 18.288C158.553 18.288 161.481 15.6 161.481 11.904C161.481 8.232 158.553 5.568 154.929 5.568C151.305 5.568 148.377 8.232 148.377 11.904ZM150.753 11.904C150.753 9.384 152.649 7.584 154.929 7.584C157.233 7.584 159.105 9.384 159.105 11.904C159.105 14.448 157.233 16.272 154.929 16.272C152.649 16.272 150.753 14.448 150.753 11.904ZM164.873 13.632C164.873 16.848 166.289 18.288 169.025 18.288C171.401 18.288 172.985 16.704 173.489 15.504H173.537C173.537 15.504 173.489 15.888 173.489 16.392V18H175.745V5.856H173.417V11.544C173.417 13.944 171.953 16.128 169.481 16.128C167.537 16.128 167.201 14.784 167.201 13.104V5.856H164.873V13.632ZM180.689 13.56C180.689 17.616 183.785 18.096 185.345 18.096C185.825 18.096 186.161 18.048 186.161 18.048V15.984C186.161 15.984 185.945 16.032 185.609 16.032C184.721 16.032 183.017 15.72 183.017 13.296V7.896H185.945V6.024H183.017V2.52H180.761V6.024H179.105V7.896H180.689V13.56Z" fill="#54585A"/>
</svg>
