<svg width="167" height="14" viewBox="0 0 167 14" fill="none" xmlns="http://www.w3.org/2000/svg">
<path d="M0.344 11H6.322V9.796H1.73V6.618H5.272V5.414H1.73V2.32H6.084V1.116H0.344V11ZM8.88939 11H10.2474V7.766C10.2474 7.444 10.2614 7.122 10.3314 6.842C10.5974 5.834 11.3254 4.98 12.3614 4.98C13.4534 4.98 13.5934 5.834 13.5934 6.758V11H14.9514V7.766C14.9514 7.402 14.9794 7.08 15.0494 6.786C15.3014 5.82 16.0434 4.98 17.0374 4.98C18.1014 4.98 18.2974 5.764 18.2974 6.758V11H19.6554V6.464C19.6554 4.658 18.9134 3.748 17.3174 3.748C16.1694 3.748 15.1894 4.504 14.7974 5.358H14.7694C14.5314 4.294 13.8314 3.748 12.6414 3.748C11.5354 3.748 10.5414 4.546 10.2054 5.372H10.1774C10.1774 5.372 10.2054 5.134 10.2054 4.854V3.916H8.88939V11ZM22.4863 13.8H23.8443V10.622C23.8443 10.258 23.8163 10.006 23.8163 10.006H23.8443C23.8443 10.006 24.4603 11.168 26.0143 11.168C27.8623 11.168 29.2203 9.712 29.2203 7.458C29.2203 5.26 28.0163 3.748 26.1123 3.748C24.3343 3.748 23.7323 5.036 23.7323 5.036H23.7043C23.7043 5.036 23.7323 4.798 23.7323 4.518V3.916H22.4863V13.8ZM23.8023 7.486C23.8023 5.68 24.7823 4.938 25.8463 4.938C27.0223 4.938 27.8483 5.932 27.8483 7.472C27.8483 9.082 26.9243 10.006 25.8043 10.006C24.5023 10.006 23.8023 8.746 23.8023 7.486ZM31.6808 11H33.0388V7.682C33.0388 7.346 33.0668 7.024 33.1508 6.744C33.4448 5.722 34.3268 4.994 35.3908 4.994C36.5248 4.994 36.7348 5.778 36.7348 6.772V11H38.0928V6.464C38.0928 4.658 37.3228 3.748 35.6568 3.748C34.2428 3.748 33.3468 4.644 33.0388 5.33H33.0108C33.0108 5.33 33.0388 5.078 33.0388 4.742V1.116H31.6808V11ZM40.3423 9.012C40.3423 10.426 41.5323 11.168 42.7503 11.168C44.4443 11.168 45.0183 9.768 45.0183 9.768H45.0463C45.0463 9.768 45.0183 10.006 45.0183 10.328V11H46.2783V6.52C46.2783 4.728 45.2703 3.748 43.4783 3.748C41.8543 3.748 40.8323 4.588 40.8323 4.588L41.3923 5.582C41.3923 5.582 42.2743 4.896 43.3663 4.896C44.2623 4.896 44.9203 5.288 44.9203 6.45V6.576H44.6123C43.4223 6.576 40.3423 6.674 40.3423 9.012ZM41.7143 8.942C41.7143 7.668 43.5623 7.598 44.5843 7.598H44.9343V7.822C44.9343 8.872 44.1923 10.076 43.0443 10.076C42.1623 10.076 41.7143 9.516 41.7143 8.942ZM48.5388 10.132C48.5388 10.132 49.4908 11.168 51.2268 11.168C52.7808 11.168 53.7888 10.286 53.7888 9.11C53.7888 6.786 50.1488 7.066 50.1488 5.792C50.1488 5.176 50.7228 4.924 51.3108 4.924C52.4308 4.924 53.0608 5.554 53.0608 5.554L53.6068 4.532C53.6068 4.532 52.8788 3.748 51.3248 3.748C49.9108 3.748 48.7628 4.476 48.7628 5.764C48.7628 8.074 52.4028 7.808 52.4028 9.11C52.4028 9.684 51.8148 9.992 51.2268 9.992C49.9948 9.992 49.1968 9.166 49.1968 9.166L48.5388 10.132ZM56.1742 2.502H57.5462V1.116H56.1742V2.502ZM56.1882 11H57.5462V3.916H56.1882V11ZM59.9565 11H66.0745V9.838H62.4765C62.0145 9.838 61.7765 9.866 61.7765 9.866V9.838C61.7765 9.838 62.0845 9.558 62.3785 9.194L65.9485 4.7V3.916H60.1105V5.078H63.4285C63.8905 5.078 64.1145 5.05 64.1145 5.05V5.078C64.1145 5.078 63.8345 5.358 63.5265 5.736L59.9565 10.216V11ZM67.9623 7.458C67.9623 9.558 69.4883 11.168 71.7143 11.168C73.4083 11.168 74.4583 10.16 74.4583 10.16L73.8983 9.166C73.8983 9.166 73.0163 9.992 71.7983 9.992C70.5383 9.992 69.4323 9.208 69.3623 7.654H74.5283C74.5283 7.654 74.5703 7.248 74.5703 7.066C74.5703 5.232 73.5063 3.748 71.5043 3.748C69.4883 3.748 67.9623 5.204 67.9623 7.458ZM69.4043 6.632C69.6003 5.47 70.4403 4.826 71.4763 4.826C72.3863 4.826 73.1423 5.414 73.1843 6.632H69.4043ZM76.5559 7.458C76.5559 9.656 77.7599 11.168 79.6779 11.168C81.4279 11.168 82.0019 9.852 82.0019 9.852H82.0299C82.0299 9.852 82.0159 10.048 82.0159 10.328V11H83.3039V1.116H81.9459V4.392C81.9459 4.658 81.9739 4.868 81.9739 4.868H81.9459C81.9459 4.868 81.3999 3.748 79.7619 3.748C77.8859 3.748 76.5559 5.204 76.5559 7.458ZM77.9419 7.458C77.9419 5.848 78.8659 4.924 79.9859 4.924C81.3299 4.924 81.9879 6.184 81.9879 7.444C81.9879 9.25 80.9939 9.992 79.9439 9.992C78.7679 9.992 77.9419 8.998 77.9419 7.458ZM90.9018 11H94.4438C96.1798 11 97.6218 10.048 97.6218 8.186C97.6218 7.08 97.0338 6.1 95.9978 5.792V5.764C96.7538 5.372 97.2298 4.602 97.2298 3.636C97.2298 2.04 96.0258 1.116 94.3598 1.116H90.9018V11ZM92.2878 5.274V2.32H94.3318C95.2838 2.32 95.8158 2.908 95.8158 3.776C95.8158 4.644 95.2558 5.274 94.3598 5.274H92.2878ZM92.2878 9.796V6.422H94.4998C95.5358 6.422 96.2078 7.108 96.2078 8.116C96.2078 9.124 95.5778 9.796 94.5138 9.796H92.2878ZM99.7769 7.444C99.7769 9.6 101.485 11.168 103.599 11.168C105.713 11.168 107.421 9.6 107.421 7.444C107.421 5.302 105.713 3.748 103.599 3.748C101.485 3.748 99.7769 5.302 99.7769 7.444ZM101.163 7.444C101.163 5.974 102.269 4.924 103.599 4.924C104.943 4.924 106.035 5.974 106.035 7.444C106.035 8.928 104.943 9.992 103.599 9.992C102.269 9.992 101.163 8.928 101.163 7.444ZM109.369 7.458C109.369 9.656 110.573 11.168 112.491 11.168C114.241 11.168 114.815 9.852 114.815 9.852H114.843C114.843 9.852 114.829 10.048 114.829 10.328V11H116.117V1.116H114.759V4.392C114.759 4.658 114.787 4.868 114.787 4.868H114.759C114.759 4.868 114.213 3.748 112.575 3.748C110.699 3.748 109.369 5.204 109.369 7.458ZM110.755 7.458C110.755 5.848 111.679 4.924 112.799 4.924C114.143 4.924 114.801 6.184 114.801 7.444C114.801 9.25 113.807 9.992 112.757 9.992C111.581 9.992 110.755 8.998 110.755 7.458ZM118.045 13.506C118.045 13.506 118.619 13.94 119.417 13.94C120.411 13.94 121.279 13.366 121.713 12.274L125.031 3.916H123.561L121.839 8.564C121.713 8.928 121.601 9.404 121.601 9.404H121.573C121.573 9.404 121.447 8.914 121.307 8.55L119.529 3.916H118.003L120.971 10.916L120.621 11.728C120.355 12.372 119.893 12.764 119.347 12.764C118.913 12.764 118.521 12.47 118.521 12.47L118.045 13.506ZM130.98 6.002C130.98 8.9 133.066 11.168 136.034 11.168C138.512 11.168 139.87 9.6 139.87 9.6L139.128 8.606C139.128 8.606 137.938 9.894 136.076 9.894C133.878 9.894 132.408 8.102 132.408 5.988C132.408 3.888 133.85 2.208 136.062 2.208C137.77 2.208 138.918 3.286 138.918 3.286L139.604 2.25C139.604 2.25 138.386 0.947999 136.006 0.947999C133.136 0.947999 130.98 3.132 130.98 6.002ZM141.757 7.444C141.757 9.6 143.465 11.168 145.579 11.168C147.693 11.168 149.401 9.6 149.401 7.444C149.401 5.302 147.693 3.748 145.579 3.748C143.465 3.748 141.757 5.302 141.757 7.444ZM143.143 7.444C143.143 5.974 144.249 4.924 145.579 4.924C146.923 4.924 148.015 5.974 148.015 7.444C148.015 8.928 146.923 9.992 145.579 9.992C144.249 9.992 143.143 8.928 143.143 7.444ZM151.812 13.8H153.17V10.622C153.17 10.258 153.142 10.006 153.142 10.006H153.17C153.17 10.006 153.786 11.168 155.34 11.168C157.188 11.168 158.546 9.712 158.546 7.458C158.546 5.26 157.342 3.748 155.438 3.748C153.66 3.748 153.058 5.036 153.058 5.036H153.03C153.03 5.036 153.058 4.798 153.058 4.518V3.916H151.812V13.8ZM153.128 7.486C153.128 5.68 154.108 4.938 155.172 4.938C156.348 4.938 157.174 5.932 157.174 7.472C157.174 9.082 156.25 10.006 155.13 10.006C153.828 10.006 153.128 8.746 153.128 7.486ZM160.012 13.506C160.012 13.506 160.586 13.94 161.384 13.94C162.378 13.94 163.246 13.366 163.68 12.274L166.998 3.916H165.528L163.806 8.564C163.68 8.928 163.568 9.404 163.568 9.404H163.54C163.54 9.404 163.414 8.914 163.274 8.55L161.496 3.916H159.97L162.938 10.916L162.588 11.728C162.322 12.372 161.86 12.764 161.314 12.764C160.88 12.764 160.488 12.47 160.488 12.47L160.012 13.506Z" fill="#54585A"/>
</svg>
